<?xml version="1.0" encoding="utf-8"?>
<!-- Generator: Adobe Illustrator 16.0.0, SVG Export Plug-In . SVG Version: 6.00 Build 0)  -->
<!DOCTYPE svg PUBLIC "-//W3C//DTD SVG 1.1//EN" "http://www.w3.org/Graphics/SVG/1.1/DTD/svg11.dtd">
<svg version="1.1" id="Layer_1" xmlns="http://www.w3.org/2000/svg" xmlns:xlink="http://www.w3.org/1999/xlink" x="0px" y="0px"
	 width="100px" height="100px" viewBox="0 0 100 100" style="enable-background:new 0 0 100 100;" xml:space="preserve">
<g>
	<defs>
		<rect id="SVGID_1_" width="100" height="100"/>
	</defs>
	<clipPath id="SVGID_2_">
		<use xlink:href="#SVGID_1_"  style="overflow:visible;"/>
	</clipPath>
	<path style="clip-path:url(#SVGID_2_);fill:#046A3A;" d="M78.398,48.355c0.237-0.066,0.32-0.307,0.288-0.54
		c-0.059-0.425,0.017-0.86,0.196-1.242c0.236-0.504-0.477-0.949-0.715-0.443c-0.287,0.613-0.372,1.243-0.278,1.917
		C77.922,48.285,78.201,48.41,78.398,48.355"/>
	<path style="clip-path:url(#SVGID_2_);fill:#046A3A;" d="M75.966,47.813c-0.101-0.514-0.048-1.04,0.161-1.517
		c0.223-0.509-0.489-0.955-0.714-0.443c-0.309,0.704-0.394,1.432-0.245,2.193C75.275,48.6,76.073,48.366,75.966,47.813"/>
	<path style="clip-path:url(#SVGID_2_);fill:#046A3A;" d="M73.453,48.046c0.134-0.711,0.094-1.427-0.16-2.103
		c-0.194-0.519-0.994-0.292-0.797,0.233c0.198,0.53,0.266,1.075,0.16,1.637C72.553,48.365,73.35,48.601,73.453,48.046"/>
	<path style="clip-path:url(#SVGID_2_);fill:#046A3A;" d="M70.013,48.197v-1.842c0-0.564-0.826-0.565-0.826,0v1.842
		C69.187,48.762,70.013,48.763,70.013,48.197"/>
	<path style="clip-path:url(#SVGID_2_);fill:#046A3A;" d="M67.285,47.67v-1.579c0-0.565-0.827-0.566-0.827,0v1.579
		C66.458,48.235,67.285,48.236,67.285,47.67"/>
	<path style="clip-path:url(#SVGID_2_);fill:#046A3A;" d="M63.769,47.275l0.249-1.053c0.129-0.548-0.668-0.782-0.798-0.233
		c-0.083,0.351-0.166,0.702-0.249,1.053C62.842,47.589,63.639,47.823,63.769,47.275"/>
	<path style="clip-path:url(#SVGID_2_);fill:#046A3A;" d="M60.547,47.52c0.438-0.346,0.702-0.841,0.707-1.428
		c0.006-0.565-0.821-0.565-0.826,0c-0.003,0.253-0.102,0.515-0.299,0.67c-0.179,0.141-0.27,0.38-0.148,0.601
		C60.084,47.549,60.366,47.662,60.547,47.52"/>
	<path style="clip-path:url(#SVGID_2_);fill:#046A3A;" d="M57.758,47.912c0.311-0.703,0.394-1.436,0.233-2.195
		c-0.116-0.55-0.914-0.317-0.798,0.233c0.109,0.515,0.063,1.04-0.149,1.519C56.819,47.977,57.531,48.423,57.758,47.912"/>
	<path style="clip-path:url(#SVGID_2_);fill:#046A3A;" d="M54.827,47.531c0.084-0.526,0.168-1.052,0.252-1.579
		c0.088-0.552-0.708-0.79-0.798-0.233c-0.084,0.526-0.168,1.053-0.252,1.579C53.941,47.851,54.738,48.088,54.827,47.531"/>
	<path style="clip-path:url(#SVGID_2_);fill:#046A3A;" d="M78.169,53.347c0.202-0.059,0.366-0.316,0.288-0.54
		c-0.077-0.223-0.068-0.459,0.087-0.645c0.353-0.42-0.23-1.043-0.585-0.62c-0.342,0.407-0.479,0.977-0.299,1.498
		C77.737,53.263,77.94,53.413,78.169,53.347"/>
	<path style="clip-path:url(#SVGID_2_);fill:#046A3A;" d="M75.444,53.839c0.119-0.764,0.031-1.478-0.269-2.184
		c-0.219-0.514-0.932-0.068-0.714,0.443c0.2,0.471,0.265,0.997,0.186,1.507C74.561,54.158,75.357,54.396,75.444,53.839"/>
	<path style="clip-path:url(#SVGID_2_);fill:#046A3A;" d="M72.245,53.198v-1.316c0-0.564-0.826-0.565-0.826,0v1.316
		C71.419,53.763,72.245,53.764,72.245,53.198"/>
	<path style="clip-path:url(#SVGID_2_);fill:#046A3A;" d="M69.27,52.935v-1.579c0-0.564-0.827-0.565-0.827,0v1.579
		C68.442,53.5,69.27,53.5,69.27,52.935"/>
	<path style="clip-path:url(#SVGID_2_);fill:#046A3A;" d="M67.213,53.252c-0.193-0.301-0.261-0.629-0.172-0.984
		c0.137-0.546-0.661-0.779-0.797-0.232c-0.142,0.567-0.059,1.172,0.255,1.66C66.796,54.159,67.513,53.721,67.213,53.252"/>
	<path style="clip-path:url(#SVGID_2_);fill:#046A3A;" d="M64.193,53.311c0.135-0.711,0.094-1.427-0.161-2.103
		c-0.195-0.519-0.995-0.292-0.797,0.233c0.199,0.529,0.267,1.074,0.161,1.636C63.293,53.629,64.09,53.865,64.193,53.311"/>
	<path style="clip-path:url(#SVGID_2_);fill:#046A3A;" d="M60.965,53.308c0.154-0.569,0.076-1.178-0.225-1.678
		c-0.286-0.475-1.002-0.035-0.714,0.442c0.188,0.312,0.237,0.646,0.141,1.002C60.02,53.617,60.817,53.85,60.965,53.308"/>
	<path style="clip-path:url(#SVGID_2_);fill:#046A3A;" d="M57.782,54.131c-0.103-0.698-0.206-1.396-0.31-2.096
		c-0.082-0.556-0.879-0.319-0.797,0.233c0.104,0.699,0.206,1.397,0.31,2.096C57.067,54.921,57.864,54.685,57.782,54.131"/>
	<path style="clip-path:url(#SVGID_2_);fill:#046A3A;" d="M54.086,54.127c-0.104-0.698-0.209-1.396-0.313-2.095
		c-0.083-0.556-0.88-0.32-0.797,0.233c0.104,0.698,0.209,1.396,0.313,2.095C53.372,54.916,54.169,54.68,54.086,54.127"/>
	<path style="clip-path:url(#SVGID_2_);fill:#046A3A;" d="M51.209,47.503v-1.872c0-0.564-0.826-0.565-0.826,0v1.872
		C50.383,48.067,51.209,48.068,51.209,47.503"/>
	<path style="clip-path:url(#SVGID_2_);fill:#046A3A;" d="M48.235,47.503c0.014-0.481-0.063-0.958-0.238-1.403
		c-0.086-0.218-0.274-0.375-0.508-0.306c-0.194,0.057-0.375,0.32-0.289,0.54c0.149,0.38,0.221,0.759,0.209,1.17
		C47.392,48.068,48.219,48.067,48.235,47.503"/>
	<path style="clip-path:url(#SVGID_2_);fill:#046A3A;" d="M44.584,47.621c0.118-0.54,0.162-1.086,0.118-1.638
		c-0.044-0.559-0.871-0.563-0.827,0c0.038,0.476,0.013,0.939-0.088,1.405C43.667,47.937,44.464,48.171,44.584,47.621"/>
	<path style="clip-path:url(#SVGID_2_);fill:#046A3A;" d="M41.507,47.04c0.136-0.423,0.152-0.852,0.091-1.291
		c-0.033-0.235-0.313-0.364-0.509-0.307c-0.237,0.069-0.322,0.304-0.289,0.54c0.039,0.281-0.006,0.558-0.091,0.824
		c-0.072,0.224,0.083,0.479,0.289,0.54C41.225,47.412,41.435,47.265,41.507,47.04"/>
	<path style="clip-path:url(#SVGID_2_);fill:#046A3A;" d="M38.296,48.087c0.112-0.58,0.158-1.163,0.125-1.754
		c-0.032-0.561-0.858-0.565-0.827,0c0.028,0.513,0.001,1.017-0.096,1.521C37.393,48.405,38.189,48.642,38.296,48.087"/>
	<path style="clip-path:url(#SVGID_2_);fill:#046A3A;" d="M35.272,47.956c0.196-0.491,0.247-1.006,0.081-1.519
		c-0.172-0.531-0.971-0.303-0.797,0.233c0.089,0.273,0.112,0.57,0.003,0.842c-0.087,0.218-0.062,0.47,0.148,0.601
		C34.88,48.221,35.185,48.175,35.272,47.956"/>
	<path style="clip-path:url(#SVGID_2_);fill:#046A3A;" d="M32.138,47.624c0.078-0.311,0.156-0.622,0.235-0.932
		c0.137-0.546-0.66-0.779-0.797-0.233c-0.078,0.311-0.157,0.622-0.235,0.932C31.203,47.937,32,48.17,32.138,47.624"/>
	<path style="clip-path:url(#SVGID_2_);fill:#046A3A;" d="M29.602,47.503V46.45c0-0.564-0.827-0.566-0.827,0v1.053
		C28.775,48.067,29.602,48.068,29.602,47.503"/>
	<path style="clip-path:url(#SVGID_2_);fill:#046A3A;" d="M27.279,47.619c0.056-0.474,0.021-0.947-0.087-1.411
		c-0.128-0.548-0.926-0.316-0.798,0.233c0.091,0.391,0.105,0.778,0.058,1.177c-0.028,0.236,0.21,0.439,0.414,0.439
		C27.112,48.058,27.251,47.855,27.279,47.619"/>
	<path style="clip-path:url(#SVGID_2_);fill:#046A3A;" d="M51.205,53.263c0.141-0.378,0.156-0.774,0.094-1.173
		c-0.036-0.233-0.31-0.364-0.509-0.307c-0.233,0.068-0.325,0.306-0.288,0.54c0.038,0.243-0.011,0.48-0.095,0.706
		c-0.082,0.221,0.09,0.482,0.289,0.54C50.931,53.638,51.122,53.484,51.205,53.263"/>
	<path style="clip-path:url(#SVGID_2_);fill:#046A3A;" d="M48.012,53.376v-1.287c0-0.564-0.827-0.565-0.827,0v1.287
		C47.186,53.94,48.012,53.941,48.012,53.376"/>
	<path style="clip-path:url(#SVGID_2_);fill:#046A3A;" d="M45.304,53.381c0.037-0.355,0.073-0.71,0.11-1.065
		c0.024-0.236-0.208-0.438-0.414-0.438c-0.244,0-0.389,0.202-0.413,0.438c-0.037,0.355-0.073,0.71-0.11,1.065
		c-0.024,0.236,0.208,0.439,0.414,0.439C45.134,53.82,45.28,53.617,45.304,53.381"/>
	<path style="clip-path:url(#SVGID_2_);fill:#046A3A;" d="M41.517,53.616c0.117-0.462,0.153-0.936,0.093-1.409
		c-0.03-0.234-0.169-0.438-0.414-0.438c-0.2,0-0.443,0.202-0.413,0.438c0.05,0.4,0.035,0.785-0.063,1.176
		C40.582,53.93,41.379,54.162,41.517,53.616"/>
	<path style="clip-path:url(#SVGID_2_);fill:#046A3A;" d="M38.228,53.564c0.214-0.063,0.35-0.311,0.289-0.539
		c-0.073-0.273-0.147-0.547-0.22-0.819c-0.062-0.228-0.292-0.37-0.509-0.307c-0.214,0.063-0.35,0.312-0.289,0.54
		c0.073,0.272,0.147,0.546,0.221,0.818C37.781,53.486,38.011,53.628,38.228,53.564"/>
	<path style="clip-path:url(#SVGID_2_);fill:#046A3A;" d="M35.224,53.727v-0.936c0-0.564-0.827-0.566-0.827,0v0.936
		C34.397,54.291,35.224,54.292,35.224,53.727"/>
	<path style="clip-path:url(#SVGID_2_);fill:#046A3A;" d="M31.897,53.958c0.184-0.523,0.264-1.077,0.243-1.636
		c-0.021-0.563-0.848-0.565-0.827,0c0.019,0.488-0.053,0.944-0.213,1.402C30.914,54.255,31.713,54.483,31.897,53.958"/>
	<path style="clip-path:url(#SVGID_2_);fill:#046A3A;" d="M28.978,53.797c0.238-0.069,0.32-0.304,0.289-0.54
		c-0.042-0.316-0.014-0.638,0.061-0.946c0.132-0.547-0.665-0.78-0.797-0.232c-0.114,0.471-0.125,0.933-0.061,1.412
		C28.5,53.726,28.782,53.854,28.978,53.797"/>
	<path style="clip-path:url(#SVGID_2_);fill:#046A3A;" d="M26.857,53.258c-0.037-0.43-0.074-0.858-0.111-1.287
		c-0.021-0.236-0.175-0.438-0.414-0.438c-0.208,0-0.434,0.201-0.413,0.438c0.037,0.429,0.074,0.857,0.111,1.287
		c0.02,0.235,0.175,0.438,0.413,0.438C26.652,53.696,26.878,53.495,26.857,53.258"/>
	<path style="clip-path:url(#SVGID_2_);fill:#046A3A;" d="M78.748,14.009c-0.023-0.555-0.113-1.099-0.281-1.625
		c-0.17-0.532-0.969-0.303-0.798,0.233c0.146,0.454,0.232,0.913,0.253,1.392C77.945,14.572,78.771,14.575,78.748,14.009"/>
	<path style="clip-path:url(#SVGID_2_);fill:#046A3A;" d="M75.532,14.129c0.123-0.54,0.164-1.087,0.107-1.639
		c-0.024-0.238-0.173-0.437-0.413-0.439c-0.205-0.002-0.438,0.204-0.414,0.439c0.05,0.476,0.029,0.939-0.077,1.406
		C74.609,14.444,75.406,14.679,75.532,14.129"/>
	<path style="clip-path:url(#SVGID_2_);fill:#046A3A;" d="M72.348,14.133c0.116-0.461,0.152-0.935,0.094-1.409
		c-0.028-0.235-0.169-0.438-0.413-0.438c-0.201,0-0.442,0.202-0.413,0.438c0.049,0.4,0.033,0.786-0.064,1.176
		C71.414,14.446,72.212,14.68,72.348,14.133"/>
	<path style="clip-path:url(#SVGID_2_);fill:#046A3A;" d="M68.966,14.016c0.058-0.509,0.116-1.018,0.174-1.527
		c0.027-0.237-0.209-0.436-0.413-0.438c-0.246-0.003-0.387,0.205-0.413,0.438c-0.059,0.509-0.116,1.018-0.175,1.527
		c-0.026,0.237,0.21,0.437,0.414,0.438C68.798,14.457,68.939,14.25,68.966,14.016"/>
	<path style="clip-path:url(#SVGID_2_);fill:#046A3A;" d="M65.726,14.244v-1.521c0-0.565-0.827-0.566-0.827,0v1.521
		C64.898,14.809,65.726,14.81,65.726,14.244"/>
	<path style="clip-path:url(#SVGID_2_);fill:#046A3A;" d="M63.521,13.776V12.84c0-0.564-0.826-0.565-0.826,0v0.936
		C62.694,14.34,63.521,14.341,63.521,13.776"/>
	<path style="clip-path:url(#SVGID_2_);fill:#046A3A;" d="M60.256,14.691c0.289-0.483,0.361-1.083,0.191-1.627
		c-0.168-0.533-0.967-0.305-0.798,0.233c0.105,0.336,0.072,0.651-0.107,0.951C59.255,14.726,59.971,15.167,60.256,14.691"/>
	<path style="clip-path:url(#SVGID_2_);fill:#046A3A;" d="M57.678,14.595c-0.022-0.398,0.006-0.783,0.096-1.17
		c0.128-0.548-0.67-0.782-0.797-0.233c-0.107,0.46-0.152,0.931-0.125,1.403C56.884,15.156,57.711,15.16,57.678,14.595"/>
	<path style="clip-path:url(#SVGID_2_);fill:#046A3A;" d="M54.488,14.706c-0.12-0.503-0.137-1.009-0.038-1.519
		c0.106-0.551-0.69-0.787-0.797-0.233c-0.129,0.666-0.12,1.326,0.038,1.985C53.822,15.486,54.62,15.254,54.488,14.706"/>
	<path style="clip-path:url(#SVGID_2_);fill:#046A3A;" d="M26.803,16.99c-0.237,0.067-0.321,0.307-0.289,0.54
		c0.059,0.424-0.016,0.859-0.196,1.242c-0.236,0.504,0.477,0.949,0.714,0.443c0.288-0.613,0.373-1.243,0.279-1.918
		C27.279,17.061,27,16.936,26.803,16.99"/>
	<path style="clip-path:url(#SVGID_2_);fill:#046A3A;" d="M29.235,17.532c0.101,0.514,0.048,1.04-0.161,1.517
		c-0.223,0.509,0.489,0.955,0.714,0.443c0.308-0.704,0.393-1.432,0.245-2.193C29.925,16.747,29.128,16.98,29.235,17.532"/>
	<path style="clip-path:url(#SVGID_2_);fill:#046A3A;" d="M31.748,17.3c-0.134,0.711-0.093,1.427,0.161,2.103
		c0.194,0.519,0.994,0.292,0.797-0.233c-0.199-0.53-0.267-1.074-0.161-1.637C32.648,16.981,31.852,16.746,31.748,17.3"/>
	<path style="clip-path:url(#SVGID_2_);fill:#046A3A;" d="M35.188,17.149v1.843c0,0.564,0.827,0.565,0.827,0v-1.843
		C36.015,16.584,35.188,16.583,35.188,17.149"/>
	<path style="clip-path:url(#SVGID_2_);fill:#046A3A;" d="M37.916,17.675v1.58c0,0.564,0.827,0.565,0.827,0v-1.58
		C38.743,17.111,37.916,17.11,37.916,17.675"/>
	<path style="clip-path:url(#SVGID_2_);fill:#046A3A;" d="M41.433,18.071l-0.249,1.053c-0.13,0.548,0.667,0.782,0.797,0.233
		c0.083-0.351,0.166-0.702,0.249-1.053C42.359,17.756,41.563,17.522,41.433,18.071"/>
	<path style="clip-path:url(#SVGID_2_);fill:#046A3A;" d="M44.655,17.826c-0.438,0.346-0.703,0.842-0.708,1.429
		c-0.005,0.564,0.821,0.565,0.827,0c0.002-0.253,0.102-0.515,0.298-0.671c0.179-0.141,0.27-0.379,0.148-0.6
		C45.117,17.797,44.835,17.684,44.655,17.826"/>
	<path style="clip-path:url(#SVGID_2_);fill:#046A3A;" d="M47.443,17.435c-0.311,0.702-0.394,1.436-0.233,2.195
		c0.117,0.551,0.914,0.318,0.797-0.233c-0.109-0.515-0.062-1.04,0.15-1.519C48.382,17.369,47.669,16.923,47.443,17.435"/>
	<path style="clip-path:url(#SVGID_2_);fill:#046A3A;" d="M50.374,17.814c-0.084,0.526-0.168,1.053-0.252,1.579
		c-0.088,0.552,0.708,0.79,0.797,0.233c0.085-0.526,0.169-1.052,0.253-1.579C51.26,17.496,50.463,17.258,50.374,17.814"/>
	<path style="clip-path:url(#SVGID_2_);fill:#046A3A;" d="M53.992,17.843v1.872c0,0.564,0.826,0.565,0.826,0v-1.872
		C54.818,17.278,53.992,17.277,53.992,17.843"/>
	<path style="clip-path:url(#SVGID_2_);fill:#046A3A;" d="M56.966,17.843c-0.014,0.481,0.063,0.958,0.238,1.403
		c0.086,0.219,0.274,0.375,0.509,0.307c0.194-0.057,0.375-0.32,0.289-0.54c-0.149-0.38-0.221-0.758-0.209-1.17
		C57.81,17.278,56.982,17.278,56.966,17.843"/>
	<path style="clip-path:url(#SVGID_2_);fill:#046A3A;" d="M60.617,17.725c-0.118,0.54-0.162,1.086-0.118,1.639
		c0.044,0.559,0.871,0.563,0.826,0c-0.037-0.476-0.013-0.94,0.089-1.405C61.534,17.409,60.737,17.174,60.617,17.725"/>
	<path style="clip-path:url(#SVGID_2_);fill:#046A3A;" d="M63.694,18.306c-0.137,0.423-0.152,0.851-0.091,1.291
		c0.032,0.234,0.312,0.363,0.508,0.306c0.237-0.069,0.322-0.304,0.289-0.54c-0.039-0.281,0.006-0.559,0.091-0.824
		c0.072-0.224-0.083-0.479-0.288-0.54C63.977,17.934,63.767,18.081,63.694,18.306"/>
	<path style="clip-path:url(#SVGID_2_);fill:#046A3A;" d="M66.904,17.258c-0.111,0.58-0.158,1.164-0.125,1.754
		c0.032,0.562,0.859,0.565,0.827,0c-0.028-0.513-0.002-1.017,0.096-1.521C67.809,16.94,67.012,16.705,66.904,17.258"/>
	<path style="clip-path:url(#SVGID_2_);fill:#046A3A;" d="M69.929,17.39c-0.196,0.491-0.247,1.006-0.081,1.519
		c0.173,0.531,0.972,0.303,0.798-0.233c-0.089-0.272-0.112-0.57-0.003-0.842c0.087-0.218,0.062-0.47-0.148-0.6
		C70.32,17.125,70.017,17.171,69.929,17.39"/>
	<path style="clip-path:url(#SVGID_2_);fill:#046A3A;" d="M73.063,17.722c-0.078,0.311-0.156,0.621-0.235,0.932
		c-0.137,0.546,0.66,0.779,0.798,0.233c0.078-0.311,0.156-0.621,0.234-0.932C73.998,17.409,73.201,17.176,73.063,17.722"/>
	<path style="clip-path:url(#SVGID_2_);fill:#046A3A;" d="M75.599,17.843v1.053c0,0.564,0.827,0.565,0.827,0v-1.053
		C76.426,17.278,75.599,17.277,75.599,17.843"/>
	<path style="clip-path:url(#SVGID_2_);fill:#046A3A;" d="M77.867,17.727c-0.06,0.475-0.022,0.947,0.092,1.411
		c0.136,0.548,0.982,0.316,0.847-0.233c-0.097-0.391-0.111-0.779-0.062-1.178c0.029-0.235-0.223-0.439-0.438-0.439
		C78.044,17.288,77.896,17.491,77.867,17.727"/>
	<path style="clip-path:url(#SVGID_2_);fill:#046A3A;" d="M51.21,14.362v-1.404c0-0.564-0.827-0.566-0.827,0v1.404
		C50.383,14.926,51.21,14.927,51.21,14.362"/>
	<path style="clip-path:url(#SVGID_2_);fill:#046A3A;" d="M48.343,14.245v-0.936c0-0.564-0.827-0.565-0.827,0v0.936
		C47.517,14.81,48.343,14.811,48.343,14.245"/>
	<path style="clip-path:url(#SVGID_2_);fill:#046A3A;" d="M45.036,14.713v-1.17c0-0.564-0.827-0.565-0.827,0v1.17
		C44.209,15.277,45.036,15.278,45.036,14.713"/>
	<path style="clip-path:url(#SVGID_2_);fill:#046A3A;" d="M41.187,14.72c0.116-0.462,0.153-0.936,0.093-1.41
		c-0.029-0.235-0.168-0.438-0.413-0.438c-0.201,0-0.443,0.202-0.414,0.438c0.05,0.401,0.035,0.786-0.063,1.176
		C40.251,15.032,41.049,15.265,41.187,14.72"/>
	<path style="clip-path:url(#SVGID_2_);fill:#046A3A;" d="M38.202,14.369c0.141-0.378,0.156-0.778,0.088-1.175
		c-0.04-0.233-0.307-0.365-0.508-0.306c-0.231,0.067-0.329,0.306-0.289,0.54c0.042,0.245-0.003,0.48-0.088,0.708
		c-0.083,0.22,0.09,0.482,0.289,0.54C37.929,14.743,38.12,14.59,38.202,14.369"/>
	<path style="clip-path:url(#SVGID_2_);fill:#046A3A;" d="M34.949,14.479V13.66c0-0.564-0.827-0.565-0.827,0v0.819
		C34.122,15.043,34.949,15.044,34.949,14.479"/>
	<path style="clip-path:url(#SVGID_2_);fill:#046A3A;" d="M32.248,14.128v-0.936c0-0.564-0.827-0.565-0.827,0v0.936
		C31.421,14.692,32.248,14.693,32.248,14.128"/>
	<path style="clip-path:url(#SVGID_2_);fill:#046A3A;" d="M29.27,14.361c0.037-0.351,0.074-0.702,0.111-1.053
		c0.025-0.236-0.208-0.438-0.414-0.438c-0.244,0-0.388,0.202-0.413,0.438c-0.037,0.351-0.074,0.702-0.111,1.053
		c-0.025,0.236,0.208,0.439,0.414,0.439C29.101,14.8,29.245,14.598,29.27,14.361"/>
	<path style="clip-path:url(#SVGID_2_);fill:#046A3A;" d="M26.653,14.434c0.237-0.069,0.32-0.304,0.289-0.54
		c-0.037-0.273-0.074-0.546-0.11-0.819c-0.032-0.235-0.313-0.363-0.508-0.307c-0.238,0.069-0.321,0.305-0.289,0.54
		c0.037,0.273,0.074,0.546,0.11,0.819C26.176,14.362,26.458,14.491,26.653,14.434"/>
	<path style="clip-path:url(#SVGID_2_);fill:#046A3A;" d="M78.748,80.112c-0.023-0.556-0.113-1.099-0.281-1.625
		c-0.17-0.532-0.969-0.304-0.798,0.233c0.146,0.454,0.232,0.912,0.253,1.392C77.945,80.675,78.771,80.678,78.748,80.112"/>
	<path style="clip-path:url(#SVGID_2_);fill:#046A3A;" d="M75.532,80.232c0.123-0.54,0.164-1.088,0.107-1.64
		c-0.024-0.237-0.173-0.437-0.413-0.438c-0.205-0.003-0.438,0.203-0.414,0.438c0.05,0.477,0.029,0.939-0.077,1.406
		C74.609,80.547,75.406,80.781,75.532,80.232"/>
	<path style="clip-path:url(#SVGID_2_);fill:#046A3A;" d="M72.348,80.236c0.116-0.462,0.152-0.936,0.094-1.409
		c-0.028-0.235-0.169-0.438-0.413-0.438c-0.201,0-0.442,0.202-0.413,0.438c0.049,0.4,0.033,0.785-0.064,1.176
		C71.414,80.549,72.212,80.782,72.348,80.236"/>
	<path style="clip-path:url(#SVGID_2_);fill:#046A3A;" d="M68.966,80.118c0.058-0.509,0.116-1.018,0.174-1.526
		c0.027-0.238-0.209-0.438-0.413-0.439c-0.246-0.003-0.387,0.205-0.413,0.439c-0.059,0.509-0.116,1.018-0.175,1.526
		c-0.026,0.237,0.21,0.437,0.414,0.438C68.798,80.56,68.939,80.353,68.966,80.118"/>
	<path style="clip-path:url(#SVGID_2_);fill:#046A3A;" d="M65.726,80.347v-1.521c0-0.565-0.827-0.566-0.827,0v1.521
		C64.898,80.911,65.726,80.912,65.726,80.347"/>
	<path style="clip-path:url(#SVGID_2_);fill:#046A3A;" d="M63.521,79.879v-0.937c0-0.564-0.826-0.565-0.826,0v0.937
		C62.694,80.443,63.521,80.444,63.521,79.879"/>
	<path style="clip-path:url(#SVGID_2_);fill:#046A3A;" d="M60.256,80.794c0.289-0.483,0.361-1.084,0.191-1.628
		c-0.168-0.533-0.967-0.305-0.798,0.233c0.105,0.337,0.072,0.651-0.107,0.951C59.255,80.828,59.971,81.27,60.256,80.794"/>
	<path style="clip-path:url(#SVGID_2_);fill:#046A3A;" d="M57.678,80.697c-0.022-0.398,0.006-0.782,0.096-1.17
		c0.128-0.548-0.67-0.782-0.797-0.233c-0.107,0.46-0.152,0.931-0.125,1.403C56.884,81.259,57.711,81.263,57.678,80.697"/>
	<path style="clip-path:url(#SVGID_2_);fill:#046A3A;" d="M54.488,80.809c-0.12-0.504-0.137-1.01-0.038-1.52
		c0.106-0.551-0.69-0.786-0.797-0.232c-0.129,0.666-0.12,1.325,0.038,1.985C53.822,81.589,54.62,81.356,54.488,80.809"/>
	<path style="clip-path:url(#SVGID_2_);fill:#046A3A;" d="M26.803,83.094c-0.237,0.066-0.321,0.306-0.289,0.539
		c0.059,0.425-0.016,0.859-0.196,1.242c-0.236,0.504,0.477,0.948,0.714,0.442c0.288-0.612,0.373-1.242,0.279-1.918
		C27.279,83.163,27,83.038,26.803,83.094"/>
	<path style="clip-path:url(#SVGID_2_);fill:#046A3A;" d="M29.235,83.635c0.101,0.515,0.048,1.04-0.161,1.518
		c-0.223,0.509,0.489,0.955,0.714,0.442c0.308-0.703,0.393-1.432,0.245-2.192C29.925,82.85,29.128,83.083,29.235,83.635"/>
	<path style="clip-path:url(#SVGID_2_);fill:#046A3A;" d="M31.748,83.402c-0.134,0.711-0.093,1.427,0.161,2.104
		c0.194,0.518,0.994,0.292,0.797-0.233c-0.199-0.53-0.267-1.074-0.161-1.637C32.648,83.084,31.852,82.848,31.748,83.402"/>
	<path style="clip-path:url(#SVGID_2_);fill:#046A3A;" d="M35.188,83.252v1.842c0,0.565,0.827,0.566,0.827,0v-1.842
		C36.015,82.688,35.188,82.687,35.188,83.252"/>
	<path style="clip-path:url(#SVGID_2_);fill:#046A3A;" d="M37.916,83.778v1.579c0,0.564,0.827,0.565,0.827,0v-1.579
		C38.743,83.214,37.916,83.213,37.916,83.778"/>
	<path style="clip-path:url(#SVGID_2_);fill:#046A3A;" d="M41.433,84.174l-0.249,1.053c-0.13,0.548,0.667,0.781,0.797,0.233
		c0.083-0.352,0.166-0.702,0.249-1.053C42.359,83.859,41.563,83.625,41.433,84.174"/>
	<path style="clip-path:url(#SVGID_2_);fill:#046A3A;" d="M44.655,83.93c-0.438,0.346-0.703,0.841-0.708,1.428
		c-0.005,0.564,0.821,0.565,0.827,0c0.002-0.253,0.102-0.515,0.298-0.671c0.179-0.141,0.27-0.38,0.148-0.6
		C45.117,83.899,44.835,83.787,44.655,83.93"/>
	<path style="clip-path:url(#SVGID_2_);fill:#046A3A;" d="M47.443,83.537c-0.311,0.702-0.394,1.436-0.233,2.195
		c0.117,0.551,0.914,0.317,0.797-0.233c-0.109-0.515-0.062-1.04,0.15-1.52C48.382,83.472,47.669,83.025,47.443,83.537"/>
	<path style="clip-path:url(#SVGID_2_);fill:#046A3A;" d="M50.374,83.917c-0.084,0.526-0.168,1.053-0.252,1.579
		c-0.088,0.552,0.708,0.789,0.797,0.233c0.085-0.526,0.169-1.053,0.253-1.579C51.26,83.599,50.463,83.361,50.374,83.917"/>
	<path style="clip-path:url(#SVGID_2_);fill:#046A3A;" d="M53.992,83.945v1.872c0,0.564,0.826,0.565,0.826,0v-1.872
		C54.818,83.381,53.992,83.38,53.992,83.945"/>
	<path style="clip-path:url(#SVGID_2_);fill:#046A3A;" d="M56.966,83.945c-0.014,0.481,0.063,0.959,0.238,1.403
		c0.086,0.219,0.274,0.375,0.509,0.307c0.194-0.057,0.375-0.319,0.289-0.54c-0.149-0.38-0.221-0.758-0.209-1.17
		C57.81,83.381,56.982,83.381,56.966,83.945"/>
	<path style="clip-path:url(#SVGID_2_);fill:#046A3A;" d="M60.617,83.828c-0.118,0.539-0.162,1.086-0.118,1.639
		c0.044,0.559,0.871,0.563,0.826,0c-0.037-0.477-0.013-0.94,0.089-1.405C61.534,83.512,60.737,83.277,60.617,83.828"/>
	<path style="clip-path:url(#SVGID_2_);fill:#046A3A;" d="M63.694,84.409c-0.137,0.423-0.152,0.851-0.091,1.29
		c0.032,0.234,0.312,0.363,0.508,0.307c0.237-0.069,0.322-0.305,0.289-0.54c-0.039-0.28,0.006-0.558,0.091-0.823
		c0.072-0.225-0.083-0.48-0.288-0.54C63.977,84.036,63.767,84.184,63.694,84.409"/>
	<path style="clip-path:url(#SVGID_2_);fill:#046A3A;" d="M66.904,83.361c-0.111,0.58-0.158,1.163-0.125,1.754
		c0.032,0.562,0.859,0.565,0.827,0c-0.028-0.513-0.002-1.017,0.096-1.521C67.809,83.043,67.012,82.808,66.904,83.361"/>
	<path style="clip-path:url(#SVGID_2_);fill:#046A3A;" d="M69.929,83.493c-0.196,0.491-0.247,1.006-0.081,1.519
		c0.173,0.53,0.972,0.303,0.798-0.233c-0.089-0.272-0.112-0.569-0.003-0.843c0.087-0.218,0.062-0.47-0.148-0.6
		C70.32,83.228,70.017,83.273,69.929,83.493"/>
	<path style="clip-path:url(#SVGID_2_);fill:#046A3A;" d="M73.063,83.825c-0.078,0.311-0.156,0.621-0.235,0.932
		c-0.137,0.546,0.66,0.779,0.798,0.233c0.078-0.311,0.156-0.621,0.234-0.933C73.998,83.512,73.201,83.279,73.063,83.825"/>
	<path style="clip-path:url(#SVGID_2_);fill:#046A3A;" d="M75.599,83.945v1.054c0,0.564,0.827,0.565,0.827,0v-1.054
		C76.426,83.381,75.599,83.38,75.599,83.945"/>
	<path style="clip-path:url(#SVGID_2_);fill:#046A3A;" d="M77.867,83.83c-0.06,0.475-0.022,0.946,0.092,1.41
		c0.136,0.548,0.982,0.316,0.847-0.232c-0.097-0.391-0.111-0.779-0.062-1.178c0.029-0.235-0.223-0.439-0.438-0.439
		C78.044,83.391,77.896,83.594,77.867,83.83"/>
	<path style="clip-path:url(#SVGID_2_);fill:#046A3A;" d="M51.21,80.465v-1.404c0-0.564-0.827-0.565-0.827,0v1.404
		C50.383,81.029,51.21,81.03,51.21,80.465"/>
	<path style="clip-path:url(#SVGID_2_);fill:#046A3A;" d="M48.343,80.348v-0.937c0-0.564-0.827-0.565-0.827,0v0.937
		C47.517,80.912,48.343,80.913,48.343,80.348"/>
	<path style="clip-path:url(#SVGID_2_);fill:#046A3A;" d="M45.036,80.815v-1.17c0-0.564-0.827-0.565-0.827,0v1.17
		C44.209,81.38,45.036,81.381,45.036,80.815"/>
	<path style="clip-path:url(#SVGID_2_);fill:#046A3A;" d="M41.187,80.822c0.116-0.462,0.153-0.936,0.093-1.409
		c-0.029-0.235-0.168-0.438-0.413-0.438c-0.201,0-0.443,0.202-0.414,0.438c0.05,0.4,0.035,0.785-0.063,1.176
		C40.251,81.135,41.049,81.368,41.187,80.822"/>
	<path style="clip-path:url(#SVGID_2_);fill:#046A3A;" d="M38.202,80.471c0.141-0.378,0.156-0.777,0.088-1.174
		c-0.04-0.234-0.307-0.365-0.508-0.307c-0.231,0.067-0.329,0.306-0.289,0.539c0.042,0.245-0.003,0.48-0.088,0.709
		c-0.083,0.22,0.09,0.481,0.289,0.539C37.929,80.846,38.12,80.692,38.202,80.471"/>
	<path style="clip-path:url(#SVGID_2_);fill:#046A3A;" d="M34.949,80.582v-0.819c0-0.564-0.827-0.565-0.827,0v0.819
		C34.122,81.146,34.949,81.146,34.949,80.582"/>
	<path style="clip-path:url(#SVGID_2_);fill:#046A3A;" d="M32.248,80.23v-0.936c0-0.564-0.827-0.566-0.827,0v0.936
		C31.421,80.795,32.248,80.796,32.248,80.23"/>
	<path style="clip-path:url(#SVGID_2_);fill:#046A3A;" d="M29.27,80.464c0.037-0.351,0.074-0.701,0.111-1.053
		c0.025-0.235-0.208-0.438-0.414-0.438c-0.244,0-0.388,0.202-0.413,0.438c-0.037,0.352-0.074,0.702-0.111,1.053
		c-0.025,0.236,0.208,0.439,0.414,0.439C29.101,80.903,29.245,80.701,29.27,80.464"/>
	<path style="clip-path:url(#SVGID_2_);fill:#046A3A;" d="M26.653,80.537c0.237-0.07,0.32-0.305,0.289-0.54
		c-0.037-0.273-0.074-0.546-0.11-0.819c-0.032-0.234-0.313-0.363-0.508-0.307c-0.238,0.069-0.321,0.305-0.289,0.54
		c0.037,0.273,0.074,0.546,0.11,0.819C26.176,80.465,26.458,80.594,26.653,80.537"/>
	<path style="clip-path:url(#SVGID_2_);fill:#046A3A;" d="M80.329,40.619c-1.519-4.5-0.353-9.281-0.762-13.908
		c-0.178-2.011-1.009-4.403-3.404-4.495c-0.991-0.038-1.874,0.529-2.339,1.388c-0.459,0.851-0.497,1.854-0.532,2.798
		c-0.093,2.531-0.147,5.063-0.166,7.596c-0.008,1.163,0.046,2.337-0.017,3.498c-0.029,0.546-0.087,1.447-0.592,1.786
		c-0.704,0.473-1.311-0.6-1.444-1.141c-0.271-1.097-0.121-2.343-0.118-3.463c0.005-2.462,0.041-4.926,0.015-7.388
		c-0.02-1.841-0.48-4.257-2.61-4.734c-2.392-0.536-3.269,2.132-3.604,3.943c-0.43,2.323-0.41,4.687-0.535,7.037
		c-0.062,1.153-0.159,2.305-0.394,3.437c-0.094,0.453-0.185,0.931-0.377,1.354c-0.112,0.248-0.382,0.817-0.702,0.87
		c-0.982,0.161-0.734-4.515-0.73-5.053c0.019-2.492,0.142-4.991-0.093-7.477c-0.157-1.676-0.611-4.357-2.858-4.269
		c-1.055,0.041-1.917,0.822-2.296,1.768c-0.423,1.06-0.323,2.27-0.335,3.389c-0.026,2.518-0.053,5.035-0.079,7.553
		c-0.011,1.038,0.09,2.168-0.221,3.173c-0.198,0.641-0.803,1.437-1.395,0.661c-0.295-0.387-0.364-0.938-0.423-1.405
		c-0.082-0.65-0.134-1.306-0.19-1.959c-0.108-1.251-0.192-2.504-0.252-3.758c-0.06-1.254-0.096-2.509-0.107-3.765
		c-0.01-1.061,0.048-2.13-0.137-3.181c-0.163-0.931-0.645-1.873-1.479-2.368c-0.971-0.577-2.019-0.04-2.488,0.894
		c-0.506,1.006-0.745,2.212-0.995,3.303c-0.271,1.183-0.467,2.38-0.606,3.585c-0.138,1.194-0.206,2.396-0.202,3.598
		c0.003,0.978,0.062,1.956-0.003,2.933c-0.053,0.798-0.196,1.678-0.681,2.339c-0.111,0.151-0.252,0.31-0.4,0.427
		c-0.101,0.08-0.177,0.098-0.193,0.116c-0.142-0.173-0.167-0.574-0.181-0.75c-0.202-2.432,0.124-4.941,0.189-7.375
		c0.033-1.239,0.034-2.481-0.049-3.719c-0.077-1.136-0.145-2.372-0.562-3.444c-0.39-1.002-1.095-1.854-2.146-2.193
		c-0.949-0.306-2-0.023-2.665,0.717c-1.396,1.554-1.053,4.217-0.878,6.113c0.225,2.429,0.684,4.846,0.631,7.294
		c-0.019,0.879-0.051,2.091-0.881,2.626c-0.763,0.492-1.292-0.231-1.403-0.953c-0.176-1.13,0.079-2.378,0.117-3.517
		c0.042-1.247,0.039-2.496-0.01-3.742c-0.049-1.247-0.142-2.492-0.281-3.731c-0.115-1.031-0.168-2.133-0.64-3.077
		c-0.434-0.87-1.312-1.475-2.31-1.291c-1.07,0.197-1.755,1.142-2.161,2.081c-0.912,2.11-0.668,4.62-0.692,6.864l-0.041,3.784
		c-0.011,1.024,0.091,2.123-0.095,3.135c-0.088,0.48-0.324,1.298-0.948,0.877c-0.825-0.556-0.621-2.022-0.632-2.871
		c-0.034-2.503-0.118-5.005-0.252-7.505c-0.063-1.159-0.081-2.339-0.255-3.487c-0.129-0.845-0.415-1.732-1.057-2.331
		c-0.755-0.704-1.852-0.803-2.753-0.324c-0.98,0.521-1.496,1.569-1.68,2.624c-0.432,2.473-0.49,5.071-0.488,7.576
		c0.002,2.439,0.156,4.875,0.447,7.296c0.062,0.515,0.397,0.96,0.96,0.96c0.471,0,1.022-0.442,0.96-0.96
		c-0.296-2.46-0.45-4.936-0.447-7.414c0.002-1.258,0.042-2.517,0.123-3.773c0.073-1.145,0.094-2.362,0.357-3.482
		c0.111-0.474,0.711-1.744,1.308-0.999c0.476,0.594,0.44,1.614,0.486,2.322c0.157,2.42,0.266,4.843,0.327,7.268
		c0.031,1.218-0.013,2.451,0.076,3.667c0.079,1.088,0.376,2.162,1.256,2.873c0.771,0.622,1.83,0.813,2.717,0.312
		c0.743-0.419,1.161-1.232,1.333-2.042c0.218-1.023,0.161-2.092,0.172-3.13c0.013-1.262,0.027-2.522,0.04-3.784
		c0.013-1.19,0.017-2.381,0.04-3.571c0.02-1.017,0.063-2.072,0.448-3.028c0.126-0.313,0.356-0.876,0.704-1.017
		c0.19-0.077,0.29,0.089,0.399,0.34c0.397,0.906,0.383,2.071,0.473,3.039c0.229,2.446,0.282,4.908,0.161,7.361
		c-0.097,1.953-0.465,4.72,1.847,5.588c0.989,0.372,2.067,0.038,2.84-0.636c0.803-0.7,1.144-1.743,1.273-2.768
		c0.297-2.348-0.13-4.757-0.404-7.087c-0.142-1.21-0.264-2.426-0.269-3.646c-0.003-0.762-0.057-1.794,0.424-2.45
		c0.487-0.664,1.256-0.081,1.544,0.471c0.502,0.961,0.515,2.241,0.578,3.298c0.145,2.445-0.026,4.892-0.119,7.335
		c-0.045,1.191-0.122,2.412-0.03,3.602c0.066,0.856,0.33,1.832,1.095,2.328c1.896,1.23,3.592-1.359,3.967-2.917
		c0.471-1.959,0.172-4.023,0.263-6.015c0.107-2.356,0.501-4.688,1.164-6.953c0.084-0.289,0.171-0.576,0.265-0.861
		c0.003-0.007,0.065-0.141,0.118-0.26c0.092,0.141,0.203,0.259,0.27,0.43c0.322,0.83,0.213,1.821,0.215,2.689
		c0.009,2.511,0.113,5.022,0.315,7.525c0.155,1.932-0.01,4.891,2.023,5.933c0.966,0.495,2.075,0.283,2.844-0.469
		c0.767-0.75,1.063-1.803,1.176-2.838c0.12-1.102,0.072-2.229,0.084-3.335c0.013-1.259,0.025-2.518,0.039-3.776
		c0.013-1.219,0.025-2.439,0.038-3.658c0.007-0.644-0.182-2.216,0.643-2.502c1.146-0.398,1.119,4.261,1.129,4.769
		c0.05,2.457-0.099,4.914-0.013,7.37c0.06,1.691,0.167,4.561,2.488,4.634c2.185,0.068,2.905-2.592,3.188-4.276
		c0.387-2.294,0.365-4.619,0.497-6.934c0.063-1.116,0.165-2.23,0.396-3.325c0.118-0.559,0.299-1.944,0.987-2.151
		c0.768-0.23,1.158,0.975,1.264,1.495c0.191,0.94,0.106,1.951,0.104,2.904c-0.005,2.457-0.012,4.913-0.016,7.37
		c-0.004,1.972,0.305,4.622,2.696,5.055c2.104,0.381,3.094-1.609,3.272-3.369c0.111-1.087,0.038-2.201,0.043-3.292
		c0.006-1.227,0.021-2.454,0.044-3.68c0.024-1.266,0.058-2.532,0.101-3.798c0.027-0.797-0.088-1.881,0.33-2.608
		c0.382-0.664,1.186-0.308,1.556,0.191c0.582,0.784,0.587,1.961,0.632,2.892c0.111,2.283-0.079,4.565-0.1,6.848
		c-0.02,2.258,0.146,4.542,0.872,6.695C78.87,42.294,80.727,41.795,80.329,40.619"/>
</g>
<g>
	<defs>
		<rect id="SVGID_3_" x="76.822" y="38.624" width="7.203" height="4.232"/>
	</defs>
	<clipPath id="SVGID_4_">
		<use xlink:href="#SVGID_3_"  style="overflow:visible;"/>
	</clipPath>
	<path style="clip-path:url(#SVGID_4_);fill:#046A3A;" d="M77.81,35.286c0.03,1.219-0.014,2.452,0.075,3.667
		c0.079,1.088,0.377,2.162,1.256,2.872c0.771,0.622,1.83,0.813,2.717,0.313c0.743-0.42,1.16-1.233,1.333-2.043
		c0.218-1.023,0.161-2.091,0.172-3.13c0.014-1.261,0.026-2.522,0.04-3.784c0.013-1.19,0.017-2.38,0.04-3.57
		c0.021-1.017,0.063-2.072,0.448-3.029c0.126-0.313,0.355-0.875,0.703-1.016c0.189-0.077,0.29,0.089,0.4,0.339
		c0.396,0.906,0.382,2.071,0.473,3.039c0.229,2.446,0.281,4.908,0.16,7.361c-0.097,1.953-0.465,4.72,1.848,5.588
		c0.988,0.371,2.067,0.038,2.84-0.636c0.803-0.7,1.145-1.743,1.273-2.768c0.297-2.348-0.13-4.757-0.403-7.087
		c-0.143-1.21-0.264-2.427-0.269-3.646c-0.004-0.762-0.058-1.794,0.424-2.451c0.486-0.664,1.256-0.081,1.544,0.471
		c0.503,0.961,0.516,2.24,0.578,3.298c0.145,2.445-0.026,4.893-0.119,7.335c-0.045,1.191-0.121,2.412-0.03,3.602
		c0.066,0.856,0.33,1.832,1.096,2.328c1.896,1.23,3.592-1.359,3.967-2.916c0.471-1.959,0.172-4.023,0.263-6.015
		c0.106-2.356,0.501-4.688,1.163-6.953c0.084-0.288,0.171-0.576,0.266-0.861c0.002-0.007,0.064-0.141,0.117-0.26
		c0.092,0.141,0.203,0.259,0.27,0.43c0.322,0.83,0.213,1.821,0.216,2.689c0.008,2.511,0.112,5.022,0.314,7.525
		c0.155,1.932-0.01,4.891,2.023,5.933c0.967,0.495,2.075,0.283,2.844-0.469c0.768-0.75,1.063-1.803,1.176-2.838
		c0.12-1.101,0.072-2.229,0.084-3.335c0.013-1.259,0.026-2.518,0.039-3.776c0.013-1.22,0.025-2.439,0.038-3.659
		c0.007-0.644-0.181-2.216,0.643-2.502c1.146-0.398,1.119,4.261,1.129,4.769c0.05,2.457-0.099,4.913-0.013,7.37
		c0.06,1.69,0.167,4.561,2.489,4.634c2.184,0.068,2.904-2.592,3.188-4.276c0.386-2.294,0.365-4.618,0.496-6.934
		c0.063-1.116,0.165-2.23,0.396-3.325c0.118-0.558,0.299-1.944,0.987-2.151c0.769-0.23,1.158,0.975,1.264,1.495
		c0.191,0.94,0.106,1.951,0.104,2.904c-0.006,2.457-0.012,4.913-0.017,7.37c-0.004,1.973,0.305,4.622,2.696,5.055
		c2.104,0.381,3.094-1.609,3.273-3.369c0.11-1.087,0.037-2.202,0.042-3.293c0.006-1.227,0.021-2.454,0.044-3.68
		c0.024-1.266,0.058-2.532,0.101-3.797c0.027-0.797-0.087-1.881,0.33-2.608c0.382-0.664,1.186-0.308,1.556,0.191
		c0.582,0.784,0.587,1.961,0.633,2.891c0.111,2.283-0.08,4.565-0.101,6.848c-0.02,2.258,0.146,4.542,0.872,6.694
		c0.394,1.165,2.249,0.665,1.852-0.51c-1.519-4.5-0.353-9.282-0.762-13.908c-0.178-2.012-1.009-4.404-3.404-4.496
		c-0.99-0.038-1.874,0.529-2.338,1.388c-0.46,0.851-0.498,1.854-0.532,2.798c-0.093,2.531-0.148,5.063-0.166,7.595
		c-0.009,1.163,0.046,2.337-0.017,3.498c-0.029,0.546-0.088,1.447-0.593,1.787c-0.704,0.473-1.31-0.6-1.443-1.142
		c-0.271-1.097-0.122-2.343-0.119-3.463c0.006-2.462,0.041-4.926,0.015-7.388c-0.02-1.841-0.48-4.257-2.61-4.734
		c-2.391-0.536-3.269,2.132-3.604,3.943c-0.43,2.323-0.41,4.687-0.535,7.037c-0.061,1.153-0.159,2.305-0.394,3.438
		c-0.094,0.452-0.185,0.931-0.376,1.354c-0.113,0.248-0.382,0.817-0.703,0.87c-0.981,0.162-0.734-4.514-0.73-5.053
		c0.02-2.491,0.142-4.991-0.093-7.477c-0.157-1.676-0.611-4.357-2.858-4.269c-1.055,0.041-1.917,0.822-2.295,1.768
		c-0.424,1.059-0.324,2.27-0.336,3.388c-0.026,2.518-0.053,5.036-0.079,7.553c-0.011,1.037,0.09,2.168-0.221,3.172
		c-0.197,0.641-0.803,1.437-1.395,0.661c-0.295-0.387-0.364-0.938-0.423-1.405c-0.082-0.65-0.133-1.306-0.189-1.959
		c-0.108-1.251-0.193-2.504-0.253-3.758s-0.096-2.509-0.107-3.765c-0.01-1.062,0.048-2.131-0.137-3.181
		c-0.163-0.931-0.644-1.873-1.479-2.368c-0.971-0.577-2.019-0.04-2.488,0.894c-0.506,1.005-0.745,2.212-0.995,3.302
		c-0.271,1.183-0.467,2.38-0.605,3.585c-0.138,1.194-0.206,2.396-0.202,3.598c0.003,0.978,0.062,1.956-0.004,2.933
		c-0.053,0.798-0.196,1.677-0.681,2.338c-0.111,0.151-0.253,0.311-0.4,0.427c-0.101,0.08-0.177,0.098-0.193,0.117
		c-0.142-0.173-0.167-0.575-0.181-0.75c-0.202-2.432,0.123-4.941,0.189-7.375c0.033-1.24,0.034-2.481-0.049-3.719
		c-0.077-1.137-0.146-2.373-0.562-3.444c-0.39-1.001-1.096-1.854-2.146-2.193c-0.949-0.306-1.999-0.023-2.665,0.717
		c-1.396,1.554-1.053,4.218-0.878,6.113c0.225,2.429,0.684,4.846,0.632,7.293c-0.019,0.879-0.051,2.091-0.882,2.626
		c-0.763,0.492-1.291-0.231-1.402-0.952c-0.176-1.131,0.079-2.378,0.117-3.517c0.041-1.247,0.038-2.495-0.01-3.742
		c-0.049-1.247-0.143-2.492-0.281-3.731c-0.115-1.031-0.168-2.133-0.639-3.077c-0.435-0.87-1.313-1.474-2.311-1.291
		c-1.07,0.197-1.756,1.142-2.161,2.081c-0.912,2.11-0.668,4.62-0.692,6.864l-0.04,3.784c-0.011,1.025,0.091,2.123-0.095,3.135
		c-0.089,0.481-0.324,1.298-0.948,0.878c-0.825-0.556-0.621-2.022-0.632-2.871"/>
</g>
<g>
	<defs>
		<rect id="SVGID_5_" width="100" height="100"/>
	</defs>
	<clipPath id="SVGID_6_">
		<use xlink:href="#SVGID_5_"  style="overflow:visible;"/>
	</clipPath>
	<path style="clip-path:url(#SVGID_6_);fill:#046A3A;" d="M81.159,74.679c-1.519-4.5-0.353-9.281-0.762-13.908
		c-0.178-2.011-1.009-4.403-3.404-4.495c-0.991-0.038-1.874,0.529-2.339,1.389c-0.459,0.851-0.497,1.854-0.531,2.798
		c-0.094,2.53-0.148,5.063-0.166,7.595c-0.009,1.163,0.046,2.337-0.017,3.498c-0.03,0.547-0.088,1.447-0.593,1.787
		c-0.704,0.473-1.311-0.601-1.444-1.142c-0.271-1.097-0.121-2.344-0.118-3.464c0.005-2.462,0.041-4.926,0.015-7.388
		c-0.02-1.841-0.48-4.257-2.61-4.734c-2.391-0.535-3.269,2.132-3.604,3.943c-0.43,2.323-0.41,4.687-0.535,7.037
		c-0.061,1.153-0.159,2.305-0.394,3.437c-0.094,0.453-0.185,0.931-0.377,1.354c-0.112,0.248-0.381,0.816-0.702,0.869
		c-0.981,0.161-0.734-4.515-0.73-5.053c0.019-2.492,0.142-4.991-0.093-7.477c-0.157-1.677-0.611-4.357-2.858-4.27
		c-1.055,0.041-1.917,0.822-2.295,1.769c-0.424,1.059-0.324,2.27-0.336,3.388c-0.026,2.518-0.053,5.035-0.079,7.554
		c-0.011,1.037,0.09,2.168-0.221,3.172c-0.197,0.641-0.803,1.437-1.395,0.661c-0.295-0.387-0.364-0.938-0.423-1.404
		c-0.082-0.65-0.134-1.307-0.189-1.959c-0.108-1.251-0.193-2.504-0.253-3.758c-0.06-1.255-0.096-2.51-0.107-3.765
		c-0.01-1.062,0.048-2.131-0.137-3.182c-0.163-0.931-0.644-1.872-1.479-2.368c-0.971-0.576-2.019-0.04-2.488,0.894
		c-0.506,1.006-0.745,2.212-0.995,3.303c-0.271,1.183-0.467,2.381-0.606,3.586c-0.138,1.193-0.206,2.396-0.202,3.598
		c0.003,0.978,0.062,1.955-0.003,2.933c-0.054,0.798-0.197,1.678-0.681,2.339c-0.111,0.15-0.253,0.311-0.4,0.427
		c-0.101,0.08-0.177,0.099-0.193,0.116c-0.141-0.173-0.167-0.574-0.181-0.75c-0.202-2.432,0.124-4.941,0.189-7.376
		c0.034-1.239,0.035-2.48-0.049-3.719c-0.076-1.136-0.145-2.372-0.562-3.443c-0.39-1.002-1.095-1.854-2.146-2.193
		c-0.949-0.306-2-0.023-2.665,0.718c-1.396,1.554-1.053,4.218-0.878,6.112c0.225,2.43,0.684,4.847,0.631,7.294
		c-0.019,0.879-0.051,2.091-0.881,2.626c-0.763,0.492-1.291-0.231-1.403-0.952c-0.176-1.131,0.079-2.378,0.117-3.517
		c0.042-1.247,0.039-2.496-0.01-3.742c-0.049-1.247-0.142-2.492-0.28-3.731c-0.115-1.031-0.168-2.133-0.64-3.077
		c-0.435-0.87-1.312-1.475-2.31-1.291c-1.07,0.196-1.756,1.142-2.162,2.081c-0.912,2.109-0.668,4.619-0.692,6.863l-0.041,3.784
		c-0.011,1.024,0.091,2.123-0.095,3.135c-0.088,0.481-0.324,1.298-0.948,0.878c-0.825-0.556-0.621-2.022-0.632-2.87
		c-0.034-2.504-0.118-5.006-0.252-7.506c-0.063-1.159-0.081-2.339-0.255-3.487c-0.129-0.845-0.415-1.732-1.057-2.331
		c-0.755-0.704-1.852-0.803-2.753-0.323c-0.98,0.521-1.496,1.568-1.68,2.624c-0.432,2.473-0.49,5.07-0.488,7.575
		c0.002,2.439,0.156,4.875,0.447,7.297c0.062,0.515,0.397,0.96,0.96,0.96c0.471,0,1.022-0.442,0.96-0.96
		c-0.296-2.461-0.45-4.936-0.447-7.414c0.001-1.259,0.042-2.518,0.122-3.772c0.073-1.146,0.094-2.362,0.357-3.483
		c0.111-0.474,0.712-1.743,1.309-0.998c0.475,0.594,0.44,1.613,0.486,2.322c0.157,2.42,0.266,4.843,0.328,7.268
		c0.031,1.218-0.013,2.451,0.075,3.666c0.079,1.088,0.376,2.162,1.256,2.873c0.77,0.621,1.829,0.813,2.716,0.313
		c0.743-0.42,1.161-1.233,1.333-2.043c0.218-1.023,0.161-2.092,0.172-3.131c0.013-1.261,0.027-2.522,0.04-3.783
		c0.013-1.19,0.017-2.381,0.04-3.57c0.02-1.018,0.063-2.072,0.448-3.029c0.126-0.313,0.356-0.876,0.704-1.017
		c0.19-0.077,0.29,0.089,0.4,0.34c0.396,0.906,0.382,2.071,0.473,3.039c0.229,2.445,0.282,4.907,0.161,7.36
		c-0.097,1.953-0.465,4.72,1.847,5.589c0.989,0.371,2.067,0.038,2.84-0.636c0.803-0.7,1.144-1.743,1.273-2.769
		c0.297-2.348-0.13-4.757-0.404-7.086c-0.142-1.211-0.264-2.427-0.269-3.647c-0.003-0.762-0.057-1.794,0.424-2.45
		c0.487-0.664,1.256-0.081,1.544,0.472c0.502,0.96,0.515,2.24,0.578,3.298c0.145,2.444-0.026,4.892-0.119,7.335
		c-0.045,1.191-0.122,2.412-0.03,3.602c0.066,0.856,0.33,1.832,1.095,2.328c1.897,1.229,3.592-1.359,3.967-2.916
		c0.471-1.96,0.172-4.023,0.263-6.016c0.106-2.356,0.501-4.688,1.163-6.952c0.084-0.288,0.171-0.576,0.265-0.861
		c0.003-0.008,0.065-0.142,0.118-0.261c0.092,0.141,0.203,0.259,0.27,0.431c0.322,0.829,0.213,1.821,0.215,2.689
		c0.009,2.511,0.113,5.021,0.315,7.524c0.155,1.933-0.01,4.892,2.023,5.934c0.966,0.495,2.075,0.282,2.844-0.47
		c0.767-0.75,1.063-1.803,1.176-2.838c0.12-1.102,0.072-2.229,0.084-3.335c0.013-1.26,0.026-2.518,0.039-3.777
		c0.013-1.219,0.025-2.438,0.038-3.658c0.007-0.644-0.181-2.216,0.643-2.502c1.146-0.398,1.119,4.261,1.129,4.77
		c0.05,2.456-0.099,4.913-0.013,7.369c0.06,1.69,0.167,4.561,2.489,4.634c2.184,0.068,2.904-2.592,3.188-4.276
		c0.387-2.294,0.365-4.618,0.497-6.934c0.063-1.116,0.165-2.229,0.396-3.325c0.118-0.559,0.299-1.943,0.987-2.15
		c0.769-0.23,1.158,0.975,1.264,1.494c0.191,0.94,0.106,1.951,0.104,2.904c-0.006,2.456-0.012,4.913-0.017,7.369
		c-0.004,1.973,0.305,4.622,2.696,5.056c2.104,0.381,3.094-1.609,3.273-3.369c0.11-1.087,0.037-2.201,0.042-3.293
		c0.006-1.227,0.021-2.453,0.044-3.68c0.024-1.266,0.058-2.532,0.101-3.797c0.027-0.798-0.087-1.882,0.33-2.609
		c0.382-0.663,1.186-0.307,1.556,0.191c0.582,0.784,0.587,1.961,0.632,2.892c0.112,2.282-0.079,4.565-0.1,6.848
		c-0.02,2.258,0.146,4.542,0.872,6.694C79.701,76.354,81.557,75.854,81.159,74.679"/>
</g>
<g>
	<defs>
		<rect id="SVGID_7_" x="77.652" y="72.684" width="7.204" height="4.232"/>
	</defs>
	<clipPath id="SVGID_8_">
		<use xlink:href="#SVGID_7_"  style="overflow:visible;"/>
	</clipPath>
	<path style="clip-path:url(#SVGID_8_);fill:#046A3A;" d="M78.64,69.347c0.03,1.218-0.013,2.451,0.075,3.666
		c0.079,1.088,0.377,2.162,1.256,2.872c0.771,0.622,1.83,0.813,2.717,0.313c0.743-0.42,1.161-1.232,1.333-2.042
		c0.218-1.023,0.161-2.092,0.172-3.131c0.014-1.262,0.026-2.522,0.04-3.784c0.014-1.189,0.017-2.38,0.04-3.57
		c0.021-1.017,0.063-2.072,0.448-3.028c0.126-0.313,0.355-0.876,0.703-1.017c0.189-0.077,0.29,0.089,0.4,0.34
		c0.396,0.906,0.382,2.071,0.473,3.039c0.229,2.445,0.281,4.907,0.16,7.36c-0.096,1.953-0.465,4.72,1.848,5.589
		c0.988,0.371,2.067,0.037,2.84-0.637c0.803-0.699,1.145-1.742,1.273-2.768c0.297-2.348-0.13-4.757-0.403-7.087
		c-0.143-1.21-0.264-2.427-0.269-3.646c-0.003-0.762-0.058-1.794,0.424-2.45c0.486-0.664,1.256-0.081,1.545,0.471
		c0.502,0.961,0.515,2.241,0.577,3.299c0.146,2.444-0.026,4.892-0.119,7.335c-0.045,1.191-0.121,2.411-0.03,3.602
		c0.066,0.856,0.33,1.831,1.096,2.327c1.896,1.23,3.592-1.358,3.967-2.916c0.472-1.959,0.172-4.023,0.263-6.015
		c0.107-2.356,0.501-4.688,1.163-6.952c0.084-0.289,0.171-0.577,0.266-0.861c0.002-0.008,0.064-0.142,0.118-0.261
		c0.092,0.141,0.202,0.259,0.269,0.43c0.322,0.83,0.213,1.821,0.216,2.69c0.008,2.511,0.113,5.021,0.314,7.524
		c0.155,1.932-0.009,4.892,2.023,5.934c0.967,0.495,2.075,0.282,2.844-0.47c0.768-0.751,1.063-1.803,1.176-2.838
		c0.121-1.102,0.072-2.229,0.084-3.336c0.013-1.259,0.026-2.518,0.039-3.776c0.013-1.22,0.025-2.438,0.038-3.658
		c0.007-0.644-0.181-2.216,0.643-2.502c1.146-0.398,1.119,4.261,1.129,4.769c0.05,2.457-0.099,4.914-0.012,7.37
		c0.059,1.69,0.167,4.561,2.488,4.634c2.184,0.068,2.904-2.593,3.188-4.276c0.386-2.294,0.365-4.618,0.496-6.934
		c0.063-1.116,0.165-2.229,0.396-3.325c0.118-0.559,0.299-1.944,0.988-2.15c0.768-0.23,1.157,0.974,1.263,1.494
		c0.191,0.94,0.106,1.951,0.104,2.903c-0.006,2.457-0.012,4.913-0.017,7.37c-0.004,1.973,0.305,4.622,2.696,5.055
		c2.104,0.381,3.094-1.608,3.273-3.368c0.11-1.088,0.037-2.202,0.042-3.293c0.006-1.227,0.021-2.453,0.045-3.68
		c0.023-1.267,0.058-2.532,0.1-3.798c0.027-0.797-0.087-1.881,0.33-2.608c0.382-0.663,1.186-0.308,1.556,0.191
		c0.583,0.784,0.587,1.961,0.633,2.891c0.111,2.283-0.08,4.565-0.101,6.849c-0.02,2.258,0.146,4.542,0.872,6.694
		c0.394,1.165,2.249,0.665,1.852-0.511c-1.519-4.5-0.353-9.281-0.762-13.908c-0.178-2.011-1.009-4.403-3.404-4.495
		c-0.99-0.038-1.874,0.528-2.338,1.388c-0.46,0.852-0.498,1.854-0.532,2.798c-0.093,2.531-0.148,5.063-0.166,7.596
		c-0.009,1.163,0.046,2.337-0.017,3.498c-0.029,0.546-0.088,1.447-0.593,1.786c-0.704,0.473-1.31-0.6-1.443-1.142
		c-0.271-1.097-0.122-2.343-0.119-3.463c0.006-2.462,0.041-4.926,0.015-7.388c-0.02-1.842-0.479-4.257-2.61-4.734
		c-2.391-0.536-3.269,2.132-3.604,3.943c-0.429,2.322-0.41,4.687-0.535,7.036c-0.061,1.153-0.159,2.306-0.394,3.438
		c-0.094,0.452-0.185,0.931-0.376,1.354c-0.113,0.247-0.382,0.816-0.703,0.869c-0.981,0.161-0.734-4.515-0.73-5.053
		c0.02-2.492,0.142-4.991-0.092-7.478c-0.158-1.676-0.612-4.356-2.858-4.269c-1.056,0.041-1.918,0.821-2.296,1.768
		c-0.424,1.06-0.324,2.27-0.336,3.389c-0.026,2.518-0.053,5.035-0.078,7.553c-0.012,1.037,0.089,2.169-0.222,3.173
		c-0.197,0.641-0.803,1.437-1.395,0.661c-0.295-0.387-0.364-0.938-0.423-1.404c-0.082-0.65-0.133-1.307-0.189-1.96
		c-0.108-1.251-0.192-2.503-0.253-3.758c-0.06-1.254-0.096-2.509-0.107-3.765c-0.01-1.061,0.048-2.13-0.137-3.181
		c-0.163-0.931-0.644-1.872-1.478-2.368c-0.972-0.576-2.02-0.04-2.489,0.894c-0.506,1.006-0.745,2.212-0.995,3.303
		c-0.271,1.183-0.467,2.38-0.605,3.585c-0.138,1.194-0.206,2.396-0.202,3.598c0.003,0.979,0.062,1.956-0.003,2.934
		c-0.054,0.798-0.197,1.678-0.682,2.338c-0.111,0.151-0.252,0.311-0.4,0.428c-0.1,0.079-0.177,0.098-0.193,0.116
		c-0.141-0.173-0.166-0.574-0.181-0.75c-0.202-2.433,0.124-4.941,0.189-7.376c0.033-1.239,0.034-2.48-0.049-3.719
		c-0.077-1.137-0.145-2.372-0.562-3.444c-0.39-1.001-1.096-1.854-2.146-2.192c-0.949-0.306-1.999-0.023-2.665,0.718
		c-1.396,1.554-1.053,4.217-0.878,6.112c0.225,2.429,0.684,4.846,0.632,7.294c-0.019,0.879-0.051,2.091-0.882,2.626
		c-0.763,0.492-1.291-0.231-1.402-0.952c-0.176-1.131,0.079-2.378,0.117-3.518c0.041-1.246,0.039-2.495-0.01-3.741
		c-0.049-1.247-0.143-2.492-0.281-3.732c-0.115-1.03-0.168-2.133-0.639-3.076c-0.435-0.87-1.313-1.475-2.311-1.291
		c-1.07,0.196-1.756,1.142-2.161,2.08c-0.912,2.11-0.668,4.62-0.692,6.864l-0.04,3.783c-0.011,1.025,0.091,2.124-0.095,3.136
		c-0.088,0.48-0.324,1.298-0.948,0.878c-0.825-0.557-0.621-2.022-0.632-2.871"/>
</g>
</svg>
