<?xml version="1.0" encoding="utf-8"?>
<!-- Generator: Adobe Illustrator 16.0.0, SVG Export Plug-In . SVG Version: 6.00 Build 0)  -->
<!DOCTYPE svg PUBLIC "-//W3C//DTD SVG 1.1//EN" "http://www.w3.org/Graphics/SVG/1.1/DTD/svg11.dtd">
<svg version="1.1" id="Layer_1" xmlns="http://www.w3.org/2000/svg" xmlns:xlink="http://www.w3.org/1999/xlink" x="0px" y="0px"
	 width="100px" height="100px" viewBox="0 0 100 100" style="enable-background:new 0 0 100 100;" xml:space="preserve">
<g>
	<defs>
		<rect id="SVGID_1_" width="100" height="100"/>
	</defs>
	<clipPath id="SVGID_2_">
		<use xlink:href="#SVGID_1_"  style="overflow:visible;"/>
	</clipPath>
	<path style="clip-path:url(#SVGID_2_);fill:#046A3A;" d="M26.57,21.148c-0.312-0.312-0.817-0.312-1.128,0s-0.312,0.817,0,1.128
		s0.817,0.312,1.128,0S26.882,21.459,26.57,21.148"/>
	<path style="clip-path:url(#SVGID_2_);fill:#046A3A;" d="M29.493,22.434c-0.312-0.311-0.817-0.311-1.128,0
		c-0.312,0.312-0.312,0.817,0,1.128s0.817,0.312,1.128,0S29.804,22.746,29.493,22.434"/>
	<path style="clip-path:url(#SVGID_2_);fill:#046A3A;" d="M31.564,24.324c-0.312-0.312-0.817-0.312-1.128,0
		c-0.312,0.312-0.312,0.817,0,1.128s0.816,0.312,1.128,0C31.876,25.141,31.876,24.636,31.564,24.324"/>
	<path style="clip-path:url(#SVGID_2_);fill:#046A3A;" d="M33.466,26.409c-0.312-0.312-0.816-0.312-1.128,0
		c-0.312,0.312-0.312,0.817,0,1.128c0.312,0.312,0.816,0.312,1.128,0S33.777,26.72,33.466,26.409"/>
	<path style="clip-path:url(#SVGID_2_);fill:#046A3A;" d="M35.689,28.493c-0.312-0.312-0.816-0.312-1.128,0
		c-0.312,0.312-0.312,0.817,0,1.128c0.312,0.312,0.816,0.312,1.128,0S36.001,28.805,35.689,28.493"/>
	<path style="clip-path:url(#SVGID_2_);fill:#046A3A;" d="M38.236,30.081c-0.312-0.312-0.817-0.312-1.128,0
		c-0.312,0.312-0.312,0.817,0,1.128s0.816,0.312,1.128,0C38.548,30.898,38.548,30.393,38.236,30.081"/>
	<path style="clip-path:url(#SVGID_2_);fill:#046A3A;" d="M23.272,24.324c-0.312-0.312-0.816-0.312-1.128,0
		c-0.312,0.312-0.312,0.817,0,1.128s0.816,0.312,1.128,0C23.584,25.141,23.584,24.636,23.272,24.324"/>
	<path style="clip-path:url(#SVGID_2_);fill:#046A3A;" d="M26.195,25.611c-0.312-0.312-0.817-0.312-1.128,0s-0.312,0.817,0,1.128
		s0.817,0.312,1.128,0S26.507,25.922,26.195,25.611"/>
	<path style="clip-path:url(#SVGID_2_);fill:#046A3A;" d="M28.267,27.501c-0.312-0.312-0.816-0.312-1.128,0
		c-0.312,0.312-0.312,0.817,0,1.128c0.312,0.312,0.816,0.312,1.128,0S28.578,27.813,28.267,27.501"/>
	<path style="clip-path:url(#SVGID_2_);fill:#046A3A;" d="M30.168,29.585c-0.312-0.311-0.817-0.311-1.128,0
		c-0.312,0.312-0.312,0.817,0,1.128c0.312,0.312,0.817,0.312,1.128,0C30.48,30.402,30.48,29.897,30.168,29.585"/>
	<path style="clip-path:url(#SVGID_2_);fill:#046A3A;" d="M32.392,31.669c-0.312-0.312-0.817-0.312-1.128,0s-0.312,0.817,0,1.128
		s0.817,0.312,1.128,0S32.704,31.981,32.392,31.669"/>
	<path style="clip-path:url(#SVGID_2_);fill:#046A3A;" d="M35.062,33.045c-0.312-0.312-0.817-0.312-1.128,0
		c-0.312,0.312-0.312,0.817,0,1.128c0.311,0.312,0.816,0.312,1.128,0S35.373,33.357,35.062,33.045"/>
	<path style="clip-path:url(#SVGID_2_);fill:#046A3A;" d="M40.284,33.616l-0.185,0.179c-0.015,0.015-1.582,1.523-3.863,2.144
		c-1.336,0.364-2.651,0.354-3.908-0.029c-1.569-0.478-3.047-1.542-4.393-3.163c-5.737-6.906-7.765-6.813-11.802-5.944l-0.155,0.033
		c0,0,2.449-1.74,5.515-0.946c1.881,0.487,3.824,2.06,6.676,5.493c1.301,1.566,2.653,2.973,3.925,3.474
		c1.188,0.468,2.784,0.714,4.072,0.363c2.188-0.595,3.214-1.124,3.229-1.139L40.284,33.616z"/>
	<path style="clip-path:url(#SVGID_2_);fill:#046A3A;" d="M43.781,30.44l-0.184,0.178c-0.015,0.015-1.583,1.523-3.863,2.144
		c-1.336,0.364-2.651,0.354-3.908-0.028c-1.568-0.479-3.046-1.542-4.393-3.163c-5.738-6.907-7.765-6.813-11.802-5.945l-0.156,0.033
		c0,0,2.449-1.739,5.516-0.945c1.88,0.487,3.824,2.06,6.676,5.493c1.301,1.566,2.652,2.974,3.925,3.474
		c1.189,0.468,2.785,0.714,4.072,0.363c2.188-0.595,3.214-1.124,3.229-1.138L43.781,30.44z"/>
	<path style="clip-path:url(#SVGID_2_);fill:#046A3A;" d="M48.289,24.598l-0.185,0.178c-0.015,0.015-1.582,1.523-3.863,2.144
		c-1.336,0.364-2.651,0.354-3.908-0.029c-1.569-0.478-3.046-1.542-4.393-3.162c-5.738-6.907-7.765-6.814-11.802-5.945l-0.156,0.033
		c0,0,2.449-1.74,5.515-0.945c1.881,0.487,3.825,2.06,6.677,5.492c1.301,1.566,2.652,2.974,3.925,3.475
		c1.188,0.468,2.785,0.713,4.072,0.363c2.188-0.595,3.214-1.124,3.229-1.138L48.289,24.598z"/>
	<path style="clip-path:url(#SVGID_2_);fill:#046A3A;" d="M39.27,36.136l-0.185,0.178c-0.015,0.015-1.582,1.523-3.863,2.144
		c-1.336,0.364-2.651,0.354-3.908-0.028c-1.569-0.479-3.046-1.542-4.393-3.163c-5.738-6.906-7.765-6.813-11.802-5.944l-0.156,0.033
		c0,0,2.449-1.739,5.515-0.945c1.881,0.487,3.825,2.06,6.677,5.492c1.301,1.566,2.652,2.974,3.925,3.475
		c1.189,0.468,2.785,0.713,4.072,0.363c2.188-0.595,3.214-1.124,3.229-1.138L39.27,36.136z"/>
	<path style="clip-path:url(#SVGID_2_);fill:#046A3A;" d="M47.278,27.263l-0.185,0.179c-0.015,0.015-1.582,1.523-3.863,2.144
		c-1.336,0.364-2.651,0.354-3.908-0.029c-1.569-0.478-3.047-1.542-4.393-3.163c-5.737-6.906-7.764-6.813-11.802-5.944l-0.155,0.033
		c0,0,2.449-1.739,5.515-0.945c1.881,0.487,3.825,2.06,6.676,5.492c1.301,1.566,2.653,2.974,3.925,3.475
		c1.189,0.468,2.785,0.713,4.073,0.363c2.188-0.595,3.214-1.124,3.229-1.139L47.278,27.263z"/>
	<path style="clip-path:url(#SVGID_2_);fill:#046A3A;" d="M14.844,37.43c-0.312-0.312-0.816-0.312-1.128,0
		c-0.312,0.312-0.312,0.817,0,1.128s0.816,0.312,1.128,0C15.156,38.247,15.156,37.742,14.844,37.43"/>
	<path style="clip-path:url(#SVGID_2_);fill:#046A3A;" d="M17.767,38.716c-0.312-0.312-0.817-0.312-1.128,0s-0.312,0.817,0,1.128
		s0.817,0.312,1.128,0S18.078,39.028,17.767,38.716"/>
	<path style="clip-path:url(#SVGID_2_);fill:#046A3A;" d="M19.838,40.606c-0.312-0.312-0.816-0.312-1.128,0
		c-0.312,0.312-0.312,0.817,0,1.128c0.312,0.312,0.816,0.312,1.128,0S20.149,40.918,19.838,40.606"/>
	<path style="clip-path:url(#SVGID_2_);fill:#046A3A;" d="M21.74,42.69c-0.312-0.312-0.817-0.312-1.128,0
		c-0.312,0.312-0.312,0.817,0,1.128s0.817,0.312,1.128,0S22.051,43.002,21.74,42.69"/>
	<path style="clip-path:url(#SVGID_2_);fill:#046A3A;" d="M23.963,44.775c-0.312-0.312-0.817-0.312-1.128,0s-0.312,0.817,0,1.128
		s0.817,0.312,1.128,0S24.275,45.086,23.963,44.775"/>
	<path style="clip-path:url(#SVGID_2_);fill:#046A3A;" d="M26.51,46.363c-0.312-0.312-0.816-0.312-1.128,0
		c-0.312,0.312-0.312,0.817,0,1.128c0.312,0.312,0.816,0.312,1.128,0S26.821,46.675,26.51,46.363"/>
	<path style="clip-path:url(#SVGID_2_);fill:#046A3A;" d="M11.546,40.606c-0.312-0.312-0.817-0.312-1.128,0s-0.312,0.817,0,1.128
		s0.817,0.312,1.128,0S11.858,40.918,11.546,40.606"/>
	<path style="clip-path:url(#SVGID_2_);fill:#046A3A;" d="M14.469,41.893c-0.312-0.312-0.816-0.312-1.128,0
		c-0.312,0.312-0.312,0.817,0,1.128s0.816,0.312,1.128,0C14.781,42.709,14.781,42.205,14.469,41.893"/>
	<path style="clip-path:url(#SVGID_2_);fill:#046A3A;" d="M16.541,43.783c-0.312-0.312-0.817-0.312-1.128,0
		c-0.312,0.312-0.312,0.816,0,1.128s0.817,0.312,1.128,0S16.852,44.095,16.541,43.783"/>
	<path style="clip-path:url(#SVGID_2_);fill:#046A3A;" d="M18.442,45.867c-0.312-0.312-0.817-0.312-1.128,0s-0.312,0.817,0,1.128
		s0.816,0.312,1.128,0C18.754,46.684,18.754,46.179,18.442,45.867"/>
	<path style="clip-path:url(#SVGID_2_);fill:#046A3A;" d="M20.666,47.951c-0.312-0.312-0.817-0.312-1.128,0
		c-0.312,0.312-0.312,0.817,0,1.128s0.816,0.312,1.128,0C20.978,48.768,20.978,48.263,20.666,47.951"/>
	<path style="clip-path:url(#SVGID_2_);fill:#046A3A;" d="M23.335,49.327c-0.312-0.312-0.817-0.312-1.128,0s-0.312,0.817,0,1.128
		c0.312,0.313,0.816,0.313,1.128,0C23.647,50.145,23.647,49.639,23.335,49.327"/>
	<path style="clip-path:url(#SVGID_2_);fill:#046A3A;" d="M28.557,49.898l-0.184,0.179c-0.015,0.015-1.583,1.522-3.863,2.144
		c-1.337,0.363-2.651,0.354-3.908-0.029c-1.569-0.478-3.047-1.542-4.393-3.162c-5.738-6.907-7.765-6.813-11.802-5.944l-0.156,0.033
		c0,0,2.45-1.74,5.516-0.946c1.88,0.487,3.824,2.06,6.676,5.493c1.301,1.566,2.652,2.974,3.925,3.475
		c1.189,0.468,2.785,0.714,4.072,0.363c2.188-0.596,3.214-1.124,3.229-1.139L28.557,49.898z"/>
	<path style="clip-path:url(#SVGID_2_);fill:#046A3A;" d="M32.055,46.722L31.87,46.9c-0.015,0.015-1.582,1.523-3.863,2.144
		c-1.336,0.364-2.651,0.354-3.908-0.029c-1.569-0.478-3.047-1.542-4.393-3.163c-5.738-6.906-7.765-6.813-11.803-5.945l-0.155,0.034
		c0,0,2.449-1.74,5.515-0.945c1.881,0.487,3.825,2.06,6.677,5.492c1.301,1.566,2.652,2.974,3.925,3.475
		c1.188,0.468,2.785,0.714,4.072,0.363c2.188-0.596,3.214-1.124,3.229-1.139L32.055,46.722z"/>
	<path style="clip-path:url(#SVGID_2_);fill:#046A3A;" d="M36.563,40.879l-0.185,0.178c-0.015,0.015-1.582,1.523-3.863,2.144
		c-1.336,0.364-2.651,0.354-3.908-0.029c-1.569-0.479-3.047-1.542-4.393-3.163c-5.738-6.907-7.765-6.813-11.802-5.945l-0.155,0.033
		c0,0,2.449-1.739,5.515-0.945c1.88,0.487,3.825,2.06,6.676,5.492c1.301,1.567,2.652,2.974,3.925,3.475
		c1.189,0.468,2.785,0.713,4.073,0.363c2.188-0.595,3.214-1.124,3.229-1.138L36.563,40.879z"/>
	<path style="clip-path:url(#SVGID_2_);fill:#046A3A;" d="M27.544,52.418l-0.185,0.179c-0.015,0.015-1.582,1.522-3.863,2.144
		c-1.336,0.363-2.651,0.354-3.908-0.029c-1.569-0.478-3.047-1.542-4.393-3.162c-5.737-6.906-7.764-6.813-11.802-5.945l-0.155,0.033
		c0,0,2.449-1.739,5.515-0.945c1.881,0.487,3.825,2.06,6.676,5.493c1.301,1.566,2.653,2.974,3.925,3.475
		c1.189,0.468,2.785,0.714,4.073,0.363c2.188-0.596,3.214-1.124,3.229-1.139L27.544,52.418z"/>
	<path style="clip-path:url(#SVGID_2_);fill:#046A3A;" d="M35.552,43.545l-0.184,0.179c-0.015,0.015-1.582,1.523-3.863,2.144
		c-1.336,0.364-2.651,0.354-3.908-0.029c-1.569-0.478-3.047-1.542-4.393-3.163c-5.738-6.906-7.765-6.813-11.802-5.944l-0.156,0.033
		c0,0,2.45-1.739,5.516-0.945c1.88,0.487,3.825,2.06,6.676,5.492c1.301,1.566,2.653,2.974,3.925,3.475
		c1.189,0.468,2.785,0.713,4.073,0.363c2.188-0.595,3.214-1.124,3.229-1.138L35.552,43.545z"/>
	<path style="clip-path:url(#SVGID_2_);fill:#046A3A;" d="M73.576,48.048c-0.312-0.312-0.816-0.312-1.128,0s-0.312,0.817,0,1.128
		s0.816,0.312,1.128,0S73.888,48.359,73.576,48.048"/>
	<path style="clip-path:url(#SVGID_2_);fill:#046A3A;" d="M76.499,49.334c-0.312-0.312-0.817-0.312-1.129,0
		c-0.312,0.312-0.312,0.817,0,1.128s0.817,0.312,1.129,0S76.811,49.646,76.499,49.334"/>
	<path style="clip-path:url(#SVGID_2_);fill:#046A3A;" d="M78.57,51.225c-0.312-0.312-0.816-0.312-1.128,0s-0.312,0.816,0,1.128
		s0.816,0.312,1.128,0S78.882,51.536,78.57,51.225"/>
	<path style="clip-path:url(#SVGID_2_);fill:#046A3A;" d="M80.472,53.309c-0.312-0.312-0.816-0.312-1.128,0s-0.312,0.816,0,1.129
		c0.312,0.312,0.816,0.312,1.128,0C80.783,54.125,80.783,53.62,80.472,53.309"/>
	<path style="clip-path:url(#SVGID_2_);fill:#046A3A;" d="M82.695,55.393c-0.312-0.312-0.816-0.312-1.128,0
		c-0.312,0.313-0.312,0.817,0,1.129s0.816,0.312,1.128,0S83.007,55.705,82.695,55.393"/>
	<path style="clip-path:url(#SVGID_2_);fill:#046A3A;" d="M85.242,56.981c-0.312-0.312-0.816-0.312-1.128,0s-0.312,0.816,0,1.128
		s0.816,0.312,1.128,0S85.554,57.293,85.242,56.981"/>
	<path style="clip-path:url(#SVGID_2_);fill:#046A3A;" d="M70.278,51.225c-0.312-0.312-0.816-0.312-1.128,0s-0.312,0.816,0,1.128
		s0.816,0.312,1.128,0S70.59,51.536,70.278,51.225"/>
	<path style="clip-path:url(#SVGID_2_);fill:#046A3A;" d="M73.201,52.511c-0.312-0.312-0.816-0.312-1.128,0s-0.312,0.817,0,1.128
		c0.312,0.313,0.816,0.313,1.128,0C73.513,53.328,73.513,52.822,73.201,52.511"/>
	<path style="clip-path:url(#SVGID_2_);fill:#046A3A;" d="M75.272,54.401c-0.312-0.312-0.816-0.312-1.128,0s-0.312,0.816,0,1.128
		s0.816,0.312,1.128,0S75.584,54.713,75.272,54.401"/>
	<path style="clip-path:url(#SVGID_2_);fill:#046A3A;" d="M77.175,56.485c-0.312-0.312-0.817-0.312-1.129,0s-0.312,0.816,0,1.128
		s0.817,0.312,1.129,0S77.486,56.797,77.175,56.485"/>
	<path style="clip-path:url(#SVGID_2_);fill:#046A3A;" d="M79.398,58.569c-0.313-0.312-0.817-0.312-1.129,0s-0.312,0.817,0,1.128
		c0.312,0.313,0.816,0.313,1.129,0C79.71,59.387,79.71,58.881,79.398,58.569"/>
	<path style="clip-path:url(#SVGID_2_);fill:#046A3A;" d="M82.067,59.945c-0.312-0.312-0.816-0.312-1.128,0s-0.312,0.816,0,1.128
		s0.816,0.312,1.128,0S82.379,60.257,82.067,59.945"/>
	<path style="clip-path:url(#SVGID_2_);fill:#046A3A;" d="M87.289,60.517l-0.184,0.179c-0.016,0.015-1.582,1.522-3.863,2.144
		c-1.336,0.363-2.651,0.354-3.908-0.029c-1.568-0.478-3.046-1.542-4.393-3.162c-5.737-6.907-7.765-6.813-11.802-5.944l-0.155,0.033
		c0,0,2.449-1.74,5.515-0.946c1.881,0.487,3.824,2.061,6.677,5.493c1.301,1.566,2.652,2.974,3.925,3.475
		c1.188,0.468,2.784,0.713,4.072,0.363c2.188-0.596,3.214-1.124,3.229-1.139L87.289,60.517z"/>
	<path style="clip-path:url(#SVGID_2_);fill:#046A3A;" d="M90.787,57.34l-0.185,0.179c-0.015,0.015-1.582,1.522-3.863,2.144
		c-1.336,0.363-2.651,0.354-3.907-0.029c-1.568-0.478-3.047-1.542-4.393-3.162c-5.738-6.906-7.765-6.813-11.803-5.945l-0.155,0.034
		c0,0,2.449-1.74,5.515-0.946c1.881,0.487,3.825,2.06,6.677,5.493c1.302,1.566,2.652,2.974,3.925,3.475
		c1.189,0.468,2.785,0.714,4.072,0.363c2.188-0.596,3.214-1.124,3.229-1.139L90.787,57.34z"/>
	<path style="clip-path:url(#SVGID_2_);fill:#046A3A;" d="M95.295,51.498l-0.185,0.178c-0.016,0.015-1.582,1.523-3.863,2.144
		c-1.336,0.364-2.651,0.354-3.907-0.028c-1.569-0.479-3.047-1.543-4.394-3.163c-5.737-6.906-7.765-6.813-11.802-5.944l-0.155,0.033
		c0,0,2.449-1.739,5.515-0.945c1.881,0.487,3.825,2.06,6.677,5.492c1.301,1.566,2.652,2.975,3.925,3.475
		c1.188,0.469,2.785,0.714,4.072,0.363c2.188-0.595,3.214-1.124,3.229-1.139L95.295,51.498z"/>
	<path style="clip-path:url(#SVGID_2_);fill:#046A3A;" d="M86.276,63.036l-0.185,0.179c-0.016,0.015-1.582,1.522-3.863,2.144
		c-1.336,0.363-2.65,0.354-3.907-0.028c-1.569-0.479-3.047-1.543-4.394-3.163c-5.737-6.906-7.764-6.813-11.802-5.944l-0.155,0.033
		c0,0,2.449-1.74,5.515-0.945c1.881,0.486,3.825,2.059,6.677,5.492c1.301,1.566,2.652,2.974,3.925,3.475
		c1.188,0.468,2.785,0.714,4.072,0.363c2.188-0.596,3.214-1.124,3.229-1.139L86.276,63.036z"/>
	<path style="clip-path:url(#SVGID_2_);fill:#046A3A;" d="M94.284,54.163L94.1,54.342c-0.015,0.015-1.582,1.523-3.862,2.144
		c-1.337,0.364-2.651,0.354-3.908-0.028c-1.568-0.479-3.047-1.543-4.393-3.163c-5.737-6.906-7.765-6.813-11.803-5.944l-0.155,0.033
		c0,0,2.449-1.74,5.516-0.945c1.881,0.487,3.824,2.06,6.676,5.492c1.302,1.566,2.653,2.974,3.925,3.475
		c1.189,0.469,2.785,0.714,4.073,0.363c2.188-0.596,3.214-1.124,3.229-1.139L94.284,54.163z"/>
	<path style="clip-path:url(#SVGID_2_);fill:#046A3A;" d="M61.85,64.33c-0.312-0.312-0.816-0.312-1.128,0s-0.312,0.816,0,1.128
		s0.816,0.312,1.128,0C62.162,65.146,62.162,64.642,61.85,64.33"/>
	<path style="clip-path:url(#SVGID_2_);fill:#046A3A;" d="M64.772,65.616c-0.312-0.312-0.816-0.312-1.128,0s-0.312,0.816,0,1.128
		c0.312,0.313,0.816,0.313,1.128,0C65.084,66.433,65.084,65.928,64.772,65.616"/>
	<path style="clip-path:url(#SVGID_2_);fill:#046A3A;" d="M66.844,67.507c-0.312-0.312-0.816-0.312-1.128,0s-0.312,0.816,0,1.128
		s0.816,0.312,1.128,0S67.155,67.818,66.844,67.507"/>
	<path style="clip-path:url(#SVGID_2_);fill:#046A3A;" d="M68.746,69.591c-0.313-0.312-0.817-0.312-1.129,0s-0.312,0.816,0,1.128
		s0.816,0.312,1.129,0C69.058,70.407,69.058,69.902,68.746,69.591"/>
	<path style="clip-path:url(#SVGID_2_);fill:#046A3A;" d="M70.97,71.675c-0.312-0.312-0.817-0.312-1.129,0s-0.312,0.817,0,1.128
		c0.312,0.313,0.817,0.313,1.129,0C71.281,72.492,71.281,71.986,70.97,71.675"/>
	<path style="clip-path:url(#SVGID_2_);fill:#046A3A;" d="M73.516,73.264c-0.312-0.313-0.816-0.313-1.128,0
		c-0.312,0.312-0.312,0.816,0,1.128s0.816,0.312,1.128,0S73.827,73.575,73.516,73.264"/>
	<path style="clip-path:url(#SVGID_2_);fill:#046A3A;" d="M58.553,67.507c-0.312-0.312-0.817-0.312-1.129,0s-0.312,0.816,0,1.128
		s0.817,0.312,1.129,0S58.864,67.818,58.553,67.507"/>
	<path style="clip-path:url(#SVGID_2_);fill:#046A3A;" d="M61.475,68.793c-0.312-0.312-0.816-0.312-1.128,0s-0.312,0.816,0,1.128
		s0.816,0.312,1.128,0C61.787,69.609,61.787,69.104,61.475,68.793"/>
	<path style="clip-path:url(#SVGID_2_);fill:#046A3A;" d="M63.547,70.683c-0.313-0.312-0.817-0.312-1.129,0s-0.312,0.817,0,1.129
		s0.816,0.312,1.129,0C63.858,71.5,63.858,70.994,63.547,70.683"/>
	<path style="clip-path:url(#SVGID_2_);fill:#046A3A;" d="M65.448,72.768c-0.312-0.312-0.816-0.312-1.128,0
		c-0.313,0.312-0.313,0.816,0,1.128c0.312,0.312,0.816,0.312,1.128,0S65.76,73.079,65.448,72.768"/>
	<path style="clip-path:url(#SVGID_2_);fill:#046A3A;" d="M67.672,74.852c-0.312-0.312-0.816-0.312-1.128,0s-0.312,0.816,0,1.128
		s0.816,0.312,1.128,0S67.983,75.163,67.672,74.852"/>
	<path style="clip-path:url(#SVGID_2_);fill:#046A3A;" d="M70.342,76.228c-0.313-0.312-0.817-0.312-1.129,0s-0.312,0.816,0,1.128
		s0.816,0.312,1.129,0C70.652,77.044,70.652,76.539,70.342,76.228"/>
	<path style="clip-path:url(#SVGID_2_);fill:#046A3A;" d="M75.563,76.799l-0.185,0.178c-0.016,0.016-1.582,1.523-3.863,2.145
		c-1.336,0.363-2.65,0.354-3.907-0.029c-1.569-0.479-3.047-1.542-4.393-3.162c-5.738-6.907-7.765-6.813-11.803-5.945l-0.155,0.033
		c0,0,2.449-1.739,5.516-0.945c1.88,0.487,3.824,2.061,6.676,5.493c1.301,1.565,2.652,2.974,3.925,3.474
		c1.188,0.469,2.785,0.714,4.072,0.363c2.188-0.595,3.214-1.123,3.229-1.138L75.563,76.799z"/>
	<path style="clip-path:url(#SVGID_2_);fill:#046A3A;" d="M79.061,73.622l-0.185,0.179c-0.015,0.015-1.582,1.522-3.862,2.144
		c-1.337,0.363-2.651,0.354-3.908-0.029c-1.568-0.478-3.047-1.542-4.393-3.162c-5.738-6.907-7.765-6.813-11.803-5.945l-0.155,0.033
		c0,0,2.449-1.739,5.516-0.944c1.88,0.486,3.824,2.059,6.677,5.492c1.301,1.566,2.652,2.974,3.925,3.475
		c1.188,0.468,2.784,0.713,4.072,0.363c2.188-0.596,3.214-1.124,3.229-1.139L79.061,73.622z"/>
	<path style="clip-path:url(#SVGID_2_);fill:#046A3A;" d="M83.568,67.779l-0.185,0.179c-0.015,0.015-1.582,1.522-3.862,2.144
		c-1.337,0.363-2.651,0.354-3.908-0.028c-1.568-0.479-3.047-1.543-4.393-3.163c-5.738-6.906-7.765-6.813-11.803-5.944l-0.155,0.033
		c0,0,2.449-1.739,5.515-0.945c1.881,0.487,3.825,2.06,6.677,5.492c1.302,1.566,2.652,2.974,3.925,3.475
		c1.189,0.468,2.785,0.714,4.073,0.363c2.188-0.596,3.214-1.124,3.229-1.139L83.568,67.779z"/>
	<path style="clip-path:url(#SVGID_2_);fill:#046A3A;" d="M74.55,79.318l-0.185,0.178c-0.015,0.016-1.582,1.523-3.862,2.145
		c-1.337,0.363-2.651,0.354-3.908-0.029c-1.568-0.479-3.047-1.542-4.393-3.162c-5.738-6.907-7.765-6.813-11.803-5.945l-0.155,0.033
		c0,0,2.449-1.739,5.516-0.945c1.881,0.487,3.824,2.06,6.676,5.492c1.302,1.566,2.652,2.975,3.925,3.476
		c1.189,0.468,2.785,0.713,4.073,0.362c2.188-0.595,3.213-1.123,3.229-1.138L74.55,79.318z"/>
	<path style="clip-path:url(#SVGID_2_);fill:#046A3A;" d="M82.558,70.445l-0.185,0.179c-0.015,0.015-1.582,1.522-3.862,2.144
		c-1.337,0.363-2.651,0.354-3.908-0.029c-1.568-0.478-3.046-1.542-4.393-3.162c-5.737-6.906-7.765-6.813-11.802-5.945l-0.156,0.034
		c0,0,2.449-1.739,5.516-0.946c1.881,0.487,3.824,2.061,6.677,5.493c1.301,1.565,2.652,2.974,3.925,3.475
		c1.188,0.468,2.784,0.714,4.072,0.363c2.188-0.596,3.214-1.124,3.229-1.139L82.558,70.445z"/>
	<path style="clip-path:url(#SVGID_2_);fill:#046A3A;" d="M30.017,59.05c-0.312-0.312-0.817-0.312-1.128,0s-0.312,0.817,0,1.129
		s0.816,0.312,1.128,0C30.329,59.867,30.329,59.361,30.017,59.05"/>
	<path style="clip-path:url(#SVGID_2_);fill:#046A3A;" d="M32.939,60.336c-0.312-0.311-0.817-0.311-1.128,0
		c-0.312,0.313-0.312,0.817,0,1.129s0.817,0.312,1.128,0S33.251,60.648,32.939,60.336"/>
	<path style="clip-path:url(#SVGID_2_);fill:#046A3A;" d="M35.011,62.227c-0.312-0.312-0.816-0.312-1.128,0s-0.312,0.816,0,1.128
		s0.816,0.312,1.128,0C35.323,63.043,35.323,62.538,35.011,62.227"/>
	<path style="clip-path:url(#SVGID_2_);fill:#046A3A;" d="M36.913,64.311c-0.312-0.312-0.817-0.312-1.128,0
		c-0.312,0.313-0.312,0.817,0,1.129s0.817,0.312,1.128,0S37.224,64.623,36.913,64.311"/>
	<path style="clip-path:url(#SVGID_2_);fill:#046A3A;" d="M39.136,66.395c-0.312-0.311-0.817-0.311-1.128,0
		c-0.312,0.313-0.312,0.817,0,1.129s0.817,0.312,1.128,0S39.448,66.707,39.136,66.395"/>
	<path style="clip-path:url(#SVGID_2_);fill:#046A3A;" d="M41.683,67.983c-0.312-0.312-0.816-0.312-1.128,0s-0.312,0.817,0,1.128
		c0.312,0.313,0.816,0.313,1.128,0C41.995,68.801,41.995,68.295,41.683,67.983"/>
	<path style="clip-path:url(#SVGID_2_);fill:#046A3A;" d="M26.719,62.227c-0.312-0.312-0.816-0.312-1.128,0
		c-0.312,0.312-0.312,0.816,0,1.128c0.312,0.312,0.816,0.312,1.128,0C27.031,63.043,27.031,62.538,26.719,62.227"/>
	<path style="clip-path:url(#SVGID_2_);fill:#046A3A;" d="M29.642,63.513c-0.312-0.312-0.816-0.312-1.128,0s-0.312,0.817,0,1.129
		s0.816,0.312,1.128,0C29.954,64.33,29.954,63.824,29.642,63.513"/>
	<path style="clip-path:url(#SVGID_2_);fill:#046A3A;" d="M31.713,65.403c-0.312-0.312-0.817-0.312-1.128,0s-0.312,0.816,0,1.128
		s0.817,0.312,1.128,0S32.025,65.715,31.713,65.403"/>
	<path style="clip-path:url(#SVGID_2_);fill:#046A3A;" d="M33.615,67.487c-0.312-0.312-0.817-0.312-1.128,0s-0.312,0.817,0,1.128
		c0.312,0.313,0.817,0.313,1.128,0C33.927,68.305,33.927,67.799,33.615,67.487"/>
	<path style="clip-path:url(#SVGID_2_);fill:#046A3A;" d="M35.839,69.571c-0.312-0.312-0.817-0.312-1.128,0s-0.312,0.817,0,1.129
		s0.817,0.312,1.128,0S36.15,69.883,35.839,69.571"/>
	<path style="clip-path:url(#SVGID_2_);fill:#046A3A;" d="M38.508,70.947c-0.312-0.312-0.817-0.312-1.128,0s-0.312,0.817,0,1.129
		s0.817,0.312,1.128,0S38.82,71.259,38.508,70.947"/>
	<path style="clip-path:url(#SVGID_2_);fill:#046A3A;" d="M43.73,71.519l-0.185,0.179c-0.015,0.015-1.583,1.523-3.863,2.144
		c-1.336,0.364-2.651,0.354-3.908-0.028c-1.569-0.479-3.047-1.543-4.393-3.163c-5.738-6.906-7.765-6.813-11.802-5.944l-0.155,0.033
		c0,0,2.449-1.74,5.515-0.945c1.88,0.486,3.824,2.06,6.676,5.492c1.301,1.566,2.652,2.974,3.925,3.475
		c1.189,0.468,2.785,0.714,4.073,0.363c2.188-0.596,3.214-1.124,3.229-1.139L43.73,71.519z"/>
	<path style="clip-path:url(#SVGID_2_);fill:#046A3A;" d="M47.228,68.342l-0.185,0.179c-0.015,0.015-1.582,1.523-3.863,2.144
		c-1.336,0.364-2.651,0.354-3.908-0.028c-1.569-0.479-3.047-1.542-4.393-3.163c-5.738-6.906-7.765-6.813-11.802-5.944l-0.156,0.033
		c0,0,2.449-1.739,5.515-0.945c1.881,0.487,3.825,2.06,6.677,5.492c1.301,1.566,2.652,2.974,3.925,3.475
		c1.189,0.468,2.785,0.714,4.072,0.363c2.188-0.596,3.214-1.124,3.229-1.139L47.228,68.342z"/>
	<path style="clip-path:url(#SVGID_2_);fill:#046A3A;" d="M51.735,62.5l-0.185,0.178c-0.015,0.016-1.582,1.523-3.863,2.145
		c-1.336,0.363-2.651,0.354-3.908-0.029c-1.569-0.479-3.047-1.542-4.393-3.162c-5.738-6.907-7.765-6.813-11.802-5.945l-0.155,0.033
		c0,0,2.449-1.739,5.515-0.945c1.881,0.487,3.825,2.06,6.676,5.492c1.301,1.566,2.653,2.975,3.925,3.476
		c1.189,0.468,2.785,0.713,4.073,0.362c2.188-0.595,3.213-1.123,3.229-1.138L51.735,62.5z"/>
	<path style="clip-path:url(#SVGID_2_);fill:#046A3A;" d="M42.717,74.038l-0.185,0.179c-0.015,0.015-1.582,1.523-3.863,2.144
		c-1.336,0.364-2.651,0.354-3.908-0.028c-1.569-0.479-3.047-1.543-4.393-3.163c-5.738-6.906-7.765-6.813-11.803-5.944l-0.155,0.033
		c0,0,2.449-1.739,5.515-0.945c1.881,0.486,3.825,2.06,6.676,5.492c1.302,1.566,2.653,2.974,3.925,3.475
		c1.189,0.468,2.785,0.714,4.072,0.363c2.188-0.596,3.214-1.124,3.229-1.139L42.717,74.038z"/>
	<path style="clip-path:url(#SVGID_2_);fill:#046A3A;" d="M50.725,65.165l-0.184,0.179c-0.016,0.015-1.583,1.523-3.863,2.144
		c-1.336,0.364-2.651,0.354-3.908-0.028c-1.569-0.479-3.047-1.543-4.393-3.163c-5.737-6.906-7.765-6.813-11.802-5.944l-0.155,0.033
		c0,0,2.449-1.739,5.515-0.945c1.88,0.487,3.825,2.06,6.676,5.492c1.301,1.566,2.653,2.974,3.925,3.475
		c1.189,0.469,2.785,0.714,4.073,0.363c2.188-0.595,3.214-1.124,3.229-1.139L50.725,65.165z"/>
	<path style="clip-path:url(#SVGID_2_);fill:#046A3A;" d="M44.073,43.182c-0.312-0.312-0.816-0.312-1.128,0
		c-0.312,0.312-0.312,0.817,0,1.128c0.312,0.312,0.816,0.312,1.128,0C44.385,43.999,44.385,43.494,44.073,43.182"/>
	<path style="clip-path:url(#SVGID_2_);fill:#046A3A;" d="M46.996,44.468c-0.312-0.312-0.817-0.312-1.128,0s-0.312,0.817,0,1.128
		s0.816,0.312,1.128,0C47.307,45.285,47.307,44.78,46.996,44.468"/>
	<path style="clip-path:url(#SVGID_2_);fill:#046A3A;" d="M49.067,46.358c-0.312-0.312-0.817-0.312-1.128,0s-0.312,0.817,0,1.128
		s0.817,0.312,1.128,0S49.378,46.67,49.067,46.358"/>
	<path style="clip-path:url(#SVGID_2_);fill:#046A3A;" d="M50.969,48.443c-0.312-0.312-0.816-0.312-1.128,0
		c-0.312,0.312-0.312,0.816,0,1.128c0.312,0.312,0.817,0.312,1.128,0C51.28,49.259,51.28,48.754,50.969,48.443"/>
	<path style="clip-path:url(#SVGID_2_);fill:#046A3A;" d="M53.192,50.527c-0.312-0.313-0.817-0.313-1.128,0
		c-0.313,0.312-0.313,0.816,0,1.128c0.311,0.312,0.816,0.312,1.128,0S53.504,50.839,53.192,50.527"/>
	<path style="clip-path:url(#SVGID_2_);fill:#046A3A;" d="M55.739,52.115c-0.312-0.312-0.817-0.312-1.129,0s-0.312,0.816,0,1.128
		s0.817,0.312,1.129,0S56.051,52.427,55.739,52.115"/>
	<path style="clip-path:url(#SVGID_2_);fill:#046A3A;" d="M40.775,46.358c-0.312-0.312-0.817-0.312-1.128,0
		c-0.312,0.312-0.312,0.817,0,1.128c0.311,0.312,0.816,0.312,1.128,0S41.087,46.67,40.775,46.358"/>
	<path style="clip-path:url(#SVGID_2_);fill:#046A3A;" d="M43.698,47.645c-0.312-0.312-0.816-0.312-1.128,0
		c-0.312,0.312-0.312,0.817,0,1.128c0.312,0.312,0.816,0.312,1.128,0C44.01,48.461,44.01,47.957,43.698,47.645"/>
	<path style="clip-path:url(#SVGID_2_);fill:#046A3A;" d="M45.77,49.535c-0.312-0.312-0.817-0.312-1.128,0
		c-0.312,0.312-0.312,0.816,0,1.128s0.817,0.312,1.128,0S46.081,49.847,45.77,49.535"/>
	<path style="clip-path:url(#SVGID_2_);fill:#046A3A;" d="M47.671,51.619c-0.312-0.312-0.816-0.312-1.128,0s-0.312,0.816,0,1.128
		s0.816,0.312,1.128,0C47.983,52.436,47.983,51.931,47.671,51.619"/>
	<path style="clip-path:url(#SVGID_2_);fill:#046A3A;" d="M49.895,53.703c-0.312-0.312-0.816-0.312-1.128,0s-0.312,0.817,0,1.129
		s0.816,0.312,1.128,0S50.206,54.015,49.895,53.703"/>
	<path style="clip-path:url(#SVGID_2_);fill:#046A3A;" d="M52.564,55.079c-0.312-0.312-0.816-0.312-1.129,0
		c-0.312,0.312-0.312,0.817,0,1.128c0.313,0.313,0.817,0.313,1.129,0C52.876,55.896,52.876,55.391,52.564,55.079"/>
	<path style="clip-path:url(#SVGID_2_);fill:#046A3A;" d="M57.786,55.65l-0.185,0.179c-0.015,0.015-1.582,1.522-3.862,2.144
		c-1.337,0.363-2.651,0.354-3.908-0.029c-1.568-0.478-3.046-1.542-4.393-3.162c-5.738-6.907-7.765-6.813-11.802-5.944L33.48,48.87
		c0,0,2.449-1.74,5.516-0.946c1.88,0.487,3.824,2.06,6.676,5.493c1.301,1.566,2.652,2.974,3.925,3.475
		c1.189,0.468,2.785,0.714,4.073,0.363c2.188-0.596,3.214-1.124,3.229-1.139L57.786,55.65z"/>
	<path style="clip-path:url(#SVGID_2_);fill:#046A3A;" d="M61.283,52.474L61.1,52.652c-0.016,0.015-1.583,1.523-3.863,2.144
		c-1.336,0.364-2.651,0.354-3.908-0.028c-1.568-0.479-3.046-1.543-4.393-3.163c-5.737-6.906-7.764-6.813-11.802-5.945l-0.155,0.034
		c0,0,2.449-1.74,5.515-0.945c1.881,0.487,3.825,2.06,6.677,5.492c1.301,1.566,2.652,2.974,3.925,3.475
		c1.188,0.469,2.784,0.714,4.072,0.363c2.188-0.596,3.214-1.124,3.229-1.139L61.283,52.474z"/>
	<path style="clip-path:url(#SVGID_2_);fill:#046A3A;" d="M65.791,46.631l-0.185,0.179c-0.015,0.015-1.582,1.523-3.862,2.144
		c-1.337,0.364-2.651,0.354-3.908-0.029c-1.568-0.478-3.047-1.542-4.393-3.163c-5.738-6.907-7.765-6.813-11.802-5.945l-0.155,0.033
		c0,0,2.449-1.739,5.515-0.945c1.88,0.487,3.824,2.06,6.677,5.493c1.301,1.566,2.652,2.974,3.925,3.475
		c1.188,0.468,2.784,0.713,4.072,0.363c2.188-0.595,3.214-1.124,3.229-1.138L65.791,46.631z"/>
	<path style="clip-path:url(#SVGID_2_);fill:#046A3A;" d="M56.772,58.17l-0.185,0.179c-0.015,0.015-1.582,1.522-3.862,2.144
		c-1.337,0.363-2.651,0.354-3.908-0.028c-1.569-0.479-3.047-1.543-4.393-3.163c-5.738-6.906-7.765-6.813-11.802-5.944l-0.155,0.033
		c0,0,2.449-1.74,5.515-0.945c1.881,0.487,3.825,2.06,6.676,5.492c1.301,1.566,2.653,2.974,3.925,3.475
		c1.188,0.468,2.784,0.714,4.072,0.363c2.188-0.596,3.214-1.124,3.229-1.139L56.772,58.17z"/>
	<path style="clip-path:url(#SVGID_2_);fill:#046A3A;" d="M64.781,49.297l-0.185,0.178c-0.016,0.015-1.582,1.523-3.863,2.144
		c-1.336,0.364-2.651,0.354-3.907-0.028c-1.569-0.479-3.047-1.542-4.393-3.163c-5.738-6.906-7.765-6.813-11.803-5.944l-0.156,0.033
		c0,0,2.45-1.739,5.516-0.945c1.88,0.487,3.825,2.06,6.676,5.492c1.301,1.566,2.652,2.974,3.925,3.475
		c1.188,0.469,2.785,0.714,4.072,0.363c2.188-0.595,3.214-1.124,3.229-1.138L64.781,49.297z"/>
	<path style="clip-path:url(#SVGID_2_);fill:#046A3A;" d="M56.228,26.407c-0.312-0.312-0.817-0.312-1.128,0
		c-0.313,0.312-0.313,0.816,0,1.128c0.311,0.312,0.816,0.312,1.128,0S56.539,26.719,56.228,26.407"/>
	<path style="clip-path:url(#SVGID_2_);fill:#046A3A;" d="M59.149,27.693c-0.312-0.312-0.816-0.312-1.128,0s-0.312,0.817,0,1.128
		s0.816,0.312,1.128,0S59.461,28.005,59.149,27.693"/>
	<path style="clip-path:url(#SVGID_2_);fill:#046A3A;" d="M61.222,29.583c-0.312-0.312-0.817-0.312-1.129,0s-0.312,0.817,0,1.128
		s0.817,0.312,1.129,0S61.533,29.895,61.222,29.583"/>
	<path style="clip-path:url(#SVGID_2_);fill:#046A3A;" d="M63.123,31.668c-0.312-0.312-0.816-0.312-1.128,0s-0.312,0.816,0,1.128
		c0.312,0.312,0.816,0.312,1.128,0C63.435,32.484,63.435,31.979,63.123,31.668"/>
	<path style="clip-path:url(#SVGID_2_);fill:#046A3A;" d="M65.347,33.752c-0.312-0.312-0.816-0.312-1.128,0
		c-0.313,0.312-0.313,0.817,0,1.128c0.312,0.312,0.816,0.312,1.128,0S65.658,34.063,65.347,33.752"/>
	<path style="clip-path:url(#SVGID_2_);fill:#046A3A;" d="M67.894,35.34c-0.312-0.312-0.817-0.312-1.129,0s-0.312,0.817,0,1.128
		s0.817,0.312,1.129,0S68.205,35.652,67.894,35.34"/>
	<path style="clip-path:url(#SVGID_2_);fill:#046A3A;" d="M52.93,29.583c-0.312-0.312-0.816-0.312-1.128,0s-0.312,0.817,0,1.128
		s0.816,0.312,1.128,0S53.241,29.895,52.93,29.583"/>
	<path style="clip-path:url(#SVGID_2_);fill:#046A3A;" d="M55.853,30.87c-0.312-0.312-0.817-0.312-1.129,0s-0.312,0.816,0,1.128
		s0.817,0.312,1.129,0S56.164,31.182,55.853,30.87"/>
	<path style="clip-path:url(#SVGID_2_);fill:#046A3A;" d="M57.924,32.76c-0.312-0.312-0.816-0.312-1.128,0
		c-0.312,0.312-0.312,0.816,0,1.128c0.312,0.312,0.816,0.312,1.128,0C58.235,33.577,58.235,33.072,57.924,32.76"/>
	<path style="clip-path:url(#SVGID_2_);fill:#046A3A;" d="M59.825,34.844c-0.312-0.312-0.816-0.312-1.128,0s-0.312,0.817,0,1.128
		s0.816,0.312,1.128,0S60.137,35.156,59.825,34.844"/>
	<path style="clip-path:url(#SVGID_2_);fill:#046A3A;" d="M62.049,36.929c-0.312-0.312-0.816-0.312-1.128,0
		c-0.312,0.312-0.312,0.816,0,1.128s0.816,0.312,1.128,0S62.36,37.24,62.049,36.929"/>
	<path style="clip-path:url(#SVGID_2_);fill:#046A3A;" d="M64.719,38.305c-0.312-0.312-0.816-0.312-1.128,0
		c-0.312,0.312-0.312,0.816,0,1.128s0.816,0.312,1.128,0S65.03,38.616,64.719,38.305"/>
	<path style="clip-path:url(#SVGID_2_);fill:#046A3A;" d="M69.94,38.875l-0.185,0.179c-0.015,0.015-1.582,1.523-3.862,2.144
		c-1.337,0.364-2.651,0.354-3.908-0.029c-1.568-0.479-3.046-1.542-4.393-3.163c-5.737-6.907-7.765-6.813-11.802-5.944l-0.156,0.033
		c0,0,2.449-1.74,5.516-0.946c1.881,0.487,3.824,2.06,6.676,5.493c1.302,1.566,2.653,2.974,3.926,3.475
		c1.188,0.468,2.784,0.713,4.072,0.363c2.188-0.595,3.214-1.124,3.229-1.138L69.94,38.875z"/>
	<path style="clip-path:url(#SVGID_2_);fill:#046A3A;" d="M73.438,35.699l-0.184,0.178c-0.016,0.015-1.582,1.523-3.863,2.144
		c-1.336,0.364-2.651,0.354-3.908-0.029c-1.568-0.478-3.046-1.542-4.393-3.163c-5.737-6.906-7.765-6.813-11.802-5.945l-0.156,0.034
		c0,0,2.45-1.74,5.515-0.945c1.881,0.487,3.824,2.06,6.677,5.493c1.301,1.566,2.652,2.974,3.925,3.474
		c1.188,0.468,2.784,0.714,4.072,0.363c2.188-0.595,3.214-1.124,3.229-1.138L73.438,35.699z"/>
	<path style="clip-path:url(#SVGID_2_);fill:#046A3A;" d="M77.945,29.856l-0.184,0.179c-0.016,0.015-1.583,1.523-3.863,2.144
		c-1.337,0.364-2.651,0.354-3.908-0.029c-1.568-0.478-3.046-1.542-4.393-3.163c-5.737-6.906-7.765-6.813-11.802-5.945l-0.156,0.033
		c0,0,2.449-1.739,5.516-0.945c1.881,0.487,3.824,2.06,6.677,5.493c1.301,1.566,2.652,2.974,3.925,3.475
		c1.188,0.468,2.784,0.713,4.072,0.363c2.188-0.596,3.214-1.124,3.229-1.139L77.945,29.856z"/>
	<path style="clip-path:url(#SVGID_2_);fill:#046A3A;" d="M68.928,41.396l-0.186,0.178c-0.015,0.015-1.582,1.523-3.862,2.144
		c-1.337,0.364-2.651,0.354-3.908-0.029c-1.568-0.478-3.046-1.542-4.393-3.163c-5.737-6.906-7.765-6.813-11.802-5.945l-0.156,0.033
		c0,0,2.449-1.739,5.515-0.945c1.881,0.487,3.824,2.06,6.677,5.493c1.301,1.566,2.652,2.974,3.925,3.475
		c1.188,0.468,2.784,0.713,4.072,0.363c2.188-0.595,3.214-1.124,3.229-1.139L68.928,41.396z"/>
	<path style="clip-path:url(#SVGID_2_);fill:#046A3A;" d="M76.936,32.522l-0.185,0.179c-0.015,0.015-1.582,1.523-3.862,2.144
		c-1.337,0.363-2.652,0.354-3.908-0.029c-1.569-0.478-3.047-1.542-4.393-3.163c-5.738-6.906-7.765-6.813-11.803-5.944l-0.155,0.033
		c0,0,2.449-1.739,5.515-0.945c1.881,0.487,3.825,2.06,6.677,5.492c1.302,1.566,2.652,2.974,3.925,3.475
		c1.189,0.468,2.785,0.713,4.072,0.363c2.188-0.595,3.214-1.124,3.229-1.138L76.936,32.522z"/>
</g>
</svg>
