<?xml version="1.0" encoding="utf-8"?>
<!-- Generator: Adobe Illustrator 16.0.0, SVG Export Plug-In . SVG Version: 6.00 Build 0)  -->
<!DOCTYPE svg PUBLIC "-//W3C//DTD SVG 1.1//EN" "http://www.w3.org/Graphics/SVG/1.1/DTD/svg11.dtd">
<svg version="1.1" id="Layer_1" xmlns="http://www.w3.org/2000/svg" xmlns:xlink="http://www.w3.org/1999/xlink" x="0px" y="0px"
	 width="100px" height="100px" viewBox="0 0 100 100" style="enable-background:new 0 0 100 100;" xml:space="preserve">
<g>
	<defs>
		<rect id="SVGID_1_" width="100" height="100"/>
	</defs>
	<clipPath id="SVGID_2_">
		<use xlink:href="#SVGID_1_"  style="overflow:visible;"/>
	</clipPath>
	<g style="clip-path:url(#SVGID_2_);">
		<defs>
			<rect id="SVGID_3_" width="100" height="100"/>
		</defs>
		<clipPath id="SVGID_4_">
			<use xlink:href="#SVGID_3_"  style="overflow:visible;"/>
		</clipPath>
		<g style="clip-path:url(#SVGID_4_);">
			<g>
				<defs>
					<rect id="SVGID_5_" x="25.639" y="63.104" width="3.524" height="3.523"/>
				</defs>
				<clipPath id="SVGID_6_">
					<use xlink:href="#SVGID_5_"  style="overflow:visible;"/>
				</clipPath>
				<path style="clip-path:url(#SVGID_6_);fill-rule:evenodd;clip-rule:evenodd;fill:#046A3A;" d="M29.163,64.865
					c0,0.973-0.789,1.762-1.762,1.762c-0.973,0-1.762-0.789-1.762-1.762c0-0.974,0.789-1.762,1.762-1.762
					C28.374,63.104,29.163,63.892,29.163,64.865"/>
			</g>
		</g>
		<g style="clip-path:url(#SVGID_4_);">
			<g>
				<defs>
					<rect id="SVGID_7_" x="33.082" y="12.583" width="1.653" height="1.653"/>
				</defs>
				<clipPath id="SVGID_8_">
					<use xlink:href="#SVGID_7_"  style="overflow:visible;"/>
				</clipPath>
				<path style="clip-path:url(#SVGID_8_);fill-rule:evenodd;clip-rule:evenodd;fill:#046A3A;" d="M34.735,13.409
					c0,0.457-0.37,0.827-0.827,0.827s-0.827-0.37-0.827-0.827s0.37-0.827,0.827-0.827S34.735,12.953,34.735,13.409"/>
			</g>
		</g>
		<g style="clip-path:url(#SVGID_4_);">
			<g>
				<defs>
					<rect id="SVGID_9_" x="33.343" y="32.153" width="5.099" height="5.099"/>
				</defs>
				<clipPath id="SVGID_10_">
					<use xlink:href="#SVGID_9_"  style="overflow:visible;"/>
				</clipPath>
				<path style="clip-path:url(#SVGID_10_);fill-rule:evenodd;clip-rule:evenodd;fill:#046A3A;" d="M38.442,34.702
					c0,1.408-1.141,2.55-2.549,2.55s-2.55-1.142-2.55-2.55s1.142-2.549,2.55-2.549S38.442,33.294,38.442,34.702"/>
			</g>
		</g>
		<g style="clip-path:url(#SVGID_4_);">
			<g>
				<defs>
					<rect id="SVGID_11_" x="46.09" y="70.063" width="1.812" height="1.813"/>
				</defs>
				<clipPath id="SVGID_12_">
					<use xlink:href="#SVGID_11_"  style="overflow:visible;"/>
				</clipPath>
				<path style="clip-path:url(#SVGID_12_);fill-rule:evenodd;clip-rule:evenodd;fill:#046A3A;" d="M47.901,70.969
					c0,0.501-0.405,0.906-0.906,0.906s-0.906-0.405-0.906-0.906c0-0.5,0.405-0.905,0.906-0.905S47.901,70.469,47.901,70.969"/>
			</g>
		</g>
		<g style="clip-path:url(#SVGID_4_);">
			<g>
				<defs>
					<rect id="SVGID_13_" x="82.289" y="15.742" width="1.686" height="1.686"/>
				</defs>
				<clipPath id="SVGID_14_">
					<use xlink:href="#SVGID_13_"  style="overflow:visible;"/>
				</clipPath>
				<path style="clip-path:url(#SVGID_14_);fill-rule:evenodd;clip-rule:evenodd;fill:#046A3A;" d="M83.975,16.584
					c0,0.465-0.377,0.843-0.843,0.843s-0.843-0.377-0.843-0.843c0-0.466,0.377-0.843,0.843-0.843S83.975,16.119,83.975,16.584"/>
			</g>
		</g>
		<g style="clip-path:url(#SVGID_4_);">
			<g>
				<defs>
					<rect id="SVGID_15_" x="77.213" y="47.145" width="4.622" height="4.621"/>
				</defs>
				<clipPath id="SVGID_16_">
					<use xlink:href="#SVGID_15_"  style="overflow:visible;"/>
				</clipPath>
				<path style="clip-path:url(#SVGID_16_);fill-rule:evenodd;clip-rule:evenodd;fill:#046A3A;" d="M81.835,49.455
					c0,1.275-1.035,2.311-2.312,2.311c-1.275,0-2.311-1.035-2.311-2.311c0-1.276,1.035-2.311,2.311-2.311
					C80.8,47.145,81.835,48.179,81.835,49.455"/>
			</g>
		</g>
		<g style="clip-path:url(#SVGID_4_);">
			<g>
				<defs>
					<rect id="SVGID_17_" x="57.634" y="52.263" width="5.096" height="5.095"/>
				</defs>
				<clipPath id="SVGID_18_">
					<use xlink:href="#SVGID_17_"  style="overflow:visible;"/>
				</clipPath>
				<path style="clip-path:url(#SVGID_18_);fill-rule:evenodd;clip-rule:evenodd;fill:#046A3A;" d="M62.729,54.811
					c0,1.406-1.141,2.547-2.548,2.547c-1.406,0-2.548-1.141-2.548-2.547c0-1.407,1.142-2.548,2.548-2.548
					C61.589,52.263,62.729,53.403,62.729,54.811"/>
			</g>
		</g>
		<g style="clip-path:url(#SVGID_4_);">
			<g>
				<defs>
					<rect id="SVGID_19_" x="75.251" y="55.483" width="1.902" height="1.901"/>
				</defs>
				<clipPath id="SVGID_20_">
					<use xlink:href="#SVGID_19_"  style="overflow:visible;"/>
				</clipPath>
				<path style="clip-path:url(#SVGID_20_);fill-rule:evenodd;clip-rule:evenodd;fill:#046A3A;" d="M77.153,56.435
					c0,0.524-0.426,0.95-0.951,0.95s-0.951-0.426-0.951-0.95c0-0.525,0.426-0.951,0.951-0.951S77.153,55.909,77.153,56.435"/>
			</g>
		</g>
		<g style="clip-path:url(#SVGID_4_);">
			<g>
				<defs>
					<rect id="SVGID_21_" x="30.818" y="46.407" width="3.292" height="3.292"/>
				</defs>
				<clipPath id="SVGID_22_">
					<use xlink:href="#SVGID_21_"  style="overflow:visible;"/>
				</clipPath>
				<path style="clip-path:url(#SVGID_22_);fill-rule:evenodd;clip-rule:evenodd;fill:#046A3A;" d="M34.11,48.053
					c0,0.909-0.737,1.646-1.646,1.646c-0.909,0-1.646-0.737-1.646-1.646s0.737-1.646,1.646-1.646
					C33.373,46.407,34.11,47.144,34.11,48.053"/>
			</g>
		</g>
		<g style="clip-path:url(#SVGID_4_);">
			<g>
				<defs>
					<rect id="SVGID_23_" x="73.519" y="14.057" width="1.83" height="1.83"/>
				</defs>
				<clipPath id="SVGID_24_">
					<use xlink:href="#SVGID_23_"  style="overflow:visible;"/>
				</clipPath>
				<path style="clip-path:url(#SVGID_24_);fill-rule:evenodd;clip-rule:evenodd;fill:#046A3A;" d="M75.349,14.972
					c0,0.505-0.409,0.915-0.915,0.915c-0.505,0-0.915-0.41-0.915-0.915s0.41-0.915,0.915-0.915
					C74.939,14.057,75.349,14.467,75.349,14.972"/>
			</g>
		</g>
		<g style="clip-path:url(#SVGID_4_);">
			<g>
				<defs>
					<rect id="SVGID_25_" x="72.016" y="26.899" width="5.819" height="5.819"/>
				</defs>
				<clipPath id="SVGID_26_">
					<use xlink:href="#SVGID_25_"  style="overflow:visible;"/>
				</clipPath>
				<path style="clip-path:url(#SVGID_26_);fill-rule:evenodd;clip-rule:evenodd;fill:#046A3A;" d="M77.835,29.809
					c0,1.606-1.303,2.909-2.91,2.909c-1.606,0-2.909-1.303-2.909-2.909c0-1.607,1.303-2.91,2.909-2.91
					C76.532,26.899,77.835,28.201,77.835,29.809"/>
			</g>
		</g>
		<g style="clip-path:url(#SVGID_4_);">
			<g>
				<defs>
					<rect id="SVGID_27_" x="36.1" y="15.911" width="1.729" height="1.729"/>
				</defs>
				<clipPath id="SVGID_28_">
					<use xlink:href="#SVGID_27_"  style="overflow:visible;"/>
				</clipPath>
				<path style="clip-path:url(#SVGID_28_);fill-rule:evenodd;clip-rule:evenodd;fill:#046A3A;" d="M37.829,16.776
					c0,0.478-0.387,0.865-0.865,0.865S36.1,17.253,36.1,16.776s0.387-0.865,0.865-0.865S37.829,16.298,37.829,16.776"/>
			</g>
		</g>
		<g style="clip-path:url(#SVGID_4_);">
			<g>
				<defs>
					<rect id="SVGID_29_" x="18.148" y="59.211" width="3.75" height="3.75"/>
				</defs>
				<clipPath id="SVGID_30_">
					<use xlink:href="#SVGID_29_"  style="overflow:visible;"/>
				</clipPath>
				<path style="clip-path:url(#SVGID_30_);fill-rule:evenodd;clip-rule:evenodd;fill:#046A3A;" d="M21.898,61.086
					c0,1.036-0.839,1.875-1.875,1.875c-1.035,0-1.875-0.839-1.875-1.875c0-1.035,0.84-1.875,1.875-1.875
					C21.059,59.211,21.898,60.051,21.898,61.086"/>
			</g>
		</g>
		<g style="clip-path:url(#SVGID_4_);">
			<g>
				<defs>
					<rect id="SVGID_31_" x="36.637" y="52.616" width="4.967" height="4.968"/>
				</defs>
				<clipPath id="SVGID_32_">
					<use xlink:href="#SVGID_31_"  style="overflow:visible;"/>
				</clipPath>
				<path style="clip-path:url(#SVGID_32_);fill-rule:evenodd;clip-rule:evenodd;fill:#046A3A;" d="M41.604,55.1
					c0,1.372-1.112,2.484-2.483,2.484s-2.484-1.112-2.484-2.484c0-1.371,1.112-2.483,2.484-2.483S41.604,53.729,41.604,55.1"/>
			</g>
		</g>
		<g style="clip-path:url(#SVGID_4_);">
			<g>
				<defs>
					<rect id="SVGID_33_" x="34.492" y="20.302" width="4.487" height="4.486"/>
				</defs>
				<clipPath id="SVGID_34_">
					<use xlink:href="#SVGID_33_"  style="overflow:visible;"/>
				</clipPath>
				<path style="clip-path:url(#SVGID_34_);fill-rule:evenodd;clip-rule:evenodd;fill:#046A3A;" d="M38.979,22.545
					c0,1.239-1.004,2.243-2.243,2.243s-2.244-1.004-2.244-2.243s1.005-2.243,2.244-2.243S38.979,21.306,38.979,22.545"/>
			</g>
		</g>
		<g style="clip-path:url(#SVGID_4_);">
			<g>
				<defs>
					<rect id="SVGID_35_" x="48.489" y="73.481" width="5.603" height="5.603"/>
				</defs>
				<clipPath id="SVGID_36_">
					<use xlink:href="#SVGID_35_"  style="overflow:visible;"/>
				</clipPath>
				<path style="clip-path:url(#SVGID_36_);fill-rule:evenodd;clip-rule:evenodd;fill:#046A3A;" d="M54.092,76.282
					c0,1.547-1.254,2.802-2.801,2.802s-2.802-1.255-2.802-2.802s1.255-2.801,2.802-2.801S54.092,74.735,54.092,76.282"/>
			</g>
		</g>
		<g style="clip-path:url(#SVGID_4_);">
			<g>
				<defs>
					<rect id="SVGID_37_" x="58.899" y="64.501" width="2.185" height="2.186"/>
				</defs>
				<clipPath id="SVGID_38_">
					<use xlink:href="#SVGID_37_"  style="overflow:visible;"/>
				</clipPath>
				<path style="clip-path:url(#SVGID_38_);fill-rule:evenodd;clip-rule:evenodd;fill:#046A3A;" d="M61.084,65.594
					c0,0.604-0.488,1.093-1.092,1.093s-1.094-0.489-1.094-1.093s0.49-1.093,1.094-1.093S61.084,64.99,61.084,65.594"/>
			</g>
		</g>
		<g style="clip-path:url(#SVGID_4_);">
			<g>
				<defs>
					<rect id="SVGID_39_" x="18.148" y="29.455" width="2.882" height="2.882"/>
				</defs>
				<clipPath id="SVGID_40_">
					<use xlink:href="#SVGID_39_"  style="overflow:visible;"/>
				</clipPath>
				<path style="clip-path:url(#SVGID_40_);fill-rule:evenodd;clip-rule:evenodd;fill:#046A3A;" d="M21.03,30.896
					c0,0.796-0.645,1.441-1.441,1.441s-1.441-0.645-1.441-1.441s0.645-1.441,1.441-1.441S21.03,30.1,21.03,30.896"/>
			</g>
		</g>
		<g style="clip-path:url(#SVGID_4_);">
			<g>
				<defs>
					<rect id="SVGID_41_" x="22.048" y="70.841" width="3.734" height="3.733"/>
				</defs>
				<clipPath id="SVGID_42_">
					<use xlink:href="#SVGID_41_"  style="overflow:visible;"/>
				</clipPath>
				<path style="clip-path:url(#SVGID_42_);fill-rule:evenodd;clip-rule:evenodd;fill:#046A3A;" d="M25.782,72.708
					c0,1.03-0.836,1.866-1.867,1.866c-1.031,0-1.867-0.836-1.867-1.866c0-1.031,0.836-1.867,1.867-1.867
					C24.946,70.841,25.782,71.677,25.782,72.708"/>
			</g>
		</g>
		<g style="clip-path:url(#SVGID_4_);">
			<g>
				<defs>
					<rect id="SVGID_43_" x="15.709" y="72.779" width="5.229" height="5.229"/>
				</defs>
				<clipPath id="SVGID_44_">
					<use xlink:href="#SVGID_43_"  style="overflow:visible;"/>
				</clipPath>
				<path style="clip-path:url(#SVGID_44_);fill-rule:evenodd;clip-rule:evenodd;fill:#046A3A;" d="M20.938,75.395
					c0,1.443-1.17,2.614-2.615,2.614c-1.444,0-2.615-1.171-2.615-2.614c0-1.444,1.171-2.615,2.615-2.615
					C19.768,72.779,20.938,73.95,20.938,75.395"/>
			</g>
		</g>
		<g style="clip-path:url(#SVGID_4_);">
			<g>
				<defs>
					<rect id="SVGID_45_" x="80.664" y="58.146" width="2.11" height="2.11"/>
				</defs>
				<clipPath id="SVGID_46_">
					<use xlink:href="#SVGID_45_"  style="overflow:visible;"/>
				</clipPath>
				<path style="clip-path:url(#SVGID_46_);fill-rule:evenodd;clip-rule:evenodd;fill:#046A3A;" d="M82.774,59.2
					c0,0.583-0.473,1.056-1.056,1.056s-1.055-0.473-1.055-1.056s0.472-1.055,1.055-1.055S82.774,58.617,82.774,59.2"/>
			</g>
		</g>
		<g style="clip-path:url(#SVGID_4_);">
			<g>
				<defs>
					<rect id="SVGID_47_" x="19.796" y="21.532" width="2.196" height="2.196"/>
				</defs>
				<clipPath id="SVGID_48_">
					<use xlink:href="#SVGID_47_"  style="overflow:visible;"/>
				</clipPath>
				<path style="clip-path:url(#SVGID_48_);fill-rule:evenodd;clip-rule:evenodd;fill:#046A3A;" d="M21.993,22.63
					c0,0.607-0.492,1.098-1.098,1.098s-1.098-0.491-1.098-1.098c0-0.606,0.492-1.098,1.098-1.098S21.993,22.024,21.993,22.63"/>
			</g>
		</g>
		<g style="clip-path:url(#SVGID_4_);">
			<g>
				<defs>
					<rect id="SVGID_49_" x="74.497" y="22.963" width="1.592" height="1.592"/>
				</defs>
				<clipPath id="SVGID_50_">
					<use xlink:href="#SVGID_49_"  style="overflow:visible;"/>
				</clipPath>
				<path style="clip-path:url(#SVGID_50_);fill-rule:evenodd;clip-rule:evenodd;fill:#046A3A;" d="M76.089,23.759
					c0,0.439-0.356,0.796-0.796,0.796s-0.796-0.356-0.796-0.796c0-0.44,0.356-0.796,0.796-0.796S76.089,23.319,76.089,23.759"/>
			</g>
		</g>
		<g style="clip-path:url(#SVGID_4_);">
			<g>
				<defs>
					<rect id="SVGID_51_" x="67.204" y="68.518" width="1.558" height="1.557"/>
				</defs>
				<clipPath id="SVGID_52_">
					<use xlink:href="#SVGID_51_"  style="overflow:visible;"/>
				</clipPath>
				<path style="clip-path:url(#SVGID_52_);fill-rule:evenodd;clip-rule:evenodd;fill:#046A3A;" d="M68.762,69.296
					c0,0.43-0.35,0.778-0.779,0.778s-0.778-0.349-0.778-0.778s0.349-0.778,0.778-0.778S68.762,68.866,68.762,69.296"/>
			</g>
		</g>
		<g style="clip-path:url(#SVGID_4_);">
			<g>
				<defs>
					<rect id="SVGID_53_" x="35.738" y="68.673" width="5.672" height="5.673"/>
				</defs>
				<clipPath id="SVGID_54_">
					<use xlink:href="#SVGID_53_"  style="overflow:visible;"/>
				</clipPath>
				<path style="clip-path:url(#SVGID_54_);fill-rule:evenodd;clip-rule:evenodd;fill:#046A3A;" d="M41.411,71.51
					c0,1.565-1.27,2.836-2.836,2.836c-1.567,0-2.836-1.271-2.836-2.836c0-1.567,1.27-2.837,2.836-2.837
					C40.141,68.673,41.411,69.942,41.411,71.51"/>
			</g>
		</g>
		<g style="clip-path:url(#SVGID_4_);">
			<g>
				<defs>
					<rect id="SVGID_55_" x="50.803" y="48.237" width="1.483" height="1.483"/>
				</defs>
				<clipPath id="SVGID_56_">
					<use xlink:href="#SVGID_55_"  style="overflow:visible;"/>
				</clipPath>
				<path style="clip-path:url(#SVGID_56_);fill-rule:evenodd;clip-rule:evenodd;fill:#046A3A;" d="M52.286,48.979
					c0,0.409-0.332,0.741-0.742,0.741c-0.409,0-0.741-0.332-0.741-0.741c0-0.41,0.332-0.742,0.741-0.742
					C51.954,48.237,52.286,48.569,52.286,48.979"/>
			</g>
		</g>
		<g style="clip-path:url(#SVGID_4_);">
			<g>
				<defs>
					<rect id="SVGID_57_" x="42.099" y="48.57" width="4.749" height="4.749"/>
				</defs>
				<clipPath id="SVGID_58_">
					<use xlink:href="#SVGID_57_"  style="overflow:visible;"/>
				</clipPath>
				<path style="clip-path:url(#SVGID_58_);fill-rule:evenodd;clip-rule:evenodd;fill:#046A3A;" d="M46.848,50.944
					c0,1.312-1.063,2.374-2.375,2.374s-2.375-1.063-2.375-2.374s1.063-2.375,2.375-2.375S46.848,49.633,46.848,50.944"/>
			</g>
		</g>
		<g style="clip-path:url(#SVGID_4_);">
			<g>
				<defs>
					<rect id="SVGID_59_" x="81.954" y="72.979" width="1.883" height="1.883"/>
				</defs>
				<clipPath id="SVGID_60_">
					<use xlink:href="#SVGID_59_"  style="overflow:visible;"/>
				</clipPath>
				<path style="clip-path:url(#SVGID_60_);fill-rule:evenodd;clip-rule:evenodd;fill:#046A3A;" d="M83.837,73.92
					c0,0.52-0.422,0.941-0.941,0.941s-0.941-0.422-0.941-0.941c0-0.521,0.422-0.941,0.941-0.941S83.837,73.399,83.837,73.92"/>
			</g>
		</g>
		<g style="clip-path:url(#SVGID_4_);">
			<g>
				<defs>
					<rect id="SVGID_61_" x="70.598" y="47.439" width="4.519" height="4.519"/>
				</defs>
				<clipPath id="SVGID_62_">
					<use xlink:href="#SVGID_61_"  style="overflow:visible;"/>
				</clipPath>
				<path style="clip-path:url(#SVGID_62_);fill-rule:evenodd;clip-rule:evenodd;fill:#046A3A;" d="M75.116,49.699
					c0,1.248-1.012,2.259-2.259,2.259c-1.248,0-2.26-1.012-2.26-2.259c0-1.248,1.012-2.259,2.26-2.259
					C74.104,47.439,75.116,48.451,75.116,49.699"/>
			</g>
		</g>
		<g style="clip-path:url(#SVGID_4_);">
			<g>
				<defs>
					<rect id="SVGID_63_" x="31.876" y="53.033" width="1.546" height="1.546"/>
				</defs>
				<clipPath id="SVGID_64_">
					<use xlink:href="#SVGID_63_"  style="overflow:visible;"/>
				</clipPath>
				<path style="clip-path:url(#SVGID_64_);fill-rule:evenodd;clip-rule:evenodd;fill:#046A3A;" d="M33.422,53.807
					c0,0.427-0.346,0.772-0.773,0.772s-0.773-0.346-0.773-0.772s0.346-0.772,0.773-0.772S33.422,53.38,33.422,53.807"/>
			</g>
		</g>
		<g style="clip-path:url(#SVGID_4_);">
			<g>
				<defs>
					<rect id="SVGID_65_" x="17.65" y="45.503" width="2.271" height="2.27"/>
				</defs>
				<clipPath id="SVGID_66_">
					<use xlink:href="#SVGID_65_"  style="overflow:visible;"/>
				</clipPath>
				<path style="clip-path:url(#SVGID_66_);fill-rule:evenodd;clip-rule:evenodd;fill:#046A3A;" d="M19.921,46.639
					c0,0.626-0.509,1.135-1.135,1.135c-0.627,0-1.135-0.508-1.135-1.135c0-0.627,0.508-1.135,1.135-1.135
					C19.412,45.503,19.921,46.011,19.921,46.639"/>
			</g>
		</g>
		<g style="clip-path:url(#SVGID_4_);">
			<g>
				<defs>
					<rect id="SVGID_67_" x="41.712" y="74.202" width="3.722" height="3.722"/>
				</defs>
				<clipPath id="SVGID_68_">
					<use xlink:href="#SVGID_67_"  style="overflow:visible;"/>
				</clipPath>
				<path style="clip-path:url(#SVGID_68_);fill-rule:evenodd;clip-rule:evenodd;fill:#046A3A;" d="M45.435,76.063
					c0,1.027-0.833,1.86-1.861,1.86s-1.861-0.833-1.861-1.86c0-1.028,0.833-1.861,1.861-1.861S45.435,75.035,45.435,76.063"/>
			</g>
		</g>
		<g style="clip-path:url(#SVGID_4_);">
			<g>
				<defs>
					<rect id="SVGID_69_" x="75.29" y="73.937" width="4.979" height="4.98"/>
				</defs>
				<clipPath id="SVGID_70_">
					<use xlink:href="#SVGID_69_"  style="overflow:visible;"/>
				</clipPath>
				<path style="clip-path:url(#SVGID_70_);fill-rule:evenodd;clip-rule:evenodd;fill:#046A3A;" d="M80.27,76.427
					c0,1.375-1.114,2.49-2.489,2.49c-1.376,0-2.49-1.115-2.49-2.49s1.114-2.489,2.49-2.489C79.155,73.938,80.27,75.052,80.27,76.427
					"/>
			</g>
		</g>
		<g style="clip-path:url(#SVGID_4_);">
			<g>
				<defs>
					<rect id="SVGID_71_" x="62.053" y="18.188" width="4.593" height="4.592"/>
				</defs>
				<clipPath id="SVGID_72_">
					<use xlink:href="#SVGID_71_"  style="overflow:visible;"/>
				</clipPath>
				<path style="clip-path:url(#SVGID_72_);fill-rule:evenodd;clip-rule:evenodd;fill:#046A3A;" d="M66.646,20.484
					c0,1.268-1.028,2.296-2.297,2.296s-2.296-1.028-2.296-2.296s1.027-2.296,2.296-2.296S66.646,19.216,66.646,20.484"/>
			</g>
		</g>
		<g style="clip-path:url(#SVGID_4_);">
			<g>
				<defs>
					<rect id="SVGID_73_" x="59.797" y="43.516" width="1.619" height="1.619"/>
				</defs>
				<clipPath id="SVGID_74_">
					<use xlink:href="#SVGID_73_"  style="overflow:visible;"/>
				</clipPath>
				<path style="clip-path:url(#SVGID_74_);fill-rule:evenodd;clip-rule:evenodd;fill:#046A3A;" d="M61.416,44.325
					c0,0.447-0.362,0.81-0.81,0.81s-0.81-0.362-0.81-0.81s0.362-0.81,0.81-0.81S61.416,43.878,61.416,44.325"/>
			</g>
		</g>
		<g style="clip-path:url(#SVGID_4_);">
			<g>
				<defs>
					<rect id="SVGID_75_" x="72.929" y="34.688" width="1.819" height="1.819"/>
				</defs>
				<clipPath id="SVGID_76_">
					<use xlink:href="#SVGID_75_"  style="overflow:visible;"/>
				</clipPath>
				<path style="clip-path:url(#SVGID_76_);fill-rule:evenodd;clip-rule:evenodd;fill:#046A3A;" d="M74.748,35.597
					c0,0.502-0.407,0.91-0.91,0.91c-0.502,0-0.909-0.407-0.909-0.91s0.407-0.91,0.909-0.91
					C74.341,34.688,74.748,35.095,74.748,35.597"/>
			</g>
		</g>
		<g style="clip-path:url(#SVGID_4_);">
			<g>
				<defs>
					<rect id="SVGID_77_" x="55.222" y="35.392" width="5.011" height="5.011"/>
				</defs>
				<clipPath id="SVGID_78_">
					<use xlink:href="#SVGID_77_"  style="overflow:visible;"/>
				</clipPath>
				<path style="clip-path:url(#SVGID_78_);fill-rule:evenodd;clip-rule:evenodd;fill:#046A3A;" d="M60.232,37.897
					c0,1.383-1.122,2.505-2.505,2.505c-1.384,0-2.506-1.122-2.506-2.505c0-1.384,1.122-2.505,2.506-2.505
					C59.11,35.392,60.232,36.513,60.232,37.897"/>
			</g>
		</g>
		<g style="clip-path:url(#SVGID_4_);">
			<g>
				<defs>
					<rect id="SVGID_79_" x="78.904" y="12.897" width="1.551" height="1.55"/>
				</defs>
				<clipPath id="SVGID_80_">
					<use xlink:href="#SVGID_79_"  style="overflow:visible;"/>
				</clipPath>
				<path style="clip-path:url(#SVGID_80_);fill-rule:evenodd;clip-rule:evenodd;fill:#046A3A;" d="M80.455,13.673
					c0,0.428-0.348,0.775-0.775,0.775c-0.429,0-0.775-0.347-0.775-0.775c0-0.428,0.347-0.775,0.775-0.775
					C80.107,12.897,80.455,13.245,80.455,13.673"/>
			</g>
		</g>
		<g style="clip-path:url(#SVGID_4_);">
			<g>
				<defs>
					<rect id="SVGID_81_" x="46.985" y="35.726" width="3.707" height="3.707"/>
				</defs>
				<clipPath id="SVGID_82_">
					<use xlink:href="#SVGID_81_"  style="overflow:visible;"/>
				</clipPath>
				<path style="clip-path:url(#SVGID_82_);fill-rule:evenodd;clip-rule:evenodd;fill:#046A3A;" d="M50.692,37.579
					c0,1.023-0.83,1.854-1.854,1.854c-1.024,0-1.854-0.83-1.854-1.854c0-1.024,0.83-1.853,1.854-1.853
					C49.862,35.726,50.692,36.555,50.692,37.579"/>
			</g>
		</g>
		<g style="clip-path:url(#SVGID_4_);">
			<g>
				<defs>
					<rect id="SVGID_83_" x="33.127" y="74.238" width="1.484" height="1.482"/>
				</defs>
				<clipPath id="SVGID_84_">
					<use xlink:href="#SVGID_83_"  style="overflow:visible;"/>
				</clipPath>
				<path style="clip-path:url(#SVGID_84_);fill-rule:evenodd;clip-rule:evenodd;fill:#046A3A;" d="M34.611,74.979
					c0,0.41-0.333,0.741-0.742,0.741c-0.41,0-0.742-0.331-0.742-0.741c0-0.409,0.332-0.741,0.742-0.741
					C34.278,74.238,34.611,74.57,34.611,74.979"/>
			</g>
		</g>
		<g style="clip-path:url(#SVGID_4_);">
			<g>
				<defs>
					<rect id="SVGID_85_" x="77.826" y="40.367" width="4.798" height="4.799"/>
				</defs>
				<clipPath id="SVGID_86_">
					<use xlink:href="#SVGID_85_"  style="overflow:visible;"/>
				</clipPath>
				<path style="clip-path:url(#SVGID_86_);fill-rule:evenodd;clip-rule:evenodd;fill:#046A3A;" d="M82.624,42.766
					c0,1.325-1.073,2.399-2.399,2.399c-1.324,0-2.398-1.075-2.398-2.399c0-1.325,1.074-2.399,2.398-2.399
					C81.551,40.367,82.624,41.441,82.624,42.766"/>
			</g>
		</g>
		<g style="clip-path:url(#SVGID_4_);">
			<g>
				<defs>
					<rect id="SVGID_87_" x="71.274" y="40.425" width="3.136" height="3.136"/>
				</defs>
				<clipPath id="SVGID_88_">
					<use xlink:href="#SVGID_87_"  style="overflow:visible;"/>
				</clipPath>
				<path style="clip-path:url(#SVGID_88_);fill-rule:evenodd;clip-rule:evenodd;fill:#046A3A;" d="M74.41,41.993
					c0,0.866-0.702,1.568-1.567,1.568c-0.866,0-1.568-0.702-1.568-1.568c0-0.866,0.702-1.568,1.568-1.568
					C73.708,40.425,74.41,41.127,74.41,41.993"/>
			</g>
		</g>
		<g style="clip-path:url(#SVGID_4_);">
			<g>
				<defs>
					<rect id="SVGID_89_" x="79.531" y="34.664" width="2.645" height="2.645"/>
				</defs>
				<clipPath id="SVGID_90_">
					<use xlink:href="#SVGID_89_"  style="overflow:visible;"/>
				</clipPath>
				<path style="clip-path:url(#SVGID_90_);fill-rule:evenodd;clip-rule:evenodd;fill:#046A3A;" d="M82.176,35.986
					c0,0.73-0.592,1.322-1.322,1.322c-0.729,0-1.322-0.592-1.322-1.322c0-0.73,0.593-1.322,1.322-1.322
					C81.584,34.664,82.176,35.256,82.176,35.986"/>
			</g>
		</g>
		<g style="clip-path:url(#SVGID_4_);">
			<g>
				<defs>
					<rect id="SVGID_91_" x="63.94" y="48.99" width="5.111" height="5.111"/>
				</defs>
				<clipPath id="SVGID_92_">
					<use xlink:href="#SVGID_91_"  style="overflow:visible;"/>
				</clipPath>
				<path style="clip-path:url(#SVGID_92_);fill-rule:evenodd;clip-rule:evenodd;fill:#046A3A;" d="M69.052,51.545
					c0,1.412-1.144,2.557-2.556,2.557c-1.411,0-2.556-1.145-2.556-2.557c0-1.411,1.145-2.555,2.556-2.555
					C67.908,48.99,69.052,50.134,69.052,51.545"/>
			</g>
		</g>
		<g style="clip-path:url(#SVGID_4_);">
			<g>
				<defs>
					<rect id="SVGID_93_" x="52.475" y="54.097" width="3.812" height="3.811"/>
				</defs>
				<clipPath id="SVGID_94_">
					<use xlink:href="#SVGID_93_"  style="overflow:visible;"/>
				</clipPath>
				<path style="clip-path:url(#SVGID_94_);fill-rule:evenodd;clip-rule:evenodd;fill:#046A3A;" d="M56.286,56.002
					c0,1.052-0.853,1.905-1.905,1.905s-1.905-0.854-1.905-1.905c0-1.053,0.853-1.905,1.905-1.905S56.286,54.949,56.286,56.002"/>
			</g>
		</g>
		<g style="clip-path:url(#SVGID_4_);">
			<g>
				<defs>
					<rect id="SVGID_95_" x="38.804" y="38.979" width="4.146" height="4.146"/>
				</defs>
				<clipPath id="SVGID_96_">
					<use xlink:href="#SVGID_95_"  style="overflow:visible;"/>
				</clipPath>
				<path style="clip-path:url(#SVGID_96_);fill-rule:evenodd;clip-rule:evenodd;fill:#046A3A;" d="M42.951,41.053
					c0,1.145-0.928,2.073-2.073,2.073s-2.073-0.928-2.073-2.073c0-1.146,0.928-2.074,2.073-2.074S42.951,39.908,42.951,41.053"/>
			</g>
		</g>
		<g style="clip-path:url(#SVGID_4_);">
			<g>
				<defs>
					<rect id="SVGID_97_" x="76.2" y="16.307" width="5.122" height="5.122"/>
				</defs>
				<clipPath id="SVGID_98_">
					<use xlink:href="#SVGID_97_"  style="overflow:visible;"/>
				</clipPath>
				<path style="clip-path:url(#SVGID_98_);fill-rule:evenodd;clip-rule:evenodd;fill:#046A3A;" d="M81.322,18.868
					c0,1.415-1.146,2.561-2.562,2.561c-1.414,0-2.561-1.146-2.561-2.561c0-1.414,1.146-2.561,2.561-2.561
					C80.176,16.307,81.322,17.454,81.322,18.868"/>
			</g>
		</g>
		<g style="clip-path:url(#SVGID_4_);">
			<g>
				<defs>
					<rect id="SVGID_99_" x="28.399" y="36.405" width="4.38" height="4.379"/>
				</defs>
				<clipPath id="SVGID_100_">
					<use xlink:href="#SVGID_99_"  style="overflow:visible;"/>
				</clipPath>
				<path style="clip-path:url(#SVGID_100_);fill-rule:evenodd;clip-rule:evenodd;fill:#046A3A;" d="M32.779,38.595
					c0,1.209-0.98,2.19-2.19,2.19c-1.209,0-2.19-0.981-2.19-2.19c0-1.21,0.981-2.19,2.19-2.19
					C31.798,36.405,32.779,37.385,32.779,38.595"/>
			</g>
		</g>
		<g style="clip-path:url(#SVGID_4_);">
			<g>
				<defs>
					<rect id="SVGID_101_" x="33.621" y="41.479" width="1.737" height="1.737"/>
				</defs>
				<clipPath id="SVGID_102_">
					<use xlink:href="#SVGID_101_"  style="overflow:visible;"/>
				</clipPath>
				<path style="clip-path:url(#SVGID_102_);fill-rule:evenodd;clip-rule:evenodd;fill:#046A3A;" d="M35.358,42.348
					c0,0.48-0.389,0.869-0.869,0.869s-0.869-0.389-0.869-0.869c0-0.479,0.389-0.869,0.869-0.869S35.358,41.869,35.358,42.348"/>
			</g>
		</g>
		<g style="clip-path:url(#SVGID_4_);">
			<g>
				<defs>
					<rect id="SVGID_103_" x="41.433" y="57.612" width="5.015" height="5.015"/>
				</defs>
				<clipPath id="SVGID_104_">
					<use xlink:href="#SVGID_103_"  style="overflow:visible;"/>
				</clipPath>
				<path style="clip-path:url(#SVGID_104_);fill-rule:evenodd;clip-rule:evenodd;fill:#046A3A;" d="M46.447,60.119
					c0,1.385-1.122,2.508-2.507,2.508c-1.384,0-2.507-1.123-2.507-2.508s1.123-2.507,2.507-2.507
					C45.325,57.612,46.447,58.734,46.447,60.119"/>
			</g>
		</g>
		<g style="clip-path:url(#SVGID_4_);">
			<g>
				<defs>
					<rect id="SVGID_105_" x="36.555" y="26.021" width="5.02" height="5.019"/>
				</defs>
				<clipPath id="SVGID_106_">
					<use xlink:href="#SVGID_105_"  style="overflow:visible;"/>
				</clipPath>
				<path style="clip-path:url(#SVGID_106_);fill-rule:evenodd;clip-rule:evenodd;fill:#046A3A;" d="M41.574,28.53
					c0,1.386-1.124,2.51-2.51,2.51c-1.386,0-2.51-1.124-2.51-2.51c0-1.386,1.124-2.51,2.51-2.51
					C40.451,26.021,41.574,27.144,41.574,28.53"/>
			</g>
		</g>
		<g style="clip-path:url(#SVGID_4_);">
			<g>
				<defs>
					<rect id="SVGID_107_" x="17.393" y="53.894" width="2.162" height="2.162"/>
				</defs>
				<clipPath id="SVGID_108_">
					<use xlink:href="#SVGID_107_"  style="overflow:visible;"/>
				</clipPath>
				<path style="clip-path:url(#SVGID_108_);fill-rule:evenodd;clip-rule:evenodd;fill:#046A3A;" d="M19.555,54.975
					c0,0.597-0.484,1.081-1.081,1.081s-1.081-0.484-1.081-1.081c0-0.598,0.484-1.081,1.081-1.081S19.555,54.377,19.555,54.975"/>
			</g>
		</g>
		<g style="clip-path:url(#SVGID_4_);">
			<g>
				<defs>
					<rect id="SVGID_109_" x="46.796" y="15.56" width="3.433" height="3.433"/>
				</defs>
				<clipPath id="SVGID_110_">
					<use xlink:href="#SVGID_109_"  style="overflow:visible;"/>
				</clipPath>
				<path style="clip-path:url(#SVGID_110_);fill-rule:evenodd;clip-rule:evenodd;fill:#046A3A;" d="M50.229,17.276
					c0,0.948-0.769,1.717-1.717,1.717c-0.948,0-1.716-0.769-1.716-1.717c0-0.948,0.769-1.716,1.716-1.716
					C49.461,15.56,50.229,16.328,50.229,17.276"/>
			</g>
		</g>
		<g style="clip-path:url(#SVGID_4_);">
			<g>
				<defs>
					<rect id="SVGID_111_" x="43.529" y="42.085" width="4.413" height="4.413"/>
				</defs>
				<clipPath id="SVGID_112_">
					<use xlink:href="#SVGID_111_"  style="overflow:visible;"/>
				</clipPath>
				<path style="clip-path:url(#SVGID_112_);fill-rule:evenodd;clip-rule:evenodd;fill:#046A3A;" d="M47.942,44.292
					c0,1.219-0.988,2.207-2.207,2.207c-1.219,0-2.207-0.988-2.207-2.207s0.988-2.206,2.207-2.206
					C46.954,42.085,47.942,43.073,47.942,44.292"/>
			</g>
		</g>
		<g style="clip-path:url(#SVGID_4_);">
			<g>
				<defs>
					<rect id="SVGID_113_" x="69.258" y="55.79" width="1.595" height="1.596"/>
				</defs>
				<clipPath id="SVGID_114_">
					<use xlink:href="#SVGID_113_"  style="overflow:visible;"/>
				</clipPath>
				<path style="clip-path:url(#SVGID_114_);fill-rule:evenodd;clip-rule:evenodd;fill:#046A3A;" d="M70.853,56.588
					c0,0.44-0.356,0.798-0.798,0.798c-0.44,0-0.797-0.357-0.797-0.798s0.356-0.798,0.797-0.798
					C70.496,55.79,70.853,56.147,70.853,56.588"/>
			</g>
		</g>
		<g style="clip-path:url(#SVGID_4_);">
			<g>
				<defs>
					<rect id="SVGID_115_" x="36.792" y="77.829" width="2.134" height="2.134"/>
				</defs>
				<clipPath id="SVGID_116_">
					<use xlink:href="#SVGID_115_"  style="overflow:visible;"/>
				</clipPath>
				<path style="clip-path:url(#SVGID_116_);fill-rule:evenodd;clip-rule:evenodd;fill:#046A3A;" d="M38.926,78.896
					c0,0.589-0.478,1.067-1.067,1.067c-0.589,0-1.066-0.479-1.066-1.067s0.478-1.067,1.066-1.067
					C38.448,77.828,38.926,78.307,38.926,78.896"/>
			</g>
		</g>
		<g style="clip-path:url(#SVGID_4_);">
			<g>
				<defs>
					<rect id="SVGID_117_" x="16.476" y="65.123" width="1.5" height="1.5"/>
				</defs>
				<clipPath id="SVGID_118_">
					<use xlink:href="#SVGID_117_"  style="overflow:visible;"/>
				</clipPath>
				<path style="clip-path:url(#SVGID_118_);fill-rule:evenodd;clip-rule:evenodd;fill:#046A3A;" d="M17.976,65.873
					c0,0.414-0.336,0.75-0.75,0.75c-0.415,0-0.75-0.336-0.75-0.75s0.335-0.75,0.75-0.75C17.64,65.123,17.976,65.459,17.976,65.873"
					/>
			</g>
		</g>
		<g style="clip-path:url(#SVGID_4_);">
			<g>
				<defs>
					<rect id="SVGID_119_" x="52.154" y="42.024" width="1.629" height="1.629"/>
				</defs>
				<clipPath id="SVGID_120_">
					<use xlink:href="#SVGID_119_"  style="overflow:visible;"/>
				</clipPath>
				<path style="clip-path:url(#SVGID_120_);fill-rule:evenodd;clip-rule:evenodd;fill:#046A3A;" d="M53.783,42.839
					c0,0.45-0.364,0.814-0.814,0.814c-0.449,0-0.814-0.365-0.814-0.814c0-0.45,0.365-0.814,0.814-0.814
					C53.419,42.024,53.783,42.389,53.783,42.839"/>
			</g>
		</g>
		<g style="clip-path:url(#SVGID_4_);">
			<g>
				<defs>
					<rect id="SVGID_121_" x="28.126" y="25.612" width="5.599" height="5.599"/>
				</defs>
				<clipPath id="SVGID_122_">
					<use xlink:href="#SVGID_121_"  style="overflow:visible;"/>
				</clipPath>
				<path style="clip-path:url(#SVGID_122_);fill-rule:evenodd;clip-rule:evenodd;fill:#046A3A;" d="M33.725,28.411
					c0,1.545-1.253,2.799-2.799,2.799c-1.546,0-2.799-1.253-2.799-2.799c0-1.546,1.253-2.799,2.799-2.799
					C32.472,25.612,33.725,26.865,33.725,28.411"/>
			</g>
		</g>
		<g style="clip-path:url(#SVGID_4_);">
			<g>
				<defs>
					<rect id="SVGID_123_" x="81.555" y="30.141" width="1.518" height="1.518"/>
				</defs>
				<clipPath id="SVGID_124_">
					<use xlink:href="#SVGID_123_"  style="overflow:visible;"/>
				</clipPath>
				<path style="clip-path:url(#SVGID_124_);fill-rule:evenodd;clip-rule:evenodd;fill:#046A3A;" d="M83.072,30.9
					c0,0.419-0.34,0.759-0.759,0.759s-0.759-0.34-0.759-0.759s0.34-0.759,0.759-0.759S83.072,30.48,83.072,30.9"/>
			</g>
		</g>
		<g style="clip-path:url(#SVGID_4_);">
			<g>
				<defs>
					<rect id="SVGID_125_" x="78.716" y="69.612" width="1.54" height="1.54"/>
				</defs>
				<clipPath id="SVGID_126_">
					<use xlink:href="#SVGID_125_"  style="overflow:visible;"/>
				</clipPath>
				<path style="clip-path:url(#SVGID_126_);fill-rule:evenodd;clip-rule:evenodd;fill:#046A3A;" d="M80.256,70.383
					c0,0.425-0.345,0.77-0.771,0.77c-0.425,0-0.77-0.345-0.77-0.77c0-0.426,0.345-0.771,0.77-0.771
					C79.911,69.612,80.256,69.957,80.256,70.383"/>
			</g>
		</g>
		<g style="clip-path:url(#SVGID_4_);">
			<g>
				<defs>
					<rect id="SVGID_127_" x="27.18" y="76.309" width="3.306" height="3.307"/>
				</defs>
				<clipPath id="SVGID_128_">
					<use xlink:href="#SVGID_127_"  style="overflow:visible;"/>
				</clipPath>
				<path style="clip-path:url(#SVGID_128_);fill-rule:evenodd;clip-rule:evenodd;fill:#046A3A;" d="M30.485,77.962
					c0,0.913-0.74,1.653-1.652,1.653c-0.913,0-1.653-0.74-1.653-1.653s0.74-1.653,1.653-1.653
					C29.745,76.309,30.485,77.049,30.485,77.962"/>
			</g>
		</g>
		<g style="clip-path:url(#SVGID_4_);">
			<g>
				<defs>
					<rect id="SVGID_129_" x="22.757" y="25.99" width="3.333" height="3.333"/>
				</defs>
				<clipPath id="SVGID_130_">
					<use xlink:href="#SVGID_129_"  style="overflow:visible;"/>
				</clipPath>
				<path style="clip-path:url(#SVGID_130_);fill-rule:evenodd;clip-rule:evenodd;fill:#046A3A;" d="M26.089,27.656
					c0,0.92-0.746,1.667-1.667,1.667c-0.92,0-1.666-0.747-1.666-1.667s0.746-1.666,1.666-1.666
					C25.343,25.99,26.089,26.736,26.089,27.656"/>
			</g>
		</g>
		<g style="clip-path:url(#SVGID_4_);">
			<g>
				<defs>
					<rect id="SVGID_131_" x="47.964" y="23.263" width="4.894" height="4.894"/>
				</defs>
				<clipPath id="SVGID_132_">
					<use xlink:href="#SVGID_131_"  style="overflow:visible;"/>
				</clipPath>
				<path style="clip-path:url(#SVGID_132_);fill-rule:evenodd;clip-rule:evenodd;fill:#046A3A;" d="M52.857,25.71
					c0,1.351-1.096,2.447-2.446,2.447c-1.352,0-2.447-1.096-2.447-2.447c0-1.352,1.096-2.447,2.447-2.447
					C51.762,23.263,52.857,24.358,52.857,25.71"/>
			</g>
		</g>
		<g style="clip-path:url(#SVGID_4_);">
			<g>
				<defs>
					<rect id="SVGID_133_" x="39.807" y="13.023" width="5.57" height="5.57"/>
				</defs>
				<clipPath id="SVGID_134_">
					<use xlink:href="#SVGID_133_"  style="overflow:visible;"/>
				</clipPath>
				<path style="clip-path:url(#SVGID_134_);fill-rule:evenodd;clip-rule:evenodd;fill:#046A3A;" d="M45.377,15.808
					c0,1.538-1.247,2.785-2.785,2.785s-2.786-1.247-2.786-2.785s1.248-2.785,2.786-2.785S45.377,14.27,45.377,15.808"/>
			</g>
		</g>
		<g style="clip-path:url(#SVGID_4_);">
			<g>
				<defs>
					<rect id="SVGID_135_" x="56.403" y="27.588" width="2.74" height="2.74"/>
				</defs>
				<clipPath id="SVGID_136_">
					<use xlink:href="#SVGID_135_"  style="overflow:visible;"/>
				</clipPath>
				<path style="clip-path:url(#SVGID_136_);fill-rule:evenodd;clip-rule:evenodd;fill:#046A3A;" d="M59.144,28.958
					c0,0.756-0.613,1.37-1.37,1.37s-1.37-0.614-1.37-1.37c0-0.757,0.613-1.37,1.37-1.37S59.144,28.201,59.144,28.958"/>
			</g>
		</g>
		<g style="clip-path:url(#SVGID_4_);">
			<g>
				<defs>
					<rect id="SVGID_137_" x="63.918" y="75.693" width="2.945" height="2.944"/>
				</defs>
				<clipPath id="SVGID_138_">
					<use xlink:href="#SVGID_137_"  style="overflow:visible;"/>
				</clipPath>
				<path style="clip-path:url(#SVGID_138_);fill-rule:evenodd;clip-rule:evenodd;fill:#046A3A;" d="M66.863,77.165
					c0,0.813-0.659,1.473-1.473,1.473s-1.473-0.659-1.473-1.473c0-0.813,0.659-1.472,1.473-1.472S66.863,76.353,66.863,77.165"/>
			</g>
		</g>
		<g style="clip-path:url(#SVGID_4_);">
			<g>
				<defs>
					<rect id="SVGID_139_" x="18.539" y="12.786" width="4.563" height="4.562"/>
				</defs>
				<clipPath id="SVGID_140_">
					<use xlink:href="#SVGID_139_"  style="overflow:visible;"/>
				</clipPath>
				<path style="clip-path:url(#SVGID_140_);fill-rule:evenodd;clip-rule:evenodd;fill:#046A3A;" d="M23.101,15.067
					c0,1.259-1.021,2.28-2.281,2.28c-1.26,0-2.282-1.021-2.282-2.28c0-1.26,1.021-2.281,2.282-2.281
					C22.08,12.786,23.101,13.807,23.101,15.067"/>
			</g>
		</g>
		<g style="clip-path:url(#SVGID_4_);">
			<g>
				<defs>
					<rect id="SVGID_141_" x="28.009" y="69.507" width="3.208" height="3.207"/>
				</defs>
				<clipPath id="SVGID_142_">
					<use xlink:href="#SVGID_141_"  style="overflow:visible;"/>
				</clipPath>
				<path style="clip-path:url(#SVGID_142_);fill-rule:evenodd;clip-rule:evenodd;fill:#046A3A;" d="M31.217,71.11
					c0,0.886-0.718,1.604-1.604,1.604s-1.604-0.718-1.604-1.604s0.718-1.604,1.604-1.604S31.217,70.225,31.217,71.11"/>
			</g>
		</g>
		<g style="clip-path:url(#SVGID_4_);">
			<g>
				<defs>
					<rect id="SVGID_143_" x="51.916" y="13.881" width="5.011" height="5.01"/>
				</defs>
				<clipPath id="SVGID_144_">
					<use xlink:href="#SVGID_143_"  style="overflow:visible;"/>
				</clipPath>
				<path style="clip-path:url(#SVGID_144_);fill-rule:evenodd;clip-rule:evenodd;fill:#046A3A;" d="M56.927,16.386
					c0,1.383-1.122,2.505-2.505,2.505c-1.384,0-2.506-1.122-2.506-2.505s1.122-2.505,2.506-2.505
					C55.805,13.881,56.927,15.002,56.927,16.386"/>
			</g>
		</g>
		<g style="clip-path:url(#SVGID_4_);">
			<g>
				<defs>
					<rect id="SVGID_145_" x="16.769" y="17.438" width="1.601" height="1.601"/>
				</defs>
				<clipPath id="SVGID_146_">
					<use xlink:href="#SVGID_145_"  style="overflow:visible;"/>
				</clipPath>
				<path style="clip-path:url(#SVGID_146_);fill-rule:evenodd;clip-rule:evenodd;fill:#046A3A;" d="M18.369,18.238
					c0,0.442-0.358,0.801-0.8,0.801s-0.8-0.358-0.8-0.801c0-0.442,0.358-0.8,0.8-0.8S18.369,17.796,18.369,18.238"/>
			</g>
		</g>
		<g style="clip-path:url(#SVGID_4_);">
			<g>
				<defs>
					<rect id="SVGID_147_" x="69.385" y="17.595" width="2.542" height="2.542"/>
				</defs>
				<clipPath id="SVGID_148_">
					<use xlink:href="#SVGID_147_"  style="overflow:visible;"/>
				</clipPath>
				<path style="clip-path:url(#SVGID_148_);fill-rule:evenodd;clip-rule:evenodd;fill:#046A3A;" d="M71.927,18.866
					c0,0.702-0.568,1.271-1.271,1.271s-1.271-0.569-1.271-1.271c0-0.702,0.569-1.271,1.271-1.271S71.927,18.164,71.927,18.866"/>
			</g>
		</g>
		<g style="clip-path:url(#SVGID_4_);">
			<g>
				<defs>
					<rect id="SVGID_149_" x="48.281" y="60.627" width="3.212" height="3.211"/>
				</defs>
				<clipPath id="SVGID_150_">
					<use xlink:href="#SVGID_149_"  style="overflow:visible;"/>
				</clipPath>
				<path style="clip-path:url(#SVGID_150_);fill-rule:evenodd;clip-rule:evenodd;fill:#046A3A;" d="M51.493,62.232
					c0,0.887-0.72,1.605-1.606,1.605c-0.887,0-1.606-0.719-1.606-1.605s0.719-1.605,1.606-1.605
					C50.773,60.627,51.493,61.346,51.493,62.232"/>
			</g>
		</g>
		<g style="clip-path:url(#SVGID_4_);">
			<g>
				<defs>
					<rect id="SVGID_151_" x="32.334" y="58.778" width="1.65" height="1.65"/>
				</defs>
				<clipPath id="SVGID_152_">
					<use xlink:href="#SVGID_151_"  style="overflow:visible;"/>
				</clipPath>
				<path style="clip-path:url(#SVGID_152_);fill-rule:evenodd;clip-rule:evenodd;fill:#046A3A;" d="M33.984,59.604
					c0,0.455-0.369,0.825-0.825,0.825s-0.825-0.37-0.825-0.825c0-0.456,0.37-0.825,0.825-0.825S33.984,59.147,33.984,59.604"/>
			</g>
		</g>
		<g style="clip-path:url(#SVGID_4_);">
			<g>
				<defs>
					<rect id="SVGID_153_" x="75.004" y="61.115" width="4.347" height="4.347"/>
				</defs>
				<clipPath id="SVGID_154_">
					<use xlink:href="#SVGID_153_"  style="overflow:visible;"/>
				</clipPath>
				<path style="clip-path:url(#SVGID_154_);fill-rule:evenodd;clip-rule:evenodd;fill:#046A3A;" d="M79.351,63.289
					c0,1.199-0.974,2.173-2.173,2.173c-1.2,0-2.174-0.974-2.174-2.173c0-1.201,0.974-2.174,2.174-2.174
					C78.377,61.115,79.351,62.088,79.351,63.289"/>
			</g>
		</g>
		<g style="clip-path:url(#SVGID_4_);">
			<g>
				<defs>
					<rect id="SVGID_155_" x="55.538" y="60.5" width="1.973" height="1.972"/>
				</defs>
				<clipPath id="SVGID_156_">
					<use xlink:href="#SVGID_155_"  style="overflow:visible;"/>
				</clipPath>
				<path style="clip-path:url(#SVGID_156_);fill-rule:evenodd;clip-rule:evenodd;fill:#046A3A;" d="M57.511,61.485
					c0,0.545-0.441,0.986-0.986,0.986c-0.544,0-0.985-0.441-0.985-0.986c0-0.544,0.441-0.985,0.985-0.985
					C57.069,60.5,57.511,60.941,57.511,61.485"/>
			</g>
		</g>
		<g style="clip-path:url(#SVGID_4_);">
			<g>
				<defs>
					<rect id="SVGID_157_" x="55.25" y="77.992" width="2.06" height="2.06"/>
				</defs>
				<clipPath id="SVGID_158_">
					<use xlink:href="#SVGID_157_"  style="overflow:visible;"/>
				</clipPath>
				<path style="clip-path:url(#SVGID_158_);fill-rule:evenodd;clip-rule:evenodd;fill:#046A3A;" d="M57.31,79.022
					c0,0.568-0.461,1.029-1.03,1.029c-0.568,0-1.029-0.461-1.029-1.029c0-0.569,0.461-1.03,1.029-1.03
					C56.849,77.992,57.31,78.453,57.31,79.022"/>
			</g>
		</g>
		<g style="clip-path:url(#SVGID_4_);">
			<g>
				<defs>
					<rect id="SVGID_159_" x="67.101" y="22.555" width="4.625" height="4.624"/>
				</defs>
				<clipPath id="SVGID_160_">
					<use xlink:href="#SVGID_159_"  style="overflow:visible;"/>
				</clipPath>
				<path style="clip-path:url(#SVGID_160_);fill-rule:evenodd;clip-rule:evenodd;fill:#046A3A;" d="M71.726,24.867
					c0,1.277-1.036,2.312-2.313,2.312c-1.277,0-2.313-1.035-2.313-2.312c0-1.277,1.035-2.312,2.313-2.312
					C70.689,22.555,71.726,23.589,71.726,24.867"/>
			</g>
		</g>
		<g style="clip-path:url(#SVGID_4_);">
			<g>
				<defs>
					<rect id="SVGID_161_" x="61.298" y="55.885" width="5.198" height="5.197"/>
				</defs>
				<clipPath id="SVGID_162_">
					<use xlink:href="#SVGID_161_"  style="overflow:visible;"/>
				</clipPath>
				<path style="clip-path:url(#SVGID_162_);fill-rule:evenodd;clip-rule:evenodd;fill:#046A3A;" d="M66.496,58.483
					c0,1.435-1.164,2.599-2.599,2.599c-1.436,0-2.6-1.164-2.6-2.599c0-1.436,1.164-2.599,2.6-2.599
					C65.332,55.885,66.496,57.048,66.496,58.483"/>
			</g>
		</g>
		<g style="clip-path:url(#SVGID_4_);">
			<g>
				<defs>
					<rect id="SVGID_163_" x="58.936" y="13.892" width="3.849" height="3.849"/>
				</defs>
				<clipPath id="SVGID_164_">
					<use xlink:href="#SVGID_163_"  style="overflow:visible;"/>
				</clipPath>
				<path style="clip-path:url(#SVGID_164_);fill-rule:evenodd;clip-rule:evenodd;fill:#046A3A;" d="M62.784,15.816
					c0,1.063-0.861,1.924-1.924,1.924c-1.063,0-1.925-0.862-1.925-1.924c0-1.063,0.861-1.924,1.925-1.924
					C61.923,13.892,62.784,14.753,62.784,15.816"/>
			</g>
		</g>
		<g style="clip-path:url(#SVGID_4_);">
			<g>
				<defs>
					<rect id="SVGID_165_" x="28.608" y="14.792" width="3.139" height="3.139"/>
				</defs>
				<clipPath id="SVGID_166_">
					<use xlink:href="#SVGID_165_"  style="overflow:visible;"/>
				</clipPath>
				<path style="clip-path:url(#SVGID_166_);fill-rule:evenodd;clip-rule:evenodd;fill:#046A3A;" d="M31.747,16.362
					c0,0.867-0.703,1.569-1.569,1.569s-1.569-0.702-1.569-1.569s0.703-1.569,1.569-1.569S31.747,15.495,31.747,16.362"/>
			</g>
		</g>
		<g style="clip-path:url(#SVGID_4_);">
			<g>
				<defs>
					<rect id="SVGID_167_" x="45.868" y="78.699" width="1.613" height="1.613"/>
				</defs>
				<clipPath id="SVGID_168_">
					<use xlink:href="#SVGID_167_"  style="overflow:visible;"/>
				</clipPath>
				<path style="clip-path:url(#SVGID_168_);fill-rule:evenodd;clip-rule:evenodd;fill:#046A3A;" d="M47.481,79.506
					c0,0.445-0.361,0.807-0.807,0.807s-0.807-0.361-0.807-0.807s0.361-0.807,0.807-0.807S47.481,79.061,47.481,79.506"/>
			</g>
		</g>
		<g style="clip-path:url(#SVGID_4_);">
			<g>
				<defs>
					<rect id="SVGID_169_" x="66.692" y="29.823" width="1.59" height="1.589"/>
				</defs>
				<clipPath id="SVGID_170_">
					<use xlink:href="#SVGID_169_"  style="overflow:visible;"/>
				</clipPath>
				<path style="clip-path:url(#SVGID_170_);fill-rule:evenodd;clip-rule:evenodd;fill:#046A3A;" d="M68.282,30.618
					c0,0.439-0.355,0.794-0.795,0.794c-0.438,0-0.795-0.355-0.795-0.794s0.356-0.795,0.795-0.795
					C67.927,29.823,68.282,30.179,68.282,30.618"/>
			</g>
		</g>
		<g style="clip-path:url(#SVGID_4_);">
			<g>
				<defs>
					<rect id="SVGID_171_" x="23.407" y="15.199" width="2.368" height="2.368"/>
				</defs>
				<clipPath id="SVGID_172_">
					<use xlink:href="#SVGID_171_"  style="overflow:visible;"/>
				</clipPath>
				<path style="clip-path:url(#SVGID_172_);fill-rule:evenodd;clip-rule:evenodd;fill:#046A3A;" d="M25.774,16.383
					c0,0.653-0.53,1.184-1.184,1.184c-0.654,0-1.184-0.53-1.184-1.184c0-0.654,0.53-1.184,1.184-1.184
					C25.245,15.199,25.774,15.729,25.774,16.383"/>
			</g>
		</g>
		<g style="clip-path:url(#SVGID_4_);">
			<g>
				<defs>
					<rect id="SVGID_173_" x="20.662" y="76.786" width="3.771" height="3.771"/>
				</defs>
				<clipPath id="SVGID_174_">
					<use xlink:href="#SVGID_173_"  style="overflow:visible;"/>
				</clipPath>
				<path style="clip-path:url(#SVGID_174_);fill-rule:evenodd;clip-rule:evenodd;fill:#046A3A;" d="M24.433,78.672
					c0,1.041-0.844,1.886-1.885,1.886s-1.886-0.845-1.886-1.886s0.844-1.886,1.886-1.886S24.433,77.631,24.433,78.672"/>
			</g>
		</g>
		<g style="clip-path:url(#SVGID_4_);">
			<g>
				<defs>
					<rect id="SVGID_175_" x="64.696" y="62.467" width="2.365" height="2.365"/>
				</defs>
				<clipPath id="SVGID_176_">
					<use xlink:href="#SVGID_175_"  style="overflow:visible;"/>
				</clipPath>
				<path style="clip-path:url(#SVGID_176_);fill-rule:evenodd;clip-rule:evenodd;fill:#046A3A;" d="M67.062,63.649
					c0,0.653-0.529,1.183-1.183,1.183s-1.183-0.529-1.183-1.183s0.529-1.183,1.183-1.183S67.062,62.996,67.062,63.649"/>
			</g>
		</g>
		<g style="clip-path:url(#SVGID_4_);">
			<g>
				<defs>
					<rect id="SVGID_177_" x="50.918" y="30.552" width="3.13" height="3.129"/>
				</defs>
				<clipPath id="SVGID_178_">
					<use xlink:href="#SVGID_177_"  style="overflow:visible;"/>
				</clipPath>
				<path style="clip-path:url(#SVGID_178_);fill-rule:evenodd;clip-rule:evenodd;fill:#046A3A;" d="M54.048,32.117
					c0,0.864-0.7,1.564-1.564,1.564s-1.565-0.701-1.565-1.564c0-0.864,0.701-1.564,1.565-1.564S54.048,31.252,54.048,32.117"/>
			</g>
		</g>
		<g style="clip-path:url(#SVGID_4_);">
			<g>
				<defs>
					<rect id="SVGID_179_" x="23.039" y="41.38" width="2.052" height="2.052"/>
				</defs>
				<clipPath id="SVGID_180_">
					<use xlink:href="#SVGID_179_"  style="overflow:visible;"/>
				</clipPath>
				<path style="clip-path:url(#SVGID_180_);fill-rule:evenodd;clip-rule:evenodd;fill:#046A3A;" d="M25.091,42.406
					c0,0.566-0.459,1.026-1.026,1.026c-0.566,0-1.026-0.459-1.026-1.026s0.459-1.026,1.026-1.026
					C24.631,41.38,25.091,41.84,25.091,42.406"/>
			</g>
		</g>
		<g style="clip-path:url(#SVGID_4_);">
			<g>
				<defs>
					<rect id="SVGID_181_" x="50.86" y="65.805" width="2.49" height="2.489"/>
				</defs>
				<clipPath id="SVGID_182_">
					<use xlink:href="#SVGID_181_"  style="overflow:visible;"/>
				</clipPath>
				<path style="clip-path:url(#SVGID_182_);fill-rule:evenodd;clip-rule:evenodd;fill:#046A3A;" d="M53.351,67.049
					c0,0.688-0.558,1.245-1.245,1.245s-1.245-0.558-1.245-1.245s0.558-1.244,1.245-1.244S53.351,66.361,53.351,67.049"/>
			</g>
		</g>
		<g style="clip-path:url(#SVGID_4_);">
			<g>
				<defs>
					<rect id="SVGID_183_" x="41.368" y="64.655" width="2.459" height="2.459"/>
				</defs>
				<clipPath id="SVGID_184_">
					<use xlink:href="#SVGID_183_"  style="overflow:visible;"/>
				</clipPath>
				<path style="clip-path:url(#SVGID_184_);fill-rule:evenodd;clip-rule:evenodd;fill:#046A3A;" d="M43.827,65.885
					c0,0.679-0.551,1.229-1.229,1.229c-0.679,0-1.229-0.551-1.229-1.229s0.55-1.229,1.229-1.229
					C43.276,64.655,43.827,65.206,43.827,65.885"/>
			</g>
		</g>
		<g style="clip-path:url(#SVGID_4_);">
			<g>
				<defs>
					<rect id="SVGID_185_" x="43.771" y="23.917" width="1.528" height="1.528"/>
				</defs>
				<clipPath id="SVGID_186_">
					<use xlink:href="#SVGID_185_"  style="overflow:visible;"/>
				</clipPath>
				<path style="clip-path:url(#SVGID_186_);fill-rule:evenodd;clip-rule:evenodd;fill:#046A3A;" d="M45.299,24.682
					c0,0.422-0.342,0.764-0.764,0.764s-0.764-0.342-0.764-0.764s0.342-0.764,0.764-0.764S45.299,24.26,45.299,24.682"/>
			</g>
		</g>
		<g style="clip-path:url(#SVGID_4_);">
			<g>
				<defs>
					<rect id="SVGID_187_" x="57.727" y="74.171" width="4.26" height="4.26"/>
				</defs>
				<clipPath id="SVGID_188_">
					<use xlink:href="#SVGID_187_"  style="overflow:visible;"/>
				</clipPath>
				<path style="clip-path:url(#SVGID_188_);fill-rule:evenodd;clip-rule:evenodd;fill:#046A3A;" d="M61.986,76.301
					c0,1.176-0.954,2.13-2.13,2.13c-1.177,0-2.13-0.954-2.13-2.13c0-1.177,0.953-2.13,2.13-2.13
					C61.032,74.171,61.986,75.124,61.986,76.301"/>
			</g>
		</g>
		<g style="clip-path:url(#SVGID_4_);">
			<g>
				<defs>
					<rect id="SVGID_189_" x="68.774" y="59.754" width="5.249" height="5.25"/>
				</defs>
				<clipPath id="SVGID_190_">
					<use xlink:href="#SVGID_189_"  style="overflow:visible;"/>
				</clipPath>
				<path style="clip-path:url(#SVGID_190_);fill-rule:evenodd;clip-rule:evenodd;fill:#046A3A;" d="M74.023,62.379
					c0,1.449-1.175,2.625-2.624,2.625c-1.45,0-2.625-1.176-2.625-2.625s1.175-2.625,2.625-2.625
					C72.849,59.754,74.023,60.93,74.023,62.379"/>
			</g>
		</g>
		<g style="clip-path:url(#SVGID_4_);">
			<g>
				<defs>
					<rect id="SVGID_191_" x="24.122" y="33.183" width="4.079" height="4.079"/>
				</defs>
				<clipPath id="SVGID_192_">
					<use xlink:href="#SVGID_191_"  style="overflow:visible;"/>
				</clipPath>
				<path style="clip-path:url(#SVGID_192_);fill-rule:evenodd;clip-rule:evenodd;fill:#046A3A;" d="M28.201,35.223
					c0,1.126-0.913,2.04-2.04,2.04s-2.04-0.914-2.04-2.04c0-1.126,0.914-2.04,2.04-2.04S28.201,34.096,28.201,35.223"/>
			</g>
		</g>
		<g style="clip-path:url(#SVGID_4_);">
			<g>
				<defs>
					<rect id="SVGID_193_" x="34.733" y="63.463" width="2.179" height="2.18"/>
				</defs>
				<clipPath id="SVGID_194_">
					<use xlink:href="#SVGID_193_"  style="overflow:visible;"/>
				</clipPath>
				<path style="clip-path:url(#SVGID_194_);fill-rule:evenodd;clip-rule:evenodd;fill:#046A3A;" d="M36.912,64.553
					c0,0.602-0.488,1.09-1.089,1.09c-0.602,0-1.09-0.488-1.09-1.09s0.488-1.09,1.09-1.09C36.424,63.463,36.912,63.951,36.912,64.553
					"/>
			</g>
		</g>
		<g style="clip-path:url(#SVGID_4_);">
			<g>
				<defs>
					<rect id="SVGID_195_" x="54.675" y="70.141" width="2.002" height="2.002"/>
				</defs>
				<clipPath id="SVGID_196_">
					<use xlink:href="#SVGID_195_"  style="overflow:visible;"/>
				</clipPath>
				<path style="clip-path:url(#SVGID_196_);fill-rule:evenodd;clip-rule:evenodd;fill:#046A3A;" d="M56.676,71.142
					c0,0.553-0.447,1.001-1,1.001s-1.001-0.448-1.001-1.001s0.448-1.001,1.001-1.001S56.676,70.589,56.676,71.142"/>
			</g>
		</g>
		<g style="clip-path:url(#SVGID_4_);">
			<g>
				<defs>
					<rect id="SVGID_197_" x="59.813" y="68.307" width="4.981" height="4.98"/>
				</defs>
				<clipPath id="SVGID_198_">
					<use xlink:href="#SVGID_197_"  style="overflow:visible;"/>
				</clipPath>
				<path style="clip-path:url(#SVGID_198_);fill-rule:evenodd;clip-rule:evenodd;fill:#046A3A;" d="M64.795,70.797
					c0,1.375-1.115,2.49-2.49,2.49c-1.376,0-2.491-1.115-2.491-2.49c0-1.376,1.115-2.491,2.491-2.491
					C63.68,68.306,64.795,69.421,64.795,70.797"/>
			</g>
		</g>
		<g style="clip-path:url(#SVGID_4_);">
			<g>
				<defs>
					<rect id="SVGID_199_" x="80.772" y="23.813" width="1.931" height="1.93"/>
				</defs>
				<clipPath id="SVGID_200_">
					<use xlink:href="#SVGID_199_"  style="overflow:visible;"/>
				</clipPath>
				<path style="clip-path:url(#SVGID_200_);fill-rule:evenodd;clip-rule:evenodd;fill:#046A3A;" d="M82.703,24.778
					c0,0.533-0.432,0.965-0.965,0.965s-0.966-0.432-0.966-0.965c0-0.533,0.433-0.965,0.966-0.965S82.703,24.245,82.703,24.778"/>
			</g>
		</g>
		<g style="clip-path:url(#SVGID_4_);">
			<g>
				<defs>
					<rect id="SVGID_201_" x="81.337" y="52.189" width="2.599" height="2.599"/>
				</defs>
				<clipPath id="SVGID_202_">
					<use xlink:href="#SVGID_201_"  style="overflow:visible;"/>
				</clipPath>
				<path style="clip-path:url(#SVGID_202_);fill-rule:evenodd;clip-rule:evenodd;fill:#046A3A;" d="M83.936,53.488
					c0,0.718-0.582,1.3-1.3,1.3s-1.299-0.582-1.299-1.3c0-0.717,0.581-1.299,1.299-1.299S83.936,52.771,83.936,53.488"/>
			</g>
		</g>
		<g style="clip-path:url(#SVGID_4_);">
			<g>
				<defs>
					<rect id="SVGID_203_" x="64.124" y="42.413" width="5.629" height="5.629"/>
				</defs>
				<clipPath id="SVGID_204_">
					<use xlink:href="#SVGID_203_"  style="overflow:visible;"/>
				</clipPath>
				<path style="clip-path:url(#SVGID_204_);fill-rule:evenodd;clip-rule:evenodd;fill:#046A3A;" d="M69.753,45.227
					c0,1.554-1.26,2.814-2.813,2.814c-1.555,0-2.815-1.26-2.815-2.814c0-1.555,1.261-2.814,2.815-2.814
					C68.493,42.413,69.753,43.672,69.753,45.227"/>
			</g>
		</g>
		<g style="clip-path:url(#SVGID_4_);">
			<g>
				<defs>
					<rect id="SVGID_205_" x="17.259" y="37.11" width="2.462" height="2.463"/>
				</defs>
				<clipPath id="SVGID_206_">
					<use xlink:href="#SVGID_205_"  style="overflow:visible;"/>
				</clipPath>
				<path style="clip-path:url(#SVGID_206_);fill-rule:evenodd;clip-rule:evenodd;fill:#046A3A;" d="M19.722,38.342
					c0,0.68-0.551,1.231-1.231,1.231s-1.232-0.551-1.232-1.231s0.552-1.231,1.232-1.231S19.722,37.662,19.722,38.342"/>
			</g>
		</g>
		<g style="clip-path:url(#SVGID_4_);">
			<g>
				<defs>
					<rect id="SVGID_207_" x="67.094" y="13.098" width="2.021" height="2.021"/>
				</defs>
				<clipPath id="SVGID_208_">
					<use xlink:href="#SVGID_207_"  style="overflow:visible;"/>
				</clipPath>
				<path style="clip-path:url(#SVGID_208_);fill-rule:evenodd;clip-rule:evenodd;fill:#046A3A;" d="M69.115,14.109
					c0,0.558-0.452,1.011-1.011,1.011c-0.558,0-1.011-0.453-1.011-1.011s0.453-1.011,1.011-1.011
					C68.663,13.098,69.115,13.551,69.115,14.109"/>
			</g>
		</g>
		<g style="clip-path:url(#SVGID_4_);">
			<g>
				<defs>
					<rect id="SVGID_209_" x="58.93" y="30.348" width="5.534" height="5.534"/>
				</defs>
				<clipPath id="SVGID_210_">
					<use xlink:href="#SVGID_209_"  style="overflow:visible;"/>
				</clipPath>
				<path style="clip-path:url(#SVGID_210_);fill-rule:evenodd;clip-rule:evenodd;fill:#046A3A;" d="M64.464,33.115
					c0,1.528-1.238,2.767-2.767,2.767s-2.768-1.239-2.768-2.767c0-1.528,1.239-2.767,2.768-2.767S64.464,31.587,64.464,33.115"/>
			</g>
		</g>
		<g style="clip-path:url(#SVGID_4_);">
			<g>
				<defs>
					<rect id="SVGID_211_" x="63.886" y="35.941" width="4.5" height="4.5"/>
				</defs>
				<clipPath id="SVGID_212_">
					<use xlink:href="#SVGID_211_"  style="overflow:visible;"/>
				</clipPath>
				<path style="clip-path:url(#SVGID_212_);fill-rule:evenodd;clip-rule:evenodd;fill:#046A3A;" d="M68.386,38.191
					c0,1.243-1.007,2.25-2.25,2.25s-2.25-1.007-2.25-2.25s1.007-2.25,2.25-2.25S68.386,36.948,68.386,38.191"/>
			</g>
		</g>
		<g style="clip-path:url(#SVGID_4_);">
			<g>
				<defs>
					<rect id="SVGID_213_" x="19.969" y="49.285" width="4.762" height="4.762"/>
				</defs>
				<clipPath id="SVGID_214_">
					<use xlink:href="#SVGID_213_"  style="overflow:visible;"/>
				</clipPath>
				<path style="clip-path:url(#SVGID_214_);fill-rule:evenodd;clip-rule:evenodd;fill:#046A3A;" d="M24.731,51.666
					c0,1.314-1.066,2.381-2.381,2.381c-1.315,0-2.381-1.066-2.381-2.381c0-1.315,1.065-2.381,2.381-2.381
					C23.665,49.285,24.731,50.351,24.731,51.666"/>
			</g>
		</g>
		<g style="clip-path:url(#SVGID_4_);">
			<g>
				<defs>
					<rect id="SVGID_215_" x="42.985" y="32.6" width="1.796" height="1.796"/>
				</defs>
				<clipPath id="SVGID_216_">
					<use xlink:href="#SVGID_215_"  style="overflow:visible;"/>
				</clipPath>
				<path style="clip-path:url(#SVGID_216_);fill-rule:evenodd;clip-rule:evenodd;fill:#046A3A;" d="M44.781,33.498
					c0,0.496-0.402,0.898-0.898,0.898s-0.898-0.402-0.898-0.898s0.402-0.897,0.898-0.897S44.781,33.002,44.781,33.498"/>
			</g>
		</g>
		<g style="clip-path:url(#SVGID_4_);">
			<g>
				<defs>
					<rect id="SVGID_217_" x="45.827" y="53.084" width="4.965" height="4.965"/>
				</defs>
				<clipPath id="SVGID_218_">
					<use xlink:href="#SVGID_217_"  style="overflow:visible;"/>
				</clipPath>
				<path style="clip-path:url(#SVGID_218_);fill-rule:evenodd;clip-rule:evenodd;fill:#046A3A;" d="M50.792,55.566
					c0,1.371-1.111,2.482-2.482,2.482s-2.482-1.111-2.482-2.482s1.111-2.482,2.482-2.482S50.792,54.195,50.792,55.566"/>
			</g>
		</g>
		<g style="clip-path:url(#SVGID_4_);">
			<g>
				<defs>
					<rect id="SVGID_219_" x="54.186" y="20.737" width="4.943" height="4.943"/>
				</defs>
				<clipPath id="SVGID_220_">
					<use xlink:href="#SVGID_219_"  style="overflow:visible;"/>
				</clipPath>
				<path style="clip-path:url(#SVGID_220_);fill-rule:evenodd;clip-rule:evenodd;fill:#046A3A;" d="M59.129,23.208
					c0,1.365-1.106,2.472-2.472,2.472c-1.366,0-2.472-1.107-2.472-2.472c0-1.366,1.105-2.472,2.472-2.472
					C58.022,20.737,59.129,21.843,59.129,23.208"/>
			</g>
		</g>
		<g style="clip-path:url(#SVGID_4_);">
			<g>
				<defs>
					<rect id="SVGID_221_" x="24.613" y="45.778" width="5.29" height="5.29"/>
				</defs>
				<clipPath id="SVGID_222_">
					<use xlink:href="#SVGID_221_"  style="overflow:visible;"/>
				</clipPath>
				<path style="clip-path:url(#SVGID_222_);fill-rule:evenodd;clip-rule:evenodd;fill:#046A3A;" d="M29.903,48.423
					c0,1.461-1.184,2.646-2.645,2.646s-2.645-1.185-2.645-2.646s1.184-2.645,2.645-2.645S29.903,46.962,29.903,48.423"/>
			</g>
		</g>
		<g style="clip-path:url(#SVGID_4_);">
			<g>
				<defs>
					<rect id="SVGID_223_" x="56.877" y="48.081" width="3" height="3"/>
				</defs>
				<clipPath id="SVGID_224_">
					<use xlink:href="#SVGID_223_"  style="overflow:visible;"/>
				</clipPath>
				<path style="clip-path:url(#SVGID_224_);fill-rule:evenodd;clip-rule:evenodd;fill:#046A3A;" d="M59.878,49.581
					c0,0.828-0.672,1.5-1.501,1.5c-0.828,0-1.5-0.672-1.5-1.5c0-0.829,0.672-1.5,1.5-1.5C59.206,48.081,59.878,48.752,59.878,49.581
					"/>
			</g>
		</g>
		<g style="clip-path:url(#SVGID_4_);">
			<g>
				<defs>
					<rect id="SVGID_225_" x="67.854" y="71.531" width="5.67" height="5.67"/>
				</defs>
				<clipPath id="SVGID_226_">
					<use xlink:href="#SVGID_225_"  style="overflow:visible;"/>
				</clipPath>
				<path style="clip-path:url(#SVGID_226_);fill-rule:evenodd;clip-rule:evenodd;fill:#046A3A;" d="M73.524,74.365
					c0,1.566-1.27,2.836-2.835,2.836c-1.566,0-2.835-1.27-2.835-2.836c0-1.565,1.269-2.834,2.835-2.834
					C72.255,71.531,73.524,72.8,73.524,74.365"/>
			</g>
		</g>
		<g style="clip-path:url(#SVGID_4_);">
			<g>
				<defs>
					<rect id="SVGID_227_" x="81.305" y="78.135" width="1.717" height="1.717"/>
				</defs>
				<clipPath id="SVGID_228_">
					<use xlink:href="#SVGID_227_"  style="overflow:visible;"/>
				</clipPath>
				<path style="clip-path:url(#SVGID_228_);fill-rule:evenodd;clip-rule:evenodd;fill:#046A3A;" d="M83.021,78.993
					c0,0.475-0.384,0.858-0.858,0.858c-0.474,0-0.858-0.384-0.858-0.858c0-0.474,0.385-0.858,0.858-0.858
					C82.638,78.135,83.021,78.52,83.021,78.993"/>
			</g>
		</g>
		<g style="clip-path:url(#SVGID_4_);">
			<g>
				<defs>
					<rect id="SVGID_229_" x="18.552" y="66.652" width="3.853" height="3.854"/>
				</defs>
				<clipPath id="SVGID_230_">
					<use xlink:href="#SVGID_229_"  style="overflow:visible;"/>
				</clipPath>
				<path style="clip-path:url(#SVGID_230_);fill-rule:evenodd;clip-rule:evenodd;fill:#046A3A;" d="M22.404,68.579
					c0,1.063-0.862,1.927-1.926,1.927s-1.927-0.863-1.927-1.927s0.863-1.927,1.927-1.927S22.404,67.516,22.404,68.579"/>
			</g>
		</g>
		<g style="clip-path:url(#SVGID_4_);">
			<g>
				<defs>
					<rect id="SVGID_231_" x="24.47" y="54.863" width="4.377" height="4.377"/>
				</defs>
				<clipPath id="SVGID_232_">
					<use xlink:href="#SVGID_231_"  style="overflow:visible;"/>
				</clipPath>
				<path style="clip-path:url(#SVGID_232_);fill-rule:evenodd;clip-rule:evenodd;fill:#046A3A;" d="M28.847,57.051
					c0,1.209-0.98,2.189-2.188,2.189c-1.209,0-2.189-0.98-2.189-2.189c0-1.208,0.98-2.188,2.189-2.188
					C27.867,54.863,28.847,55.843,28.847,57.051"/>
			</g>
		</g>
		<g style="clip-path:url(#SVGID_4_);">
			<g>
				<defs>
					<rect id="SVGID_233_" x="72.82" y="67.648" width="1.791" height="1.791"/>
				</defs>
				<clipPath id="SVGID_234_">
					<use xlink:href="#SVGID_233_"  style="overflow:visible;"/>
				</clipPath>
				<path style="clip-path:url(#SVGID_234_);fill-rule:evenodd;clip-rule:evenodd;fill:#046A3A;" d="M74.611,68.544
					c0,0.494-0.4,0.896-0.896,0.896c-0.494,0-0.896-0.401-0.896-0.896s0.401-0.896,0.896-0.896
					C74.211,67.648,74.611,68.05,74.611,68.544"/>
			</g>
		</g>
		<g style="clip-path:url(#SVGID_4_);">
			<g>
				<defs>
					<rect id="SVGID_235_" x="60.379" y="23.456" width="5.293" height="5.293"/>
				</defs>
				<clipPath id="SVGID_236_">
					<use xlink:href="#SVGID_235_"  style="overflow:visible;"/>
				</clipPath>
				<path style="clip-path:url(#SVGID_236_);fill-rule:evenodd;clip-rule:evenodd;fill:#046A3A;" d="M65.672,26.102
					c0,1.461-1.185,2.646-2.646,2.646s-2.646-1.185-2.646-2.646c0-1.462,1.185-2.646,2.646-2.646S65.672,24.64,65.672,26.102"/>
			</g>
		</g>
		<g style="clip-path:url(#SVGID_4_);">
			<g>
				<defs>
					<rect id="SVGID_237_" x="36.764" y="46.107" width="3.296" height="3.296"/>
				</defs>
				<clipPath id="SVGID_238_">
					<use xlink:href="#SVGID_237_"  style="overflow:visible;"/>
				</clipPath>
				<path style="clip-path:url(#SVGID_238_);fill-rule:evenodd;clip-rule:evenodd;fill:#046A3A;" d="M40.06,47.755
					c0,0.91-0.737,1.648-1.648,1.648c-0.91,0-1.648-0.738-1.648-1.648s0.738-1.648,1.648-1.648
					C39.322,46.107,40.06,46.845,40.06,47.755"/>
			</g>
		</g>
		<g style="clip-path:url(#SVGID_4_);">
			<g>
				<defs>
					<rect id="SVGID_239_" x="27.43" y="20.721" width="3.158" height="3.158"/>
				</defs>
				<clipPath id="SVGID_240_">
					<use xlink:href="#SVGID_239_"  style="overflow:visible;"/>
				</clipPath>
				<path style="clip-path:url(#SVGID_240_);fill-rule:evenodd;clip-rule:evenodd;fill:#046A3A;" d="M30.588,22.3
					c0,0.872-0.707,1.579-1.579,1.579S27.43,23.171,27.43,22.3c0-0.873,0.707-1.579,1.579-1.579S30.588,21.427,30.588,22.3"/>
			</g>
		</g>
		<g style="clip-path:url(#SVGID_4_);">
			<g>
				<defs>
					<rect id="SVGID_241_" x="70.815" y="76.822" width="3.847" height="3.846"/>
				</defs>
				<clipPath id="SVGID_242_">
					<use xlink:href="#SVGID_241_"  style="overflow:visible;"/>
				</clipPath>
				<path style="clip-path:url(#SVGID_242_);fill-rule:evenodd;clip-rule:evenodd;fill:#046A3A;" d="M74.662,78.745
					c0,1.062-0.861,1.923-1.924,1.923s-1.923-0.861-1.923-1.923c0-1.063,0.86-1.924,1.923-1.924S74.662,77.683,74.662,78.745"/>
			</g>
		</g>
		<g style="clip-path:url(#SVGID_4_);">
			<g>
				<defs>
					<rect id="SVGID_243_" x="81.549" y="64.52" width="1.765" height="1.764"/>
				</defs>
				<clipPath id="SVGID_244_">
					<use xlink:href="#SVGID_243_"  style="overflow:visible;"/>
				</clipPath>
				<path style="clip-path:url(#SVGID_244_);fill-rule:evenodd;clip-rule:evenodd;fill:#046A3A;" d="M83.313,65.401
					c0,0.487-0.396,0.883-0.883,0.883s-0.882-0.396-0.882-0.883s0.395-0.882,0.882-0.882S83.313,64.914,83.313,65.401"/>
			</g>
		</g>
		<g style="clip-path:url(#SVGID_4_);">
			<defs>
				<rect id="SVGID_245_" x="-25.678" y="38.623" width="7.204" height="4.233"/>
			</defs>
			<clipPath id="SVGID_246_">
				<use xlink:href="#SVGID_245_"  style="overflow:visible;"/>
			</clipPath>
			<path style="clip-path:url(#SVGID_246_);fill:#046A3A;" d="M-24.69,35.286c0.031,1.219-0.013,2.452,0.075,3.667
				c0.079,1.088,0.376,2.162,1.256,2.872c0.77,0.622,1.83,0.813,2.716,0.313c0.743-0.42,1.161-1.233,1.333-2.043
				c0.218-1.023,0.161-2.091,0.172-3.13c0.014-1.261,0.027-2.522,0.041-3.784c0.013-1.19,0.017-2.38,0.04-3.57
				c0.02-1.017,0.063-2.072,0.448-3.029c0.125-0.313,0.355-0.875,0.703-1.016c0.19-0.077,0.29,0.089,0.4,0.339
				c0.396,0.906,0.382,2.071,0.473,3.039c0.229,2.446,0.282,4.908,0.161,7.361c-0.097,1.953-0.465,4.72,1.847,5.588
				c0.988,0.371,2.067,0.038,2.84-0.636c0.803-0.7,1.144-1.743,1.273-2.768c0.297-2.348-0.13-4.757-0.403-7.087
				c-0.143-1.21-0.264-2.427-0.269-3.646c-0.003-0.762-0.058-1.794,0.424-2.451c0.487-0.664,1.256-0.081,1.544,0.471
				c0.502,0.961,0.515,2.24,0.578,3.298c0.145,2.445-0.026,4.893-0.119,7.335c-0.045,1.191-0.122,2.412-0.03,3.602
				c0.066,0.856,0.331,1.832,1.095,2.328c1.897,1.23,3.592-1.359,3.967-2.916c0.471-1.959,0.172-4.023,0.263-6.015
				c0.107-2.356,0.501-4.688,1.163-6.953c0.084-0.288,0.171-0.576,0.266-0.861c0.002-0.007,0.065-0.141,0.118-0.26
				c0.092,0.141,0.203,0.259,0.27,0.43c0.322,0.83,0.212,1.821,0.215,2.689c0.008,2.511,0.113,5.022,0.315,7.525
				c0.155,1.932-0.009,4.891,2.024,5.933c0.966,0.495,2.075,0.283,2.843-0.469c0.767-0.75,1.063-1.803,1.176-2.838
				c0.121-1.101,0.072-2.229,0.084-3.335c0.013-1.259,0.026-2.518,0.039-3.776c0.013-1.22,0.025-2.439,0.038-3.659
				c0.007-0.644-0.181-2.216,0.643-2.502c1.146-0.398,1.119,4.261,1.129,4.769c0.049,2.457-0.099,4.913-0.013,7.37
				c0.059,1.69,0.167,4.561,2.488,4.634c2.184,0.068,2.905-2.592,3.188-4.276c0.386-2.294,0.366-4.618,0.497-6.934
				c0.063-1.116,0.165-2.23,0.396-3.325c0.118-0.558,0.299-1.944,0.988-2.151c0.768-0.23,1.158,0.975,1.264,1.495
				c0.191,0.94,0.106,1.951,0.104,2.904c-0.006,2.457-0.012,4.913-0.017,7.37c-0.004,1.973,0.305,4.622,2.697,5.055
				c2.104,0.381,3.094-1.609,3.273-3.369c0.111-1.087,0.037-2.202,0.042-3.293c0.006-1.227,0.021-2.454,0.044-3.68
				c0.024-1.266,0.058-2.532,0.101-3.797c0.027-0.797-0.088-1.881,0.33-2.608c0.381-0.664,1.186-0.308,1.556,0.191
				c0.582,0.784,0.586,1.961,0.632,2.891c0.111,2.283-0.079,4.565-0.1,6.848c-0.02,2.258,0.145,4.542,0.872,6.694
				c0.393,1.165,2.249,0.665,1.852-0.51c-1.519-4.5-0.354-9.282-0.762-13.908c-0.178-2.012-1.009-4.404-3.404-4.496
				c-0.991-0.038-1.874,0.529-2.338,1.388c-0.459,0.851-0.498,1.854-0.532,2.798c-0.093,2.531-0.148,5.063-0.166,7.595
				c-0.008,1.163,0.046,2.337-0.016,3.498c-0.03,0.546-0.088,1.447-0.593,1.787c-0.704,0.473-1.31-0.6-1.444-1.142
				c-0.271-1.097-0.122-2.343-0.119-3.463c0.005-2.462,0.041-4.926,0.015-7.388c-0.02-1.841-0.48-4.257-2.61-4.734
				c-2.392-0.536-3.269,2.132-3.604,3.943c-0.429,2.323-0.41,4.687-0.535,7.037c-0.062,1.153-0.16,2.305-0.394,3.438
				c-0.094,0.452-0.185,0.931-0.376,1.354c-0.113,0.248-0.382,0.817-0.703,0.87c-0.982,0.162-0.734-4.514-0.73-5.053
				c0.019-2.491,0.141-4.991-0.093-7.477c-0.158-1.676-0.612-4.357-2.858-4.269c-1.055,0.041-1.917,0.822-2.296,1.768
				c-0.423,1.059-0.324,2.27-0.335,3.388c-0.026,2.518-0.053,5.036-0.079,7.553c-0.011,1.037,0.089,2.168-0.221,3.172
				c-0.198,0.641-0.803,1.437-1.395,0.661c-0.295-0.387-0.364-0.938-0.423-1.405c-0.082-0.65-0.133-1.306-0.19-1.959
				C0.344,35.313,0.26,34.061,0.2,32.807s-0.096-2.509-0.107-3.765c-0.01-1.062,0.048-2.131-0.137-3.181
				c-0.163-0.931-0.644-1.873-1.478-2.368c-0.971-0.577-2.019-0.04-2.489,0.894c-0.506,1.005-0.745,2.212-0.995,3.302
				c-0.271,1.183-0.467,2.38-0.606,3.585c-0.138,1.194-0.206,2.396-0.202,3.598c0.003,0.978,0.062,1.956-0.003,2.933
				c-0.053,0.798-0.196,1.677-0.681,2.338c-0.111,0.151-0.252,0.311-0.4,0.427c-0.1,0.08-0.177,0.098-0.193,0.117
				c-0.141-0.173-0.167-0.575-0.181-0.75c-0.202-2.432,0.124-4.941,0.189-7.375c0.034-1.24,0.035-2.481-0.049-3.719
				c-0.076-1.137-0.145-2.373-0.561-3.444c-0.39-1.001-1.096-1.854-2.146-2.193c-0.949-0.306-2-0.023-2.665,0.717
				c-1.396,1.554-1.053,4.218-0.878,6.113c0.225,2.429,0.684,4.846,0.632,7.293c-0.019,0.879-0.051,2.091-0.881,2.626
				c-0.763,0.492-1.291-0.231-1.403-0.952c-0.175-1.131,0.079-2.378,0.117-3.517c0.042-1.247,0.039-2.495-0.01-3.742
				c-0.048-1.247-0.142-2.492-0.28-3.731c-0.115-1.031-0.168-2.133-0.64-3.077c-0.435-0.87-1.312-1.474-2.31-1.291
				c-1.07,0.197-1.755,1.142-2.162,2.081c-0.912,2.11-0.668,4.62-0.692,6.864l-0.04,3.784c-0.011,1.025,0.091,2.123-0.095,3.135
				c-0.088,0.481-0.325,1.298-0.948,0.878c-0.825-0.556-0.621-2.022-0.632-2.871"/>
		</g>
		<g style="clip-path:url(#SVGID_4_);">
			<defs>
				<rect id="SVGID_247_" x="-24.848" y="72.684" width="7.204" height="4.232"/>
			</defs>
			<clipPath id="SVGID_248_">
				<use xlink:href="#SVGID_247_"  style="overflow:visible;"/>
			</clipPath>
			<path style="clip-path:url(#SVGID_248_);fill:#046A3A;" d="M-23.86,69.347c0.031,1.218-0.013,2.451,0.075,3.666
				c0.079,1.088,0.377,2.162,1.256,2.872c0.77,0.622,1.83,0.813,2.716,0.313c0.743-0.42,1.161-1.232,1.333-2.042
				c0.218-1.023,0.161-2.092,0.172-3.131c0.014-1.262,0.027-2.522,0.041-3.784c0.013-1.189,0.017-2.38,0.04-3.57
				c0.02-1.017,0.063-2.072,0.448-3.028c0.126-0.313,0.355-0.876,0.703-1.017c0.19-0.077,0.29,0.089,0.4,0.34
				c0.396,0.906,0.382,2.071,0.473,3.039c0.229,2.445,0.282,4.907,0.161,7.36c-0.097,1.953-0.465,4.72,1.847,5.589
				c0.989,0.371,2.067,0.037,2.84-0.637c0.803-0.699,1.145-1.742,1.274-2.768c0.296-2.348-0.13-4.757-0.404-7.087
				c-0.143-1.21-0.264-2.427-0.269-3.646c-0.003-0.762-0.057-1.794,0.424-2.45c0.487-0.664,1.256-0.081,1.544,0.471
				c0.502,0.961,0.515,2.241,0.578,3.299c0.145,2.444-0.026,4.892-0.119,7.335c-0.045,1.191-0.121,2.411-0.03,3.602
				c0.065,0.856,0.33,1.831,1.095,2.327c1.897,1.23,3.592-1.358,3.967-2.916c0.471-1.959,0.172-4.023,0.263-6.015
				c0.107-2.356,0.501-4.688,1.163-6.952c0.084-0.289,0.171-0.577,0.266-0.861c0.002-0.008,0.065-0.142,0.118-0.261
				c0.092,0.141,0.203,0.259,0.27,0.43c0.322,0.83,0.212,1.821,0.215,2.69c0.008,2.511,0.113,5.021,0.314,7.524
				c0.155,1.932-0.009,4.892,2.024,5.934c0.966,0.495,2.075,0.282,2.843-0.47c0.767-0.751,1.063-1.803,1.176-2.838
				c0.12-1.102,0.072-2.229,0.083-3.336c0.013-1.259,0.026-2.518,0.039-3.776c0.013-1.22,0.025-2.438,0.038-3.658
				c0.007-0.644-0.181-2.216,0.643-2.502c1.147-0.398,1.119,4.261,1.129,4.769c0.049,2.457-0.099,4.914-0.013,7.37
				c0.059,1.69,0.167,4.561,2.488,4.634c2.184,0.068,2.905-2.593,3.188-4.276c0.386-2.294,0.366-4.618,0.497-6.934
				c0.063-1.116,0.165-2.229,0.396-3.325c0.119-0.559,0.299-1.944,0.988-2.15c0.768-0.23,1.158,0.974,1.264,1.494
				c0.191,0.94,0.106,1.951,0.104,2.903c-0.006,2.457-0.012,4.913-0.017,7.37c-0.004,1.973,0.305,4.622,2.696,5.055
				c2.104,0.381,3.094-1.608,3.273-3.368c0.111-1.088,0.038-2.202,0.042-3.293c0.006-1.227,0.021-2.453,0.044-3.68
				c0.024-1.267,0.058-2.532,0.101-3.798c0.027-0.797-0.087-1.881,0.33-2.608c0.381-0.663,1.186-0.308,1.556,0.191
				c0.582,0.784,0.586,1.961,0.632,2.891c0.112,2.283-0.079,4.565-0.1,6.849c-0.02,2.258,0.145,4.542,0.872,6.694
				c0.394,1.165,2.249,0.665,1.852-0.511c-1.519-4.5-0.353-9.281-0.762-13.908c-0.178-2.011-1.009-4.403-3.404-4.495
				c-0.99-0.038-1.874,0.528-2.338,1.388c-0.459,0.852-0.498,1.854-0.532,2.798c-0.093,2.531-0.148,5.063-0.166,7.596
				c-0.008,1.163,0.046,2.337-0.016,3.498c-0.03,0.546-0.088,1.447-0.593,1.786c-0.704,0.473-1.31-0.6-1.444-1.142
				c-0.271-1.097-0.122-2.343-0.119-3.463c0.005-2.462,0.041-4.926,0.015-7.388c-0.02-1.842-0.48-4.257-2.61-4.734
				c-2.392-0.536-3.269,2.132-3.604,3.943c-0.429,2.322-0.41,4.687-0.535,7.036c-0.062,1.153-0.159,2.306-0.394,3.438
				c-0.094,0.452-0.184,0.931-0.376,1.354c-0.112,0.247-0.381,0.816-0.703,0.869c-0.981,0.161-0.734-4.515-0.73-5.053
				c0.019-2.492,0.141-4.991-0.093-7.478c-0.158-1.676-0.612-4.356-2.858-4.269c-1.055,0.041-1.917,0.821-2.295,1.768
				c-0.424,1.06-0.324,2.27-0.336,3.389c-0.026,2.518-0.052,5.035-0.079,7.553c-0.011,1.037,0.089,2.169-0.221,3.173
				c-0.198,0.641-0.803,1.437-1.395,0.661c-0.295-0.387-0.364-0.938-0.423-1.404c-0.082-0.65-0.133-1.307-0.19-1.96
				c-0.108-1.251-0.192-2.503-0.252-3.758c-0.06-1.254-0.096-2.509-0.107-3.765c-0.01-1.061,0.048-2.13-0.137-3.181
				c-0.163-0.931-0.644-1.872-1.478-2.368c-0.971-0.576-2.019-0.04-2.489,0.894c-0.506,1.006-0.745,2.212-0.995,3.303
				c-0.271,1.183-0.467,2.38-0.606,3.585c-0.138,1.194-0.206,2.396-0.202,3.598c0.003,0.979,0.062,1.956-0.003,2.934
				c-0.053,0.798-0.196,1.678-0.681,2.338c-0.111,0.151-0.252,0.311-0.4,0.428c-0.1,0.079-0.177,0.098-0.193,0.116
				c-0.141-0.173-0.167-0.574-0.181-0.75c-0.202-2.433,0.124-4.941,0.19-7.376c0.033-1.239,0.034-2.48-0.049-3.719
				c-0.077-1.137-0.145-2.372-0.562-3.444c-0.389-1.001-1.095-1.854-2.146-2.192c-0.95-0.306-2-0.023-2.666,0.718
				c-1.396,1.554-1.053,4.217-0.877,6.112c0.224,2.429,0.683,4.846,0.631,7.294c-0.019,0.879-0.051,2.091-0.881,2.626
				c-0.763,0.492-1.291-0.231-1.403-0.952c-0.175-1.131,0.079-2.378,0.117-3.518c0.042-1.246,0.039-2.495-0.01-3.741
				c-0.048-1.247-0.142-2.492-0.28-3.732c-0.115-1.03-0.168-2.133-0.64-3.076c-0.435-0.87-1.312-1.475-2.31-1.291
				c-1.07,0.196-1.755,1.142-2.162,2.08c-0.912,2.11-0.667,4.62-0.691,6.864l-0.041,3.783c-0.011,1.025,0.091,2.124-0.095,3.136
				c-0.088,0.48-0.325,1.298-0.948,0.878c-0.826-0.557-0.622-2.022-0.633-2.871"/>
		</g>
	</g>
</g>
</svg>
