<?xml version="1.0" encoding="utf-8"?>
<!-- Generator: Adobe Illustrator 16.0.0, SVG Export Plug-In . SVG Version: 6.00 Build 0)  -->
<!DOCTYPE svg PUBLIC "-//W3C//DTD SVG 1.1//EN" "http://www.w3.org/Graphics/SVG/1.1/DTD/svg11.dtd">
<svg version="1.1" id="Layer_1" xmlns="http://www.w3.org/2000/svg" xmlns:xlink="http://www.w3.org/1999/xlink" x="0px" y="0px"
	 width="100px" height="100px" viewBox="0 0 100 100" style="enable-background:new 0 0 100 100;" xml:space="preserve">
<polygon style="fill:#046A3A;" points="67.718,20.745 65.07,23.392 59.818,18.139 53.084,24.875 46.349,18.139 41.096,23.392 
	38.45,20.745 46.257,12.938 53.084,19.765 59.91,12.938 "/>
<polygon style="fill:#046A3A;" points="67.718,92.833 65.07,95.479 59.818,90.229 53.084,96.963 46.349,90.229 41.096,95.479 
	38.45,92.833 46.257,85.025 53.084,91.854 59.91,85.025 "/>
<polygon style="fill:#046A3A;" points="62.425,26.038 53.084,35.379 43.743,26.038 46.349,23.432 53.084,30.167 59.818,23.432 "/>
<polygon style="fill:#046A3A;" points="57.266,10.292 54.618,12.938 53.084,11.404 51.549,12.938 48.903,10.292 53.084,6.111 "/>
<polygon style="fill:#046A3A;" points="67.718,55.395 65.07,58.04 59.818,52.788 53.084,59.523 46.349,52.788 41.096,58.04 
	38.45,55.395 46.257,47.587 53.084,54.414 59.91,47.587 "/>
<polygon style="fill:#046A3A;" points="62.425,60.688 53.084,70.027 43.743,60.688 46.349,58.081 53.084,64.816 59.818,58.081 "/>
<polygon style="fill:#046A3A;" points="57.266,44.941 54.618,47.587 53.084,46.053 51.549,47.587 48.903,44.941 53.084,40.76 "/>
<polygon style="fill:#046A3A;" points="57.266,79.59 54.618,82.236 53.084,80.702 51.549,82.236 48.903,79.59 53.084,75.409 "/>
<polygon style="fill:#046A3A;" points="50.394,38.07 47.747,40.716 42.495,35.464 35.759,42.199 29.024,35.464 23.771,40.716 
	21.125,38.07 28.933,30.263 35.759,37.09 42.586,30.263 "/>
<polygon style="fill:#046A3A;" points="45.101,43.362 35.759,52.704 26.418,43.362 29.024,40.756 35.759,47.491 42.495,40.756 "/>
<polygon style="fill:#046A3A;" points="39.94,27.617 37.293,30.263 35.759,28.729 34.225,30.263 31.579,27.617 35.759,23.436 "/>
<polygon style="fill:#046A3A;" points="85.043,38.07 82.396,40.716 77.145,35.464 70.408,42.199 63.673,35.464 58.42,40.716 
	55.773,38.07 63.582,30.263 70.408,37.09 77.234,30.263 "/>
<polygon style="fill:#046A3A;" points="79.75,43.362 70.408,52.704 61.066,43.362 63.673,40.756 70.408,47.491 77.145,40.756 "/>
<polygon style="fill:#046A3A;" points="74.589,27.617 71.941,30.263 70.408,28.729 68.874,30.263 66.229,27.617 70.408,23.436 "/>
<polygon style="fill:#046A3A;" points="50.394,72.719 47.747,75.365 42.495,70.113 35.759,76.848 29.024,70.113 23.771,75.365 
	21.125,72.719 28.933,64.912 35.759,71.738 42.586,64.912 "/>
<polygon style="fill:#046A3A;" points="45.101,78.012 35.759,87.354 26.418,78.012 29.024,75.404 35.759,82.141 42.495,75.404 "/>
<polygon style="fill:#046A3A;" points="39.94,62.266 37.293,64.912 35.759,63.378 34.225,64.912 31.579,62.266 35.759,58.085 "/>
<polygon style="fill:#046A3A;" points="85.043,72.719 82.396,75.365 77.145,70.113 70.408,76.848 63.673,70.113 58.42,75.365 
	55.773,72.719 63.582,64.912 70.408,71.738 77.234,64.912 "/>
<polygon style="fill:#046A3A;" points="79.75,78.012 70.408,87.354 61.066,78.012 63.673,75.404 70.408,82.141 77.145,75.404 "/>
<polygon style="fill:#046A3A;" points="74.589,62.266 71.941,64.912 70.408,63.378 68.874,64.912 66.229,62.266 70.408,58.085 "/>
<g>
	<defs>
		<rect id="SVGID_1_" width="100" height="100"/>
	</defs>
	<clipPath id="SVGID_2_">
		<use xlink:href="#SVGID_1_"  style="overflow:visible;"/>
	</clipPath>
	<path style="clip-path:url(#SVGID_2_);fill:#046A3A;" d="M39.397,51.857c0.5,0.5,0.5,1.311,0,1.81c-0.5,0.5-1.309,0.5-1.809,0
		c-0.499-0.499-0.499-1.31,0-1.81C38.088,51.359,38.897,51.359,39.397,51.857"/>
</g>
<g>
	<defs>
		<rect id="SVGID_3_" width="100" height="100"/>
	</defs>
	<clipPath id="SVGID_4_">
		<use xlink:href="#SVGID_3_"  style="overflow:visible;"/>
	</clipPath>
	<path style="clip-path:url(#SVGID_4_);fill:#046A3A;" d="M41.157,50.099c0.383,0.383,0.383,1.002,0,1.385
		c-0.383,0.384-1.003,0.384-1.386,0c-0.383-0.383-0.383-1.002,0-1.385C40.154,49.716,40.774,49.716,41.157,50.099"/>
</g>
<g>
	<defs>
		<rect id="SVGID_5_" width="100" height="100"/>
	</defs>
	<clipPath id="SVGID_6_">
		<use xlink:href="#SVGID_5_"  style="overflow:visible;"/>
	</clipPath>
	<path style="clip-path:url(#SVGID_6_);fill:#046A3A;" d="M42.896,48.359c0.324,0.324,0.324,0.851,0,1.175
		c-0.324,0.325-0.85,0.325-1.175,0c-0.324-0.324-0.324-0.851,0-1.175C42.046,48.035,42.572,48.035,42.896,48.359"/>
</g>
<g>
	<defs>
		<rect id="SVGID_7_" width="100" height="100"/>
	</defs>
	<clipPath id="SVGID_8_">
		<use xlink:href="#SVGID_7_"  style="overflow:visible;"/>
	</clipPath>
	<path style="clip-path:url(#SVGID_8_);fill:#046A3A;" d="M44.231,47.024c0.253,0.253,0.253,0.663,0,0.917
		c-0.253,0.253-0.664,0.253-0.917,0s-0.253-0.664,0-0.917C43.568,46.771,43.978,46.771,44.231,47.024"/>
</g>
<g>
	<defs>
		<rect id="SVGID_9_" width="100" height="100"/>
	</defs>
	<clipPath id="SVGID_10_">
		<use xlink:href="#SVGID_9_"  style="overflow:visible;"/>
	</clipPath>
	<path style="clip-path:url(#SVGID_10_);fill:#046A3A;" d="M45.306,45.949c0.178,0.178,0.178,0.467,0,0.645
		c-0.178,0.178-0.467,0.178-0.645,0c-0.178-0.178-0.178-0.467,0-0.645C44.839,45.771,45.128,45.771,45.306,45.949"/>
</g>
<g>
	<defs>
		<rect id="SVGID_11_" width="100" height="100"/>
	</defs>
	<clipPath id="SVGID_12_">
		<use xlink:href="#SVGID_11_"  style="overflow:visible;"/>
	</clipPath>
	<path style="clip-path:url(#SVGID_12_);fill:#046A3A;" d="M39.515,86.25c0.499,0.499,0.499,1.309,0,1.809
		c-0.5,0.5-1.31,0.5-1.809,0c-0.5-0.5-0.5-1.31,0-1.809C38.205,85.75,39.015,85.75,39.515,86.25"/>
</g>
<g>
	<defs>
		<rect id="SVGID_13_" width="100" height="100"/>
	</defs>
	<clipPath id="SVGID_14_">
		<use xlink:href="#SVGID_13_"  style="overflow:visible;"/>
	</clipPath>
	<path style="clip-path:url(#SVGID_14_);fill:#046A3A;" d="M41.274,84.489c0.383,0.383,0.383,1.004,0,1.387
		c-0.383,0.383-1.003,0.383-1.386,0c-0.383-0.383-0.383-1.004,0-1.387C40.271,84.107,40.892,84.107,41.274,84.489"/>
</g>
<g>
	<defs>
		<rect id="SVGID_15_" width="100" height="100"/>
	</defs>
	<clipPath id="SVGID_16_">
		<use xlink:href="#SVGID_15_"  style="overflow:visible;"/>
	</clipPath>
	<path style="clip-path:url(#SVGID_16_);fill:#046A3A;" d="M43.014,82.751c0.324,0.324,0.324,0.851,0,1.175
		c-0.325,0.324-0.851,0.324-1.175,0c-0.325-0.324-0.325-0.851,0-1.175C42.163,82.426,42.689,82.426,43.014,82.751"/>
</g>
<g>
	<defs>
		<rect id="SVGID_17_" width="100" height="100"/>
	</defs>
	<clipPath id="SVGID_18_">
		<use xlink:href="#SVGID_17_"  style="overflow:visible;"/>
	</clipPath>
	<path style="clip-path:url(#SVGID_18_);fill:#046A3A;" d="M44.349,81.415c0.253,0.254,0.253,0.664,0,0.917s-0.664,0.253-0.917,0
		s-0.253-0.663,0-0.917C43.685,81.162,44.096,81.162,44.349,81.415"/>
</g>
<g>
	<defs>
		<rect id="SVGID_19_" width="100" height="100"/>
	</defs>
	<clipPath id="SVGID_20_">
		<use xlink:href="#SVGID_19_"  style="overflow:visible;"/>
	</clipPath>
	<path style="clip-path:url(#SVGID_20_);fill:#046A3A;" d="M45.424,80.341c0.178,0.179,0.178,0.468,0,0.646
		c-0.178,0.178-0.467,0.178-0.645,0c-0.178-0.178-0.178-0.467,0-0.646C44.957,80.162,45.246,80.162,45.424,80.341"/>
</g>
<g>
	<defs>
		<rect id="SVGID_21_" width="100" height="100"/>
	</defs>
	<clipPath id="SVGID_22_">
		<use xlink:href="#SVGID_21_"  style="overflow:visible;"/>
	</clipPath>
	<path style="clip-path:url(#SVGID_22_);fill:#046A3A;" d="M61.105,29.742c0.5,0.5,0.5,1.309,0,1.809c-0.498,0.5-1.309,0.5-1.809,0
		c-0.499-0.5-0.499-1.309,0-1.809C59.798,29.242,60.607,29.242,61.105,29.742"/>
</g>
<g>
	<defs>
		<rect id="SVGID_23_" width="100" height="100"/>
	</defs>
	<clipPath id="SVGID_24_">
		<use xlink:href="#SVGID_23_"  style="overflow:visible;"/>
	</clipPath>
	<path style="clip-path:url(#SVGID_24_);fill:#046A3A;" d="M62.867,27.981c0.383,0.383,0.383,1.003,0,1.386
		c-0.383,0.383-1.004,0.383-1.387,0c-0.383-0.383-0.383-1.003,0-1.386C61.863,27.598,62.484,27.599,62.867,27.981"/>
</g>
<g>
	<defs>
		<rect id="SVGID_25_" width="100" height="100"/>
	</defs>
	<clipPath id="SVGID_26_">
		<use xlink:href="#SVGID_25_"  style="overflow:visible;"/>
	</clipPath>
	<path style="clip-path:url(#SVGID_26_);fill:#046A3A;" d="M64.605,26.243c0.324,0.324,0.324,0.85,0,1.175
		c-0.324,0.324-0.851,0.324-1.176,0c-0.324-0.325-0.324-0.851,0-1.175C63.756,25.918,64.281,25.918,64.605,26.243"/>
</g>
<g>
	<defs>
		<rect id="SVGID_27_" width="100" height="100"/>
	</defs>
	<clipPath id="SVGID_28_">
		<use xlink:href="#SVGID_27_"  style="overflow:visible;"/>
	</clipPath>
	<path style="clip-path:url(#SVGID_28_);fill:#046A3A;" d="M65.941,24.907c0.252,0.253,0.252,0.664,0,0.917
		c-0.254,0.253-0.664,0.253-0.918,0c-0.252-0.253-0.252-0.664,0-0.917C65.277,24.654,65.688,24.654,65.941,24.907"/>
</g>
<g>
	<defs>
		<rect id="SVGID_29_" width="100" height="100"/>
	</defs>
	<clipPath id="SVGID_30_">
		<use xlink:href="#SVGID_29_"  style="overflow:visible;"/>
	</clipPath>
	<path style="clip-path:url(#SVGID_30_);fill:#046A3A;" d="M67.016,23.833c0.18,0.178,0.18,0.467,0,0.645
		c-0.178,0.178-0.467,0.178-0.645,0s-0.178-0.467,0-0.645C66.549,23.654,66.838,23.654,67.016,23.833"/>
</g>
<g>
	<defs>
		<rect id="SVGID_31_" width="100" height="100"/>
	</defs>
	<clipPath id="SVGID_32_">
		<use xlink:href="#SVGID_31_"  style="overflow:visible;"/>
	</clipPath>
	<path style="clip-path:url(#SVGID_32_);fill:#046A3A;" d="M67.109,51.857c-0.5,0.5-0.5,1.311,0,1.81c0.5,0.5,1.31,0.5,1.81,0
		c0.499-0.499,0.499-1.31,0-1.81C68.419,51.359,67.609,51.359,67.109,51.857"/>
</g>
<g>
	<defs>
		<rect id="SVGID_33_" width="100" height="100"/>
	</defs>
	<clipPath id="SVGID_34_">
		<use xlink:href="#SVGID_33_"  style="overflow:visible;"/>
	</clipPath>
	<path style="clip-path:url(#SVGID_34_);fill:#046A3A;" d="M65.35,50.099c-0.383,0.383-0.383,1.002,0,1.385
		c0.383,0.384,1.004,0.384,1.387,0c0.384-0.383,0.384-1.002,0-1.385C66.354,49.716,65.732,49.716,65.35,50.099"/>
</g>
<g>
	<defs>
		<rect id="SVGID_35_" width="100" height="100"/>
	</defs>
	<clipPath id="SVGID_36_">
		<use xlink:href="#SVGID_35_"  style="overflow:visible;"/>
	</clipPath>
	<path style="clip-path:url(#SVGID_36_);fill:#046A3A;" d="M63.611,48.359c-0.325,0.324-0.325,0.851,0,1.175
		c0.324,0.325,0.85,0.325,1.174,0c0.324-0.324,0.324-0.851,0-1.175C64.461,48.035,63.936,48.035,63.611,48.359"/>
</g>
<g>
	<defs>
		<rect id="SVGID_37_" width="100" height="100"/>
	</defs>
	<clipPath id="SVGID_38_">
		<use xlink:href="#SVGID_37_"  style="overflow:visible;"/>
	</clipPath>
	<path style="clip-path:url(#SVGID_38_);fill:#046A3A;" d="M62.275,47.024c-0.254,0.253-0.254,0.663,0,0.917
		c0.252,0.253,0.664,0.253,0.916,0c0.254-0.253,0.254-0.664,0-0.917C62.939,46.771,62.527,46.771,62.275,47.024"/>
</g>
<g>
	<defs>
		<rect id="SVGID_39_" width="100" height="100"/>
	</defs>
	<clipPath id="SVGID_40_">
		<use xlink:href="#SVGID_39_"  style="overflow:visible;"/>
	</clipPath>
	<path style="clip-path:url(#SVGID_40_);fill:#046A3A;" d="M61.201,45.949c-0.18,0.178-0.18,0.467,0,0.645
		c0.178,0.178,0.467,0.178,0.645,0c0.178-0.178,0.178-0.467,0-0.645C61.668,45.771,61.379,45.771,61.201,45.949"/>
</g>
<g>
	<defs>
		<rect id="SVGID_41_" width="100" height="100"/>
	</defs>
	<clipPath id="SVGID_42_">
		<use xlink:href="#SVGID_41_"  style="overflow:visible;"/>
	</clipPath>
	<path style="clip-path:url(#SVGID_42_);fill:#046A3A;" d="M29.359,50.846c-0.87,0.87-0.87,2.281,0,3.152
		c0.871,0.87,2.282,0.87,3.152,0c0.871-0.871,0.871-2.282,0-3.152C31.641,49.975,30.23,49.975,29.359,50.846"/>
</g>
<g>
	<defs>
		<rect id="SVGID_43_" width="100" height="100"/>
	</defs>
	<clipPath id="SVGID_44_">
		<use xlink:href="#SVGID_43_"  style="overflow:visible;"/>
	</clipPath>
	<path style="clip-path:url(#SVGID_44_);fill:#046A3A;" d="M26.292,47.778c-0.667,0.667-0.667,1.749,0,2.415
		c0.667,0.668,1.749,0.668,2.416,0c0.667-0.667,0.667-1.748,0-2.415S26.959,47.111,26.292,47.778"/>
</g>
<g>
	<defs>
		<rect id="SVGID_45_" width="100" height="100"/>
	</defs>
	<clipPath id="SVGID_46_">
		<use xlink:href="#SVGID_45_"  style="overflow:visible;"/>
	</clipPath>
	<path style="clip-path:url(#SVGID_46_);fill:#046A3A;" d="M23.261,44.748c-0.565,0.565-0.565,1.482,0,2.047
		c0.565,0.565,1.482,0.565,2.047,0s0.565-1.482,0-2.047C24.743,44.182,23.827,44.182,23.261,44.748"/>
</g>
<g>
	<defs>
		<rect id="SVGID_47_" width="100" height="100"/>
	</defs>
	<clipPath id="SVGID_48_">
		<use xlink:href="#SVGID_47_"  style="overflow:visible;"/>
	</clipPath>
	<path style="clip-path:url(#SVGID_48_);fill:#046A3A;" d="M20.934,42.42c-0.441,0.441-0.441,1.156,0,1.597s1.156,0.441,1.598,0
		c0.441-0.441,0.441-1.156,0-1.597C22.09,41.979,21.375,41.979,20.934,42.42"/>
</g>
<g>
	<defs>
		<rect id="SVGID_49_" width="100" height="100"/>
	</defs>
	<clipPath id="SVGID_50_">
		<use xlink:href="#SVGID_49_"  style="overflow:visible;"/>
	</clipPath>
	<path style="clip-path:url(#SVGID_50_);fill:#046A3A;" d="M19.061,40.547c-0.311,0.311-0.311,0.813,0,1.124
		c0.31,0.311,0.813,0.311,1.124,0s0.311-0.813,0-1.124C19.875,40.237,19.371,40.237,19.061,40.547"/>
</g>
<g>
	<defs>
		<rect id="SVGID_51_" width="100" height="100"/>
	</defs>
	<clipPath id="SVGID_52_">
		<use xlink:href="#SVGID_51_"  style="overflow:visible;"/>
	</clipPath>
	<path style="clip-path:url(#SVGID_52_);fill:#046A3A;" d="M76.387,51.479c0.87,0.871,0.87,2.281,0,3.152
		c-0.871,0.87-2.281,0.87-3.152,0c-0.871-0.871-0.871-2.281,0-3.152C74.104,50.607,75.516,50.607,76.387,51.479"/>
</g>
<g>
	<defs>
		<rect id="SVGID_53_" width="100" height="100"/>
	</defs>
	<clipPath id="SVGID_54_">
		<use xlink:href="#SVGID_53_"  style="overflow:visible;"/>
	</clipPath>
	<path style="clip-path:url(#SVGID_54_);fill:#046A3A;" d="M79.454,48.412c0.667,0.667,0.667,1.749,0,2.416s-1.749,0.667-2.416,0
		s-0.667-1.748,0-2.416C77.705,47.745,78.787,47.745,79.454,48.412"/>
</g>
<g>
	<defs>
		<rect id="SVGID_55_" width="100" height="100"/>
	</defs>
	<clipPath id="SVGID_56_">
		<use xlink:href="#SVGID_55_"  style="overflow:visible;"/>
	</clipPath>
	<path style="clip-path:url(#SVGID_56_);fill:#046A3A;" d="M82.484,45.381c0.564,0.565,0.564,1.482,0,2.048
		c-0.565,0.565-1.482,0.565-2.047,0c-0.565-0.565-0.565-1.482,0-2.048C81.002,44.815,81.919,44.815,82.484,45.381"/>
</g>
<g>
	<defs>
		<rect id="SVGID_57_" width="100" height="100"/>
	</defs>
	<clipPath id="SVGID_58_">
		<use xlink:href="#SVGID_57_"  style="overflow:visible;"/>
	</clipPath>
	<path style="clip-path:url(#SVGID_58_);fill:#046A3A;" d="M84.813,43.054c0.44,0.441,0.44,1.156,0,1.598
		c-0.441,0.441-1.156,0.441-1.599,0c-0.44-0.441-0.44-1.156,0-1.598C83.654,42.613,84.37,42.613,84.813,43.054"/>
</g>
<g>
	<defs>
		<rect id="SVGID_59_" width="100" height="100"/>
	</defs>
	<clipPath id="SVGID_60_">
		<use xlink:href="#SVGID_59_"  style="overflow:visible;"/>
	</clipPath>
	<path style="clip-path:url(#SVGID_60_);fill:#046A3A;" d="M86.686,41.181c0.311,0.311,0.311,0.813,0,1.124
		c-0.311,0.31-0.813,0.31-1.123,0c-0.312-0.311-0.312-0.813,0-1.124C85.871,40.87,86.375,40.87,86.686,41.181"/>
</g>
<g>
	<defs>
		<rect id="SVGID_61_" width="100" height="100"/>
	</defs>
	<clipPath id="SVGID_62_">
		<use xlink:href="#SVGID_61_"  style="overflow:visible;"/>
	</clipPath>
	<path style="clip-path:url(#SVGID_62_);fill:#046A3A;" d="M65.977,85.947c-0.498,0.498-0.498,1.31,0,1.809
		c0.5,0.5,1.311,0.5,1.81,0c0.5-0.499,0.5-1.311,0-1.809C67.286,85.447,66.477,85.447,65.977,85.947"/>
</g>
<g>
	<defs>
		<rect id="SVGID_63_" width="100" height="100"/>
	</defs>
	<clipPath id="SVGID_64_">
		<use xlink:href="#SVGID_63_"  style="overflow:visible;"/>
	</clipPath>
	<path style="clip-path:url(#SVGID_64_);fill:#046A3A;" d="M64.217,84.188c-0.383,0.383-0.383,1.004,0,1.387s1.004,0.383,1.387,0
		s0.383-1.004,0-1.387S64.6,83.805,64.217,84.188"/>
</g>
<g>
	<defs>
		<rect id="SVGID_65_" width="100" height="100"/>
	</defs>
	<clipPath id="SVGID_66_">
		<use xlink:href="#SVGID_65_"  style="overflow:visible;"/>
	</clipPath>
	<path style="clip-path:url(#SVGID_66_);fill:#046A3A;" d="M62.479,82.448c-0.324,0.323-0.324,0.851,0,1.175
		c0.323,0.324,0.851,0.324,1.174,0c0.324-0.324,0.324-0.852,0-1.175C63.329,82.124,62.802,82.124,62.479,82.448"/>
</g>
<g>
	<defs>
		<rect id="SVGID_67_" width="100" height="100"/>
	</defs>
	<clipPath id="SVGID_68_">
		<use xlink:href="#SVGID_67_"  style="overflow:visible;"/>
	</clipPath>
	<path style="clip-path:url(#SVGID_68_);fill:#046A3A;" d="M61.143,81.113c-0.254,0.253-0.254,0.662,0,0.916
		c0.254,0.253,0.664,0.253,0.916,0c0.254-0.254,0.254-0.663,0-0.916C61.807,80.859,61.396,80.859,61.143,81.113"/>
</g>
<g>
	<defs>
		<rect id="SVGID_69_" width="100" height="100"/>
	</defs>
	<clipPath id="SVGID_70_">
		<use xlink:href="#SVGID_69_"  style="overflow:visible;"/>
	</clipPath>
	<path style="clip-path:url(#SVGID_70_);fill:#046A3A;" d="M60.066,80.038c-0.178,0.178-0.178,0.467,0,0.646
		c0.179,0.178,0.468,0.178,0.646,0c0.179-0.179,0.179-0.468,0-0.646C60.534,79.859,60.245,79.859,60.066,80.038"/>
</g>
<g>
	<defs>
		<rect id="SVGID_71_" width="100" height="100"/>
	</defs>
	<clipPath id="SVGID_72_">
		<use xlink:href="#SVGID_71_"  style="overflow:visible;"/>
	</clipPath>
	<path style="clip-path:url(#SVGID_72_);fill:#046A3A;" d="M49.41,69.116c-0.382,0.382-0.382,1.002,0,1.385
		c0.382,0.382,1.002,0.382,1.385,0c0.382-0.383,0.382-1.003,0-1.385C50.412,68.732,49.792,68.732,49.41,69.116"/>
</g>
<g>
	<defs>
		<rect id="SVGID_73_" width="100" height="100"/>
	</defs>
	<clipPath id="SVGID_74_">
		<use xlink:href="#SVGID_73_"  style="overflow:visible;"/>
	</clipPath>
	<path style="clip-path:url(#SVGID_74_);fill:#046A3A;" d="M48.062,67.77c-0.293,0.293-0.293,0.769,0,1.062s0.769,0.293,1.062,0
		s0.293-0.769,0-1.062S48.355,67.477,48.062,67.77"/>
</g>
<g>
	<defs>
		<rect id="SVGID_75_" width="100" height="100"/>
	</defs>
	<clipPath id="SVGID_76_">
		<use xlink:href="#SVGID_75_"  style="overflow:visible;"/>
	</clipPath>
	<path style="clip-path:url(#SVGID_76_);fill:#046A3A;" d="M46.73,66.438c-0.248,0.248-0.248,0.65,0,0.898
		c0.249,0.249,0.651,0.249,0.9,0c0.248-0.248,0.248-0.65,0-0.898C47.382,66.188,46.979,66.188,46.73,66.438"/>
</g>
<g>
	<defs>
		<rect id="SVGID_77_" width="100" height="100"/>
	</defs>
	<clipPath id="SVGID_78_">
		<use xlink:href="#SVGID_77_"  style="overflow:visible;"/>
	</clipPath>
	<path style="clip-path:url(#SVGID_78_);fill:#046A3A;" d="M45.708,65.415c-0.194,0.192-0.194,0.508,0,0.701
		c0.194,0.194,0.508,0.194,0.702,0c0.194-0.193,0.194-0.509,0-0.701C46.216,65.221,45.902,65.221,45.708,65.415"/>
</g>
<g>
	<defs>
		<rect id="SVGID_79_" width="100" height="100"/>
	</defs>
	<clipPath id="SVGID_80_">
		<use xlink:href="#SVGID_79_"  style="overflow:visible;"/>
	</clipPath>
	<path style="clip-path:url(#SVGID_80_);fill:#046A3A;" d="M44.885,64.592c-0.136,0.137-0.136,0.357,0,0.494
		c0.137,0.137,0.357,0.137,0.494,0c0.137-0.137,0.137-0.357,0-0.494C45.243,64.455,45.022,64.455,44.885,64.592"/>
</g>
<g>
	<defs>
		<rect id="SVGID_81_" width="100" height="100"/>
	</defs>
	<clipPath id="SVGID_82_">
		<use xlink:href="#SVGID_81_"  style="overflow:visible;"/>
	</clipPath>
	<path style="clip-path:url(#SVGID_82_);fill:#046A3A;" d="M43.935,28.879c-0.5,0.5-0.5,1.31,0,1.809c0.5,0.5,1.309,0.5,1.809,0
		c0.5-0.499,0.5-1.309,0-1.809S44.434,28.379,43.935,28.879"/>
</g>
<g>
	<defs>
		<rect id="SVGID_83_" width="100" height="100"/>
	</defs>
	<clipPath id="SVGID_84_">
		<use xlink:href="#SVGID_83_"  style="overflow:visible;"/>
	</clipPath>
	<path style="clip-path:url(#SVGID_84_);fill:#046A3A;" d="M42.174,27.119c-0.383,0.382-0.383,1.003,0,1.386
		c0.383,0.383,1.003,0.383,1.386,0c0.383-0.383,0.383-1.003,0-1.386C43.178,26.736,42.557,26.736,42.174,27.119"/>
</g>
<g>
	<defs>
		<rect id="SVGID_85_" width="100" height="100"/>
	</defs>
	<clipPath id="SVGID_86_">
		<use xlink:href="#SVGID_85_"  style="overflow:visible;"/>
	</clipPath>
	<path style="clip-path:url(#SVGID_86_);fill:#046A3A;" d="M40.436,25.38c-0.325,0.324-0.325,0.851,0,1.175
		c0.324,0.324,0.85,0.324,1.175,0c0.324-0.324,0.324-0.851,0-1.175C41.286,25.056,40.76,25.056,40.436,25.38"/>
</g>
<g>
	<defs>
		<rect id="SVGID_87_" width="100" height="100"/>
	</defs>
	<clipPath id="SVGID_88_">
		<use xlink:href="#SVGID_87_"  style="overflow:visible;"/>
	</clipPath>
	<path style="clip-path:url(#SVGID_88_);fill:#046A3A;" d="M39.1,24.045c-0.253,0.253-0.253,0.663,0,0.917
		c0.253,0.253,0.664,0.253,0.917,0s0.253-0.664,0-0.917S39.353,23.792,39.1,24.045"/>
</g>
<g>
	<defs>
		<rect id="SVGID_89_" width="100" height="100"/>
	</defs>
	<clipPath id="SVGID_90_">
		<use xlink:href="#SVGID_89_"  style="overflow:visible;"/>
	</clipPath>
	<path style="clip-path:url(#SVGID_90_);fill:#046A3A;" d="M38.025,22.97c-0.178,0.178-0.178,0.467,0,0.645
		c0.178,0.178,0.467,0.178,0.645,0c0.178-0.178,0.178-0.467,0-0.645C38.492,22.792,38.203,22.792,38.025,22.97"/>
</g>
<g>
	<defs>
		<rect id="SVGID_91_" width="100" height="100"/>
	</defs>
	<clipPath id="SVGID_92_">
		<use xlink:href="#SVGID_91_"  style="overflow:visible;"/>
	</clipPath>
	<path style="clip-path:url(#SVGID_92_);fill:#046A3A;" d="M56.566,69c-0.383-0.382-1.002-0.382-1.385,0
		c-0.383,0.383-0.383,1.003,0,1.385c0.383,0.383,1.002,0.383,1.385,0C56.949,70.003,56.949,69.383,56.566,69"/>
</g>
<g>
	<defs>
		<rect id="SVGID_93_" width="100" height="100"/>
	</defs>
	<clipPath id="SVGID_94_">
		<use xlink:href="#SVGID_93_"  style="overflow:visible;"/>
	</clipPath>
	<path style="clip-path:url(#SVGID_94_);fill:#046A3A;" d="M57.915,67.652c-0.294-0.293-0.769-0.293-1.062,0s-0.293,0.769,0,1.062
		s0.768,0.293,1.062,0C58.208,68.421,58.208,67.945,57.915,67.652"/>
</g>
<g>
	<defs>
		<rect id="SVGID_95_" width="100" height="100"/>
	</defs>
	<clipPath id="SVGID_96_">
		<use xlink:href="#SVGID_95_"  style="overflow:visible;"/>
	</clipPath>
	<path style="clip-path:url(#SVGID_96_);fill:#046A3A;" d="M59.246,66.32c-0.248-0.248-0.65-0.248-0.898,0s-0.248,0.652,0,0.9
		c0.248,0.247,0.65,0.247,0.898,0C59.494,66.973,59.494,66.568,59.246,66.32"/>
</g>
<g>
	<defs>
		<rect id="SVGID_97_" width="100" height="100"/>
	</defs>
	<clipPath id="SVGID_98_">
		<use xlink:href="#SVGID_97_"  style="overflow:visible;"/>
	</clipPath>
	<path style="clip-path:url(#SVGID_98_);fill:#046A3A;" d="M60.27,65.299c-0.194-0.193-0.508-0.193-0.703,0
		c-0.192,0.193-0.192,0.508,0,0.701c0.195,0.193,0.509,0.193,0.703,0C60.462,65.807,60.462,65.492,60.27,65.299"/>
</g>
<g>
	<defs>
		<rect id="SVGID_99_" width="100" height="100"/>
	</defs>
	<clipPath id="SVGID_100_">
		<use xlink:href="#SVGID_99_"  style="overflow:visible;"/>
	</clipPath>
	<path style="clip-path:url(#SVGID_100_);fill:#046A3A;" d="M61.092,64.477c-0.137-0.137-0.357-0.137-0.494,0s-0.137,0.356,0,0.494
		c0.137,0.135,0.357,0.135,0.494,0C61.229,64.833,61.229,64.611,61.092,64.477"/>
</g>
<g>
	<defs>
		<rect id="SVGID_101_" width="100" height="100"/>
	</defs>
	<clipPath id="SVGID_102_">
		<use xlink:href="#SVGID_101_"  style="overflow:visible;"/>
	</clipPath>
	<path style="clip-path:url(#SVGID_102_);fill:#046A3A;" d="M53.988,15.601c0.498,0.5,0.498,1.31,0,1.809
		c-0.5,0.5-1.311,0.5-1.809,0c-0.5-0.5-0.5-1.31,0-1.809C52.68,15.101,53.488,15.101,53.988,15.601"/>
</g>
<g>
	<defs>
		<rect id="SVGID_103_" width="100" height="100"/>
	</defs>
	<clipPath id="SVGID_104_">
		<use xlink:href="#SVGID_103_"  style="overflow:visible;"/>
	</clipPath>
	<path style="clip-path:url(#SVGID_104_);fill:#046A3A;" d="M53.652,26.28c0.313,0.314,0.313,0.824,0,1.138s-0.823,0.314-1.139,0
		c-0.313-0.314-0.313-0.823,0-1.138C52.829,25.966,53.339,25.966,53.652,26.28"/>
</g>
<g>
	<defs>
		<rect id="SVGID_105_" width="100" height="100"/>
	</defs>
	<clipPath id="SVGID_106_">
		<use xlink:href="#SVGID_105_"  style="overflow:visible;"/>
	</clipPath>
	<path style="clip-path:url(#SVGID_106_);fill:#046A3A;" d="M53.652,37.538c0.313,0.314,0.313,0.824,0,1.138
		c-0.313,0.314-0.823,0.314-1.139,0c-0.313-0.314-0.313-0.823,0-1.138C52.829,37.224,53.339,37.224,53.652,37.538"/>
</g>
<g>
	<defs>
		<rect id="SVGID_107_" width="100" height="100"/>
	</defs>
	<clipPath id="SVGID_108_">
		<use xlink:href="#SVGID_107_"  style="overflow:visible;"/>
	</clipPath>
	<path style="clip-path:url(#SVGID_108_);fill:#046A3A;" d="M53.652,61.23c0.313,0.313,0.313,0.822,0,1.138
		c-0.313,0.313-0.823,0.313-1.139,0c-0.313-0.313-0.313-0.823,0-1.138C52.829,60.916,53.339,60.916,53.652,61.23"/>
</g>
<g>
	<defs>
		<rect id="SVGID_109_" width="100" height="100"/>
	</defs>
	<clipPath id="SVGID_110_">
		<use xlink:href="#SVGID_109_"  style="overflow:visible;"/>
	</clipPath>
	<path style="clip-path:url(#SVGID_110_);fill:#046A3A;" d="M53.52,13.42c0.242,0.241,0.242,0.631,0,0.872
		c-0.24,0.241-0.631,0.241-0.871,0s-0.24-0.631,0-0.872C52.889,13.179,53.279,13.179,53.52,13.42"/>
</g>
<g>
	<defs>
		<rect id="SVGID_111_" width="100" height="100"/>
	</defs>
	<clipPath id="SVGID_112_">
		<use xlink:href="#SVGID_111_"  style="overflow:visible;"/>
	</clipPath>
	<path style="clip-path:url(#SVGID_112_);fill:#046A3A;" d="M53.988,50.478c0.498,0.5,0.498,1.31,0,1.809
		c-0.5,0.5-1.311,0.5-1.809,0c-0.5-0.499-0.5-1.309,0-1.809C52.68,49.979,53.488,49.979,53.988,50.478"/>
</g>
<g>
	<defs>
		<rect id="SVGID_113_" width="100" height="100"/>
	</defs>
	<clipPath id="SVGID_114_">
		<use xlink:href="#SVGID_113_"  style="overflow:visible;"/>
	</clipPath>
	<path style="clip-path:url(#SVGID_114_);fill:#046A3A;" d="M53.52,48.297c0.242,0.241,0.242,0.631,0,0.872
		c-0.24,0.241-0.631,0.241-0.871,0c-0.24-0.241-0.24-0.631,0-0.872C52.889,48.056,53.279,48.056,53.52,48.297"/>
</g>
<g>
	<defs>
		<rect id="SVGID_115_" width="100" height="100"/>
	</defs>
	<clipPath id="SVGID_116_">
		<use xlink:href="#SVGID_115_"  style="overflow:visible;"/>
	</clipPath>
	<path style="clip-path:url(#SVGID_116_);fill:#046A3A;" d="M54.118,71.473c0.571,0.571,0.571,1.498,0,2.068s-1.498,0.57-2.069,0
		c-0.57-0.57-0.57-1.497,0-2.068C52.62,70.9,53.547,70.9,54.118,71.473"/>
</g>
<g>
	<defs>
		<rect id="SVGID_117_" width="100" height="100"/>
	</defs>
	<clipPath id="SVGID_118_">
		<use xlink:href="#SVGID_117_"  style="overflow:visible;"/>
	</clipPath>
	<path style="clip-path:url(#SVGID_118_);fill:#046A3A;" d="M53.988,84.969c0.498,0.5,0.498,1.311,0,1.811
		c-0.5,0.498-1.311,0.498-1.809,0c-0.5-0.5-0.5-1.311,0-1.811C52.68,84.471,53.488,84.471,53.988,84.969"/>
</g>
<g>
	<defs>
		<rect id="SVGID_119_" width="100" height="100"/>
	</defs>
	<clipPath id="SVGID_120_">
		<use xlink:href="#SVGID_119_"  style="overflow:visible;"/>
	</clipPath>
	<path style="clip-path:url(#SVGID_120_);fill:#046A3A;" d="M53.52,82.788c0.242,0.241,0.242,0.632,0,0.872
		c-0.24,0.24-0.631,0.24-0.871,0s-0.24-0.631,0-0.872S53.279,82.547,53.52,82.788"/>
</g>
</svg>
