<?xml version="1.0" encoding="utf-8"?>
<!-- Generator: Adobe Illustrator 16.0.0, SVG Export Plug-In . SVG Version: 6.00 Build 0)  -->
<!DOCTYPE svg PUBLIC "-//W3C//DTD SVG 1.1//EN" "http://www.w3.org/Graphics/SVG/1.1/DTD/svg11.dtd">
<svg xmlns="http://www.w3.org/2000/svg" xmlns:xlink="http://www.w3.org/1999/xlink" width="100px" height="100px" preserveAspectRatio="xMidYMid meet">
<g>
	<clipPath id="SVGID_2_">
		<rect width="100" height="100"/>
	</clipPath>
	<path style="clip-path:url(#SVGID_2_);fill-rule:evenodd;clip-rule:evenodd;fill:#046A3A;" d="M36.134,27.116 M41.269,35.292
		L41.269,35.292L41.269,35.292z M41.253,36.297L41.253,36.297L41.253,36.297z M34.749,27.328L34.749,27.328L34.749,27.328z
		 M36.727,26.307c0.445,0.326,0.715,0.801,0.792,1.306c0.077,0.503-0.038,1.037-0.364,1.482s-0.802,0.715-1.306,0.792
		c-0.503,0.078-1.037-0.038-1.482-0.364c-0.444-0.326-0.715-0.802-0.792-1.306c-0.077-0.503,0.039-1.038,0.364-1.482h0
		c0.326-0.445,0.801-0.715,1.306-0.792C35.749,25.865,36.282,25.981,36.727,26.307L36.727,26.307z M40.18,40.624
		c0.322,0.031,0.559,0.316,0.528,0.638s-0.316,0.559-0.638,0.528s-0.559-0.316-0.528-0.638S39.858,40.594,40.18,40.624
		 M41.396,37.597c0.513,0.048,0.89,0.503,0.842,1.017c-0.049,0.513-0.504,0.89-1.017,0.841c-0.513-0.048-0.89-0.503-0.841-1.017
		C40.427,37.926,40.882,37.549,41.396,37.597 M42.625,34.962c-0.004,0.372-0.161,0.708-0.408,0.95
		c-0.249,0.242-0.589,0.39-0.964,0.385h0c-0.372-0.005-0.707-0.16-0.949-0.408c-0.243-0.248-0.39-0.588-0.386-0.961l0-0.006
		c0.005-0.371,0.161-0.705,0.408-0.946c0.248-0.242,0.589-0.39,0.963-0.386c0.372,0.004,0.708,0.16,0.949,0.408
		C42.481,34.247,42.629,34.587,42.625,34.962 M41.514,35.193c0.063-0.062,0.104-0.149,0.105-0.247
		c0.001-0.095-0.037-0.182-0.098-0.245c-0.062-0.063-0.15-0.104-0.248-0.105c-0.095-0.001-0.182,0.037-0.245,0.098
		s-0.103,0.148-0.104,0.245c-0.001,0.097,0.036,0.185,0.098,0.248c0.062,0.063,0.149,0.104,0.247,0.105h0
		C41.364,35.293,41.451,35.255,41.514,35.193 M40.174,30.588L40.174,30.588c-0.086-0.183-0.236-0.313-0.409-0.376
		c-0.175-0.063-0.375-0.059-0.557,0.026c-0.183,0.086-0.313,0.236-0.375,0.409c-0.063,0.175-0.059,0.375,0.026,0.557
		c0.086,0.183,0.236,0.313,0.409,0.375c0.175,0.063,0.374,0.059,0.557-0.026l0,0c0.183-0.086,0.313-0.236,0.375-0.409
		C40.263,30.969,40.259,30.77,40.174,30.588 M41.083,30.16c0.203,0.432,0.211,0.906,0.061,1.322c-0.151,0.418-0.46,0.778-0.891,0.98
		h0c-0.432,0.203-0.905,0.211-1.322,0.061c-0.418-0.15-0.778-0.46-0.981-0.891c-0.203-0.432-0.211-0.905-0.061-1.322
		c0.151-0.418,0.46-0.778,0.892-0.981c0.432-0.202,0.905-0.21,1.322-0.061C40.52,29.419,40.88,29.729,41.083,30.16L41.083,30.16z
		 M30.3,24.987c0.614,0.058,1.146,0.359,1.511,0.8s0.562,1.021,0.504,1.634c-0.058,0.612-0.359,1.145-0.8,1.509v0.002
		c-0.441,0.365-1.021,0.562-1.634,0.503c-0.613-0.058-1.145-0.359-1.51-0.799l-0.002-0.002c-0.364-0.441-0.561-1.02-0.503-1.632
		c0.058-0.614,0.359-1.147,0.8-1.511h0.002C29.108,25.126,29.688,24.93,30.3,24.987 M31.036,26.429
		c-0.2-0.242-0.493-0.407-0.83-0.439c-0.339-0.032-0.657,0.076-0.899,0.275l0.001,0.001c-0.242,0.2-0.407,0.493-0.439,0.831
		c-0.032,0.338,0.076,0.657,0.275,0.899c0.2,0.241,0.493,0.407,0.832,0.438c0.337,0.032,0.656-0.076,0.898-0.277l0.001,0.001
		c0.242-0.2,0.407-0.493,0.438-0.831S31.237,26.67,31.036,26.429 M36.526,27.764c-0.039-0.251-0.172-0.487-0.392-0.648l0,0
		c-0.22-0.161-0.485-0.218-0.737-0.179c-0.251,0.039-0.487,0.172-0.648,0.392v0c-0.161,0.22-0.218,0.486-0.179,0.737
		c0.038,0.25,0.172,0.487,0.392,0.648s0.486,0.218,0.737,0.18c0.25-0.039,0.486-0.173,0.648-0.393
		C36.508,28.281,36.564,28.016,36.526,27.764"/>
	<path style="clip-path:url(#SVGID_2_);fill-rule:evenodd;clip-rule:evenodd;fill:#046A3A;" d="M41.648,13.138
		c-0.215-1.668,0.599-3.156,1.42-3.628c0.824-0.474,1.799,0.022,1.794,1.084C44.855,12.02,42.252,11.712,41.648,13.138"/>
	<path style="clip-path:url(#SVGID_2_);fill-rule:evenodd;clip-rule:evenodd;fill:#046A3A;" d="M39.919,12.252
		c-1.029-1.331-1.079-3.025-0.609-3.848c0.471-0.826,1.563-0.89,2.096,0.029C42.121,9.667,39.719,10.716,39.919,12.252"/>
	<path style="clip-path:url(#SVGID_2_);fill-rule:evenodd;clip-rule:evenodd;fill:#046A3A;" d="M37.917,12.382
		c-1.571-0.601-2.496-2.022-2.522-2.969c-0.027-0.951,0.872-1.573,1.805-1.066C38.453,9.028,36.948,11.175,37.917,12.382"/>
	<path style="clip-path:url(#SVGID_2_);fill-rule:evenodd;clip-rule:evenodd;fill:#046A3A;" d="M36.243,13.576
		c-1.65,0.328-3.189-0.384-3.716-1.171c-0.529-0.79-0.1-1.796,0.96-1.863C34.91,10.452,34.779,13.07,36.243,13.576"/>
	<path style="clip-path:url(#SVGID_2_);fill-rule:evenodd;clip-rule:evenodd;fill:#046A3A;" d="M35.458,15.504
		c-1.213,1.165-2.894,1.394-3.762,1.014c-0.871-0.381-1.051-1.459-0.194-2.087C32.654,13.589,33.953,15.866,35.458,15.504"/>
	<path style="clip-path:url(#SVGID_2_);fill-rule:evenodd;clip-rule:evenodd;fill:#046A3A;" d="M35.886,17.647
		c-0.347,1.646-1.607,2.781-2.538,2.956c-0.935,0.175-1.69-0.615-1.335-1.616C32.49,17.643,34.846,18.794,35.886,17.647"/>
	<path style="clip-path:url(#SVGID_2_);fill-rule:evenodd;clip-rule:evenodd;fill:#046A3A;" d="M60.772,85.004
		c1.18,0.909,1.601,2.351,1.383,3.16c-0.22,0.813-1.14,1.112-1.802,0.444C59.465,87.712,61.287,86.274,60.772,85.004"/>
	<path style="clip-path:url(#SVGID_2_);fill-rule:evenodd;clip-rule:evenodd;fill:#046A3A;" d="M62.41,84.477
		c1.477,0.188,2.568,1.219,2.79,2.027c0.222,0.813-0.422,1.536-1.33,1.294C62.65,87.474,63.496,85.313,62.41,84.477"/>
	<path style="clip-path:url(#SVGID_2_);fill-rule:evenodd;clip-rule:evenodd;fill:#046A3A;" d="M63.581,83.143
		c1.359-0.607,2.828-0.297,3.438,0.279c0.612,0.578,0.439,1.531-0.462,1.797C65.346,85.576,64.944,83.291,63.581,83.143"/>
	<path style="clip-path:url(#SVGID_2_);fill-rule:evenodd;clip-rule:evenodd;fill:#046A3A;" d="M63.882,81.347
		c0.827-1.238,2.236-1.756,3.06-1.594c0.825,0.164,1.187,1.063,0.564,1.768C66.672,82.468,65.114,80.747,63.882,81.347"/>
	<path style="clip-path:url(#SVGID_2_);fill-rule:evenodd;clip-rule:evenodd;fill:#046A3A;" d="M63.166,79.649
		c0.031-1.489,0.939-2.685,1.721-2.99c0.783-0.307,1.571,0.256,1.428,1.186C66.121,79.092,63.882,78.48,63.166,79.649"/>
	<path style="clip-path:url(#SVGID_2_);fill-rule:evenodd;clip-rule:evenodd;fill:#046A3A;" d="M61.557,78.574
		c-0.813-1.247-0.734-2.746-0.261-3.438c0.475-0.694,1.442-0.674,1.847,0.176C63.686,76.451,61.49,77.206,61.557,78.574"/>
	<path style="clip-path:url(#SVGID_2_);fill:#046A3A;" d="M55.18,10.819c-1.001-1.191-3.673-0.362-4.318,1.759
		c-0.729,2.403-0.042,5.247,1.077,7.259c0.414-2.458,2.804-4.369,3.469-6.792C55.694,11.995,55.554,11.266,55.18,10.819"/>
	<path style="clip-path:url(#SVGID_2_);fill:#046A3A;" d="M41.812,46.817c-1.316-1.567-4.83-0.477-5.678,2.313
		c-0.959,3.16-0.056,6.9,1.416,9.546c0.545-3.232,3.688-5.745,4.561-8.933C42.489,48.362,42.304,47.403,41.812,46.817"/>
	<path style="clip-path:url(#SVGID_2_);fill:#046A3A;" d="M56.84,29.208c-0.922-0.425-1.904,0.263-2.549,1.39
		c-0.729,1.273-1.515,2.788-2.539,3.009C57.451,34.959,58.934,30.239,56.84,29.208"/>
	<path style="clip-path:url(#SVGID_2_);fill:#046A3A;" d="M56.356,64.955c-1.296-0.598-2.675,0.369-3.582,1.953
		c-1.023,1.788-2.128,3.916-3.567,4.227C57.216,73.036,59.298,66.403,56.356,64.955"/>
	<path style="clip-path:url(#SVGID_2_);fill:#046A3A;" d="M40.64,44.587c3.815-3.759,6.956-8.833,4.462-14.822
		c-2.155-5.176-5.916-5.153-7.687-8.34c-2.507-4.512,2.744-9.294,7.421-6.389C57.147,22.682,50.129,41.179,40.64,44.587"/>
	<path style="clip-path:url(#SVGID_2_);fill-rule:evenodd;clip-rule:evenodd;fill:#046A3A;" d="M57.232,49.613
		c-0.168-1.304,0.469-2.467,1.11-2.836c0.645-0.37,1.406,0.018,1.402,0.848C59.74,48.739,57.705,48.498,57.232,49.613"/>
	<path style="clip-path:url(#SVGID_2_);fill-rule:evenodd;clip-rule:evenodd;fill:#046A3A;" d="M55.881,48.92
		c-0.805-1.04-0.843-2.365-0.476-3.008c0.368-0.646,1.222-0.696,1.638,0.022C57.603,46.899,55.725,47.72,55.881,48.92"/>
	<path style="clip-path:url(#SVGID_2_);fill-rule:evenodd;clip-rule:evenodd;fill:#046A3A;" d="M54.316,49.022
		c-1.229-0.47-1.951-1.581-1.972-2.321c-0.021-0.743,0.682-1.23,1.411-0.833C54.734,46.4,53.559,48.078,54.316,49.022"/>
	<path style="clip-path:url(#SVGID_2_);fill-rule:evenodd;clip-rule:evenodd;fill:#046A3A;" d="M53.008,49.955
		c-1.29,0.257-2.493-0.3-2.905-0.915c-0.414-0.618-0.078-1.404,0.751-1.457C51.966,47.513,51.863,49.56,53.008,49.955"/>
	<path style="clip-path:url(#SVGID_2_);fill-rule:evenodd;clip-rule:evenodd;fill:#046A3A;" d="M52.395,51.462
		c-0.949,0.911-2.263,1.09-2.941,0.793c-0.681-0.298-0.822-1.142-0.152-1.632C50.201,49.965,51.217,51.745,52.395,51.462"/>
	<path style="clip-path:url(#SVGID_2_);fill-rule:evenodd;clip-rule:evenodd;fill:#046A3A;" d="M52.729,53.138
		c-0.271,1.287-1.257,2.175-1.984,2.311c-0.73,0.138-1.321-0.48-1.044-1.263C50.073,53.135,51.915,54.034,52.729,53.138"/>
	<path style="clip-path:url(#SVGID_2_);fill-rule:evenodd;clip-rule:evenodd;fill:#046A3A;" d="M17.306,58.4
		c-1.025,0.475-1.58,1.471-1.554,2.106c0.025,0.639,0.657,1.015,1.259,0.632C17.819,60.624,16.711,59.254,17.306,58.4"/>
	<path style="clip-path:url(#SVGID_2_);fill-rule:evenodd;clip-rule:evenodd;fill:#046A3A;" d="M16.183,57.734
		c-1.125-0.108-2.106,0.471-2.405,1.032c-0.301,0.563,0.053,1.208,0.767,1.182C15.501,59.912,15.238,58.171,16.183,57.734"/>
	<path style="clip-path:url(#SVGID_2_);fill-rule:evenodd;clip-rule:evenodd;fill:#046A3A;" d="M15.54,56.55
		c-0.904-0.678-2.043-0.694-2.591-0.37c-0.55,0.325-0.582,1.059,0.041,1.408C13.825,58.056,14.507,56.432,15.54,56.55"/>
	<path style="clip-path:url(#SVGID_2_);fill-rule:evenodd;clip-rule:evenodd;fill:#046A3A;" d="M15.62,55.171
		c-0.405-1.056-1.36-1.676-1.997-1.693c-0.639-0.019-1.057,0.586-0.715,1.213C13.366,55.531,14.808,54.52,15.62,55.171"/>
	<path style="clip-path:url(#SVGID_2_);fill-rule:evenodd;clip-rule:evenodd;fill:#046A3A;" d="M16.435,54.034
		c0.228-1.106-0.244-2.145-0.771-2.502c-0.529-0.358-1.207-0.074-1.256,0.638C14.341,53.125,16.101,53.049,16.435,54.034"/>
	<path style="clip-path:url(#SVGID_2_);fill-rule:evenodd;clip-rule:evenodd;fill:#046A3A;" d="M17.806,53.51
		c0.811-0.787,1.005-1.91,0.771-2.502c-0.235-0.594-0.955-0.74-1.397-0.18C16.588,51.58,18.085,52.508,17.806,53.51"/>
	<path style="clip-path:url(#SVGID_2_);fill:#046A3A;" d="M56.445,74.197c2.982-2.938,5.438-6.904,3.487-11.587
		c-1.685-4.046-4.624-4.028-6.009-6.52c-1.96-3.527,2.145-7.266,5.802-4.995C69.35,57.074,63.862,71.533,56.445,74.197"/>
	<path style="clip-path:url(#SVGID_2_);fill:#046A3A;" d="M36.182,69.848c-0.304-4.177-1.732-8.617-6.561-10.168
		c-4.173-1.341-6.065,0.909-8.859,0.349c-3.957-0.795-4.142-6.344-0.042-7.655C31.51,48.921,38.962,62.473,36.182,69.848"/>
	<path style="clip-path:url(#SVGID_2_);fill-rule:evenodd;clip-rule:evenodd;fill:#046A3A;" d="M70.988,13.044
		c1.001-0.618,1.451-1.715,1.346-2.369c-0.105-0.657-0.804-0.968-1.379-0.497C70.184,10.809,71.497,12.088,70.988,13.044"/>
	<path style="clip-path:url(#SVGID_2_);fill-rule:evenodd;clip-rule:evenodd;fill:#046A3A;" d="M72.231,13.593
		c1.177-0.027,2.119-0.747,2.359-1.364c0.241-0.62-0.205-1.242-0.938-1.126C72.666,11.258,73.154,13.025,72.231,13.593"/>
	<path style="clip-path:url(#SVGID_2_);fill-rule:evenodd;clip-rule:evenodd;fill:#046A3A;" d="M73.042,14.738
		c1.019,0.589,2.198,0.465,2.725,0.063c0.528-0.404,0.471-1.167-0.216-1.45C74.629,12.97,74.125,14.733,73.042,14.738"/>
	<path style="clip-path:url(#SVGID_2_);fill-rule:evenodd;clip-rule:evenodd;fill:#046A3A;" d="M73.131,16.174
		c0.549,1.041,1.613,1.563,2.272,1.503c0.663-0.061,1.021-0.737,0.59-1.343C75.415,15.522,74.051,16.746,73.131,16.174"/>
	<path style="clip-path:url(#SVGID_2_);fill-rule:evenodd;clip-rule:evenodd;fill:#046A3A;" d="M72.43,17.449
		c-0.099,1.172,0.517,2.186,1.105,2.491c0.59,0.305,1.256-0.072,1.219-0.814C74.705,18.129,72.896,18.426,72.43,17.449"/>
	<path style="clip-path:url(#SVGID_2_);fill-rule:evenodd;clip-rule:evenodd;fill:#046A3A;" d="M71.076,18.161
		c-0.741,0.914-0.803,2.098-0.488,2.681c0.316,0.585,1.079,0.647,1.467,0.014C72.574,20.004,70.911,19.231,71.076,18.161"/>
	<path style="clip-path:url(#SVGID_2_);fill:#046A3A;" d="M54.346,27.443c0.361-3.729,1.735-7.669,6.088-8.953
		c3.762-1.109,5.405,0.944,7.917,0.503c3.556-0.625,3.841-5.584,0.202-6.846C58.977,8.827,52.018,20.786,54.346,27.443"/>
	<path style="clip-path:url(#SVGID_2_);fill-rule:evenodd;clip-rule:evenodd;fill:#046A3A;" d="M62.82,37.427
		c1.002-0.618,1.451-1.715,1.347-2.37c-0.105-0.656-0.805-0.967-1.38-0.497C62.016,35.192,63.33,36.471,62.82,37.427"/>
	<path style="clip-path:url(#SVGID_2_);fill-rule:evenodd;clip-rule:evenodd;fill:#046A3A;" d="M64.064,37.977
		c1.176-0.027,2.118-0.747,2.358-1.364c0.241-0.62-0.205-1.241-0.938-1.126C64.499,35.642,64.986,37.409,64.064,37.977"/>
	<path style="clip-path:url(#SVGID_2_);fill-rule:evenodd;clip-rule:evenodd;fill:#046A3A;" d="M64.875,39.121
		c1.018,0.589,2.197,0.465,2.724,0.063c0.528-0.404,0.471-1.167-0.216-1.45C66.461,37.354,65.957,39.116,64.875,39.121"/>
	<path style="clip-path:url(#SVGID_2_);fill-rule:evenodd;clip-rule:evenodd;fill:#046A3A;" d="M64.963,40.557
		c0.549,1.041,1.613,1.563,2.273,1.503c0.662-0.061,1.02-0.737,0.589-1.343C67.248,39.905,65.883,41.129,64.963,40.557"/>
	<path style="clip-path:url(#SVGID_2_);fill-rule:evenodd;clip-rule:evenodd;fill:#046A3A;" d="M64.262,41.832
		c-0.099,1.172,0.517,2.186,1.105,2.49c0.591,0.306,1.256-0.071,1.22-0.813C66.537,42.513,64.729,42.81,64.262,41.832"/>
	<path style="clip-path:url(#SVGID_2_);fill-rule:evenodd;clip-rule:evenodd;fill:#046A3A;" d="M62.908,42.544
		c-0.741,0.914-0.803,2.098-0.487,2.681c0.315,0.585,1.078,0.648,1.466,0.014C64.406,44.388,62.744,43.614,62.908,42.544"/>
	<path style="clip-path:url(#SVGID_2_);fill:#046A3A;" d="M46.178,51.826c0.362-3.729,1.735-7.669,6.088-8.953
		c3.762-1.109,5.405,0.945,7.917,0.503c3.556-0.625,3.842-5.584,0.202-6.846C50.809,33.21,43.85,45.169,46.178,51.826"/>
	<path style="clip-path:url(#SVGID_2_);fill:#046A3A;" d="M28.152,34.389c-2.131,8.34,7.268,11.754,3.097,18.919
		c1.41-2.421,4-4.323,5.298-7.093c1.614-3.447,2.627-9.446-0.063-12.842C34.19,30.475,29.596,30.928,28.152,34.389"/>
	<path style="clip-path:url(#SVGID_2_);fill-rule:evenodd;clip-rule:evenodd;fill:#046A3A;" d="M19.135,36.186 M24.471,37.255
		L24.471,37.255L24.471,37.255z M24.876,37.651L24.876,37.651L24.876,37.651z M18.685,36.835L18.685,36.835L18.685,36.835z
		 M19.034,35.63c0.306-0.056,0.605,0.018,0.841,0.182c0.236,0.164,0.41,0.418,0.465,0.724c0.056,0.306-0.018,0.605-0.182,0.842
		c-0.164,0.236-0.418,0.409-0.724,0.465s-0.605-0.018-0.841-0.182c-0.236-0.164-0.41-0.418-0.465-0.724l0,0
		c-0.056-0.306,0.019-0.605,0.182-0.841C18.474,35.859,18.728,35.686,19.034,35.63L19.034,35.63z M26.231,39.768
		c0.137-0.12,0.346-0.106,0.466,0.031c0.12,0.137,0.106,0.346-0.031,0.466s-0.346,0.106-0.466-0.031S26.094,39.888,26.231,39.768
		 M25.463,38.097c0.218-0.191,0.551-0.169,0.742,0.05c0.191,0.219,0.169,0.551-0.05,0.742c-0.219,0.191-0.551,0.169-0.742-0.05
		C25.223,38.62,25.245,38.288,25.463,38.097 M24.861,36.572c0.15,0.146,0.228,0.34,0.23,0.535c0.003,0.196-0.069,0.393-0.216,0.544
		l0,0c-0.146,0.15-0.34,0.228-0.535,0.23c-0.196,0.003-0.392-0.069-0.543-0.215l-0.002-0.002c-0.149-0.146-0.226-0.339-0.229-0.533
		c-0.003-0.196,0.068-0.393,0.215-0.544c0.146-0.15,0.34-0.228,0.535-0.23C24.514,36.354,24.71,36.425,24.861,36.572 M24.526,37.116
		c-0.001-0.05-0.021-0.101-0.061-0.139c-0.039-0.038-0.089-0.056-0.138-0.055c-0.05,0.001-0.101,0.021-0.139,0.061
		c-0.038,0.039-0.056,0.089-0.055,0.139c0,0.05,0.021,0.1,0.06,0.138c0.04,0.038,0.09,0.057,0.139,0.056
		c0.05,0,0.101-0.021,0.139-0.06l0,0C24.508,37.216,24.526,37.166,24.526,37.116 M22.122,35.879L22.122,35.879
		c-0.108-0.036-0.22-0.024-0.313,0.022c-0.094,0.047-0.169,0.13-0.205,0.238c-0.036,0.108-0.025,0.22,0.022,0.313
		c0.047,0.093,0.13,0.169,0.238,0.205c0.108,0.036,0.22,0.024,0.313-0.022c0.093-0.047,0.169-0.13,0.205-0.238v0
		c0.036-0.108,0.024-0.219-0.022-0.312C22.313,35.99,22.229,35.915,22.122,35.879 M22.299,35.341
		c0.255,0.084,0.452,0.265,0.564,0.487c0.112,0.224,0.14,0.49,0.056,0.745v0c-0.084,0.255-0.265,0.452-0.487,0.564
		c-0.224,0.113-0.49,0.14-0.745,0.056c-0.255-0.084-0.452-0.265-0.564-0.487c-0.113-0.224-0.14-0.49-0.056-0.745
		c0.084-0.255,0.265-0.452,0.487-0.564C21.778,35.284,22.044,35.257,22.299,35.341L22.299,35.341z M16.002,37.748
		c0.262-0.229,0.591-0.33,0.913-0.309c0.321,0.021,0.635,0.166,0.864,0.428c0.228,0.261,0.329,0.591,0.308,0.912l0,0.001
		c-0.021,0.322-0.166,0.635-0.427,0.864c-0.261,0.228-0.591,0.329-0.913,0.308h-0.001c-0.322-0.021-0.635-0.166-0.863-0.427
		c-0.229-0.262-0.33-0.592-0.309-0.913l0.001-0.001C15.597,38.29,15.741,37.977,16.002,37.748 M16.877,38.006
		c-0.176-0.012-0.358,0.043-0.501,0.169c-0.145,0.126-0.224,0.298-0.236,0.475h0c-0.012,0.177,0.044,0.358,0.17,0.502
		s0.298,0.224,0.474,0.235c0.177,0.012,0.358-0.044,0.502-0.17c0.144-0.126,0.223-0.298,0.235-0.475h0
		c0.012-0.177-0.044-0.358-0.17-0.502S17.054,38.018,16.877,38.006 M19.552,36.277c-0.118-0.082-0.266-0.118-0.417-0.091l0,0
		c-0.151,0.027-0.277,0.114-0.359,0.231s-0.118,0.266-0.091,0.417l0,0c0.027,0.151,0.114,0.277,0.232,0.359
		c0.118,0.082,0.266,0.118,0.417,0.09c0.151-0.027,0.277-0.114,0.359-0.232c0.082-0.117,0.119-0.266,0.091-0.417
		C19.756,36.485,19.67,36.359,19.552,36.277"/>
	<path style="clip-path:url(#SVGID_2_);fill-rule:evenodd;clip-rule:evenodd;fill:#046A3A;" d="M29.883,69.842 M35.219,70.91
		L35.219,70.91L35.219,70.91z M35.625,71.307L35.625,71.307L35.625,71.307z M29.433,70.491L29.433,70.491L29.433,70.491z
		 M29.782,69.285c0.306-0.056,0.605,0.019,0.841,0.183c0.236,0.163,0.41,0.417,0.465,0.724c0.056,0.306-0.018,0.604-0.182,0.841
		s-0.418,0.41-0.724,0.466c-0.306,0.055-0.605-0.019-0.841-0.183c-0.236-0.163-0.41-0.418-0.465-0.724l0,0
		c-0.056-0.306,0.018-0.604,0.182-0.841C29.222,69.515,29.476,69.341,29.782,69.285L29.782,69.285z M36.979,73.423
		c0.137-0.12,0.346-0.105,0.466,0.031c0.12,0.138,0.106,0.347-0.031,0.466c-0.137,0.12-0.346,0.106-0.466-0.031
		C36.828,73.752,36.842,73.543,36.979,73.423 M36.211,71.752c0.219-0.191,0.551-0.169,0.742,0.05
		c0.191,0.219,0.169,0.551-0.049,0.742c-0.219,0.191-0.551,0.169-0.742-0.05C35.971,72.275,35.993,71.943,36.211,71.752
		 M35.61,70.228c0.15,0.146,0.227,0.34,0.23,0.535c0.003,0.195-0.069,0.393-0.216,0.544h0c-0.146,0.15-0.339,0.228-0.535,0.23
		c-0.196,0.003-0.392-0.068-0.543-0.215l-0.002-0.003c-0.15-0.146-0.226-0.339-0.229-0.533c-0.003-0.195,0.068-0.393,0.216-0.544
		c0.146-0.15,0.34-0.228,0.535-0.23C35.262,70.009,35.458,70.081,35.61,70.228 M35.274,70.771c0-0.05-0.021-0.1-0.061-0.139
		c-0.039-0.037-0.088-0.056-0.138-0.055s-0.101,0.021-0.139,0.061c-0.038,0.038-0.056,0.089-0.055,0.139
		c0.001,0.05,0.021,0.1,0.06,0.138s0.089,0.057,0.139,0.056c0.05-0.001,0.101-0.021,0.139-0.061l0,0
		C35.256,70.872,35.275,70.821,35.274,70.771 M32.87,69.535L32.87,69.535c-0.108-0.036-0.22-0.025-0.313,0.021
		c-0.093,0.047-0.169,0.13-0.205,0.238c-0.036,0.107-0.025,0.219,0.021,0.312c0.047,0.094,0.13,0.17,0.238,0.205
		c0.108,0.036,0.219,0.025,0.312-0.021c0.094-0.047,0.169-0.13,0.205-0.238l0,0c0.036-0.108,0.025-0.22-0.022-0.313
		S32.978,69.57,32.87,69.535 M33.047,68.997c0.255,0.084,0.452,0.265,0.564,0.487c0.113,0.224,0.14,0.49,0.056,0.745l0,0
		c-0.084,0.255-0.265,0.452-0.488,0.564c-0.224,0.112-0.49,0.14-0.745,0.056s-0.452-0.265-0.564-0.487
		c-0.112-0.224-0.14-0.49-0.056-0.745s0.265-0.452,0.488-0.564C32.526,68.94,32.792,68.912,33.047,68.997L33.047,68.997z
		 M26.75,71.404c0.262-0.229,0.592-0.33,0.914-0.309c0.321,0.021,0.635,0.165,0.864,0.427c0.228,0.262,0.329,0.591,0.308,0.913
		h0.001c-0.022,0.322-0.166,0.636-0.428,0.864c-0.261,0.229-0.591,0.329-0.913,0.308h-0.001c-0.322-0.021-0.635-0.166-0.863-0.427
		c-0.229-0.262-0.33-0.592-0.309-0.913l0.001-0.001C26.345,71.945,26.489,71.632,26.75,71.404 M27.625,71.661
		c-0.177-0.012-0.358,0.044-0.502,0.17s-0.224,0.298-0.236,0.475h0.001c-0.012,0.177,0.044,0.357,0.169,0.502
		c0.126,0.144,0.298,0.224,0.475,0.235s0.358-0.044,0.502-0.17s0.223-0.299,0.235-0.475h0.001c0.012-0.177-0.044-0.358-0.17-0.502
		C27.974,71.752,27.802,71.673,27.625,71.661 M30.3,69.933c-0.117-0.081-0.266-0.118-0.417-0.091l0,0
		c-0.151,0.027-0.277,0.114-0.359,0.232c-0.081,0.117-0.118,0.266-0.091,0.417l0,0c0.027,0.151,0.114,0.277,0.232,0.359
		c0.117,0.081,0.266,0.118,0.417,0.091s0.277-0.114,0.359-0.232c0.082-0.117,0.118-0.266,0.091-0.417S30.418,70.015,30.3,69.933"/>
	<path style="clip-path:url(#SVGID_2_);fill-rule:evenodd;clip-rule:evenodd;fill:#046A3A;" d="M44.853,55.831 M50.005,58.938
		L50.005,58.938L50.005,58.938z M50.278,59.502L50.278,59.502L50.278,59.502z M44.142,56.338L44.142,56.338L44.142,56.338z
		 M44.956,55.214c0.339,0.057,0.623,0.245,0.807,0.504s0.27,0.588,0.213,0.927c-0.057,0.34-0.245,0.623-0.504,0.808
		c-0.258,0.185-0.588,0.271-0.927,0.214s-0.623-0.246-0.808-0.505c-0.184-0.258-0.27-0.588-0.213-0.927h0
		c0.057-0.339,0.245-0.622,0.504-0.807C44.288,55.243,44.617,55.157,44.956,55.214L44.956,55.214z M50.896,62.211
		c0.188-0.073,0.398,0.02,0.473,0.207c0.073,0.188-0.02,0.399-0.207,0.473c-0.188,0.074-0.399-0.019-0.473-0.206
		C50.615,62.496,50.708,62.285,50.896,62.211 M50.723,60.186c0.299-0.117,0.637,0.03,0.754,0.329c0.117,0.3-0.031,0.637-0.33,0.754
		s-0.636-0.03-0.753-0.329S50.424,60.303,50.723,60.186 M50.667,58.374c0.102,0.209,0.109,0.439,0.039,0.644
		c-0.069,0.204-0.218,0.383-0.428,0.484l0,0c-0.208,0.102-0.438,0.109-0.643,0.04c-0.205-0.07-0.382-0.218-0.484-0.427l-0.001-0.003
		c-0.101-0.208-0.108-0.438-0.039-0.641c0.07-0.205,0.218-0.383,0.428-0.485c0.208-0.102,0.438-0.109,0.643-0.04
		C50.387,58.017,50.564,58.165,50.667,58.374 M50.113,58.815c0.019-0.053,0.017-0.113-0.011-0.167
		c-0.025-0.054-0.071-0.092-0.123-0.109c-0.052-0.018-0.112-0.016-0.167,0.011c-0.053,0.026-0.091,0.072-0.109,0.124
		c-0.018,0.052-0.016,0.111,0.011,0.166c0.026,0.054,0.072,0.092,0.124,0.109c0.052,0.019,0.112,0.016,0.167-0.011l0,0
		C50.059,58.912,50.096,58.867,50.113,58.815 M48.075,56.629L48.075,56.629c-0.099-0.078-0.219-0.108-0.333-0.095
		c-0.115,0.015-0.225,0.072-0.303,0.171c-0.077,0.1-0.107,0.22-0.094,0.333c0.014,0.115,0.072,0.226,0.171,0.303
		c0.099,0.077,0.219,0.107,0.333,0.094c0.115-0.014,0.225-0.072,0.302-0.171h0c0.077-0.099,0.107-0.219,0.094-0.333
		C48.232,56.815,48.174,56.706,48.075,56.629 M48.461,56.135c0.234,0.184,0.372,0.445,0.405,0.719
		c0.033,0.275-0.038,0.563-0.221,0.796h0c-0.183,0.234-0.444,0.371-0.718,0.405c-0.275,0.033-0.562-0.038-0.796-0.221
		c-0.234-0.184-0.372-0.444-0.405-0.719c-0.034-0.275,0.038-0.563,0.221-0.796s0.444-0.371,0.718-0.404
		C47.94,55.881,48.227,55.952,48.461,56.135L48.461,56.135z M41.009,56.284c0.358-0.141,0.739-0.122,1.066,0.021
		c0.326,0.143,0.599,0.41,0.739,0.768c0.14,0.357,0.121,0.738-0.021,1.064l0,0.001c-0.143,0.327-0.41,0.599-0.768,0.739
		c-0.357,0.14-0.738,0.121-1.064-0.021h-0.002c-0.326-0.144-0.598-0.41-0.738-0.768s-0.122-0.738,0.021-1.064l0.001-0.001
		C40.385,56.695,40.652,56.424,41.009,56.284 M41.824,56.879c-0.179-0.078-0.389-0.088-0.585-0.011
		c-0.197,0.077-0.345,0.227-0.423,0.405h0c-0.078,0.18-0.088,0.39-0.011,0.586c0.077,0.197,0.227,0.344,0.406,0.423
		c0.179,0.078,0.389,0.088,0.586,0.011c0.197-0.077,0.344-0.227,0.422-0.406h0c0.079-0.179,0.088-0.389,0.011-0.585
		C42.152,57.104,42.003,56.957,41.824,56.879 M45.253,56.081c-0.092-0.129-0.232-0.222-0.4-0.25h0
		c-0.167-0.028-0.331,0.015-0.46,0.106s-0.223,0.232-0.251,0.4l0,0c-0.028,0.168,0.015,0.332,0.107,0.461
		c0.092,0.128,0.232,0.223,0.4,0.25c0.167,0.028,0.332-0.015,0.46-0.107c0.129-0.091,0.223-0.232,0.25-0.399
		C45.388,56.374,45.345,56.211,45.253,56.081"/>
	<path style="clip-path:url(#SVGID_2_);fill:#046A3A;" d="M18.152,43.985c3.359,5.288,9.855,2.007,11.574,7.79
		c-0.581-1.954-0.297-4.276-1.119-6.345c-1.023-2.574-3.698-6.103-6.84-6.37C19.087,38.833,17.036,41.494,18.152,43.985"/>
	<path style="clip-path:url(#SVGID_2_);fill:#046A3A;" d="M28.64,78.223c3.359,5.288,9.855,2.007,11.574,7.791
		c-0.581-1.955-0.297-4.276-1.119-6.346c-1.022-2.574-3.698-6.103-6.839-6.369C29.575,73.07,27.524,75.731,28.64,78.223"/>
	<path style="clip-path:url(#SVGID_2_);fill-rule:evenodd;clip-rule:evenodd;fill:#046A3A;" d="M87.566,39.005 M79.359,36.334
		L79.359,36.334L79.359,36.334z M78.491,36.567L78.491,36.567L78.491,36.567z M87.684,40.252L87.684,40.252L87.684,40.252z
		 M88.138,38.314L88.138,38.314c0.38,0.314,0.597,0.752,0.639,1.205c0.043,0.454-0.088,0.925-0.402,1.305l0,0
		c-0.314,0.379-0.752,0.596-1.205,0.639c-0.454,0.043-0.925-0.088-1.305-0.402s-0.597-0.752-0.639-1.206
		c-0.043-0.454,0.088-0.925,0.402-1.304c0.314-0.38,0.752-0.596,1.205-0.639C87.287,37.869,87.758,38,88.138,38.314 M74.973,38.44
		c0.097,0.272-0.046,0.572-0.318,0.668c-0.272,0.096-0.572-0.046-0.668-0.319c-0.097-0.272,0.046-0.572,0.318-0.668
		S74.877,38.168,74.973,38.44 M77.333,36.727c0.153,0.435-0.074,0.911-0.509,1.065c-0.434,0.153-0.91-0.074-1.064-0.508
		c-0.153-0.434,0.074-0.911,0.508-1.064C76.702,36.065,77.179,36.293,77.333,36.727 M79.35,35.087
		c0.323-0.085,0.65-0.032,0.919,0.125c0.268,0.156,0.476,0.413,0.561,0.734c0.086,0.323,0.031,0.651-0.125,0.919
		c-0.154,0.267-0.41,0.474-0.73,0.56l-0.005,0.001c-0.322,0.085-0.649,0.031-0.918-0.125c-0.267-0.155-0.475-0.413-0.56-0.733v0
		c-0.086-0.323-0.032-0.651,0.124-0.919C78.771,35.381,79.028,35.172,79.35,35.087 M79.391,36.101
		c-0.04,0.068-0.054,0.151-0.032,0.234l0.001,0c0.021,0.084,0.076,0.151,0.145,0.191c0.067,0.04,0.151,0.053,0.235,0.031
		c0.083-0.022,0.15-0.076,0.19-0.144c0.039-0.068,0.053-0.152,0.031-0.234c-0.022-0.084-0.076-0.151-0.145-0.191
		c-0.068-0.039-0.152-0.053-0.234-0.031C79.498,35.978,79.431,36.032,79.391,36.101 M83.676,36.259
		c-0.177-0.034-0.351,0.006-0.488,0.099c-0.137,0.092-0.238,0.237-0.272,0.415v0c-0.035,0.177,0.005,0.35,0.099,0.488
		c0.092,0.136,0.237,0.238,0.414,0.272s0.351-0.005,0.488-0.098c0.137-0.092,0.238-0.238,0.273-0.415
		c0.034-0.177-0.006-0.351-0.099-0.488C83.999,36.396,83.853,36.293,83.676,36.259L83.676,36.259z M83.849,35.377L83.849,35.377
		c0.418,0.082,0.765,0.327,0.986,0.656c0.221,0.329,0.317,0.741,0.235,1.159c-0.081,0.418-0.326,0.765-0.656,0.987
		c-0.328,0.221-0.74,0.317-1.159,0.235c-0.418-0.082-0.765-0.327-0.986-0.656c-0.221-0.329-0.317-0.741-0.235-1.159v0
		c0.082-0.418,0.326-0.764,0.656-0.986C83.018,35.392,83.43,35.296,83.849,35.377 M90.683,43.599
		c0.184,0.519,0.14,1.063-0.081,1.525v0.002c-0.22,0.461-0.616,0.838-1.136,1.022c-0.519,0.184-1.063,0.139-1.524-0.081
		l-0.002-0.001c-0.462-0.22-0.839-0.616-1.022-1.135c-0.185-0.52-0.14-1.065,0.08-1.526l0.002,0c0.22-0.461,0.616-0.838,1.134-1.022
		c0.521-0.184,1.066-0.14,1.527,0.08C90.121,42.683,90.498,43.079,90.683,43.599 M89.272,43.274
		c-0.253-0.121-0.554-0.145-0.839-0.044c-0.286,0.101-0.504,0.309-0.625,0.562l0.001,0c-0.121,0.253-0.146,0.553-0.045,0.838
		c0.102,0.287,0.309,0.505,0.562,0.626c0.254,0.12,0.553,0.144,0.84,0.043c0.285-0.102,0.504-0.309,0.624-0.562l0.001,0
		c0.121-0.253,0.145-0.553,0.043-0.839C89.733,43.613,89.525,43.396,89.272,43.274 M86.318,39.123
		c-0.155,0.188-0.22,0.422-0.198,0.647c0.021,0.227,0.128,0.445,0.315,0.6c0.188,0.155,0.422,0.22,0.647,0.199
		c0.227-0.021,0.445-0.128,0.601-0.316l0,0c0.155-0.188,0.22-0.421,0.198-0.647c-0.021-0.227-0.128-0.444-0.315-0.6l0,0
		c-0.188-0.155-0.422-0.22-0.647-0.199C86.692,38.828,86.474,38.935,86.318,39.123"/>
	<path style="clip-path:url(#SVGID_2_);fill-rule:evenodd;clip-rule:evenodd;fill:#046A3A;" d="M69.901,59.407 M68.512,67.926
		L68.512,67.926L68.512,67.926z M67.906,68.59L67.906,68.59L67.906,68.59z M68.847,58.731L68.847,58.731L68.847,58.731z
		 M70.777,59.216c0.105,0.481,0.006,0.96-0.24,1.344s-0.639,0.674-1.121,0.778c-0.481,0.105-0.96,0.006-1.344-0.24
		c-0.383-0.245-0.673-0.639-0.778-1.12c-0.104-0.481-0.006-0.96,0.241-1.344c0.245-0.384,0.639-0.673,1.119-0.778h0.001
		c0.481-0.105,0.96-0.006,1.344,0.24C70.382,58.341,70.672,58.734,70.777,59.216L70.777,59.216z M64.629,70.857
		c0.198,0.211,0.188,0.542-0.022,0.74s-0.542,0.188-0.74-0.022c-0.198-0.211-0.188-0.542,0.022-0.74S64.432,70.646,64.629,70.857
		 M67.233,69.546c0.315,0.336,0.3,0.864-0.036,1.18s-0.863,0.299-1.18-0.037c-0.315-0.335-0.299-0.863,0.037-1.179
		S66.918,69.211,67.233,69.546 M69.615,68.506c-0.223,0.247-0.525,0.38-0.834,0.396c-0.311,0.016-0.627-0.087-0.875-0.312l0,0
		c-0.246-0.223-0.379-0.525-0.395-0.834c-0.017-0.311,0.086-0.625,0.309-0.873l0.004-0.004c0.223-0.244,0.524-0.377,0.832-0.393
		c0.311-0.016,0.626,0.086,0.875,0.311c0.246,0.224,0.379,0.526,0.395,0.835C69.942,67.941,69.84,68.258,69.615,68.506
		 M68.734,68.005c0.079-0.004,0.158-0.039,0.216-0.104c0.058-0.063,0.083-0.145,0.079-0.223c-0.004-0.079-0.039-0.158-0.104-0.217
		c-0.063-0.057-0.144-0.083-0.223-0.079s-0.157,0.039-0.215,0.103c-0.058,0.064-0.085,0.146-0.08,0.224
		c0.004,0.079,0.038,0.158,0.104,0.217l0,0C68.575,67.982,68.655,68.009,68.734,68.005 M70.558,64.124L70.558,64.124
		c0.051-0.174,0.027-0.35-0.052-0.494c-0.08-0.146-0.217-0.261-0.389-0.312c-0.174-0.05-0.35-0.026-0.494,0.053
		c-0.146,0.08-0.261,0.217-0.312,0.389c-0.05,0.174-0.026,0.35,0.053,0.494c0.08,0.146,0.216,0.261,0.389,0.311l0,0
		c0.173,0.051,0.35,0.027,0.494-0.052C70.393,64.433,70.508,64.297,70.558,64.124 M71.42,64.374
		c-0.119,0.409-0.394,0.732-0.74,0.923c-0.348,0.191-0.769,0.25-1.177,0.131h-0.001c-0.408-0.119-0.731-0.395-0.922-0.741
		c-0.191-0.348-0.25-0.769-0.131-1.177c0.119-0.41,0.394-0.732,0.74-0.923c0.349-0.191,0.77-0.25,1.178-0.131
		c0.409,0.119,0.732,0.394,0.923,0.741S71.539,63.965,71.42,64.374L71.42,64.374z M69.781,60.074
		c0.122-0.191,0.172-0.429,0.12-0.667l0,0c-0.053-0.238-0.197-0.433-0.389-0.556c-0.19-0.122-0.428-0.172-0.666-0.12l0,0
		c-0.238,0.052-0.434,0.196-0.557,0.389c-0.122,0.19-0.172,0.428-0.12,0.666c0.053,0.238,0.197,0.434,0.389,0.556
		c0.19,0.123,0.428,0.173,0.666,0.12C69.463,60.41,69.658,60.266,69.781,60.074"/>
	<path style="clip-path:url(#SVGID_2_);fill:#046A3A;" d="M84.288,49.025c-7.691,5.865-15.348-2.357-20.929,5.102
		c1.887-2.521,2.716-6.035,5.012-8.594c2.856-3.183,8.616-6.865,13.311-5.573C85.687,41.062,87.234,46.012,84.288,49.025"/>
	<path style="clip-path:url(#SVGID_2_);fill:#046A3A;" d="M49.5,62.727c0.084,8.473-9.7,9.536-7.39,17.363
		c-0.781-2.646-2.813-5.07-3.404-8.021c-0.737-3.674-0.301-9.646,3.066-12.264C44.644,57.571,48.93,59.08,49.5,62.727"/>
	<path style="clip-path:url(#SVGID_2_);fill-rule:evenodd;clip-rule:evenodd;fill:#046A3A;" d="M62.625,22.02 M67.962,23.088
		L67.962,23.088L67.962,23.088z M68.367,23.485L68.367,23.485L68.367,23.485z M62.175,22.669L62.175,22.669L62.175,22.669z
		 M62.524,21.464c0.306-0.056,0.605,0.018,0.841,0.182c0.236,0.164,0.41,0.418,0.466,0.724c0.056,0.306-0.019,0.605-0.182,0.842
		c-0.164,0.236-0.418,0.409-0.724,0.465c-0.307,0.056-0.605-0.018-0.842-0.182c-0.236-0.164-0.409-0.417-0.465-0.723v0
		c-0.056-0.306,0.018-0.605,0.182-0.841C61.964,21.693,62.219,21.52,62.524,21.464L62.524,21.464z M69.722,25.602
		c0.137-0.12,0.346-0.106,0.466,0.031c0.12,0.137,0.105,0.346-0.031,0.466c-0.138,0.12-0.346,0.106-0.466-0.031
		S69.584,25.722,69.722,25.602 M68.954,23.931c0.219-0.191,0.551-0.169,0.742,0.05s0.169,0.551-0.05,0.742
		c-0.219,0.191-0.551,0.169-0.742-0.05S68.735,24.122,68.954,23.931 M68.353,22.406c0.15,0.146,0.228,0.34,0.23,0.535
		c0.003,0.196-0.069,0.393-0.216,0.544l0,0c-0.146,0.15-0.34,0.228-0.535,0.23c-0.195,0.003-0.393-0.068-0.543-0.214l-0.002-0.002
		c-0.149-0.146-0.227-0.339-0.229-0.533c-0.003-0.196,0.069-0.393,0.216-0.544c0.146-0.151,0.34-0.228,0.535-0.23
		S68.201,22.259,68.353,22.406 M68.017,22.95c-0.001-0.05-0.021-0.101-0.061-0.139c-0.038-0.038-0.089-0.056-0.139-0.055
		c-0.05,0.001-0.101,0.021-0.139,0.061c-0.037,0.039-0.056,0.089-0.055,0.138c0.001,0.05,0.021,0.1,0.06,0.138
		s0.09,0.057,0.139,0.056c0.051,0,0.101-0.021,0.14-0.061l0,0C67.999,23.05,68.018,23,68.017,22.95 M65.612,21.713L65.612,21.713
		c-0.108-0.036-0.22-0.024-0.313,0.022c-0.094,0.047-0.169,0.13-0.205,0.238c-0.036,0.108-0.024,0.22,0.022,0.313
		c0.047,0.093,0.13,0.169,0.237,0.205c0.108,0.036,0.22,0.024,0.313-0.022c0.094-0.047,0.169-0.13,0.205-0.238v0
		c0.036-0.108,0.024-0.219-0.022-0.312C65.803,21.824,65.72,21.749,65.612,21.713 M65.789,21.175
		c0.256,0.085,0.453,0.265,0.564,0.488c0.113,0.224,0.141,0.49,0.057,0.745v0c-0.085,0.255-0.266,0.452-0.488,0.564
		c-0.224,0.113-0.49,0.14-0.745,0.056s-0.452-0.265-0.563-0.487c-0.113-0.224-0.141-0.49-0.057-0.745
		c0.085-0.255,0.265-0.452,0.488-0.564C65.269,21.118,65.534,21.091,65.789,21.175L65.789,21.175z M59.492,23.582
		c0.262-0.229,0.592-0.33,0.914-0.309c0.321,0.021,0.635,0.166,0.863,0.428c0.229,0.261,0.329,0.591,0.308,0.912l0.001,0.001
		c-0.021,0.322-0.166,0.635-0.428,0.864c-0.261,0.229-0.591,0.33-0.912,0.308h-0.002c-0.321-0.022-0.635-0.166-0.863-0.427
		s-0.33-0.591-0.308-0.913l0.001-0.001C59.088,24.124,59.231,23.811,59.492,23.582 M60.368,23.84
		c-0.177-0.012-0.358,0.043-0.502,0.169c-0.145,0.126-0.224,0.298-0.236,0.475h0.001c-0.012,0.177,0.044,0.358,0.17,0.502
		s0.298,0.224,0.475,0.235c0.176,0.012,0.357-0.044,0.502-0.17c0.144-0.126,0.223-0.298,0.234-0.475h0.001
		c0.012-0.177-0.044-0.358-0.17-0.502S60.545,23.852,60.368,23.84 M63.042,22.111c-0.117-0.082-0.266-0.118-0.417-0.091l0,0
		c-0.151,0.028-0.277,0.114-0.359,0.232c-0.081,0.118-0.118,0.266-0.091,0.417h0.001c0.027,0.151,0.113,0.277,0.231,0.359
		c0.117,0.082,0.267,0.118,0.417,0.09c0.151-0.027,0.277-0.114,0.359-0.232c0.082-0.117,0.118-0.266,0.091-0.417
		C63.247,22.319,63.16,22.193,63.042,22.111"/>
	<path style="clip-path:url(#SVGID_2_);fill:#046A3A;" d="M61.643,29.819c3.359,5.288,9.854,2.007,11.574,7.791
		c-0.581-1.955-0.298-4.276-1.119-6.345c-1.022-2.574-3.697-6.103-6.84-6.37C62.577,24.667,60.527,27.328,61.643,29.819"/>
	<path style="clip-path:url(#SVGID_2_);fill:#046A3A;" d="M50.404,95.504c-1.927-1.462-4.715-6.062-3.602-8.999
		c1.513-3.991,5.15-3.89,6.075-2.448c2.728,4.254,8.524,0.845,7.184-4.646c-0.705-2.885-4.376-6.013-10.47-4.663
		C43.265,76.149,37.192,88.638,50.404,95.504"/>
	<path style="clip-path:url(#SVGID_2_);fill:#046A3A;" d="M22.722,66.668c-1.736-1.808-0.094-3.47,2.756-3.593
		c2.251-0.097,4.569,1.137,6.069,2.56C28.433,65.368,24.201,68.256,22.722,66.668"/>
</g>
</svg>
