<?xml version="1.0" encoding="utf-8"?>
<!-- Generator: Adobe Illustrator 16.0.0, SVG Export Plug-In . SVG Version: 6.00 Build 0)  -->
<!DOCTYPE svg PUBLIC "-//W3C//DTD SVG 1.1//EN" "http://www.w3.org/Graphics/SVG/1.1/DTD/svg11.dtd">
<svg version="1.1" id="Layer_1" xmlns="http://www.w3.org/2000/svg" xmlns:xlink="http://www.w3.org/1999/xlink" x="0px" y="0px"
	 width="100px" height="100px" viewBox="0 0 100 100" style="enable-background:new 0 0 100 100;" xml:space="preserve">
<g>
	<defs>
		<rect id="SVGID_1_" width="100" height="100"/>
	</defs>
	<clipPath id="SVGID_2_">
		<use xlink:href="#SVGID_1_"  style="overflow:visible;"/>
	</clipPath>
	<path style="clip-path:url(#SVGID_2_);fill:none;stroke:#046A3A;stroke-width:4;stroke-miterlimit:10;" d="M11.331,21.42
		c0.316-1.758-2.376-2.513-2.694-0.743c-0.369,2.05-0.372,4.045-0.012,6.097c0.31,1.768,3.002,1.019,2.694-0.742
		C11.051,24.506,11.057,22.944,11.331,21.42z"/>
	<path style="clip-path:url(#SVGID_2_);fill:none;stroke:#046A3A;stroke-width:4;stroke-miterlimit:10;" d="M11.793,39.301
		c-0.278-1.45-0.282-2.929-0.007-4.38c0.333-1.757-2.359-2.51-2.694-0.743C8.72,36.149,8.721,38.073,9.1,40.043
		C9.438,41.807,12.132,41.06,11.793,39.301z"/>
	<path style="clip-path:url(#SVGID_2_);fill:none;stroke:#046A3A;stroke-width:4;stroke-miterlimit:10;" d="M11.903,54.483
		c-0.476-1.669-0.594-3.358-0.28-5.07c0.323-1.758-2.369-2.511-2.694-0.743c-0.406,2.21-0.338,4.389,0.28,6.555
		C9.701,56.951,12.397,56.218,11.903,54.483z"/>
	<path style="clip-path:url(#SVGID_2_);fill:none;stroke:#046A3A;stroke-width:4;stroke-miterlimit:10;" d="M7.417,64.17v6.752
		c0,1.797,2.793,1.801,2.793,0V64.17C10.211,62.372,7.417,62.369,7.417,64.17z"/>
	<path style="clip-path:url(#SVGID_2_);fill:none;stroke:#046A3A;stroke-width:4;stroke-miterlimit:10;" d="M17.363,29.296
		c-0.437-1.219-0.534-2.426-0.218-3.687c0.437-1.745-2.257-2.489-2.694-0.743c-0.431,1.719-0.381,3.5,0.218,5.172
		C15.271,31.719,17.971,30.995,17.363,29.296z"/>
	<path style="clip-path:url(#SVGID_2_);fill:none;stroke:#046A3A;stroke-width:4;stroke-miterlimit:10;" d="M14.722,38.503
		c-0.104,2.718-0.208,5.436-0.313,8.154c-0.069,1.798,2.725,1.795,2.794,0c0.104-2.718,0.208-5.437,0.313-8.154
		C17.584,36.705,14.791,36.708,14.722,38.503z"/>
	<path style="clip-path:url(#SVGID_2_);fill:none;stroke:#046A3A;stroke-width:4;stroke-miterlimit:10;" d="M14.463,55.367
		c-0.382,2.051-0.396,4.047-0.061,6.104c0.289,1.77,2.981,1.019,2.694-0.743c-0.249-1.529-0.223-3.096,0.061-4.618
		C17.484,54.353,14.792,53.6,14.463,55.367z"/>
	<path style="clip-path:url(#SVGID_2_);fill:none;stroke:#046A3A;stroke-width:4;stroke-miterlimit:10;" d="M16.945,76.076
		c-0.332-1.295-0.406-2.611-0.166-3.931c0.319-1.758-2.373-2.512-2.694-0.743c-0.332,1.826-0.295,3.616,0.167,5.417
		C14.698,78.56,17.393,77.822,16.945,76.076z"/>
	<path style="clip-path:url(#SVGID_2_);fill:none;stroke:#046A3A;stroke-width:4;stroke-miterlimit:10;" d="M24.116,23.311
		c-0.045-0.368-0.09-0.736-0.136-1.104c-0.016-0.131-0.027-0.229-0.036-0.308c0.761-0.71,0.449-2.399-0.936-2.483
		c-1.203-0.073-1.895,1.051-1.893,2.135c0.002,1.363,0.333,2.8,0.5,4.153c0.092,0.755,0.576,1.389,1.396,1.397
		c0.685,0.007,1.489-0.648,1.397-1.397C24.311,24.907,24.213,24.109,24.116,23.311z"/>
	<path style="clip-path:url(#SVGID_2_);fill:none;stroke:#046A3A;stroke-width:4;stroke-miterlimit:10;" d="M25.551,33.622
		c-0.166-1.775-2.961-1.792-2.793,0c0.159,1.707,0.319,3.414,0.478,5.121c0.166,1.775,2.961,1.792,2.793,0
		C25.87,37.036,25.71,35.329,25.551,33.622z"/>
	<path style="clip-path:url(#SVGID_2_);fill:none;stroke:#046A3A;stroke-width:4;stroke-miterlimit:10;" d="M24.752,47.81
		c0.152-1.792-2.642-1.781-2.794,0c-0.146,1.71-0.174,3.418-0.085,5.132c0.093,1.789,2.887,1.8,2.793,0
		C24.578,51.228,24.606,49.52,24.752,47.81z"/>
	<path style="clip-path:url(#SVGID_2_);fill:none;stroke:#046A3A;stroke-width:4;stroke-miterlimit:10;" d="M22.032,59.534
		c-0.456,2.29-0.601,4.581-0.375,6.907c0.172,1.773,2.968,1.791,2.793,0c-0.202-2.074-0.132-4.119,0.275-6.165
		C25.075,58.521,22.383,57.77,22.032,59.534z"/>
	<path style="clip-path:url(#SVGID_2_);fill:none;stroke:#046A3A;stroke-width:4;stroke-miterlimit:10;" d="M25.042,80.516
		c-0.397-1.265-0.514-2.506-0.384-3.824c0.074-0.752-0.695-1.397-1.397-1.397c-0.817,0-1.322,0.644-1.397,1.397
		c-0.152,1.541,0.02,3.09,0.484,4.566C22.884,82.968,25.582,82.238,25.042,80.516z"/>
	<path style="clip-path:url(#SVGID_2_);fill:none;stroke:#046A3A;stroke-width:4;stroke-miterlimit:10;" d="M33.714,28.578
		c-0.566-1.638-0.752-3.26-0.586-4.984c0.172-1.789-2.623-1.776-2.793,0c-0.188,1.942,0.048,3.882,0.686,5.727
		C31.604,31.009,34.304,30.283,33.714,28.578z"/>
	<path style="clip-path:url(#SVGID_2_);fill:none;stroke:#046A3A;stroke-width:4;stroke-miterlimit:10;" d="M30.699,38.508v5.355
		c0,1.797,2.794,1.8,2.794,0v-5.355C33.493,36.711,30.699,36.708,30.699,38.508z"/>
	<path style="clip-path:url(#SVGID_2_);fill:none;stroke:#046A3A;stroke-width:4;stroke-miterlimit:10;" d="M33.371,52.932
		c0.16-1.791-2.635-1.78-2.794,0c-0.152,1.71-0.183,3.418-0.091,5.132c0.096,1.788,2.89,1.8,2.794,0
		C33.188,56.349,33.218,54.642,33.371,52.932z"/>
	<path style="clip-path:url(#SVGID_2_);fill:none;stroke:#046A3A;stroke-width:4;stroke-miterlimit:10;" d="M33.213,73.291
		c-0.471-2.113-0.648-4.225-0.569-6.387c0.065-1.798-2.728-1.795-2.794,0c-0.087,2.406,0.146,4.78,0.669,7.13
		C30.91,75.788,33.604,75.046,33.213,73.291z"/>
	<path style="clip-path:url(#SVGID_2_);fill:none;stroke:#046A3A;stroke-width:4;stroke-miterlimit:10;" d="M40.002,24.157
		c-0.363-1.341-0.47-2.668-0.359-4.053c0.144-1.792-2.651-1.783-2.793,0c-0.13,1.617,0.035,3.23,0.458,4.796
		C37.776,26.633,40.473,25.897,40.002,24.157z"/>
	<path style="clip-path:url(#SVGID_2_);fill:none;stroke:#046A3A;stroke-width:4;stroke-miterlimit:10;" d="M40.94,36.958
		c-0.432-1.427-0.603-2.898-0.39-4.382c0.108-0.753-0.186-1.492-0.976-1.718c-0.654-0.188-1.611,0.23-1.718,0.976
		c-0.286,1.994-0.197,3.931,0.39,5.867C38.766,39.417,41.463,38.685,40.94,36.958z"/>
	<path style="clip-path:url(#SVGID_2_);fill:none;stroke:#046A3A;stroke-width:4;stroke-miterlimit:10;" d="M38.21,46.055
		c-0.375,1.812-0.384,3.585-0.045,5.403c0.329,1.766,3.022,1.018,2.694-0.742c-0.243-1.301-0.222-2.624,0.045-3.918
		C41.268,45.043,38.575,44.293,38.21,46.055z"/>
	<path style="clip-path:url(#SVGID_2_);fill:none;stroke:#046A3A;stroke-width:4;stroke-miterlimit:10;" d="M38.622,60.011
		c-0.495,2.04-0.661,4.109-0.448,6.199c0.18,1.771,2.976,1.79,2.793,0c-0.188-1.849-0.09-3.649,0.348-5.457
		C41.739,59.006,39.045,58.261,38.622,60.011z"/>
	<path style="clip-path:url(#SVGID_2_);fill:none;stroke:#046A3A;stroke-width:4;stroke-miterlimit:10;" d="M37.683,74.827v5.122
		c0,1.798,2.794,1.801,2.794,0v-5.122C40.477,73.029,37.683,73.026,37.683,74.827z"/>
	<path style="clip-path:url(#SVGID_2_);fill:none;stroke:#046A3A;stroke-width:4;stroke-miterlimit:10;" d="M48.358,28.188
		c-0.503-1.637-0.695-3.263-0.598-4.972c0.102-1.796-2.692-1.791-2.794,0c-0.11,1.937,0.129,3.861,0.698,5.715
		C46.191,30.644,48.889,29.913,48.358,28.188z"/>
	<path style="clip-path:url(#SVGID_2_);fill:none;stroke:#046A3A;stroke-width:4;stroke-miterlimit:10;" d="M48.546,43.73
		c-0.398-2.117-0.519-4.238-0.415-6.388c0.087-1.797-2.707-1.793-2.794,0c-0.116,2.401,0.071,4.769,0.515,7.13
		C46.184,46.238,48.877,45.49,48.546,43.73z"/>
	<path style="clip-path:url(#SVGID_2_);fill:none;stroke:#046A3A;stroke-width:4;stroke-miterlimit:10;" d="M48.551,58.397
		c-0.485-2.346-0.682-4.691-0.626-7.085c0.042-1.798-2.752-1.797-2.794,0c-0.061,2.639,0.192,5.243,0.726,7.827
		C46.221,60.899,48.914,60.154,48.551,58.397z"/>
	<path style="clip-path:url(#SVGID_2_);fill:none;stroke:#046A3A;stroke-width:4;stroke-miterlimit:10;" d="M48.359,73.753
		c-0.492-1.954-0.675-3.906-0.582-5.919c0.083-1.797-2.71-1.793-2.793,0c-0.104,2.251,0.132,4.478,0.682,6.662
		C46.104,76.238,48.799,75.5,48.359,73.753z"/>
	<path style="clip-path:url(#SVGID_2_);fill:#046A3A;" d="M12.794,22.435c0.294-1.635-2.209-2.337-2.505-0.691
		c-0.343,1.907-0.346,3.763-0.012,5.671c0.288,1.644,2.792,0.947,2.506-0.691C12.535,25.306,12.54,23.852,12.794,22.435"/>
	<path style="clip-path:url(#SVGID_2_);fill:#046A3A;" d="M13.225,39.065c-0.259-1.349-0.262-2.724-0.007-4.074
		c0.309-1.634-2.194-2.334-2.505-0.69c-0.347,1.833-0.345,3.623,0.007,5.455C11.035,41.396,13.54,40.701,13.225,39.065"/>
	<path style="clip-path:url(#SVGID_2_);fill:#046A3A;" d="M13.327,53.186c-0.443-1.552-0.553-3.123-0.26-4.715
		c0.3-1.635-2.204-2.336-2.506-0.691c-0.378,2.056-0.314,4.082,0.26,6.097C11.279,55.481,13.787,54.799,13.327,53.186"/>
	<path style="clip-path:url(#SVGID_2_);fill:#046A3A;" d="M9.155,62.195v6.279c0,1.672,2.599,1.675,2.599,0v-6.279
		C11.753,60.523,9.155,60.521,9.155,62.195"/>
	<path style="clip-path:url(#SVGID_2_);fill:#046A3A;" d="M18.405,29.76c-0.406-1.134-0.497-2.256-0.203-3.429
		c0.406-1.623-2.099-2.314-2.505-0.691c-0.4,1.598-0.354,3.255,0.203,4.811C16.459,32.014,18.97,31.34,18.405,29.76"/>
	<path style="clip-path:url(#SVGID_2_);fill:#046A3A;" d="M15.949,38.323c-0.097,2.528-0.194,5.056-0.291,7.584
		c-0.064,1.672,2.535,1.669,2.599,0c0.097-2.528,0.194-5.056,0.291-7.584C18.611,36.65,16.013,36.653,15.949,38.323"/>
	<path style="clip-path:url(#SVGID_2_);fill:#046A3A;" d="M15.708,54.008c-0.355,1.907-0.369,3.764-0.057,5.678
		c0.269,1.646,2.772,0.947,2.505-0.691c-0.232-1.423-0.207-2.879,0.057-4.295C18.518,53.064,16.014,52.363,15.708,54.008"/>
	<path style="clip-path:url(#SVGID_2_);fill:#046A3A;" d="M18.017,73.269c-0.309-1.204-0.378-2.429-0.155-3.656
		c0.297-1.635-2.206-2.336-2.505-0.69c-0.309,1.697-0.275,3.363,0.154,5.038C15.926,75.578,18.433,74.893,18.017,73.269"/>
	<path style="clip-path:url(#SVGID_2_);fill:#046A3A;" d="M24.686,24.193c-0.042-0.342-0.084-0.685-0.126-1.027
		c-0.015-0.122-0.025-0.212-0.033-0.286c0.707-0.661,0.417-2.231-0.871-2.31c-1.118-0.069-1.762,0.977-1.76,1.985
		c0.002,1.268,0.31,2.605,0.464,3.863c0.086,0.702,0.536,1.292,1.299,1.299c0.637,0.007,1.385-0.603,1.299-1.299
		C24.867,25.678,24.776,24.936,24.686,24.193"/>
	<path style="clip-path:url(#SVGID_2_);fill:#046A3A;" d="M27.113,34.908c-0.154-1.65-2.754-1.667-2.599,0
		c0.148,1.588,0.296,3.175,0.444,4.763c0.154,1.651,2.754,1.667,2.599,0C27.41,38.083,27.261,36.496,27.113,34.908"/>
	<path style="clip-path:url(#SVGID_2_);fill:#046A3A;" d="M26.642,47.989c0.142-1.666-2.457-1.656-2.598,0
		c-0.136,1.591-0.162,3.179-0.079,4.773c0.086,1.664,2.685,1.675,2.598,0C26.48,51.168,26.507,49.58,26.642,47.989"/>
	<path style="clip-path:url(#SVGID_2_);fill:#046A3A;" d="M23.713,58.988c-0.424,2.13-0.559,4.26-0.348,6.424
		c0.161,1.649,2.761,1.666,2.598,0c-0.188-1.929-0.123-3.83,0.256-5.733C26.543,58.046,24.039,57.347,23.713,58.988"/>
	<path style="clip-path:url(#SVGID_2_);fill:#046A3A;" d="M25.387,79.019c-0.37-1.177-0.478-2.331-0.357-3.558
		c0.069-0.699-0.646-1.299-1.299-1.299c-0.76,0-1.23,0.598-1.299,1.299c-0.142,1.434,0.019,2.874,0.45,4.248
		C23.381,81.299,25.891,80.62,25.387,79.019"/>
	<path style="clip-path:url(#SVGID_2_);fill:#046A3A;" d="M34.744,28.036c-0.526-1.523-0.7-3.032-0.545-4.636
		c0.16-1.663-2.439-1.652-2.599,0c-0.174,1.807,0.045,3.611,0.638,5.326C32.781,30.298,35.292,29.623,34.744,28.036"/>
	<path style="clip-path:url(#SVGID_2_);fill:#046A3A;" d="M29.263,39.33v4.98c0,1.672,2.598,1.675,2.598,0v-4.98
		C31.861,37.658,29.263,37.655,29.263,39.33"/>
	<path style="clip-path:url(#SVGID_2_);fill:#046A3A;" d="M35.16,52.401c0.149-1.665-2.451-1.655-2.598,0
		c-0.142,1.591-0.17,3.179-0.084,4.773c0.089,1.663,2.688,1.674,2.598,0C34.99,55.58,35.019,53.992,35.16,52.401"/>
	<path style="clip-path:url(#SVGID_2_);fill:#046A3A;" d="M34.736,72.515c-0.438-1.965-0.603-3.929-0.529-5.939
		c0.061-1.673-2.537-1.67-2.598,0c-0.082,2.237,0.135,4.445,0.622,6.63C32.594,74.837,35.1,74.146,34.736,72.515"/>
	<path style="clip-path:url(#SVGID_2_);fill:#046A3A;" d="M39.46,24.98c-0.337-1.248-0.437-2.482-0.333-3.77
		c0.134-1.667-2.465-1.659-2.598,0c-0.121,1.504,0.033,3.004,0.426,4.46C37.391,27.283,39.898,26.599,39.46,24.98"/>
	<path style="clip-path:url(#SVGID_2_);fill:#046A3A;" d="M39.152,36.509c-0.402-1.327-0.56-2.695-0.363-4.075
		c0.101-0.7-0.172-1.387-0.907-1.598c-0.608-0.175-1.499,0.214-1.598,0.907c-0.266,1.854-0.183,3.657,0.362,5.457
		C37.13,38.795,39.639,38.115,39.152,36.509"/>
	<path style="clip-path:url(#SVGID_2_);fill:#046A3A;" d="M36.177,44.327c-0.349,1.685-0.358,3.334-0.042,5.025
		c0.306,1.642,2.811,0.946,2.505-0.691c-0.226-1.209-0.207-2.44,0.042-3.644C39.02,43.386,36.516,42.688,36.177,44.327"/>
	<path style="clip-path:url(#SVGID_2_);fill:#046A3A;" d="M36.896,59.441c-0.46,1.898-0.614,3.822-0.417,5.767
		c0.167,1.647,2.768,1.665,2.598,0c-0.175-1.721-0.083-3.395,0.324-5.076C39.796,58.508,37.291,57.814,36.896,59.441"/>
	<path style="clip-path:url(#SVGID_2_);fill:#046A3A;" d="M36.376,74.028v4.763c0,1.673,2.599,1.676,2.599,0v-4.763
		C38.975,72.355,36.376,72.354,36.376,74.028"/>
	<path style="clip-path:url(#SVGID_2_);fill:#046A3A;" d="M46.861,30.165c-0.468-1.523-0.646-3.035-0.556-4.625
		c0.094-1.67-2.504-1.665-2.599,0c-0.102,1.801,0.12,3.591,0.649,5.315C44.845,32.449,47.354,31.77,46.861,30.165"/>
	<path style="clip-path:url(#SVGID_2_);fill:#046A3A;" d="M46.826,41.46c-0.37-1.969-0.483-3.941-0.386-5.941
		c0.081-1.672-2.518-1.667-2.598,0c-0.108,2.233,0.066,4.435,0.479,6.631C44.629,43.792,47.134,43.097,46.826,41.46"/>
	<path style="clip-path:url(#SVGID_2_);fill:#046A3A;" d="M46.701,58.609c-0.451-2.181-0.634-4.363-0.583-6.589
		c0.039-1.673-2.56-1.672-2.599,0c-0.057,2.454,0.178,4.877,0.675,7.28C44.534,60.937,47.039,60.244,46.701,58.609"/>
	<path style="clip-path:url(#SVGID_2_);fill:#046A3A;" d="M46.518,73.313c-0.457-1.817-0.627-3.634-0.541-5.505
		c0.078-1.672-2.521-1.668-2.598,0c-0.097,2.093,0.123,4.164,0.634,6.195C44.42,75.625,46.927,74.938,46.518,73.313"/>
	<path style="clip-path:url(#SVGID_2_);fill:#046A3A;" d="M21.099,30.772c0.113-0.448,0.148-0.907,0.09-1.367
		c-0.029-0.228-0.164-0.425-0.401-0.425c-0.194,0-0.43,0.196-0.401,0.425c0.049,0.388,0.034,0.762-0.062,1.141
		C20.192,31.076,20.965,31.302,21.099,30.772"/>
	<path style="clip-path:url(#SVGID_2_);fill:#046A3A;" d="M21.888,43.325c0.113-0.448,0.148-0.907,0.09-1.367
		c-0.028-0.228-0.164-0.425-0.4-0.425c-0.194,0-0.43,0.196-0.401,0.425c0.049,0.388,0.034,0.762-0.062,1.141
		C20.981,43.628,21.754,43.854,21.888,43.325"/>
	<path style="clip-path:url(#SVGID_2_);fill:#046A3A;" d="M30.167,33.915c0.113-0.447,0.148-0.907,0.09-1.366
		c-0.029-0.228-0.164-0.425-0.401-0.425c-0.194,0-0.43,0.196-0.401,0.425c0.049,0.388,0.034,0.762-0.062,1.14
		C29.261,34.219,30.034,34.444,30.167,33.915"/>
	<path style="clip-path:url(#SVGID_2_);fill:#046A3A;" d="M29.598,62.417c0.113-0.447,0.148-0.907,0.09-1.366
		c-0.029-0.229-0.164-0.426-0.401-0.426c-0.194,0-0.43,0.196-0.4,0.426c0.049,0.388,0.034,0.762-0.062,1.14
		C28.691,62.721,29.465,62.946,29.598,62.417"/>
	<path style="clip-path:url(#SVGID_2_);fill:#046A3A;" d="M14.744,66.08c0.113-0.447,0.148-0.907,0.09-1.367
		c-0.029-0.228-0.164-0.425-0.401-0.425c-0.194,0-0.43,0.196-0.4,0.425c0.049,0.389,0.034,0.762-0.062,1.141
		C13.837,66.383,14.61,66.609,14.744,66.08"/>
	<path style="clip-path:url(#SVGID_2_);fill:#046A3A;" d="M25.448,72.179c0.113-0.448,0.148-0.907,0.09-1.366
		c-0.029-0.229-0.164-0.426-0.401-0.426c-0.194,0-0.43,0.195-0.401,0.426c0.049,0.388,0.034,0.762-0.062,1.14
		C24.542,72.481,25.314,72.708,25.448,72.179"/>
	<path style="clip-path:url(#SVGID_2_);fill:#046A3A;" d="M31.927,79.508c0.113-0.447,0.148-0.907,0.09-1.366
		c-0.029-0.228-0.164-0.426-0.401-0.426c-0.194,0-0.43,0.196-0.401,0.426c0.049,0.388,0.034,0.762-0.062,1.14
		C31.021,79.812,31.794,80.037,31.927,79.508"/>
	<path style="clip-path:url(#SVGID_2_);fill:#046A3A;" d="M39.688,71.139c0.113-0.447,0.148-0.907,0.09-1.366
		c-0.029-0.228-0.164-0.426-0.401-0.426c-0.194,0-0.43,0.196-0.401,0.426c0.049,0.388,0.034,0.762-0.061,1.14
		C38.782,71.442,39.555,71.668,39.688,71.139"/>
	<path style="clip-path:url(#SVGID_2_);fill:#046A3A;" d="M45.667,63.898c0.113-0.448,0.148-0.907,0.09-1.367
		c-0.029-0.228-0.164-0.425-0.401-0.425c-0.194,0-0.43,0.196-0.401,0.425c0.049,0.389,0.034,0.762-0.062,1.141
		C44.76,64.201,45.533,64.428,45.667,63.898"/>
	<path style="clip-path:url(#SVGID_2_);fill:#046A3A;" d="M42.149,43.325c0.113-0.448,0.148-0.907,0.09-1.367
		c-0.029-0.228-0.164-0.425-0.401-0.425c-0.194,0-0.43,0.196-0.4,0.425c0.049,0.388,0.034,0.762-0.062,1.141
		C41.242,43.628,42.016,43.854,42.149,43.325"/>
	<path style="clip-path:url(#SVGID_2_);fill:#046A3A;" d="M42.602,21.313c0.113-0.447,0.148-0.907,0.09-1.366
		c-0.029-0.228-0.164-0.426-0.401-0.426c-0.194,0-0.43,0.196-0.401,0.426c0.049,0.388,0.034,0.762-0.061,1.14
		C41.695,21.616,42.468,21.842,42.602,21.313"/>
	<path style="clip-path:url(#SVGID_2_);fill:#046A3A;" d="M31.474,49.503c0.113-0.448,0.148-0.907,0.09-1.367
		c-0.029-0.228-0.164-0.425-0.401-0.425c-0.194,0-0.43,0.196-0.401,0.425c0.049,0.389,0.034,0.762-0.062,1.141
		C30.568,49.807,31.341,50.033,31.474,49.503"/>
	<path style="clip-path:url(#SVGID_2_);fill:#046A3A;" d="M18.398,51.124c0.113-0.448,0.148-0.907,0.09-1.367
		c-0.028-0.228-0.164-0.425-0.4-0.425c-0.194,0-0.43,0.196-0.401,0.425c0.049,0.388,0.034,0.761-0.062,1.14
		C17.492,51.427,18.265,51.653,18.398,51.124"/>
	<path style="clip-path:url(#SVGID_2_);fill:#046A3A;" d="M49.921,48.75c0.113-0.447,0.148-0.907,0.091-1.366
		c-0.029-0.228-0.164-0.425-0.401-0.425c-0.194,0-0.43,0.196-0.401,0.425c0.049,0.388,0.034,0.762-0.062,1.14
		C49.015,49.053,49.788,49.279,49.921,48.75"/>
	<path style="clip-path:url(#SVGID_2_);fill:none;stroke:#046A3A;stroke-width:4;stroke-miterlimit:10;" d="M54.555,20.728
		c0.316-1.758-2.375-2.512-2.693-0.743c-0.369,2.051-0.372,4.046-0.013,6.098c0.31,1.768,3.003,1.019,2.694-0.743
		C54.275,23.814,54.281,22.251,54.555,20.728z"/>
	<path style="clip-path:url(#SVGID_2_);fill:none;stroke:#046A3A;stroke-width:4;stroke-miterlimit:10;" d="M55.018,38.608
		c-0.278-1.45-0.281-2.929-0.007-4.379c0.333-1.757-2.359-2.51-2.694-0.743c-0.372,1.971-0.371,3.895,0.008,5.865
		C52.663,41.115,55.356,40.368,55.018,38.608z"/>
	<path style="clip-path:url(#SVGID_2_);fill:none;stroke:#046A3A;stroke-width:4;stroke-miterlimit:10;" d="M55.127,53.791
		c-0.476-1.669-0.594-3.357-0.279-5.07c0.323-1.757-2.369-2.511-2.693-0.742c-0.406,2.21-0.339,4.389,0.279,6.555
		C52.926,56.26,55.622,55.525,55.127,53.791z"/>
	<path style="clip-path:url(#SVGID_2_);fill:none;stroke:#046A3A;stroke-width:4;stroke-miterlimit:10;" d="M50.642,63.478v6.752
		c0,1.798,2.794,1.801,2.794,0v-6.752C53.436,61.681,50.642,61.678,50.642,63.478z"/>
	<path style="clip-path:url(#SVGID_2_);fill:none;stroke:#046A3A;stroke-width:4;stroke-miterlimit:10;" d="M60.587,28.604
		c-0.437-1.219-0.533-2.426-0.218-3.687c0.438-1.744-2.257-2.488-2.693-0.743c-0.431,1.718-0.381,3.5,0.218,5.172
		C58.495,31.027,61.195,30.303,60.587,28.604z"/>
	<path style="clip-path:url(#SVGID_2_);fill:none;stroke:#046A3A;stroke-width:4;stroke-miterlimit:10;" d="M57.946,37.811
		c-0.104,2.718-0.208,5.437-0.313,8.154c-0.069,1.798,2.726,1.795,2.794,0c0.104-2.718,0.208-5.436,0.313-8.154
		C60.809,36.013,58.016,36.016,57.946,37.811z"/>
	<path style="clip-path:url(#SVGID_2_);fill:none;stroke:#046A3A;stroke-width:4;stroke-miterlimit:10;" d="M57.688,54.676
		c-0.382,2.05-0.396,4.046-0.061,6.104c0.288,1.77,2.98,1.019,2.693-0.742c-0.249-1.53-0.223-3.097,0.062-4.619
		C60.709,53.66,58.017,52.907,57.688,54.676z"/>
	<path style="clip-path:url(#SVGID_2_);fill:none;stroke:#046A3A;stroke-width:4;stroke-miterlimit:10;" d="M60.17,75.385
		c-0.332-1.295-0.406-2.612-0.166-3.932c0.319-1.758-2.373-2.512-2.694-0.742c-0.332,1.825-0.296,3.615,0.166,5.416
		C57.922,77.867,60.617,77.13,60.17,75.385z"/>
	<path style="clip-path:url(#SVGID_2_);fill:none;stroke:#046A3A;stroke-width:4;stroke-miterlimit:10;" d="M67.34,22.619
		c-0.045-0.369-0.09-0.737-0.135-1.105c-0.017-0.131-0.027-0.229-0.036-0.307c0.761-0.71,0.449-2.399-0.937-2.483
		c-1.202-0.074-1.895,1.05-1.892,2.135c0.002,1.363,0.333,2.801,0.499,4.154c0.092,0.755,0.576,1.389,1.396,1.397
		c0.685,0.007,1.488-0.648,1.396-1.397C67.535,24.214,67.438,23.417,67.34,22.619z"/>
	<path style="clip-path:url(#SVGID_2_);fill:none;stroke:#046A3A;stroke-width:4;stroke-miterlimit:10;" d="M68.775,32.93
		c-0.165-1.775-2.961-1.792-2.794,0c0.159,1.707,0.319,3.414,0.479,5.121c0.165,1.775,2.961,1.792,2.794,0
		C69.094,36.343,68.935,34.637,68.775,32.93z"/>
	<path style="clip-path:url(#SVGID_2_);fill:none;stroke:#046A3A;stroke-width:4;stroke-miterlimit:10;" d="M67.977,47.117
		c0.152-1.791-2.643-1.781-2.794,0c-0.146,1.71-0.175,3.418-0.085,5.133c0.093,1.788,2.887,1.799,2.793,0
		C67.802,50.535,67.83,48.827,67.977,47.117z"/>
	<path style="clip-path:url(#SVGID_2_);fill:none;stroke:#046A3A;stroke-width:4;stroke-miterlimit:10;" d="M65.257,58.842
		c-0.456,2.291-0.602,4.581-0.375,6.908c0.173,1.772,2.969,1.791,2.794,0c-0.202-2.074-0.132-4.119,0.274-6.165
		C68.3,57.829,65.607,57.077,65.257,58.842z"/>
	<path style="clip-path:url(#SVGID_2_);fill:none;stroke:#046A3A;stroke-width:4;stroke-miterlimit:10;" d="M68.266,79.823
		c-0.397-1.265-0.514-2.505-0.384-3.824c0.074-0.752-0.695-1.397-1.396-1.397c-0.817,0-1.323,0.644-1.397,1.397
		c-0.152,1.541,0.02,3.09,0.484,4.567C66.109,82.275,68.807,81.546,68.266,79.823z"/>
	<path style="clip-path:url(#SVGID_2_);fill:none;stroke:#046A3A;stroke-width:4;stroke-miterlimit:10;" d="M76.938,27.885
		c-0.565-1.638-0.752-3.26-0.586-4.984c0.173-1.789-2.622-1.776-2.793,0c-0.188,1.942,0.048,3.882,0.686,5.727
		C74.828,30.317,77.528,29.591,76.938,27.885z"/>
	<path style="clip-path:url(#SVGID_2_);fill:none;stroke:#046A3A;stroke-width:4;stroke-miterlimit:10;" d="M73.924,37.816v5.354
		c0,1.798,2.793,1.801,2.793,0v-5.354C76.717,36.019,73.924,36.016,73.924,37.816z"/>
	<path style="clip-path:url(#SVGID_2_);fill:none;stroke:#046A3A;stroke-width:4;stroke-miterlimit:10;" d="M76.595,52.239
		c0.16-1.79-2.635-1.78-2.794,0c-0.152,1.71-0.183,3.418-0.091,5.132c0.096,1.789,2.89,1.8,2.794,0
		C76.412,55.657,76.442,53.949,76.595,52.239z"/>
	<path style="clip-path:url(#SVGID_2_);fill:none;stroke:#046A3A;stroke-width:4;stroke-miterlimit:10;" d="M76.438,72.599
		c-0.471-2.112-0.648-4.224-0.569-6.386c0.065-1.799-2.729-1.796-2.794,0c-0.088,2.405,0.146,4.779,0.669,7.129
		C74.134,75.096,76.828,74.354,76.438,72.599z"/>
	<path style="clip-path:url(#SVGID_2_);fill:none;stroke:#046A3A;stroke-width:4;stroke-miterlimit:10;" d="M83.227,23.465
		c-0.363-1.342-0.47-2.669-0.359-4.054c0.145-1.792-2.65-1.783-2.793,0c-0.13,1.617,0.035,3.23,0.458,4.796
		C81.001,25.941,83.697,25.205,83.227,23.465z"/>
	<path style="clip-path:url(#SVGID_2_);fill:none;stroke:#046A3A;stroke-width:4;stroke-miterlimit:10;" d="M84.164,36.266
		c-0.432-1.426-0.602-2.898-0.39-4.382c0.108-0.752-0.186-1.491-0.976-1.718c-0.654-0.188-1.611,0.23-1.718,0.976
		c-0.286,1.994-0.197,3.932,0.39,5.867C81.99,38.725,84.688,37.993,84.164,36.266z"/>
	<path style="clip-path:url(#SVGID_2_);fill:none;stroke:#046A3A;stroke-width:4;stroke-miterlimit:10;" d="M81.436,45.363
		c-0.375,1.812-0.385,3.585-0.046,5.403c0.329,1.765,3.022,1.018,2.694-0.743c-0.243-1.3-0.223-2.623,0.045-3.917
		C84.492,44.351,81.8,43.601,81.436,45.363z"/>
	<path style="clip-path:url(#SVGID_2_);fill:none;stroke:#046A3A;stroke-width:4;stroke-miterlimit:10;" d="M81.846,59.318
		c-0.494,2.041-0.66,4.109-0.447,6.2c0.18,1.771,2.976,1.79,2.793,0c-0.188-1.85-0.09-3.65,0.349-5.458
		C84.963,58.314,82.27,57.569,81.846,59.318z"/>
	<path style="clip-path:url(#SVGID_2_);fill:none;stroke:#046A3A;stroke-width:4;stroke-miterlimit:10;" d="M80.908,74.135v5.122
		c0,1.798,2.793,1.801,2.793,0v-5.122C83.701,72.338,80.908,72.334,80.908,74.135z"/>
	<path style="clip-path:url(#SVGID_2_);fill:none;stroke:#046A3A;stroke-width:4;stroke-miterlimit:10;" d="M91.583,27.496
		c-0.503-1.637-0.695-3.263-0.599-4.972c0.102-1.796-2.692-1.791-2.793,0c-0.11,1.936,0.128,3.861,0.697,5.715
		C89.415,29.952,92.113,29.221,91.583,27.496z"/>
	<path style="clip-path:url(#SVGID_2_);fill:none;stroke:#046A3A;stroke-width:4;stroke-miterlimit:10;" d="M91.771,43.038
		c-0.398-2.117-0.52-4.237-0.416-6.388c0.087-1.797-2.707-1.792-2.793,0c-0.117,2.401,0.07,4.769,0.515,7.13
		C89.408,45.546,92.102,44.798,91.771,43.038z"/>
	<path style="clip-path:url(#SVGID_2_);fill:none;stroke:#046A3A;stroke-width:4;stroke-miterlimit:10;" d="M91.775,57.705
		c-0.485-2.345-0.682-4.691-0.627-7.084c0.042-1.799-2.752-1.798-2.793,0c-0.062,2.639,0.191,5.243,0.726,7.826
		C89.445,60.207,92.139,59.463,91.775,57.705z"/>
	<path style="clip-path:url(#SVGID_2_);fill:none;stroke:#046A3A;stroke-width:4;stroke-miterlimit:10;" d="M91.584,73.061
		c-0.492-1.954-0.675-3.906-0.582-5.919c0.083-1.797-2.711-1.793-2.794,0c-0.104,2.251,0.132,4.478,0.682,6.662
		C89.328,75.546,92.023,74.808,91.584,73.061z"/>
	<path style="clip-path:url(#SVGID_2_);fill:#046A3A;" d="M56.019,21.742c0.294-1.635-2.209-2.336-2.505-0.69
		c-0.344,1.907-0.346,3.763-0.012,5.671c0.288,1.645,2.793,0.948,2.506-0.69C55.759,24.613,55.764,23.16,56.019,21.742"/>
	<path style="clip-path:url(#SVGID_2_);fill:#046A3A;" d="M56.449,38.373c-0.259-1.348-0.262-2.724-0.006-4.073
		c0.309-1.634-2.195-2.334-2.506-0.691c-0.347,1.833-0.346,3.623,0.007,5.455C54.26,40.704,56.764,40.009,56.449,38.373"/>
	<path style="clip-path:url(#SVGID_2_);fill:#046A3A;" d="M56.551,52.493c-0.442-1.552-0.553-3.123-0.26-4.715
		c0.301-1.635-2.203-2.335-2.506-0.69c-0.377,2.056-0.314,4.083,0.261,6.097C54.504,54.789,57.012,54.107,56.551,52.493"/>
	<path style="clip-path:url(#SVGID_2_);fill:#046A3A;" d="M52.379,61.503v6.279c0,1.672,2.599,1.675,2.599,0v-6.279
		C54.978,59.831,52.379,59.828,52.379,61.503"/>
	<path style="clip-path:url(#SVGID_2_);fill:#046A3A;" d="M61.629,29.068c-0.405-1.134-0.496-2.256-0.202-3.429
		c0.406-1.622-2.099-2.314-2.506-0.69c-0.4,1.598-0.354,3.255,0.203,4.811C59.684,31.322,62.195,30.648,61.629,29.068"/>
	<path style="clip-path:url(#SVGID_2_);fill:#046A3A;" d="M59.173,37.631c-0.097,2.528-0.193,5.056-0.29,7.584
		c-0.064,1.672,2.534,1.669,2.598,0c0.098-2.528,0.194-5.056,0.291-7.584C61.836,35.958,59.237,35.961,59.173,37.631"/>
	<path style="clip-path:url(#SVGID_2_);fill:#046A3A;" d="M58.933,53.316c-0.355,1.906-0.368,3.764-0.057,5.677
		c0.269,1.646,2.772,0.947,2.506-0.691c-0.232-1.423-0.208-2.879,0.056-4.295C61.742,52.372,59.238,51.672,58.933,53.316"/>
	<path style="clip-path:url(#SVGID_2_);fill:#046A3A;" d="M61.241,72.577c-0.31-1.204-0.378-2.43-0.155-3.657
		c0.298-1.635-2.206-2.336-2.505-0.69c-0.309,1.698-0.275,3.363,0.154,5.038C59.15,74.887,61.657,74.2,61.241,72.577"/>
	<path style="clip-path:url(#SVGID_2_);fill:#046A3A;" d="M67.91,23.501c-0.042-0.342-0.084-0.685-0.126-1.027
		c-0.015-0.122-0.025-0.212-0.033-0.286c0.707-0.66,0.417-2.231-0.871-2.31c-1.118-0.068-1.762,0.977-1.76,1.986
		c0.002,1.268,0.31,2.604,0.464,3.863c0.086,0.702,0.536,1.291,1.299,1.299c0.637,0.006,1.385-0.603,1.3-1.299
		C68.092,24.985,68.001,24.243,67.91,23.501"/>
	<path style="clip-path:url(#SVGID_2_);fill:#046A3A;" d="M70.338,34.216c-0.154-1.651-2.754-1.667-2.599,0
		c0.148,1.587,0.296,3.175,0.444,4.763c0.154,1.651,2.754,1.667,2.599,0C70.634,37.392,70.485,35.804,70.338,34.216"/>
	<path style="clip-path:url(#SVGID_2_);fill:#046A3A;" d="M69.867,47.297c0.142-1.666-2.458-1.656-2.599,0
		c-0.136,1.591-0.162,3.18-0.079,4.773c0.086,1.664,2.685,1.674,2.598,0C69.705,50.477,69.73,48.887,69.867,47.297"/>
	<path style="clip-path:url(#SVGID_2_);fill:#046A3A;" d="M66.938,58.296c-0.424,2.13-0.559,4.261-0.349,6.425
		c0.161,1.648,2.761,1.666,2.599,0c-0.188-1.93-0.123-3.831,0.256-5.734C69.768,57.354,67.264,56.654,66.938,58.296"/>
	<path style="clip-path:url(#SVGID_2_);fill:#046A3A;" d="M68.611,78.326c-0.369-1.177-0.478-2.33-0.356-3.557
		c0.068-0.699-0.646-1.3-1.3-1.3c-0.76,0-1.229,0.599-1.299,1.3c-0.142,1.434,0.019,2.874,0.45,4.248
		C66.605,80.607,69.115,79.928,68.611,78.326"/>
	<path style="clip-path:url(#SVGID_2_);fill:#046A3A;" d="M77.969,27.344c-0.526-1.523-0.7-3.032-0.545-4.635
		c0.16-1.664-2.439-1.652-2.599,0c-0.174,1.807,0.046,3.611,0.638,5.326C76.006,29.606,78.517,28.931,77.969,27.344"/>
	<path style="clip-path:url(#SVGID_2_);fill:#046A3A;" d="M72.487,38.638v4.98c0,1.672,2.599,1.675,2.599,0v-4.98
		C75.086,36.966,72.487,36.963,72.487,38.638"/>
	<path style="clip-path:url(#SVGID_2_);fill:#046A3A;" d="M78.385,51.709c0.148-1.665-2.451-1.654-2.599,0
		c-0.142,1.591-0.17,3.18-0.084,4.773c0.089,1.664,2.688,1.674,2.598,0C78.215,54.889,78.243,53.3,78.385,51.709"/>
	<path style="clip-path:url(#SVGID_2_);fill:#046A3A;" d="M77.961,71.822c-0.438-1.965-0.603-3.928-0.529-5.939
		c0.061-1.673-2.537-1.67-2.599,0c-0.081,2.237,0.136,4.445,0.622,6.631C75.818,74.145,78.324,73.455,77.961,71.822"/>
	<path style="clip-path:url(#SVGID_2_);fill:#046A3A;" d="M82.686,24.288c-0.338-1.248-0.438-2.482-0.334-3.77
		c0.134-1.667-2.466-1.658-2.599,0c-0.12,1.504,0.033,3.004,0.427,4.46C80.615,26.591,83.123,25.907,82.686,24.288"/>
	<path style="clip-path:url(#SVGID_2_);fill:#046A3A;" d="M82.376,35.817c-0.401-1.327-0.56-2.696-0.362-4.076
		c0.101-0.7-0.173-1.387-0.907-1.598c-0.608-0.175-1.499,0.213-1.599,0.907c-0.266,1.854-0.183,3.656,0.363,5.457
		C80.354,38.104,82.863,37.423,82.376,35.817"/>
	<path style="clip-path:url(#SVGID_2_);fill:#046A3A;" d="M79.401,43.635c-0.349,1.686-0.358,3.334-0.043,5.025
		c0.307,1.642,2.812,0.946,2.506-0.691c-0.226-1.209-0.206-2.44,0.042-3.644C82.244,42.694,79.74,41.996,79.401,43.635"/>
	<path style="clip-path:url(#SVGID_2_);fill:#046A3A;" d="M80.121,58.749c-0.46,1.898-0.614,3.822-0.416,5.767
		c0.167,1.647,2.768,1.665,2.598,0c-0.175-1.72-0.084-3.395,0.324-5.075C83.021,57.815,80.516,57.122,80.121,58.749"/>
	<path style="clip-path:url(#SVGID_2_);fill:#046A3A;" d="M79.602,73.336V78.1c0,1.672,2.598,1.675,2.598,0v-4.764
		C82.199,71.664,79.602,71.661,79.602,73.336"/>
	<path style="clip-path:url(#SVGID_2_);fill:#046A3A;" d="M90.086,29.473c-0.468-1.523-0.646-3.035-0.557-4.625
		c0.095-1.67-2.504-1.666-2.598,0c-0.103,1.801,0.119,3.591,0.648,5.315C88.069,31.757,90.579,31.078,90.086,29.473"/>
	<path style="clip-path:url(#SVGID_2_);fill:#046A3A;" d="M90.051,40.768c-0.37-1.969-0.483-3.941-0.387-5.941
		c0.081-1.671-2.518-1.667-2.598,0c-0.108,2.233,0.066,4.435,0.479,6.632C87.854,43.101,90.358,42.405,90.051,40.768"/>
	<path style="clip-path:url(#SVGID_2_);fill:#046A3A;" d="M89.925,57.918c-0.451-2.182-0.634-4.363-0.582-6.589
		c0.038-1.673-2.56-1.672-2.599,0c-0.057,2.453,0.178,4.876,0.676,7.279C87.758,60.245,90.264,59.552,89.925,57.918"/>
	<path style="clip-path:url(#SVGID_2_);fill:#046A3A;" d="M89.743,72.621c-0.458-1.817-0.628-3.634-0.542-5.505
		c0.078-1.672-2.521-1.668-2.598,0c-0.098,2.093,0.123,4.164,0.634,6.195C87.645,74.933,90.151,74.246,89.743,72.621"/>
	<path style="clip-path:url(#SVGID_2_);fill:#046A3A;" d="M64.323,30.08c0.112-0.447,0.148-0.907,0.09-1.366
		c-0.028-0.228-0.163-0.425-0.4-0.425c-0.194,0-0.43,0.196-0.401,0.425c0.049,0.388,0.034,0.762-0.062,1.14
		C63.417,30.384,64.189,30.609,64.323,30.08"/>
	<path style="clip-path:url(#SVGID_2_);fill:#046A3A;" d="M65.112,42.633c0.112-0.447,0.147-0.907,0.09-1.366
		c-0.028-0.228-0.163-0.425-0.4-0.425c-0.194,0-0.43,0.196-0.401,0.425c0.049,0.388,0.034,0.762-0.062,1.14
		C64.206,42.937,64.979,43.162,65.112,42.633"/>
	<path style="clip-path:url(#SVGID_2_);fill:#046A3A;" d="M73.392,33.223c0.113-0.447,0.148-0.907,0.09-1.367
		c-0.028-0.228-0.163-0.425-0.4-0.425c-0.194,0-0.43,0.196-0.401,0.425c0.05,0.389,0.034,0.762-0.061,1.141
		C72.485,33.526,73.258,33.752,73.392,33.223"/>
	<path style="clip-path:url(#SVGID_2_);fill:#046A3A;" d="M72.822,61.725c0.113-0.447,0.148-0.907,0.09-1.366
		c-0.028-0.228-0.163-0.426-0.4-0.426c-0.194,0-0.43,0.196-0.4,0.426c0.049,0.388,0.033,0.762-0.062,1.141
		C71.916,62.028,72.689,62.254,72.822,61.725"/>
	<path style="clip-path:url(#SVGID_2_);fill:#046A3A;" d="M57.968,65.388c0.113-0.447,0.148-0.907,0.091-1.366
		c-0.029-0.228-0.164-0.426-0.401-0.426c-0.194,0-0.43,0.196-0.4,0.426c0.049,0.389,0.033,0.762-0.062,1.141
		C57.062,65.691,57.835,65.917,57.968,65.388"/>
	<path style="clip-path:url(#SVGID_2_);fill:#046A3A;" d="M68.673,71.486c0.112-0.447,0.147-0.907,0.09-1.366
		c-0.028-0.228-0.164-0.426-0.401-0.426c-0.193,0-0.43,0.196-0.4,0.426c0.049,0.388,0.034,0.762-0.062,1.14
		C67.766,71.79,68.539,72.016,68.673,71.486"/>
	<path style="clip-path:url(#SVGID_2_);fill:#046A3A;" d="M75.152,78.815c0.112-0.447,0.147-0.906,0.09-1.366
		c-0.029-0.228-0.164-0.426-0.401-0.426c-0.194,0-0.43,0.196-0.4,0.426c0.049,0.389,0.034,0.762-0.062,1.141
		C74.245,79.119,75.019,79.345,75.152,78.815"/>
	<path style="clip-path:url(#SVGID_2_);fill:#046A3A;" d="M82.913,70.446c0.112-0.447,0.147-0.907,0.09-1.366
		c-0.028-0.228-0.163-0.426-0.401-0.426c-0.193,0-0.43,0.196-0.4,0.426c0.049,0.389,0.034,0.762-0.062,1.141
		C82.006,70.75,82.779,70.976,82.913,70.446"/>
	<path style="clip-path:url(#SVGID_2_);fill:#046A3A;" d="M88.892,63.206c0.112-0.447,0.147-0.907,0.09-1.366
		c-0.028-0.229-0.164-0.426-0.401-0.426c-0.193,0-0.43,0.196-0.4,0.426c0.049,0.388,0.034,0.762-0.062,1.14
		C87.984,63.51,88.758,63.735,88.892,63.206"/>
	<path style="clip-path:url(#SVGID_2_);fill:#046A3A;" d="M85.373,42.633c0.113-0.447,0.148-0.907,0.09-1.366
		c-0.028-0.228-0.163-0.425-0.4-0.425c-0.194,0-0.43,0.196-0.4,0.425c0.049,0.388,0.033,0.762-0.062,1.14
		C84.467,42.937,85.24,43.162,85.373,42.633"/>
	<path style="clip-path:url(#SVGID_2_);fill:#046A3A;" d="M85.826,20.621c0.113-0.448,0.148-0.907,0.09-1.367
		c-0.028-0.228-0.163-0.425-0.4-0.425c-0.194,0-0.43,0.196-0.4,0.425c0.049,0.389,0.033,0.762-0.062,1.141
		C84.92,20.924,85.693,21.15,85.826,20.621"/>
	<path style="clip-path:url(#SVGID_2_);fill:#046A3A;" d="M74.699,48.812c0.112-0.448,0.147-0.907,0.09-1.367
		c-0.029-0.228-0.164-0.425-0.401-0.425c-0.193,0-0.43,0.196-0.4,0.425c0.049,0.388,0.034,0.762-0.062,1.14
		C73.792,49.115,74.565,49.341,74.699,48.812"/>
	<path style="clip-path:url(#SVGID_2_);fill:#046A3A;" d="M61.623,50.432c0.113-0.448,0.148-0.907,0.09-1.367
		c-0.028-0.228-0.163-0.425-0.4-0.425c-0.194,0-0.43,0.196-0.401,0.425c0.05,0.389,0.034,0.762-0.062,1.14
		C60.717,50.735,61.489,50.961,61.623,50.432"/>
	<path style="clip-path:url(#SVGID_2_);fill:#046A3A;" d="M93.146,48.058c0.113-0.448,0.148-0.907,0.09-1.367
		c-0.028-0.228-0.163-0.425-0.4-0.425c-0.194,0-0.43,0.196-0.401,0.425c0.05,0.389,0.034,0.762-0.061,1.141
		C92.239,48.361,93.012,48.587,93.146,48.058"/>
</g>
</svg>
