<?xml version="1.0" encoding="utf-8"?>
<!-- Generator: Adobe Illustrator 16.0.0, SVG Export Plug-In . SVG Version: 6.00 Build 0)  -->
<!DOCTYPE svg PUBLIC "-//W3C//DTD SVG 1.1//EN" "http://www.w3.org/Graphics/SVG/1.1/DTD/svg11.dtd">
<svg version="1.1" id="Layer_1" xmlns="http://www.w3.org/2000/svg" xmlns:xlink="http://www.w3.org/1999/xlink" x="0px" y="0px"
	 width="100px" height="100px" viewBox="0 0 100 100" style="enable-background:new 0 0 100 100;" xml:space="preserve">
<polygon style="fill:#046A3A;" points="99.425,0 96.376,3.049 96.376,5.078 96.379,5.081 98.412,5.081 100,3.493 100,0 "/>
<polygon style="fill:#046A3A;" points="97.394,6.099 96.376,5.082 96.376,7.116 "/>
<polygon style="fill:#046A3A;" points="97.396,6.097 98.412,5.081 96.379,5.081 "/>
<polygon style="fill:#046A3A;" points="96.376,13.048 96.376,13.048 96.376,15.078 96.379,15.081 98.412,15.081 99.999,13.493 
	99.999,9.425 "/>
<polygon style="fill:#046A3A;" points="97.394,16.099 96.376,15.082 96.376,17.116 "/>
<polygon style="fill:#046A3A;" points="97.396,16.097 98.412,15.081 96.379,15.081 "/>
<polygon style="fill:#046A3A;" points="96.376,23.048 96.376,23.049 96.376,23.048 96.376,25.078 96.379,25.081 98.412,25.081 
	99.999,23.493 99.999,19.425 "/>
<polygon style="fill:#046A3A;" points="97.394,26.099 96.376,25.082 96.376,27.116 "/>
<polygon style="fill:#046A3A;" points="97.396,26.097 98.412,25.081 96.379,25.081 "/>
<polygon style="fill:#046A3A;" points="96.376,33.048 96.376,33.048 96.376,35.078 96.379,35.081 98.412,35.081 99.999,33.493 
	99.999,29.425 "/>
<polygon style="fill:#046A3A;" points="97.394,36.099 96.376,35.082 96.376,37.116 "/>
<polygon style="fill:#046A3A;" points="97.396,36.097 98.412,35.081 96.379,35.081 "/>
<polygon style="fill:#046A3A;" points="96.376,43.049 96.376,43.049 96.376,45.078 96.379,45.08 98.412,45.08 99.999,43.493 
	99.999,39.425 "/>
<polygon style="fill:#046A3A;" points="97.394,46.099 96.376,45.082 96.376,47.116 "/>
<polygon style="fill:#046A3A;" points="97.396,46.098 98.412,45.08 96.379,45.08 "/>
<polygon style="fill:#046A3A;" points="96.376,53.049 96.376,53.049 96.376,55.078 96.379,55.08 98.412,55.08 99.999,53.493 
	99.999,49.426 "/>
<polygon style="fill:#046A3A;" points="97.394,56.099 96.376,55.082 96.376,57.116 "/>
<polygon style="fill:#046A3A;" points="97.396,56.098 98.412,55.08 96.379,55.08 "/>
<polygon style="fill:#046A3A;" points="96.376,63.048 96.376,63.049 96.376,63.048 96.376,65.078 96.376,65.078 96.376,65.078 
	96.379,65.081 98.412,65.081 99.999,63.493 99.999,59.426 "/>
<polygon style="fill:#046A3A;" points="97.394,66.099 96.376,65.081 96.376,67.116 "/>
<polygon style="fill:#046A3A;" points="97.396,66.097 98.412,65.081 96.379,65.081 "/>
<polygon style="fill:#046A3A;" points="96.376,73.049 96.376,73.049 96.376,73.049 96.376,75.078 96.376,75.078 96.376,75.078 
	96.379,75.081 98.412,75.081 99.999,73.493 99.999,69.426 "/>
<polygon style="fill:#046A3A;" points="97.394,76.099 96.376,75.081 96.376,77.116 "/>
<polygon style="fill:#046A3A;" points="97.396,76.097 98.412,75.081 96.379,75.081 "/>
<polygon style="fill:#046A3A;" points="96.376,83.048 96.376,83.048 96.376,85.078 96.379,85.08 96.379,85.08 96.379,85.08 
	98.412,85.08 99.999,83.493 99.999,79.426 "/>
<polygon style="fill:#046A3A;" points="97.394,86.099 96.376,85.081 96.376,87.116 "/>
<polygon style="fill:#046A3A;" points="96.379,85.08 96.379,85.08 97.396,86.097 98.412,85.08 "/>
<polygon style="fill:#046A3A;" points="96.376,93.048 96.376,93.048 96.376,95.078 96.379,95.08 98.412,95.08 99.999,93.493 
	99.999,89.425 "/>
<polygon style="fill:#046A3A;" points="97.394,96.099 96.376,95.081 96.376,97.116 "/>
<polygon style="fill:#046A3A;" points="97.396,96.097 98.412,95.081 96.379,95.081 "/>
<polygon style="fill:#046A3A;" points="99.999,100 99.999,99.425 99.425,100 "/>
<polygon style="fill:#046A3A;" points="96.376,3.049 96.376,3.049 95.361,4.063 96.376,5.078 "/>
<polygon style="fill:#046A3A;" points="95.359,4.065 94.344,5.081 96.375,5.081 "/>
<polygon style="fill:#046A3A;" points="86.376,3.049 86.376,5.078 86.379,5.081 88.412,5.081 93.492,0 89.425,0 "/>
<polygon style="fill:#046A3A;" points="96.376,13.048 96.376,13.048 95.361,14.063 96.376,15.078 "/>
<polygon style="fill:#046A3A;" points="87.394,6.099 86.376,5.082 86.376,7.116 "/>
<polygon style="fill:#046A3A;" points="95.359,14.065 94.344,15.081 96.375,15.081 "/>
<polygon style="fill:#046A3A;" points="87.396,6.097 88.412,5.081 86.379,5.081 "/>
<polygon style="fill:#046A3A;" points="96.375,5.081 94.344,5.081 86.376,13.048 86.376,15.078 86.379,15.081 88.412,15.081 
	96.376,7.116 96.376,5.082 "/>
<polygon style="fill:#046A3A;" points="96.376,23.048 96.376,23.049 95.361,24.063 96.376,25.078 "/>
<polygon style="fill:#046A3A;" points="87.394,16.099 86.376,15.082 86.376,17.116 "/>
<polygon style="fill:#046A3A;" points="95.359,24.065 94.344,25.081 96.375,25.081 "/>
<polygon style="fill:#046A3A;" points="87.396,16.097 88.412,15.081 86.379,15.081 "/>
<polygon style="fill:#046A3A;" points="96.375,15.081 94.344,15.081 86.376,23.048 86.376,25.078 86.379,25.081 88.412,25.081 
	96.376,17.116 96.376,15.082 "/>
<polygon style="fill:#046A3A;" points="96.376,33.048 96.376,33.048 95.361,34.063 96.376,35.078 "/>
<polygon style="fill:#046A3A;" points="87.394,26.099 86.376,25.082 86.376,27.116 "/>
<polygon style="fill:#046A3A;" points="95.359,34.065 94.344,35.081 96.375,35.081 "/>
<polygon style="fill:#046A3A;" points="87.396,26.097 88.412,25.081 86.379,25.081 "/>
<polygon style="fill:#046A3A;" points="96.375,25.081 94.344,25.081 86.376,33.048 86.376,35.078 86.379,35.081 88.412,35.081 
	96.376,27.116 96.376,27.116 96.376,25.082 96.376,25.082 "/>
<polygon style="fill:#046A3A;" points="96.376,43.049 96.376,43.049 95.361,44.063 96.376,45.078 "/>
<polygon style="fill:#046A3A;" points="87.394,36.099 86.376,35.082 86.376,37.116 "/>
<polygon style="fill:#046A3A;" points="95.359,44.064 94.344,45.08 96.375,45.08 "/>
<polygon style="fill:#046A3A;" points="87.396,36.097 88.412,35.081 86.379,35.081 "/>
<polygon style="fill:#046A3A;" points="96.375,35.081 94.344,35.081 86.376,43.049 86.376,45.078 86.379,45.08 88.412,45.08 
	96.376,37.116 96.376,35.082 96.376,35.082 "/>
<polygon style="fill:#046A3A;" points="96.376,53.049 96.376,53.049 95.361,54.063 96.376,55.078 "/>
<polygon style="fill:#046A3A;" points="87.394,46.099 86.376,45.082 86.376,47.116 "/>
<polygon style="fill:#046A3A;" points="95.359,54.064 94.344,55.08 96.375,55.08 "/>
<polygon style="fill:#046A3A;" points="87.396,46.098 88.412,45.08 86.379,45.08 "/>
<polygon style="fill:#046A3A;" points="96.375,45.08 94.344,45.08 86.376,53.049 86.376,55.078 86.379,55.08 88.412,55.08 
	96.376,47.116 96.376,45.082 "/>
<polygon style="fill:#046A3A;" points="96.376,63.048 96.376,63.049 95.361,64.063 96.376,65.078 96.376,65.078 "/>
<polygon style="fill:#046A3A;" points="87.394,56.099 86.376,55.082 86.376,57.116 "/>
<polygon style="fill:#046A3A;" points="95.359,64.064 94.344,65.081 96.375,65.081 "/>
<polygon style="fill:#046A3A;" points="87.396,56.098 88.412,55.08 86.379,55.08 "/>
<polygon style="fill:#046A3A;" points="96.375,55.08 94.344,55.08 86.376,63.048 86.376,65.078 86.379,65.081 88.412,65.081 
	96.376,57.116 96.376,55.082 "/>
<polygon style="fill:#046A3A;" points="96.376,73.049 96.376,73.049 95.361,74.063 96.376,75.078 96.376,75.078 "/>
<polygon style="fill:#046A3A;" points="87.394,66.099 86.376,65.081 86.376,67.116 "/>
<polygon style="fill:#046A3A;" points="95.359,74.064 94.344,75.081 96.375,75.081 "/>
<polygon style="fill:#046A3A;" points="87.396,66.097 88.412,65.081 86.379,65.081 "/>
<polygon style="fill:#046A3A;" points="96.375,65.081 94.344,65.081 86.376,73.049 86.376,75.078 86.379,75.081 88.412,75.081 
	96.376,67.116 96.376,67.116 96.376,65.082 96.376,65.081 "/>
<polygon style="fill:#046A3A;" points="96.376,83.048 96.376,83.048 95.361,84.063 96.376,85.078 "/>
<polygon style="fill:#046A3A;" points="87.394,76.099 86.376,75.081 86.376,77.116 "/>
<polygon style="fill:#046A3A;" points="95.359,84.064 94.344,85.08 96.375,85.08 "/>
<polygon style="fill:#046A3A;" points="87.396,76.097 88.412,75.081 86.379,75.081 "/>
<polygon style="fill:#046A3A;" points="96.375,75.081 94.344,75.081 86.376,83.048 86.376,85.078 86.379,85.08 88.412,85.08 
	96.376,77.116 96.376,77.116 96.376,75.081 "/>
<polygon style="fill:#046A3A;" points="96.376,93.048 96.376,93.048 95.361,94.063 96.376,95.078 "/>
<polygon style="fill:#046A3A;" points="87.394,86.099 86.376,85.081 86.376,87.116 "/>
<polygon style="fill:#046A3A;" points="95.359,94.064 94.344,95.081 96.375,95.081 "/>
<polygon style="fill:#046A3A;" points="86.379,85.08 86.379,85.08 87.396,86.097 88.412,85.08 "/>
<polygon style="fill:#046A3A;" points="96.375,85.08 96.375,85.08 94.344,85.08 86.376,93.048 86.376,95.078 86.379,95.081 
	88.412,95.081 96.376,87.116 96.376,85.081 "/>
<polygon style="fill:#046A3A;" points="87.394,96.099 86.376,95.081 86.376,97.116 "/>
<polygon style="fill:#046A3A;" points="87.396,96.097 88.412,95.081 86.379,95.081 "/>
<polygon style="fill:#046A3A;" points="96.376,97.116 96.376,97.116 96.376,95.081 96.375,95.081 94.344,95.081 89.425,100 
	93.492,100 "/>
<polygon style="fill:#046A3A;" points="85.361,4.063 86.376,5.078 86.376,3.049 "/>
<polygon style="fill:#046A3A;" points="85.359,4.065 84.344,5.081 86.375,5.081 "/>
<polygon style="fill:#046A3A;" points="76.376,3.049 76.376,5.078 76.379,5.081 78.412,5.081 83.493,0 79.425,0 "/>
<polygon style="fill:#046A3A;" points="85.361,14.063 86.376,15.078 86.376,13.048 "/>
<polygon style="fill:#046A3A;" points="76.376,7.116 77.394,6.099 76.376,5.082 "/>
<polygon style="fill:#046A3A;" points="85.359,14.065 84.344,15.081 86.375,15.081 "/>
<polygon style="fill:#046A3A;" points="77.396,6.097 78.412,5.081 76.379,5.081 "/>
<polygon style="fill:#046A3A;" points="86.376,5.082 86.375,5.081 84.344,5.081 76.376,13.049 76.376,15.078 76.379,15.081 
	78.412,15.081 86.376,7.116 "/>
<polygon style="fill:#046A3A;" points="85.361,24.063 86.376,25.078 86.376,23.048 "/>
<polygon style="fill:#046A3A;" points="77.394,16.099 76.376,15.082 76.376,17.116 "/>
<polygon style="fill:#046A3A;" points="85.359,24.065 84.344,25.081 86.375,25.081 "/>
<polygon style="fill:#046A3A;" points="77.396,16.097 78.412,15.081 76.379,15.081 "/>
<polygon style="fill:#046A3A;" points="86.376,15.082 86.375,15.081 84.344,15.081 76.376,23.048 76.376,25.078 76.379,25.081 
	78.412,25.081 86.376,17.116 "/>
<polygon style="fill:#046A3A;" points="85.361,34.063 86.376,35.078 86.376,33.048 "/>
<polygon style="fill:#046A3A;" points="77.394,26.099 76.376,25.082 76.376,27.116 "/>
<polygon style="fill:#046A3A;" points="85.359,34.065 84.344,35.081 86.375,35.081 "/>
<polygon style="fill:#046A3A;" points="77.396,26.097 78.412,25.081 76.379,25.081 "/>
<polygon style="fill:#046A3A;" points="86.376,25.082 86.375,25.081 84.344,25.081 76.376,33.048 76.376,35.078 76.379,35.081 
	78.412,35.081 86.376,27.116 "/>
<polygon style="fill:#046A3A;" points="85.361,44.063 86.376,45.078 86.376,43.049 "/>
<polygon style="fill:#046A3A;" points="77.394,36.099 76.376,35.082 76.376,37.116 "/>
<polygon style="fill:#046A3A;" points="85.359,44.064 84.344,45.08 86.375,45.08 "/>
<polygon style="fill:#046A3A;" points="77.396,36.097 78.412,35.081 76.379,35.081 "/>
<polygon style="fill:#046A3A;" points="86.376,35.082 86.375,35.081 84.344,35.081 76.376,43.049 76.376,45.078 76.379,45.08 
	78.412,45.08 86.376,37.116 "/>
<polygon style="fill:#046A3A;" points="85.361,54.063 86.376,55.078 86.376,53.049 "/>
<polygon style="fill:#046A3A;" points="77.394,46.099 76.376,45.082 76.376,47.116 "/>
<polygon style="fill:#046A3A;" points="85.359,54.064 84.344,55.08 86.375,55.08 "/>
<polygon style="fill:#046A3A;" points="77.396,46.098 78.412,45.08 76.379,45.08 "/>
<polygon style="fill:#046A3A;" points="86.376,45.082 86.375,45.08 84.344,45.08 76.376,53.049 76.376,55.078 76.379,55.08 
	78.412,55.08 86.376,47.116 "/>
<polygon style="fill:#046A3A;" points="85.361,64.063 86.376,65.078 86.376,63.048 "/>
<polygon style="fill:#046A3A;" points="77.394,56.099 76.376,55.082 76.376,57.116 "/>
<polygon style="fill:#046A3A;" points="85.359,64.064 84.344,65.081 86.375,65.081 "/>
<polygon style="fill:#046A3A;" points="77.396,56.098 78.412,55.08 76.379,55.08 "/>
<polygon style="fill:#046A3A;" points="86.376,55.082 86.375,55.08 84.344,55.08 76.376,63.048 76.376,65.078 76.379,65.081 
	78.412,65.081 86.376,57.116 "/>
<polygon style="fill:#046A3A;" points="85.361,74.063 86.376,75.078 86.376,73.049 "/>
<polygon style="fill:#046A3A;" points="77.394,66.099 76.376,65.081 76.376,67.116 "/>
<polygon style="fill:#046A3A;" points="85.359,74.064 84.344,75.081 86.375,75.081 "/>
<polygon style="fill:#046A3A;" points="77.396,66.097 78.412,65.081 76.379,65.081 "/>
<polygon style="fill:#046A3A;" points="86.376,65.081 86.375,65.081 84.344,65.081 76.376,73.049 76.376,75.078 76.379,75.081 
	78.412,75.081 86.376,67.116 "/>
<polygon style="fill:#046A3A;" points="85.361,84.063 86.376,85.078 86.376,83.048 "/>
<polygon style="fill:#046A3A;" points="77.394,76.099 76.376,75.081 76.376,77.116 "/>
<polygon style="fill:#046A3A;" points="85.359,84.064 84.344,85.08 86.375,85.08 "/>
<polygon style="fill:#046A3A;" points="77.396,76.097 78.412,75.081 76.379,75.081 "/>
<polygon style="fill:#046A3A;" points="76.379,85.08 76.379,85.08 78.412,85.08 86.376,77.116 86.376,75.081 86.375,75.081 
	84.344,75.081 76.376,83.048 76.376,85.078 "/>
<polygon style="fill:#046A3A;" points="85.361,94.063 86.376,95.078 86.376,93.048 "/>
<polygon style="fill:#046A3A;" points="77.394,86.099 76.376,85.081 76.376,87.116 "/>
<polygon style="fill:#046A3A;" points="85.359,94.064 84.344,95.081 86.375,95.081 "/>
<polygon style="fill:#046A3A;" points="76.379,85.08 76.379,85.08 77.396,86.097 78.412,85.08 "/>
<polygon style="fill:#046A3A;" points="76.379,95.081 78.412,95.081 86.376,87.116 86.376,85.081 86.375,85.08 84.344,85.08 
	76.376,93.048 76.376,95.078 "/>
<polygon style="fill:#046A3A;" points="77.394,96.099 76.376,95.081 76.376,97.116 "/>
<polygon style="fill:#046A3A;" points="77.396,96.097 78.412,95.081 76.379,95.081 "/>
<polygon style="fill:#046A3A;" points="86.376,97.116 86.376,95.081 86.375,95.081 84.344,95.081 79.425,100 83.493,100 "/>
<polygon style="fill:#046A3A;" points="75.361,4.063 76.376,5.078 76.376,3.049 "/>
<polygon style="fill:#046A3A;" points="75.359,4.065 74.344,5.081 76.375,5.081 "/>
<polygon style="fill:#046A3A;" points="66.376,3.049 66.376,5.078 66.379,5.081 68.412,5.081 73.493,0 69.425,0 "/>
<polygon style="fill:#046A3A;" points="75.361,14.063 76.376,15.078 76.376,13.048 "/>
<polygon style="fill:#046A3A;" points="66.376,7.116 67.394,6.099 66.376,5.082 "/>
<polygon style="fill:#046A3A;" points="75.359,14.065 74.344,15.081 76.375,15.081 "/>
<polygon style="fill:#046A3A;" points="67.396,6.097 68.412,5.081 66.379,5.081 "/>
<polygon style="fill:#046A3A;" points="76.375,5.081 74.344,5.081 66.376,13.048 66.376,15.078 66.379,15.081 68.412,15.081 
	76.376,7.116 76.376,5.082 "/>
<polygon style="fill:#046A3A;" points="75.361,24.063 76.376,25.078 76.376,23.048 "/>
<polygon style="fill:#046A3A;" points="66.376,17.116 67.394,16.099 66.376,15.082 "/>
<polygon style="fill:#046A3A;" points="75.359,24.065 74.344,25.081 76.375,25.081 "/>
<polygon style="fill:#046A3A;" points="67.396,16.097 68.412,15.081 66.379,15.081 "/>
<polygon style="fill:#046A3A;" points="76.376,15.082 76.375,15.081 74.344,15.081 66.376,23.048 66.376,25.078 66.379,25.081 
	68.412,25.081 76.376,17.116 "/>
<polygon style="fill:#046A3A;" points="75.361,34.063 76.376,35.078 76.376,33.048 "/>
<polygon style="fill:#046A3A;" points="67.394,26.099 66.376,25.082 66.376,27.116 "/>
<polygon style="fill:#046A3A;" points="75.359,34.065 74.344,35.081 76.375,35.081 "/>
<polygon style="fill:#046A3A;" points="67.396,26.097 68.412,25.081 66.379,25.081 "/>
<polygon style="fill:#046A3A;" points="76.376,25.082 76.375,25.081 74.344,25.081 66.376,33.048 66.376,35.078 66.379,35.081 
	68.412,35.081 76.376,27.116 "/>
<polygon style="fill:#046A3A;" points="75.361,44.063 76.376,45.078 76.376,43.049 "/>
<polygon style="fill:#046A3A;" points="67.394,36.099 66.376,35.082 66.376,37.116 "/>
<polygon style="fill:#046A3A;" points="75.359,44.064 74.344,45.08 76.375,45.08 "/>
<polygon style="fill:#046A3A;" points="67.396,36.097 68.412,35.081 66.379,35.081 "/>
<polygon style="fill:#046A3A;" points="76.376,35.082 76.375,35.081 74.344,35.081 66.376,43.049 66.376,45.078 66.379,45.08 
	68.412,45.08 76.376,37.116 "/>
<polygon style="fill:#046A3A;" points="75.361,54.063 76.376,55.078 76.376,53.049 "/>
<polygon style="fill:#046A3A;" points="67.394,46.099 66.376,45.082 66.376,47.116 "/>
<polygon style="fill:#046A3A;" points="75.359,54.064 74.344,55.08 76.375,55.08 "/>
<polygon style="fill:#046A3A;" points="67.396,46.098 68.412,45.08 66.379,45.08 "/>
<polygon style="fill:#046A3A;" points="76.376,45.082 76.375,45.08 74.344,45.08 66.376,53.049 66.376,55.078 66.379,55.08 
	68.412,55.08 76.376,47.116 "/>
<polygon style="fill:#046A3A;" points="75.361,64.063 76.376,65.078 76.376,63.048 "/>
<polygon style="fill:#046A3A;" points="67.394,56.099 66.376,55.082 66.376,57.116 "/>
<polygon style="fill:#046A3A;" points="75.359,64.064 74.344,65.081 76.375,65.081 "/>
<polygon style="fill:#046A3A;" points="67.396,56.098 68.412,55.08 66.379,55.08 "/>
<polygon style="fill:#046A3A;" points="76.376,55.082 76.375,55.08 74.344,55.08 66.376,63.048 66.376,65.078 66.379,65.081 
	68.412,65.081 76.376,57.116 "/>
<polygon style="fill:#046A3A;" points="75.361,74.063 76.376,75.078 76.376,73.049 "/>
<polygon style="fill:#046A3A;" points="67.394,66.099 66.376,65.081 66.376,67.116 "/>
<polygon style="fill:#046A3A;" points="75.359,74.064 74.344,75.081 76.375,75.081 "/>
<polygon style="fill:#046A3A;" points="67.396,66.097 68.412,65.081 66.379,65.081 "/>
<polygon style="fill:#046A3A;" points="66.379,75.081 68.412,75.081 76.376,67.116 76.376,65.081 76.375,65.081 74.344,65.081 
	66.376,73.049 66.376,75.078 "/>
<polygon style="fill:#046A3A;" points="76.376,83.048 75.361,84.063 76.376,85.078 "/>
<polygon style="fill:#046A3A;" points="67.394,76.099 66.376,75.081 66.376,77.116 "/>
<polygon style="fill:#046A3A;" points="75.359,84.064 74.344,85.08 76.375,85.08 "/>
<polygon style="fill:#046A3A;" points="67.396,76.097 68.412,75.081 66.379,75.081 "/>
<polygon style="fill:#046A3A;" points="66.379,85.08 66.379,85.08 68.412,85.08 76.376,77.116 76.376,75.081 76.375,75.081 
	74.344,75.081 66.376,83.048 66.376,85.078 "/>
<polygon style="fill:#046A3A;" points="76.376,93.048 75.361,94.063 76.376,95.078 "/>
<polygon style="fill:#046A3A;" points="67.394,86.099 66.376,85.081 66.376,87.116 "/>
<polygon style="fill:#046A3A;" points="75.359,94.064 74.344,95.081 76.375,95.081 "/>
<polygon style="fill:#046A3A;" points="66.379,85.08 66.379,85.08 67.396,86.097 68.412,85.08 "/>
<polygon style="fill:#046A3A;" points="66.379,95.081 68.412,95.081 76.376,87.116 76.376,85.081 76.375,85.08 74.344,85.08 
	66.376,93.048 66.376,95.078 "/>
<polygon style="fill:#046A3A;" points="67.394,96.099 66.376,95.081 66.376,97.116 "/>
<polygon style="fill:#046A3A;" points="67.396,96.097 68.412,95.081 66.379,95.081 "/>
<polygon style="fill:#046A3A;" points="76.376,97.116 76.376,95.081 76.375,95.081 74.344,95.081 69.425,100 73.493,100 "/>
<polygon style="fill:#046A3A;" points="65.361,4.063 66.376,5.078 66.376,3.049 "/>
<polygon style="fill:#046A3A;" points="65.359,4.065 64.344,5.081 66.376,5.081 "/>
<polygon style="fill:#046A3A;" points="56.377,3.049 56.377,3.049 56.377,5.078 56.379,5.081 58.412,5.081 63.493,0 59.425,0 "/>
<polygon style="fill:#046A3A;" points="65.361,14.063 66.376,15.078 66.376,13.048 "/>
<polygon style="fill:#046A3A;" points="57.394,6.099 56.377,5.082 56.377,7.116 "/>
<polygon style="fill:#046A3A;" points="65.359,14.065 64.344,15.081 66.376,15.081 "/>
<polygon style="fill:#046A3A;" points="57.396,6.097 58.412,5.081 56.379,5.081 "/>
<polygon style="fill:#046A3A;" points="66.376,5.081 64.344,5.081 56.377,13.048 56.377,13.049 56.377,13.048 56.377,15.078 
	56.379,15.081 58.412,15.081 66.376,7.116 66.376,5.082 "/>
<polygon style="fill:#046A3A;" points="65.361,24.063 66.376,25.078 66.376,23.048 "/>
<polygon style="fill:#046A3A;" points="57.394,16.099 56.377,15.082 56.377,17.116 "/>
<polygon style="fill:#046A3A;" points="65.359,24.065 64.344,25.081 66.376,25.081 "/>
<polygon style="fill:#046A3A;" points="57.396,16.097 58.412,15.081 56.379,15.081 "/>
<polygon style="fill:#046A3A;" points="66.376,15.081 64.344,15.081 56.377,23.048 56.377,23.048 56.377,23.048 56.377,25.078 
	56.377,25.078 56.377,25.078 56.379,25.081 58.412,25.081 66.376,17.116 66.376,15.082 "/>
<polygon style="fill:#046A3A;" points="65.361,34.063 66.376,35.078 66.376,33.048 "/>
<polygon style="fill:#046A3A;" points="57.394,26.099 56.377,25.082 56.377,27.116 "/>
<polygon style="fill:#046A3A;" points="65.359,34.065 64.344,35.081 66.376,35.081 "/>
<polygon style="fill:#046A3A;" points="57.396,26.097 58.412,25.081 56.379,25.081 "/>
<polygon style="fill:#046A3A;" points="66.376,25.082 66.376,25.081 64.344,25.081 56.377,33.048 56.377,35.078 56.379,35.081 
	58.412,35.081 66.376,27.116 "/>
<polygon style="fill:#046A3A;" points="65.361,44.063 66.376,45.078 66.376,43.049 "/>
<polygon style="fill:#046A3A;" points="57.394,36.099 56.377,35.082 56.377,37.116 "/>
<polygon style="fill:#046A3A;" points="65.359,44.064 64.344,45.08 66.376,45.08 "/>
<polygon style="fill:#046A3A;" points="57.396,36.097 58.412,35.081 56.379,35.081 "/>
<polygon style="fill:#046A3A;" points="66.376,35.082 66.376,35.081 64.344,35.081 56.377,43.049 56.377,45.078 56.379,45.08 
	58.412,45.08 66.376,37.116 "/>
<polygon style="fill:#046A3A;" points="65.361,54.063 66.376,55.078 66.376,53.049 "/>
<polygon style="fill:#046A3A;" points="57.394,46.099 56.377,45.082 56.377,47.116 "/>
<polygon style="fill:#046A3A;" points="65.359,54.064 64.344,55.08 66.376,55.08 "/>
<polygon style="fill:#046A3A;" points="57.396,46.098 58.412,45.08 56.379,45.08 "/>
<polygon style="fill:#046A3A;" points="66.376,45.082 66.376,45.08 64.344,45.08 56.377,53.049 56.377,55.078 56.379,55.08 
	58.412,55.08 66.376,47.116 "/>
<polygon style="fill:#046A3A;" points="65.361,64.063 66.376,65.078 66.376,63.048 "/>
<polygon style="fill:#046A3A;" points="57.394,56.099 56.377,55.082 56.377,57.116 "/>
<polygon style="fill:#046A3A;" points="65.359,64.064 64.344,65.081 66.376,65.081 "/>
<polygon style="fill:#046A3A;" points="57.396,56.098 58.412,55.08 56.379,55.08 "/>
<polygon style="fill:#046A3A;" points="56.379,65.081 58.412,65.081 66.376,57.116 66.376,55.082 66.376,55.08 64.344,55.08 
	56.377,63.048 56.377,63.049 56.377,63.048 56.377,65.078 56.377,65.077 56.377,65.078 "/>
<polygon style="fill:#046A3A;" points="66.376,73.049 65.361,74.063 66.376,75.078 "/>
<polygon style="fill:#046A3A;" points="57.394,66.099 56.377,65.081 56.377,67.116 "/>
<polygon style="fill:#046A3A;" points="65.359,74.064 64.344,75.081 66.376,75.081 "/>
<polygon style="fill:#046A3A;" points="57.396,66.097 58.412,65.081 56.379,65.081 "/>
<polygon style="fill:#046A3A;" points="56.379,75.081 58.412,75.081 66.376,67.116 66.376,65.081 66.376,65.081 64.344,65.081 
	56.377,73.049 56.377,75.078 56.377,75.077 56.377,75.078 "/>
<polygon style="fill:#046A3A;" points="66.376,83.048 65.361,84.063 66.376,85.078 "/>
<polygon style="fill:#046A3A;" points="57.394,76.099 56.377,75.081 56.377,77.116 "/>
<polygon style="fill:#046A3A;" points="65.359,84.064 64.344,85.08 66.376,85.08 "/>
<polygon style="fill:#046A3A;" points="57.396,76.097 58.412,75.081 56.379,75.081 "/>
<polygon style="fill:#046A3A;" points="56.379,85.08 56.379,85.08 56.379,85.08 58.412,85.08 66.376,77.116 66.376,75.081 
	66.376,75.081 64.344,75.081 56.377,83.048 56.377,85.078 "/>
<polygon style="fill:#046A3A;" points="66.376,93.048 65.361,94.063 66.376,95.078 "/>
<polygon style="fill:#046A3A;" points="57.394,86.099 56.377,85.081 56.377,87.116 "/>
<polygon style="fill:#046A3A;" points="65.359,94.064 64.344,95.081 66.376,95.081 "/>
<polygon style="fill:#046A3A;" points="56.379,85.08 56.379,85.08 57.396,86.097 58.412,85.08 "/>
<polygon style="fill:#046A3A;" points="56.379,95.081 58.412,95.081 66.376,87.116 66.376,85.081 66.376,85.08 64.344,85.08 
	56.377,93.048 56.377,95.078 "/>
<polygon style="fill:#046A3A;" points="57.394,96.099 56.377,95.081 56.377,97.116 "/>
<polygon style="fill:#046A3A;" points="57.396,96.097 58.412,95.081 56.379,95.081 "/>
<polygon style="fill:#046A3A;" points="66.376,97.116 66.376,95.081 66.376,95.081 64.344,95.081 59.425,100 63.493,100 "/>
<polygon style="fill:#046A3A;" points="56.377,3.049 56.377,3.049 55.361,4.063 56.377,5.078 "/>
<polygon style="fill:#046A3A;" points="55.359,4.065 54.344,5.081 56.375,5.081 "/>
<polygon style="fill:#046A3A;" points="46.376,3.049 46.376,5.078 46.379,5.081 48.412,5.081 53.493,0 49.425,0 "/>
<polygon style="fill:#046A3A;" points="56.377,13.048 56.377,13.048 55.361,14.063 56.377,15.078 "/>
<polygon style="fill:#046A3A;" points="46.376,7.116 47.394,6.099 46.376,5.082 "/>
<polygon style="fill:#046A3A;" points="55.359,14.065 54.344,15.081 56.375,15.081 "/>
<polygon style="fill:#046A3A;" points="47.396,6.097 48.412,5.081 46.379,5.081 "/>
<polygon style="fill:#046A3A;" points="56.375,5.081 54.344,5.081 46.376,13.048 46.376,15.078 46.379,15.081 48.412,15.081 
	56.377,7.116 56.377,5.082 "/>
<polygon style="fill:#046A3A;" points="56.377,23.048 56.377,23.049 55.361,24.063 56.377,25.078 "/>
<polygon style="fill:#046A3A;" points="46.376,17.116 47.394,16.099 46.376,15.082 "/>
<polygon style="fill:#046A3A;" points="55.359,24.065 54.344,25.081 56.375,25.081 "/>
<polygon style="fill:#046A3A;" points="47.396,16.097 48.412,15.081 46.379,15.081 "/>
<polygon style="fill:#046A3A;" points="56.375,15.081 54.344,15.081 46.376,23.048 46.376,25.078 46.379,25.081 48.412,25.081 
	56.377,17.116 56.377,15.082 "/>
<polygon style="fill:#046A3A;" points="56.377,33.048 56.377,33.048 55.361,34.063 56.377,35.078 "/>
<polygon style="fill:#046A3A;" points="46.376,27.116 47.394,26.099 46.376,25.082 "/>
<polygon style="fill:#046A3A;" points="55.359,34.065 54.344,35.081 56.375,35.081 "/>
<polygon style="fill:#046A3A;" points="47.396,26.097 48.412,25.081 46.379,25.081 "/>
<polygon style="fill:#046A3A;" points="56.375,25.081 54.344,25.081 46.376,33.048 46.376,35.078 46.379,35.081 48.412,35.081 
	56.377,27.116 56.377,27.116 56.377,25.082 56.377,25.082 "/>
<polygon style="fill:#046A3A;" points="56.377,43.049 56.377,43.049 55.361,44.063 56.377,45.078 "/>
<polygon style="fill:#046A3A;" points="46.376,37.116 47.394,36.099 46.376,35.082 "/>
<polygon style="fill:#046A3A;" points="55.359,44.064 54.344,45.08 56.375,45.08 "/>
<polygon style="fill:#046A3A;" points="47.396,36.097 48.412,35.081 46.379,35.081 "/>
<polygon style="fill:#046A3A;" points="56.375,35.081 54.344,35.081 46.376,43.049 46.376,45.078 46.379,45.08 48.412,45.08 
	56.377,37.116 56.377,35.082 56.377,35.082 "/>
<polygon style="fill:#046A3A;" points="56.377,53.049 56.377,53.049 55.361,54.063 56.377,55.078 "/>
<polygon style="fill:#046A3A;" points="47.394,46.099 46.376,45.082 46.376,47.116 "/>
<polygon style="fill:#046A3A;" points="55.359,54.064 54.344,55.08 56.375,55.08 "/>
<polygon style="fill:#046A3A;" points="47.396,46.098 48.412,45.08 46.379,45.08 "/>
<polygon style="fill:#046A3A;" points="56.375,45.08 54.344,45.08 46.376,53.049 46.376,55.078 46.379,55.08 48.412,55.08 
	56.377,47.116 56.377,45.082 "/>
<polygon style="fill:#046A3A;" points="56.377,63.048 56.377,63.049 55.361,64.063 56.377,65.078 56.377,65.078 "/>
<polygon style="fill:#046A3A;" points="47.394,56.099 46.376,55.082 46.376,57.116 "/>
<polygon style="fill:#046A3A;" points="55.359,64.064 54.344,65.081 56.375,65.081 "/>
<polygon style="fill:#046A3A;" points="47.396,56.098 48.412,55.08 46.379,55.08 "/>
<polygon style="fill:#046A3A;" points="46.379,65.081 48.412,65.081 56.377,57.116 56.377,55.082 56.375,55.08 54.344,55.08 
	46.376,63.048 46.376,65.078 "/>
<polygon style="fill:#046A3A;" points="56.377,73.049 56.377,73.049 55.361,74.063 56.377,75.078 56.377,75.078 "/>
<polygon style="fill:#046A3A;" points="47.394,66.099 46.376,65.081 46.376,67.116 "/>
<polygon style="fill:#046A3A;" points="55.359,74.064 54.344,75.081 56.375,75.081 "/>
<polygon style="fill:#046A3A;" points="47.396,66.097 48.412,65.081 46.379,65.081 "/>
<polygon style="fill:#046A3A;" points="46.379,75.081 48.412,75.081 56.377,67.116 56.377,67.116 56.377,65.082 56.377,65.081 
	56.375,65.081 54.344,65.081 46.376,73.049 46.376,75.078 "/>
<polygon style="fill:#046A3A;" points="56.377,83.048 56.377,83.048 55.361,84.063 56.377,85.078 "/>
<polygon style="fill:#046A3A;" points="47.394,76.099 46.376,75.081 46.376,77.116 "/>
<polygon style="fill:#046A3A;" points="55.359,84.064 54.344,85.08 56.375,85.08 "/>
<polygon style="fill:#046A3A;" points="47.396,76.097 48.412,75.081 46.379,75.081 "/>
<polygon style="fill:#046A3A;" points="46.379,85.08 46.379,85.08 48.412,85.08 56.377,77.116 56.377,77.116 56.377,75.081 
	56.375,75.081 54.344,75.081 46.376,83.048 46.376,85.078 "/>
<polygon style="fill:#046A3A;" points="56.377,93.048 56.377,93.048 55.361,94.063 56.377,95.078 "/>
<polygon style="fill:#046A3A;" points="47.394,86.099 46.376,85.081 46.376,87.116 "/>
<polygon style="fill:#046A3A;" points="55.359,94.064 54.344,95.081 56.375,95.081 "/>
<polygon style="fill:#046A3A;" points="46.379,85.08 46.379,85.08 47.396,86.097 48.412,85.08 "/>
<polygon style="fill:#046A3A;" points="46.379,95.081 48.412,95.081 56.377,87.116 56.377,85.081 56.375,85.08 54.344,85.08 
	46.376,93.048 46.376,95.078 "/>
<polygon style="fill:#046A3A;" points="47.394,96.099 46.376,95.081 46.376,97.116 "/>
<polygon style="fill:#046A3A;" points="47.396,96.097 48.412,95.081 46.379,95.081 "/>
<polygon style="fill:#046A3A;" points="56.377,97.116 56.377,97.116 56.377,95.081 56.375,95.081 54.344,95.081 49.425,100 
	53.492,100 "/>
<polygon style="fill:#046A3A;" points="45.361,4.063 46.376,5.078 46.376,3.049 "/>
<polygon style="fill:#046A3A;" points="45.36,4.065 44.344,5.081 46.375,5.081 "/>
<polygon style="fill:#046A3A;" points="36.376,3.049 36.376,5.078 36.379,5.081 38.412,5.081 43.493,0 39.425,0 "/>
<polygon style="fill:#046A3A;" points="45.361,14.063 46.376,15.078 46.376,13.048 "/>
<polygon style="fill:#046A3A;" points="36.376,7.116 37.394,6.099 36.376,5.082 "/>
<polygon style="fill:#046A3A;" points="45.36,14.065 44.344,15.081 46.375,15.081 "/>
<polygon style="fill:#046A3A;" points="37.396,6.097 38.412,5.081 36.379,5.081 "/>
<polygon style="fill:#046A3A;" points="46.375,5.081 44.344,5.081 36.376,13.048 36.376,15.078 36.379,15.081 38.412,15.081 
	46.376,7.116 46.376,5.082 "/>
<polygon style="fill:#046A3A;" points="45.361,24.063 46.376,25.078 46.376,23.048 "/>
<polygon style="fill:#046A3A;" points="36.376,17.116 37.394,16.099 36.376,15.082 "/>
<polygon style="fill:#046A3A;" points="45.36,24.065 44.344,25.081 46.375,25.081 "/>
<polygon style="fill:#046A3A;" points="37.396,16.097 38.412,15.081 36.379,15.081 "/>
<polygon style="fill:#046A3A;" points="46.375,15.081 44.344,15.081 36.376,23.048 36.376,25.078 36.379,25.081 38.412,25.081 
	46.376,17.116 46.376,15.082 "/>
<polygon style="fill:#046A3A;" points="45.361,34.063 46.376,35.078 46.376,33.048 "/>
<polygon style="fill:#046A3A;" points="36.376,27.116 37.394,26.099 36.376,25.082 "/>
<polygon style="fill:#046A3A;" points="45.36,34.065 44.344,35.081 46.375,35.081 "/>
<polygon style="fill:#046A3A;" points="37.396,26.097 38.412,25.081 36.379,25.081 "/>
<polygon style="fill:#046A3A;" points="46.375,25.081 44.344,25.081 36.376,33.048 36.376,35.078 36.379,35.081 38.412,35.081 
	46.376,27.116 46.376,25.082 "/>
<polygon style="fill:#046A3A;" points="45.361,44.063 46.376,45.078 46.376,43.049 "/>
<polygon style="fill:#046A3A;" points="37.394,36.099 36.376,35.082 36.376,37.116 "/>
<polygon style="fill:#046A3A;" points="45.36,44.064 44.344,45.08 46.375,45.08 "/>
<polygon style="fill:#046A3A;" points="37.396,36.097 38.412,35.081 36.379,35.081 "/>
<polygon style="fill:#046A3A;" points="46.375,35.081 44.344,35.081 36.376,43.049 36.376,45.078 36.379,45.08 38.412,45.08 
	46.376,37.116 46.376,35.082 "/>
<polygon style="fill:#046A3A;" points="45.361,54.063 46.376,55.078 46.376,53.049 "/>
<polygon style="fill:#046A3A;" points="37.394,46.099 36.376,45.082 36.376,47.116 "/>
<polygon style="fill:#046A3A;" points="45.36,54.064 44.344,55.08 46.375,55.08 "/>
<polygon style="fill:#046A3A;" points="37.396,46.098 38.412,45.08 36.379,45.08 "/>
<polygon style="fill:#046A3A;" points="36.376,55.078 36.379,55.08 38.412,55.08 46.376,47.116 46.376,45.082 46.375,45.08 
	44.344,45.08 36.376,53.049 "/>
<polygon style="fill:#046A3A;" points="46.376,63.048 45.361,64.063 46.376,65.078 "/>
<polygon style="fill:#046A3A;" points="37.394,56.099 36.376,55.082 36.376,57.116 "/>
<polygon style="fill:#046A3A;" points="45.36,64.064 44.344,65.081 46.375,65.081 "/>
<polygon style="fill:#046A3A;" points="37.396,56.098 38.412,55.08 36.379,55.08 "/>
<polygon style="fill:#046A3A;" points="36.376,65.078 36.379,65.081 38.412,65.081 46.376,57.116 46.376,55.082 46.375,55.08 
	44.344,55.08 36.376,63.048 "/>
<polygon style="fill:#046A3A;" points="46.376,73.049 45.361,74.063 46.376,75.078 "/>
<polygon style="fill:#046A3A;" points="37.394,66.099 36.376,65.081 36.376,67.116 "/>
<polygon style="fill:#046A3A;" points="45.36,74.064 44.344,75.081 46.375,75.081 "/>
<polygon style="fill:#046A3A;" points="37.396,66.097 38.412,65.081 36.379,65.081 "/>
<polygon style="fill:#046A3A;" points="36.379,75.081 38.412,75.081 46.376,67.116 46.376,65.081 46.375,65.081 44.344,65.081 
	36.376,73.049 36.376,75.078 "/>
<polygon style="fill:#046A3A;" points="46.376,83.048 45.361,84.063 46.376,85.078 "/>
<polygon style="fill:#046A3A;" points="37.394,76.099 36.376,75.081 36.376,77.116 "/>
<polygon style="fill:#046A3A;" points="45.36,84.064 44.344,85.08 46.375,85.08 "/>
<polygon style="fill:#046A3A;" points="37.396,76.097 38.412,75.081 36.379,75.081 "/>
<polygon style="fill:#046A3A;" points="36.379,85.08 36.379,85.08 38.412,85.08 46.376,77.116 46.376,75.081 46.375,75.081 
	44.344,75.081 36.376,83.048 36.376,85.078 "/>
<polygon style="fill:#046A3A;" points="46.376,93.048 45.361,94.063 46.376,95.078 "/>
<polygon style="fill:#046A3A;" points="37.394,86.099 36.376,85.081 36.376,87.116 "/>
<polygon style="fill:#046A3A;" points="45.36,94.064 44.344,95.081 46.375,95.081 "/>
<polygon style="fill:#046A3A;" points="36.379,85.08 36.379,85.08 37.396,86.097 38.412,85.08 "/>
<polygon style="fill:#046A3A;" points="36.379,95.081 38.412,95.081 46.376,87.116 46.376,85.081 46.375,85.08 44.344,85.08 
	36.376,93.048 36.376,95.078 "/>
<polygon style="fill:#046A3A;" points="37.394,96.099 36.376,95.081 36.376,97.116 "/>
<polygon style="fill:#046A3A;" points="37.396,96.097 38.412,95.081 36.379,95.081 "/>
<polygon style="fill:#046A3A;" points="46.376,97.116 46.376,95.081 46.375,95.081 44.344,95.081 39.425,100 43.493,100 "/>
<polygon style="fill:#046A3A;" points="35.362,4.063 36.376,5.078 36.376,3.049 "/>
<polygon style="fill:#046A3A;" points="35.36,4.065 34.344,5.081 36.375,5.081 "/>
<polygon style="fill:#046A3A;" points="26.376,3.049 26.376,5.078 26.379,5.081 28.412,5.081 33.493,0 29.425,0 "/>
<polygon style="fill:#046A3A;" points="35.362,14.063 36.376,15.078 36.376,13.048 "/>
<polygon style="fill:#046A3A;" points="26.376,7.116 27.394,6.099 26.376,5.082 "/>
<polygon style="fill:#046A3A;" points="35.36,14.065 34.344,15.081 36.375,15.081 "/>
<polygon style="fill:#046A3A;" points="27.396,6.097 28.412,5.081 26.379,5.081 "/>
<polygon style="fill:#046A3A;" points="36.375,5.081 34.344,5.081 26.376,13.048 26.376,15.078 26.379,15.081 28.412,15.081 
	36.376,7.116 36.376,5.082 "/>
<polygon style="fill:#046A3A;" points="35.362,24.063 36.376,25.078 36.376,23.048 "/>
<polygon style="fill:#046A3A;" points="27.394,16.099 26.376,15.082 26.376,17.116 "/>
<polygon style="fill:#046A3A;" points="35.36,24.065 34.344,25.081 36.375,25.081 "/>
<polygon style="fill:#046A3A;" points="27.396,16.097 28.412,15.081 26.379,15.081 "/>
<polygon style="fill:#046A3A;" points="36.375,15.081 34.344,15.081 26.376,23.048 26.376,25.078 26.379,25.081 28.412,25.081 
	36.376,17.116 36.376,15.082 "/>
<polygon style="fill:#046A3A;" points="35.362,34.063 36.376,35.078 36.376,33.048 "/>
<polygon style="fill:#046A3A;" points="27.394,26.099 26.376,25.082 26.376,27.116 "/>
<polygon style="fill:#046A3A;" points="35.36,34.065 34.344,35.081 36.375,35.081 "/>
<polygon style="fill:#046A3A;" points="27.396,26.097 28.412,25.081 26.379,25.081 "/>
<polygon style="fill:#046A3A;" points="36.375,25.081 34.344,25.081 26.376,33.048 26.376,35.078 26.379,35.081 28.412,35.081 
	36.376,27.116 36.376,25.082 "/>
<polygon style="fill:#046A3A;" points="35.362,44.063 36.376,45.078 36.376,43.049 "/>
<polygon style="fill:#046A3A;" points="27.394,36.099 26.376,35.082 26.376,37.116 "/>
<polygon style="fill:#046A3A;" points="35.36,44.064 34.344,45.08 36.375,45.08 "/>
<polygon style="fill:#046A3A;" points="27.396,36.097 28.412,35.081 26.379,35.081 "/>
<polygon style="fill:#046A3A;" points="26.376,45.078 26.379,45.08 28.412,45.08 36.376,37.116 36.376,35.082 36.375,35.081 
	34.344,35.081 26.376,43.049 "/>
<polygon style="fill:#046A3A;" points="35.362,54.063 36.376,55.078 36.376,53.049 "/>
<polygon style="fill:#046A3A;" points="27.394,46.099 26.376,45.082 26.376,47.116 "/>
<polygon style="fill:#046A3A;" points="35.36,54.064 34.344,55.08 36.375,55.08 "/>
<polygon style="fill:#046A3A;" points="27.396,46.098 28.412,45.08 26.379,45.08 "/>
<polygon style="fill:#046A3A;" points="26.376,55.078 26.379,55.08 28.412,55.08 36.376,47.116 36.376,45.082 36.375,45.08 
	34.344,45.08 26.376,53.049 "/>
<polygon style="fill:#046A3A;" points="35.362,64.063 36.376,65.078 36.376,63.048 "/>
<polygon style="fill:#046A3A;" points="27.394,56.099 26.376,55.082 26.376,57.116 "/>
<polygon style="fill:#046A3A;" points="35.36,64.064 34.344,65.081 36.375,65.081 "/>
<polygon style="fill:#046A3A;" points="27.396,56.098 28.412,55.08 26.379,55.08 "/>
<polygon style="fill:#046A3A;" points="26.376,65.078 26.379,65.081 28.412,65.081 36.376,57.116 36.376,55.082 36.375,55.08 
	34.344,55.08 26.376,63.048 "/>
<polygon style="fill:#046A3A;" points="36.376,73.049 35.361,74.063 36.376,75.078 "/>
<polygon style="fill:#046A3A;" points="27.394,66.099 26.376,65.081 26.376,67.116 "/>
<polygon style="fill:#046A3A;" points="35.36,74.064 34.344,75.081 36.375,75.081 "/>
<polygon style="fill:#046A3A;" points="27.396,66.097 28.412,65.081 26.379,65.081 "/>
<polygon style="fill:#046A3A;" points="26.376,75.078 26.379,75.081 28.412,75.081 36.376,67.116 36.376,65.081 36.375,65.081 
	34.344,65.081 26.376,73.049 "/>
<polygon style="fill:#046A3A;" points="36.376,83.048 35.361,84.063 36.376,85.078 "/>
<polygon style="fill:#046A3A;" points="27.394,76.099 26.376,75.081 26.376,77.116 "/>
<polygon style="fill:#046A3A;" points="35.36,84.064 34.344,85.08 36.375,85.08 "/>
<polygon style="fill:#046A3A;" points="27.396,76.097 28.412,75.081 26.379,75.081 "/>
<polygon style="fill:#046A3A;" points="26.379,85.08 26.379,85.08 28.412,85.08 36.376,77.116 36.376,75.081 36.375,75.081 
	34.344,75.081 26.376,83.048 26.376,85.078 "/>
<polygon style="fill:#046A3A;" points="36.376,93.048 35.361,94.063 36.376,95.078 "/>
<polygon style="fill:#046A3A;" points="27.394,86.099 26.376,85.081 26.376,87.116 "/>
<polygon style="fill:#046A3A;" points="35.36,94.064 34.344,95.081 36.375,95.081 "/>
<polygon style="fill:#046A3A;" points="26.379,85.08 26.379,85.08 27.396,86.097 28.412,85.08 "/>
<polygon style="fill:#046A3A;" points="26.379,95.081 28.412,95.081 36.376,87.116 36.376,85.081 36.375,85.08 34.344,85.08 
	26.376,93.048 26.376,95.078 "/>
<polygon style="fill:#046A3A;" points="27.394,96.099 26.376,95.081 26.376,97.116 "/>
<polygon style="fill:#046A3A;" points="27.396,96.097 28.412,95.081 26.379,95.081 "/>
<polygon style="fill:#046A3A;" points="36.376,97.116 36.376,95.081 36.375,95.081 34.344,95.081 29.425,100 33.493,100 "/>
<polygon style="fill:#046A3A;" points="25.362,4.063 26.376,5.078 26.376,3.049 "/>
<polygon style="fill:#046A3A;" points="25.36,4.065 24.344,5.081 26.376,5.081 "/>
<polygon style="fill:#046A3A;" points="16.376,3.049 16.376,3.049 16.376,5.078 16.379,5.081 18.412,5.081 23.493,0 19.425,0 "/>
<polygon style="fill:#046A3A;" points="25.362,14.063 26.376,15.078 26.376,13.048 "/>
<polygon style="fill:#046A3A;" points="17.394,6.099 16.376,5.082 16.376,7.116 "/>
<polygon style="fill:#046A3A;" points="25.36,14.065 24.344,15.081 26.376,15.081 "/>
<polygon style="fill:#046A3A;" points="17.396,6.097 18.412,5.081 16.379,5.081 "/>
<polygon style="fill:#046A3A;" points="26.375,5.081 24.344,5.081 16.376,13.048 16.376,13.049 16.376,13.048 16.376,15.078 
	16.379,15.081 18.412,15.081 26.376,7.116 26.376,5.082 "/>
<polygon style="fill:#046A3A;" points="25.362,24.063 26.376,25.078 26.376,23.048 "/>
<polygon style="fill:#046A3A;" points="17.394,16.099 16.376,15.082 16.376,17.116 "/>
<polygon style="fill:#046A3A;" points="25.36,24.065 24.344,25.081 26.376,25.081 "/>
<polygon style="fill:#046A3A;" points="17.396,16.097 18.412,15.081 16.379,15.081 "/>
<polygon style="fill:#046A3A;" points="16.379,25.081 18.412,25.081 26.376,17.116 26.376,15.082 26.375,15.081 24.344,15.081 
	16.376,23.048 16.376,23.049 16.376,23.048 16.376,25.078 "/>
<polygon style="fill:#046A3A;" points="25.362,34.063 26.376,35.078 26.376,33.048 "/>
<polygon style="fill:#046A3A;" points="17.394,26.099 16.376,25.082 16.376,27.116 "/>
<polygon style="fill:#046A3A;" points="25.36,34.065 24.344,35.081 26.376,35.081 "/>
<polygon style="fill:#046A3A;" points="17.396,26.097 18.412,25.081 16.379,25.081 "/>
<polygon style="fill:#046A3A;" points="16.379,35.081 18.412,35.081 26.376,27.116 26.376,25.082 26.375,25.081 24.344,25.081 
	16.376,33.048 16.376,35.078 "/>
<polygon style="fill:#046A3A;" points="25.362,44.063 26.376,45.078 26.376,43.049 "/>
<polygon style="fill:#046A3A;" points="17.394,36.099 16.376,35.082 16.376,37.116 "/>
<polygon style="fill:#046A3A;" points="25.36,44.064 24.344,45.08 26.376,45.08 "/>
<polygon style="fill:#046A3A;" points="17.396,36.097 18.412,35.081 16.379,35.081 "/>
<polygon style="fill:#046A3A;" points="16.379,45.08 18.412,45.08 26.376,37.116 26.376,35.082 26.375,35.081 24.344,35.081 
	16.376,43.049 16.376,45.078 "/>
<polygon style="fill:#046A3A;" points="25.362,54.063 26.376,55.078 26.376,53.049 "/>
<polygon style="fill:#046A3A;" points="17.394,46.099 16.376,45.082 16.376,47.116 "/>
<polygon style="fill:#046A3A;" points="25.36,54.064 24.344,55.08 26.376,55.08 "/>
<polygon style="fill:#046A3A;" points="17.396,46.098 18.412,45.08 16.379,45.08 "/>
<polygon style="fill:#046A3A;" points="16.379,55.08 18.412,55.08 26.376,47.116 26.376,45.082 26.375,45.08 24.344,45.08 
	16.376,53.049 16.376,55.078 "/>
<polygon style="fill:#046A3A;" points="25.362,64.063 26.376,65.078 26.376,63.048 "/>
<polygon style="fill:#046A3A;" points="17.394,56.099 16.376,55.082 16.376,57.116 "/>
<polygon style="fill:#046A3A;" points="25.36,64.064 24.344,65.081 26.376,65.081 "/>
<polygon style="fill:#046A3A;" points="17.396,56.098 18.412,55.08 16.379,55.08 "/>
<polygon style="fill:#046A3A;" points="16.379,65.081 18.412,65.081 26.376,57.116 26.376,55.082 26.375,55.08 24.344,55.08 
	16.376,63.048 16.376,63.049 16.376,63.048 16.376,65.078 16.376,65.077 16.376,65.078 "/>
<polygon style="fill:#046A3A;" points="25.362,74.063 26.376,75.078 26.376,73.049 "/>
<polygon style="fill:#046A3A;" points="17.394,66.099 16.376,65.081 16.376,67.116 "/>
<polygon style="fill:#046A3A;" points="25.36,74.064 24.344,75.081 26.376,75.081 "/>
<polygon style="fill:#046A3A;" points="17.396,66.097 18.412,65.081 16.379,65.081 "/>
<polygon style="fill:#046A3A;" points="16.379,75.081 18.412,75.081 26.376,67.116 26.376,65.081 26.375,65.081 24.344,65.081 
	16.376,73.049 16.376,75.078 16.376,75.077 16.376,75.078 "/>
<polygon style="fill:#046A3A;" points="26.376,83.048 25.362,84.063 26.376,85.078 "/>
<polygon style="fill:#046A3A;" points="17.394,76.099 16.376,75.081 16.376,77.116 "/>
<polygon style="fill:#046A3A;" points="25.36,84.064 24.344,85.08 26.375,85.08 "/>
<polygon style="fill:#046A3A;" points="17.396,76.097 18.412,75.081 16.379,75.081 "/>
<polygon style="fill:#046A3A;" points="16.379,85.08 16.379,85.08 16.379,85.08 18.412,85.08 26.376,77.116 26.376,75.081 
	26.375,75.081 24.344,75.081 16.376,83.048 16.376,85.078 "/>
<polygon style="fill:#046A3A;" points="26.376,93.048 25.362,94.063 26.376,95.078 "/>
<polygon style="fill:#046A3A;" points="17.394,86.099 16.376,85.081 16.376,87.116 "/>
<polygon style="fill:#046A3A;" points="25.36,94.064 24.344,95.081 26.376,95.081 "/>
<polygon style="fill:#046A3A;" points="16.379,85.08 16.379,85.08 17.396,86.097 18.412,85.08 "/>
<polygon style="fill:#046A3A;" points="16.379,95.081 18.412,95.081 26.376,87.116 26.376,85.081 26.375,85.08 26.375,85.08 
	24.344,85.08 16.376,93.048 16.376,95.078 "/>
<polygon style="fill:#046A3A;" points="17.394,96.099 16.376,95.081 16.376,97.116 "/>
<polygon style="fill:#046A3A;" points="17.396,96.097 18.412,95.081 16.379,95.081 "/>
<polygon style="fill:#046A3A;" points="26.376,97.116 26.376,95.081 26.375,95.081 24.344,95.081 19.425,100 23.493,100 "/>
<polygon style="fill:#046A3A;" points="16.376,3.049 16.376,3.049 15.362,4.063 16.376,5.078 "/>
<polygon style="fill:#046A3A;" points="15.36,4.065 14.344,5.081 16.375,5.081 "/>
<polygon style="fill:#046A3A;" points="6.376,3.049 6.376,5.078 6.379,5.081 8.412,5.081 13.493,0 9.425,0 "/>
<polygon style="fill:#046A3A;" points="16.376,13.048 16.376,13.048 15.362,14.063 16.376,15.078 "/>
<polygon style="fill:#046A3A;" points="7.394,6.099 6.376,5.082 6.376,7.116 "/>
<polygon style="fill:#046A3A;" points="15.36,14.065 14.344,15.081 16.375,15.081 "/>
<polygon style="fill:#046A3A;" points="7.396,6.097 8.412,5.081 6.379,5.081 "/>
<polygon style="fill:#046A3A;" points="16.375,5.081 14.344,5.081 6.376,13.048 6.376,15.078 6.379,15.081 8.412,15.081 
	16.376,7.116 16.376,5.082 "/>
<polygon style="fill:#046A3A;" points="16.376,23.048 16.376,23.049 15.362,24.063 16.376,25.078 "/>
<polygon style="fill:#046A3A;" points="7.394,16.099 6.376,15.082 6.376,17.116 "/>
<polygon style="fill:#046A3A;" points="15.36,24.065 14.344,25.081 16.375,25.081 "/>
<polygon style="fill:#046A3A;" points="7.396,16.097 8.412,15.081 6.379,15.081 "/>
<polygon style="fill:#046A3A;" points="6.376,25.078 6.379,25.081 8.412,25.081 16.376,17.116 16.376,17.116 16.376,15.082 
	16.375,15.081 14.344,15.081 6.376,23.048 "/>
<polygon style="fill:#046A3A;" points="16.376,33.048 16.376,33.048 15.362,34.063 16.376,35.078 "/>
<polygon style="fill:#046A3A;" points="7.394,26.099 6.376,25.082 6.376,27.116 "/>
<polygon style="fill:#046A3A;" points="15.36,34.065 14.344,35.081 16.375,35.081 "/>
<polygon style="fill:#046A3A;" points="7.396,26.097 8.412,25.081 6.379,25.081 "/>
<polygon style="fill:#046A3A;" points="6.376,35.078 6.379,35.081 8.412,35.081 16.376,27.116 16.376,27.116 16.376,25.082 
	16.376,25.082 16.375,25.081 14.344,25.081 6.376,33.048 "/>
<polygon style="fill:#046A3A;" points="16.376,43.049 16.376,43.049 15.362,44.063 16.376,45.078 "/>
<polygon style="fill:#046A3A;" points="7.394,36.099 6.376,35.082 6.376,37.116 "/>
<polygon style="fill:#046A3A;" points="15.36,44.064 14.344,45.08 16.375,45.08 "/>
<polygon style="fill:#046A3A;" points="7.396,36.097 8.412,35.081 6.379,35.081 "/>
<polygon style="fill:#046A3A;" points="6.376,45.078 6.379,45.08 8.412,45.08 16.376,37.116 16.376,35.082 16.376,35.082 
	16.375,35.081 14.344,35.081 6.376,43.049 "/>
<polygon style="fill:#046A3A;" points="16.376,53.049 16.376,53.049 15.362,54.063 16.376,55.078 "/>
<polygon style="fill:#046A3A;" points="7.394,46.099 6.376,45.082 6.376,47.116 "/>
<polygon style="fill:#046A3A;" points="15.36,54.064 14.344,55.08 16.375,55.08 "/>
<polygon style="fill:#046A3A;" points="7.396,46.098 8.412,45.08 6.379,45.08 "/>
<polygon style="fill:#046A3A;" points="6.376,55.078 6.379,55.08 8.412,55.08 16.376,47.116 16.376,45.082 16.375,45.08 
	14.344,45.08 6.376,53.049 "/>
<polygon style="fill:#046A3A;" points="16.376,63.048 16.376,63.049 15.362,64.063 16.376,65.078 16.376,65.078 "/>
<polygon style="fill:#046A3A;" points="7.394,56.099 6.376,55.082 6.376,57.116 "/>
<polygon style="fill:#046A3A;" points="15.36,64.064 14.344,65.081 16.375,65.081 "/>
<polygon style="fill:#046A3A;" points="7.396,56.098 8.412,55.08 6.379,55.08 "/>
<polygon style="fill:#046A3A;" points="6.376,65.078 6.379,65.081 8.412,65.081 16.376,57.116 16.376,55.082 16.375,55.08 
	14.344,55.08 6.376,63.048 "/>
<polygon style="fill:#046A3A;" points="16.376,73.049 16.376,73.049 15.362,74.063 16.376,75.078 16.376,75.078 "/>
<polygon style="fill:#046A3A;" points="7.394,66.099 6.376,65.081 6.376,67.116 "/>
<polygon style="fill:#046A3A;" points="15.36,74.064 14.344,75.081 16.375,75.081 "/>
<polygon style="fill:#046A3A;" points="7.396,66.097 8.412,65.081 6.379,65.081 "/>
<polygon style="fill:#046A3A;" points="6.376,75.078 6.379,75.081 8.412,75.081 16.376,67.116 16.376,67.116 16.376,65.082 
	16.376,65.081 16.375,65.081 14.344,65.081 6.376,73.049 "/>
<polygon style="fill:#046A3A;" points="16.376,83.048 16.376,83.048 15.362,84.063 16.376,85.078 "/>
<polygon style="fill:#046A3A;" points="7.394,76.099 6.376,75.081 6.376,77.116 "/>
<polygon style="fill:#046A3A;" points="15.36,84.064 14.344,85.08 16.375,85.08 "/>
<polygon style="fill:#046A3A;" points="7.396,76.097 8.412,75.081 6.379,75.081 "/>
<polygon style="fill:#046A3A;" points="6.376,85.078 6.379,85.08 8.412,85.08 8.412,85.08 8.412,85.08 16.376,77.116 16.376,77.116 
	16.376,75.081 16.375,75.081 14.344,75.081 6.376,83.048 "/>
<polygon style="fill:#046A3A;" points="16.376,93.048 16.376,93.048 15.362,94.063 16.376,95.078 "/>
<polygon style="fill:#046A3A;" points="7.394,86.099 6.376,85.081 6.376,87.116 "/>
<polygon style="fill:#046A3A;" points="15.36,94.064 14.344,95.081 16.375,95.081 "/>
<polygon style="fill:#046A3A;" points="6.379,85.08 6.379,85.08 7.396,86.097 8.412,85.08 8.412,85.08 "/>
<polygon style="fill:#046A3A;" points="6.376,95.078 6.379,95.081 8.412,95.081 16.376,87.116 16.376,85.081 16.375,85.08 
	14.344,85.08 6.376,93.048 "/>
<polygon style="fill:#046A3A;" points="7.394,96.099 6.376,95.081 6.376,97.116 "/>
<polygon style="fill:#046A3A;" points="7.396,96.097 8.412,95.081 6.379,95.081 "/>
<polygon style="fill:#046A3A;" points="16.376,97.116 16.376,97.116 16.376,95.081 16.375,95.081 14.344,95.081 9.425,100 
	13.493,100 "/>
<polygon style="fill:#046A3A;" points="5.362,4.063 6.376,5.078 6.376,3.049 "/>
<polygon style="fill:#046A3A;" points="5.36,4.065 4.344,5.081 6.376,5.081 "/>
<polygon style="fill:#046A3A;" points="0,0 0,3.493 3.493,0 "/>
<polygon style="fill:#046A3A;" points="5.362,14.063 6.376,15.078 6.376,13.048 "/>
<polygon style="fill:#046A3A;" points="5.36,14.065 4.344,15.081 6.376,15.081 "/>
<polygon style="fill:#046A3A;" points="6.376,7.116 6.376,5.082 6.375,5.081 4.344,5.081 0,9.425 0,13.493 "/>
<polygon style="fill:#046A3A;" points="5.362,24.063 6.376,25.078 6.376,23.048 "/>
<polygon style="fill:#046A3A;" points="5.36,24.065 4.344,25.081 6.376,25.081 "/>
<polygon style="fill:#046A3A;" points="6.376,17.116 6.376,15.082 6.375,15.081 4.344,15.081 0,19.425 0,23.493 "/>
<polygon style="fill:#046A3A;" points="5.362,34.063 6.376,35.078 6.376,33.048 "/>
<polygon style="fill:#046A3A;" points="5.36,34.065 4.344,35.081 6.376,35.081 "/>
<polygon style="fill:#046A3A;" points="6.376,27.116 6.376,25.082 6.375,25.081 4.344,25.081 0,29.425 0,33.493 "/>
<polygon style="fill:#046A3A;" points="5.362,44.063 6.376,45.078 6.376,43.049 "/>
<polygon style="fill:#046A3A;" points="5.36,44.064 4.344,45.08 6.376,45.08 "/>
<polygon style="fill:#046A3A;" points="6.376,37.116 6.376,35.082 6.375,35.081 4.344,35.081 0,39.425 0,43.493 "/>
<polygon style="fill:#046A3A;" points="5.362,54.063 6.376,55.078 6.376,53.049 "/>
<polygon style="fill:#046A3A;" points="5.36,54.064 4.344,55.08 6.376,55.08 "/>
<polygon style="fill:#046A3A;" points="6.376,47.116 6.376,45.082 6.375,45.08 4.344,45.08 0,49.426 0,53.493 "/>
<polygon style="fill:#046A3A;" points="5.362,64.063 6.376,65.078 6.376,63.048 "/>
<polygon style="fill:#046A3A;" points="5.36,64.064 4.344,65.081 6.376,65.081 "/>
<polygon style="fill:#046A3A;" points="6.376,57.116 6.376,55.082 6.375,55.08 4.344,55.08 0,59.426 0,63.493 "/>
<polygon style="fill:#046A3A;" points="5.362,74.063 6.376,75.078 6.376,73.049 "/>
<polygon style="fill:#046A3A;" points="5.36,74.064 4.344,75.081 6.376,75.081 "/>
<polygon style="fill:#046A3A;" points="6.376,67.116 6.376,65.081 6.375,65.081 4.344,65.081 0,69.426 0,73.493 "/>
<polygon style="fill:#046A3A;" points="5.362,84.063 6.376,85.078 6.376,83.048 "/>
<polygon style="fill:#046A3A;" points="5.36,84.064 4.344,85.08 6.376,85.08 "/>
<polygon style="fill:#046A3A;" points="6.376,77.116 6.376,75.081 6.375,75.081 4.344,75.081 0,79.425 0,83.493 "/>
<polygon style="fill:#046A3A;" points="5.362,94.063 6.376,95.078 6.376,93.048 "/>
<polygon style="fill:#046A3A;" points="5.36,94.064 4.344,95.081 6.376,95.081 "/>
<polygon style="fill:#046A3A;" points="6.376,87.116 6.376,85.081 6.375,85.08 4.344,85.08 0,89.425 0,93.493 "/>
<polygon style="fill:#046A3A;" points="6.376,95.081 6.375,95.081 4.344,95.081 0,99.425 0,100 3.493,100 6.376,97.116 "/>
</svg>
