<?xml version="1.0" encoding="utf-8"?>
<!-- Generator: Adobe Illustrator 16.0.0, SVG Export Plug-In . SVG Version: 6.00 Build 0)  -->
<!DOCTYPE svg PUBLIC "-//W3C//DTD SVG 1.1//EN" "http://www.w3.org/Graphics/SVG/1.1/DTD/svg11.dtd">
<svg version="1.1" id="Layer_1" xmlns="http://www.w3.org/2000/svg" xmlns:xlink="http://www.w3.org/1999/xlink" x="0px" y="0px"
	 width="100px" height="100px" viewBox="0 0 100 100" style="enable-background:new 0 0 100 100;" xml:space="preserve">
<polygon style="fill:#046A3A;" points="9.618,2.45 10.475,3.934 11.331,5.417 9.618,5.417 7.906,5.417 8.762,3.934 "/>
<polygon style="fill:#046A3A;" points="19.147,9.531 20.003,11.014 20.86,12.497 19.147,12.497 17.434,12.497 18.291,11.014 "/>
<polygon style="fill:#046A3A;" points="10.37,18.395 9.927,20.049 9.484,21.704 8.273,20.492 7.062,19.281 8.716,18.838 "/>
<polygon style="fill:#046A3A;" points="35.889,9.96 37.543,10.403 39.197,10.846 37.987,12.057 36.775,13.269 36.332,11.614 "/>
<polygon style="fill:#046A3A;" points="34.176,30.726 33.32,29.243 32.463,27.76 34.176,27.76 35.889,27.76 35.033,29.243 "/>
<polygon style="fill:#046A3A;" points="25.66,18.395 27.314,18.838 28.969,19.281 27.758,20.492 26.546,21.704 26.104,20.049 "/>
<polygon style="fill:#046A3A;" points="16.382,27.658 15.939,29.313 15.495,30.967 14.285,29.756 13.073,28.545 14.728,28.102 "/>
<polygon style="fill:#046A3A;" points="42.606,21.426 44.261,21.869 45.915,22.313 44.704,23.523 43.493,24.735 43.05,23.081 "/>
<polygon style="fill:#046A3A;" points="44.261,1.238 45.117,2.721 45.974,4.205 44.261,4.205 42.548,4.205 43.405,2.721 "/>
<polygon style="fill:#046A3A;" points="28.622,0 28.178,1.654 27.735,3.309 26.524,2.098 25.313,0.887 26.968,0.444 "/>
<polygon style="fill:#046A3A;" points="55.845,2.45 56.701,3.934 57.558,5.417 55.845,5.417 54.132,5.417 54.988,3.934 "/>
<polygon style="fill:#046A3A;" points="65.373,9.531 66.229,11.014 67.086,12.497 65.373,12.497 63.661,12.497 64.517,11.014 "/>
<polygon style="fill:#046A3A;" points="56.597,18.395 56.153,20.049 55.711,21.704 54.499,20.492 53.288,19.281 54.941,18.838 "/>
<polygon style="fill:#046A3A;" points="82.114,9.96 83.77,10.403 85.424,10.846 84.213,12.057 83.002,13.269 82.559,11.614 "/>
<polygon style="fill:#046A3A;" points="80.402,30.726 79.546,29.243 78.689,27.76 80.402,27.76 82.115,27.76 81.259,29.243 "/>
<polygon style="fill:#046A3A;" points="71.887,18.395 73.54,18.838 75.195,19.281 73.984,20.492 72.772,21.704 72.329,20.049 "/>
<polygon style="fill:#046A3A;" points="62.608,27.658 62.164,29.313 61.722,30.967 60.511,29.756 59.3,28.545 60.953,28.102 "/>
<polygon style="fill:#046A3A;" points="88.832,21.426 90.487,21.869 92.142,22.313 90.931,23.523 89.72,24.735 89.276,23.081 "/>
<polygon style="fill:#046A3A;" points="90.487,1.238 91.344,2.721 92.199,4.205 90.487,4.205 88.774,4.205 89.631,2.721 "/>
<polygon style="fill:#046A3A;" points="74.848,0 74.405,1.654 73.962,3.309 72.75,2.098 71.539,0.887 73.194,0.444 "/>
<polygon style="fill:#046A3A;" points="55.845,36.142 56.701,37.625 57.558,39.109 55.845,39.109 54.132,39.109 54.988,37.625 "/>
<polygon style="fill:#046A3A;" points="65.373,43.222 66.229,44.706 67.086,46.189 65.373,46.189 63.661,46.189 64.517,44.706 "/>
<polygon style="fill:#046A3A;" points="56.597,52.087 56.153,53.741 55.711,55.396 54.499,54.185 53.288,52.974 54.941,52.53 "/>
<polygon style="fill:#046A3A;" points="82.114,43.652 83.77,44.095 85.424,44.538 84.213,45.749 83.002,46.96 82.559,45.306 "/>
<polygon style="fill:#046A3A;" points="80.402,64.419 79.546,62.935 78.689,61.452 80.402,61.452 82.115,61.452 81.259,62.935 "/>
<polygon style="fill:#046A3A;" points="71.887,52.087 73.54,52.53 75.195,52.974 73.984,54.185 72.772,55.396 72.329,53.741 "/>
<polygon style="fill:#046A3A;" points="62.608,61.35 62.164,63.004 61.722,64.659 60.511,63.447 59.3,62.236 60.953,61.793 "/>
<polygon style="fill:#046A3A;" points="88.832,55.118 90.487,55.562 92.142,56.004 90.931,57.215 89.72,58.427 89.276,56.772 "/>
<polygon style="fill:#046A3A;" points="90.487,34.93 91.344,36.413 92.199,37.896 90.487,37.896 88.774,37.896 89.631,36.413 "/>
<polygon style="fill:#046A3A;" points="74.848,33.692 74.405,35.346 73.962,37.001 72.75,35.79 71.539,34.579 73.194,34.135 "/>
<polygon style="fill:#046A3A;" points="9.618,36.142 10.475,37.625 11.331,39.109 9.618,39.109 7.906,39.109 8.762,37.625 "/>
<polygon style="fill:#046A3A;" points="19.147,43.222 20.003,44.706 20.86,46.189 19.147,46.189 17.434,46.189 18.291,44.706 "/>
<polygon style="fill:#046A3A;" points="10.37,52.087 9.927,53.741 9.484,55.396 8.273,54.185 7.062,52.974 8.716,52.53 "/>
<polygon style="fill:#046A3A;" points="35.889,43.652 37.543,44.095 39.197,44.538 37.987,45.749 36.775,46.96 36.332,45.306 "/>
<polygon style="fill:#046A3A;" points="34.176,64.419 33.32,62.935 32.463,61.452 34.176,61.452 35.889,61.452 35.033,62.935 "/>
<polygon style="fill:#046A3A;" points="25.66,52.087 27.314,52.53 28.969,52.974 27.758,54.185 26.546,55.396 26.104,53.741 "/>
<polygon style="fill:#046A3A;" points="16.382,61.35 15.939,63.004 15.495,64.659 14.285,63.447 13.073,62.236 14.728,61.793 "/>
<polygon style="fill:#046A3A;" points="42.606,55.118 44.261,55.562 45.915,56.004 44.704,57.215 43.493,58.427 43.05,56.772 "/>
<polygon style="fill:#046A3A;" points="44.261,34.93 45.117,36.413 45.974,37.896 44.261,37.896 42.548,37.896 43.405,36.413 "/>
<polygon style="fill:#046A3A;" points="28.622,33.692 28.178,35.346 27.735,37.001 26.524,35.79 25.313,34.579 26.968,34.135 "/>
<polygon style="fill:#046A3A;" points="56.158,71.484 57.016,72.967 57.872,74.451 56.158,74.451 54.446,74.451 55.303,72.967 "/>
<polygon style="fill:#046A3A;" points="65.688,78.564 66.544,80.048 67.4,81.53 65.688,81.53 63.975,81.53 64.831,80.048 "/>
<polygon style="fill:#046A3A;" points="56.911,87.429 56.468,89.083 56.024,90.737 54.813,89.526 53.603,88.315 55.257,87.872 "/>
<polygon style="fill:#046A3A;" points="82.43,78.994 84.084,79.437 85.738,79.88 84.527,81.091 83.315,82.303 82.872,80.647 "/>
<polygon style="fill:#046A3A;" points="80.717,99.76 79.86,98.276 79.004,96.794 80.717,96.794 82.43,96.794 81.573,98.276 "/>
<polygon style="fill:#046A3A;" points="72.201,87.429 73.854,87.872 75.51,88.315 74.298,89.526 73.087,90.737 72.644,89.083 "/>
<polygon style="fill:#046A3A;" points="62.922,96.691 62.479,98.347 62.036,100 60.825,98.79 59.614,97.579 61.269,97.135 "/>
<polygon style="fill:#046A3A;" points="89.147,90.46 90.801,90.902 92.456,91.346 91.244,92.557 90.033,93.769 89.59,92.113 "/>
<polygon style="fill:#046A3A;" points="90.801,70.271 91.658,71.755 92.515,73.238 90.801,73.238 89.089,73.238 89.944,71.755 "/>
<polygon style="fill:#046A3A;" points="75.162,69.034 74.719,70.688 74.275,72.343 73.064,71.131 71.854,69.92 73.508,69.478 "/>
<polygon style="fill:#046A3A;" points="9.933,71.484 10.789,72.967 11.646,74.451 9.933,74.451 8.22,74.451 9.076,72.967 "/>
<polygon style="fill:#046A3A;" points="19.461,78.564 20.317,80.048 21.174,81.53 19.461,81.53 17.749,81.53 18.605,80.048 "/>
<polygon style="fill:#046A3A;" points="10.685,87.429 10.241,89.083 9.798,90.737 8.587,89.526 7.376,88.315 9.03,87.872 "/>
<polygon style="fill:#046A3A;" points="36.203,78.994 37.858,79.437 39.512,79.88 38.301,81.091 37.089,82.303 36.646,80.647 "/>
<polygon style="fill:#046A3A;" points="34.491,99.76 33.634,98.276 32.778,96.794 34.491,96.794 36.203,96.794 35.347,98.276 "/>
<polygon style="fill:#046A3A;" points="25.975,87.429 27.629,87.872 29.283,88.315 28.072,89.526 26.861,90.737 26.417,89.083 "/>
<polygon style="fill:#046A3A;" points="16.696,96.691 16.253,98.347 15.81,100 14.599,98.79 13.388,97.579 15.042,97.135 "/>
<polygon style="fill:#046A3A;" points="42.92,90.46 44.575,90.902 46.229,91.346 45.019,92.557 43.807,93.769 43.364,92.113 "/>
<polygon style="fill:#046A3A;" points="44.575,70.271 45.432,71.755 46.288,73.238 44.575,73.238 42.862,73.238 43.719,71.755 "/>
<polygon style="fill:#046A3A;" points="28.936,69.034 28.493,70.688 28.049,72.343 26.838,71.131 25.627,69.92 27.282,69.478 "/>
</svg>
