<?xml version="1.0" encoding="utf-8"?>
<!-- Generator: Adobe Illustrator 16.0.0, SVG Export Plug-In . SVG Version: 6.00 Build 0)  -->
<!DOCTYPE svg PUBLIC "-//W3C//DTD SVG 1.1//EN" "http://www.w3.org/Graphics/SVG/1.1/DTD/svg11.dtd">
<svg version="1.1" id="Layer_1" xmlns="http://www.w3.org/2000/svg" xmlns:xlink="http://www.w3.org/1999/xlink" x="0px" y="0px"
	 width="100px" height="100px" viewBox="0 0 100 100" style="enable-background:new 0 0 100 100;" xml:space="preserve">
<polygon style="fill:#046A3A;" points="96.804,49.523 95.511,50.815 98.097,50.815 "/>
<polygon style="fill:#046A3A;" points="96.804,69.495 95.511,70.788 98.097,70.788 "/>
<polygon style="fill:#046A3A;" points="95.511,50.815 92.925,50.815 85.525,58.216 78.124,50.815 75.539,50.815 72.952,50.815 
	65.552,58.216 58.151,50.815 55.566,50.815 52.98,50.815 45.58,58.216 38.18,50.815 35.594,50.815 33.008,50.815 25.607,58.216 
	18.207,50.815 15.622,50.815 13.036,50.815 5.636,58.216 0.069,52.65 0.069,57.821 3.05,60.802 5.636,63.388 8.221,60.802 
	15.622,53.401 23.022,60.802 25.607,63.388 28.193,60.802 35.594,53.401 42.995,60.802 45.58,63.388 48.166,60.802 55.566,53.401 
	62.967,60.802 65.552,63.388 68.138,60.802 75.539,53.401 82.938,60.802 85.525,63.388 88.11,60.802 95.511,53.401 99.931,57.821 
	99.931,52.649 98.097,50.815 "/>
<polygon style="fill:#046A3A;" points="95.511,70.788 92.925,70.788 85.525,78.188 78.124,70.788 75.539,70.788 72.952,70.788 
	65.552,78.188 58.151,70.788 55.566,70.788 52.98,70.788 45.58,78.188 38.18,70.788 35.594,70.788 33.008,70.788 25.607,78.188 
	18.207,70.788 15.622,70.788 13.036,70.788 5.636,78.188 0.069,72.623 0.069,77.795 3.05,80.774 5.636,83.36 8.221,80.774 
	15.622,73.374 23.022,80.774 25.607,83.36 28.193,80.774 35.594,73.374 42.995,80.774 45.58,83.36 48.166,80.774 55.566,73.374 
	62.967,80.774 65.552,83.36 68.138,80.774 75.539,73.374 82.938,80.774 85.525,83.36 88.11,80.774 95.511,73.374 99.931,77.794 
	99.931,72.623 98.097,70.788 "/>
<polygon style="fill:#046A3A;" points="85.521,3.452 88.106,0.867 88.971,0.002 82.071,0.002 82.936,0.867 "/>
<polygon style="fill:#046A3A;" points="76.831,49.523 75.539,50.815 78.124,50.815 "/>
<polygon style="fill:#046A3A;" points="95.511,50.814 96.804,49.522 95.518,48.235 95.511,48.232 95.511,48.23 94.218,49.523 
	94.218,49.523 92.925,50.815 95.509,50.815 95.507,50.813 95.511,50.815 95.511,50.815 "/>
<polygon style="fill:#046A3A;" points="76.831,69.495 75.539,70.788 78.124,70.788 "/>
<polygon style="fill:#046A3A;" points="95.511,70.786 96.804,69.494 95.518,68.209 95.511,68.204 95.511,68.203 94.218,69.495 
	94.218,69.495 92.925,70.788 95.509,70.788 95.507,70.786 95.511,70.788 95.511,70.788 "/>
<polygon style="fill:#046A3A;" points="65.549,3.452 68.134,0.867 68.998,0.002 62.1,0.002 62.964,0.867 "/>
<polygon style="fill:#046A3A;" points="56.858,49.523 55.566,50.815 58.151,50.815 "/>
<polygon style="fill:#046A3A;" points="75.539,50.814 76.831,49.522 75.546,48.235 75.539,48.232 75.539,48.23 74.246,49.523 
	74.246,49.523 72.952,50.815 75.537,50.815 75.536,50.813 75.539,50.815 75.539,50.815 "/>
<polygon style="fill:#046A3A;" points="56.858,69.495 55.566,70.788 58.151,70.788 "/>
<polygon style="fill:#046A3A;" points="75.539,70.786 76.831,69.494 75.546,68.209 75.539,68.204 75.539,68.203 74.246,69.495 
	74.246,69.495 72.952,70.788 75.537,70.788 75.536,70.786 75.539,70.788 75.539,70.788 "/>
<polygon style="fill:#046A3A;" points="45.577,3.452 48.162,0.867 49.025,0.002 42.127,0.002 42.991,0.867 "/>
<polygon style="fill:#046A3A;" points="36.887,49.523 35.594,50.815 38.18,50.815 "/>
<polygon style="fill:#046A3A;" points="55.566,50.814 56.858,49.522 55.573,48.235 55.566,48.232 55.566,48.23 54.273,49.523 
	54.273,49.523 52.98,50.815 55.564,50.815 55.563,50.813 55.566,50.815 55.566,50.815 "/>
<polygon style="fill:#046A3A;" points="36.887,69.495 35.594,70.788 38.18,70.788 "/>
<polygon style="fill:#046A3A;" points="55.566,70.786 56.858,69.494 55.573,68.209 55.566,68.204 55.566,68.203 54.273,69.495 
	54.273,69.495 52.98,70.788 55.564,70.788 55.563,70.786 55.566,70.788 55.566,70.788 "/>
<polygon style="fill:#046A3A;" points="25.604,3.452 28.19,0.867 29.054,0.002 22.155,0.002 23.019,0.867 "/>
<polygon style="fill:#046A3A;" points="16.915,49.523 15.622,50.815 18.207,50.815 "/>
<polygon style="fill:#046A3A;" points="35.594,50.814 36.887,49.522 35.602,48.235 35.594,48.232 35.594,48.23 34.301,49.523 
	34.301,49.523 33.008,50.815 35.592,50.815 35.591,50.813 35.594,50.815 35.594,50.815 "/>
<polygon style="fill:#046A3A;" points="16.915,69.495 15.622,70.788 18.207,70.788 "/>
<polygon style="fill:#046A3A;" points="35.594,70.786 36.887,69.494 35.602,68.209 35.594,68.204 35.594,68.203 34.301,69.495 
	34.301,69.495 33.008,70.788 35.592,70.788 35.591,70.786 35.594,70.788 35.594,70.788 "/>
<polygon style="fill:#046A3A;" points="5.632,3.452 8.218,0.867 9.082,0.002 2.183,0.002 3.046,0.867 "/>
<polygon style="fill:#046A3A;" points="96.804,8.571 95.511,9.864 98.097,9.864 "/>
<polygon style="fill:#046A3A;" points="98.097,9.864 95.511,9.864 92.925,9.864 85.524,17.265 78.124,9.864 75.539,9.864 
	72.952,9.864 65.553,17.265 58.151,9.864 55.566,9.864 52.98,9.864 45.58,17.265 38.18,9.864 35.594,9.864 33.008,9.864 
	25.607,17.265 18.207,9.864 15.622,9.864 13.036,9.864 5.636,17.265 0.069,11.699 0.069,16.87 3.05,19.851 5.636,22.436 
	8.221,19.851 15.622,12.45 23.022,19.851 25.607,22.436 28.193,19.851 35.594,12.45 42.995,19.851 45.58,22.436 48.166,19.851 
	55.566,12.45 62.967,19.851 65.553,22.436 68.138,19.851 75.539,12.45 82.938,19.851 85.524,22.436 88.11,19.851 95.511,12.45 
	99.931,16.87 99.931,11.699 "/>
<polygon style="fill:#046A3A;" points="76.831,8.571 75.539,9.864 78.124,9.864 "/>
<polygon style="fill:#046A3A;" points="95.511,9.863 96.804,8.57 95.518,7.285 95.511,7.279 95.511,7.278 94.218,8.571 
	94.218,8.571 92.925,9.864 95.509,9.864 95.507,9.861 95.511,9.864 95.511,9.864 "/>
<polygon style="fill:#046A3A;" points="56.858,8.571 55.566,9.864 58.151,9.864 "/>
<polygon style="fill:#046A3A;" points="75.539,9.863 76.831,8.57 75.546,7.285 75.539,7.279 75.539,7.278 74.246,8.571 
	74.246,8.571 72.952,9.864 75.537,9.864 75.536,9.861 75.539,9.864 75.539,9.864 "/>
<polygon style="fill:#046A3A;" points="36.887,8.571 35.594,9.864 38.18,9.864 "/>
<polygon style="fill:#046A3A;" points="55.566,9.863 56.858,8.57 55.573,7.285 55.566,7.279 55.566,7.278 54.273,8.571 
	54.273,8.571 52.98,9.864 55.564,9.864 55.563,9.861 55.566,9.864 55.566,9.864 "/>
<polygon style="fill:#046A3A;" points="16.915,8.571 15.622,9.864 18.207,9.864 "/>
<polygon style="fill:#046A3A;" points="35.594,9.863 36.887,8.57 35.602,7.285 35.594,7.279 35.594,7.278 34.301,8.571 
	34.301,8.571 33.008,9.864 35.592,9.864 35.591,9.861 35.594,9.864 35.594,9.864 "/>
<polygon style="fill:#046A3A;" points="15.622,9.863 16.914,8.57 15.629,7.285 15.622,7.279 15.622,7.278 14.329,8.571 
	14.329,8.571 13.036,9.864 15.62,9.864 15.619,9.861 15.622,9.864 15.622,9.864 "/>
<polygon style="fill:#046A3A;" points="96.804,39.271 95.511,40.563 98.097,40.563 "/>
<polygon style="fill:#046A3A;" points="98.097,40.563 95.511,40.563 92.925,40.563 85.524,47.964 78.124,40.563 75.539,40.563 
	72.952,40.563 65.553,47.964 58.151,40.563 55.566,40.563 52.98,40.563 45.58,47.964 38.18,40.563 35.594,40.563 33.008,40.563 
	25.607,47.964 18.207,40.563 15.622,40.563 13.036,40.563 5.636,47.964 0.069,42.398 0.069,47.568 3.05,50.549 5.636,53.136 
	8.221,50.549 15.622,43.149 23.022,50.549 25.607,53.136 28.193,50.549 35.594,43.149 42.995,50.549 45.58,53.136 48.166,50.549 
	55.566,43.149 62.967,50.549 65.553,53.136 68.138,50.549 75.539,43.149 82.938,50.549 85.524,53.136 88.11,50.549 95.511,43.149 
	99.931,47.568 99.931,42.398 "/>
<polygon style="fill:#046A3A;" points="76.831,39.271 75.539,40.563 78.124,40.563 "/>
<polygon style="fill:#046A3A;" points="95.511,40.562 96.804,39.27 95.518,37.984 95.511,37.979 95.511,37.978 94.218,39.271 
	94.218,39.27 92.925,40.563 95.509,40.563 95.507,40.56 95.511,40.563 95.511,40.563 "/>
<polygon style="fill:#046A3A;" points="56.858,39.271 55.566,40.563 58.151,40.563 "/>
<polygon style="fill:#046A3A;" points="75.539,40.562 76.831,39.27 75.546,37.984 75.539,37.979 75.539,37.978 74.246,39.271 
	74.246,39.27 72.952,40.563 75.537,40.563 75.536,40.56 75.539,40.563 75.539,40.563 "/>
<polygon style="fill:#046A3A;" points="36.887,39.271 35.594,40.563 38.18,40.563 "/>
<polygon style="fill:#046A3A;" points="55.566,40.562 56.858,39.27 55.573,37.984 55.566,37.979 55.566,37.978 54.273,39.271 
	54.273,39.27 52.98,40.563 55.564,40.563 55.563,40.56 55.566,40.563 55.566,40.563 "/>
<polygon style="fill:#046A3A;" points="16.915,39.271 15.622,40.563 18.207,40.563 "/>
<polygon style="fill:#046A3A;" points="35.594,40.562 36.887,39.27 35.602,37.984 35.594,37.979 35.594,37.978 34.301,39.271 
	34.301,39.27 33.008,40.563 35.592,40.563 35.591,40.56 35.594,40.563 35.594,40.563 "/>
<polygon style="fill:#046A3A;" points="15.622,40.562 16.914,39.27 15.629,37.984 15.622,37.979 15.622,37.978 14.329,39.271 
	14.329,39.27 13.036,40.563 15.62,40.563 15.619,40.56 15.622,40.563 15.622,40.563 "/>
<polygon style="fill:#046A3A;" points="96.804,59.401 95.511,60.694 98.097,60.694 "/>
<polygon style="fill:#046A3A;" points="98.097,60.694 95.511,60.694 92.925,60.694 85.524,68.095 78.124,60.694 75.539,60.694 
	72.952,60.694 65.553,68.095 58.151,60.694 55.566,60.694 52.98,60.694 45.58,68.095 38.18,60.694 35.594,60.694 33.008,60.694 
	25.607,68.095 18.207,60.694 15.622,60.694 13.036,60.694 5.636,68.095 0.069,62.528 0.069,67.7 3.05,70.681 5.636,73.266 
	8.221,70.681 15.622,63.279 23.022,70.681 25.607,73.266 28.193,70.681 35.594,63.279 42.995,70.681 45.58,73.266 48.166,70.681 
	55.566,63.279 62.967,70.681 65.553,73.266 68.138,70.681 75.539,63.279 82.938,70.681 85.524,73.266 88.11,70.681 95.511,63.279 
	99.931,67.7 99.931,62.528 "/>
<polygon style="fill:#046A3A;" points="76.831,59.401 75.539,60.694 78.124,60.694 "/>
<polygon style="fill:#046A3A;" points="95.511,60.693 96.804,59.4 95.518,58.114 95.511,58.11 95.511,58.108 94.218,59.401 
	94.218,59.401 92.925,60.694 95.509,60.694 95.507,60.691 95.511,60.694 95.511,60.694 "/>
<polygon style="fill:#046A3A;" points="56.858,59.401 55.566,60.694 58.151,60.694 "/>
<polygon style="fill:#046A3A;" points="75.539,60.693 76.831,59.4 75.546,58.114 75.539,58.11 75.539,58.108 74.246,59.401 
	74.246,59.401 72.952,60.694 75.537,60.694 75.536,60.691 75.539,60.694 75.539,60.694 "/>
<polygon style="fill:#046A3A;" points="36.887,59.401 35.594,60.694 38.18,60.694 "/>
<polygon style="fill:#046A3A;" points="55.566,60.693 56.858,59.4 55.573,58.114 55.566,58.11 55.566,58.108 54.273,59.401 
	54.273,59.401 52.98,60.694 55.564,60.694 55.563,60.691 55.566,60.694 55.566,60.694 "/>
<polygon style="fill:#046A3A;" points="16.915,59.401 15.622,60.694 18.207,60.694 "/>
<polygon style="fill:#046A3A;" points="35.594,60.693 36.887,59.4 35.602,58.114 35.594,58.11 35.594,58.108 34.301,59.401 
	34.301,59.401 33.008,60.694 35.592,60.694 35.591,60.691 35.594,60.694 35.594,60.694 "/>
<polygon style="fill:#046A3A;" points="15.622,60.693 16.914,59.4 15.629,58.114 15.622,58.11 15.622,58.108 14.329,59.401 
	14.329,59.401 13.036,60.694 15.62,60.694 15.619,60.691 15.622,60.694 15.622,60.694 "/>
<polygon style="fill:#046A3A;" points="96.804,79.532 95.511,80.824 98.097,80.824 "/>
<polygon style="fill:#046A3A;" points="98.097,80.824 95.511,80.824 92.925,80.824 85.524,88.226 78.124,80.824 75.539,80.824 
	72.952,80.824 65.553,88.226 58.151,80.824 55.566,80.824 52.98,80.824 45.58,88.226 38.18,80.824 35.594,80.824 33.008,80.824 
	25.607,88.226 18.207,80.824 15.622,80.824 13.036,80.824 5.636,88.226 0.069,82.66 0.069,87.83 3.05,90.812 5.636,93.396 
	8.221,90.812 15.622,83.411 23.022,90.812 25.607,93.396 28.193,90.812 35.594,83.411 42.995,90.812 45.58,93.396 48.166,90.812 
	55.566,83.411 62.967,90.812 65.553,93.396 68.138,90.812 75.539,83.411 82.938,90.812 85.524,93.396 88.11,90.812 95.511,83.411 
	99.931,87.83 99.931,82.66 "/>
<polygon style="fill:#046A3A;" points="76.831,79.532 75.539,80.824 78.124,80.824 "/>
<polygon style="fill:#046A3A;" points="95.511,80.823 96.804,79.531 95.518,78.246 95.511,78.241 95.511,78.239 94.218,79.532 
	94.218,79.532 92.925,80.824 95.509,80.824 95.507,80.821 95.511,80.824 95.511,80.824 "/>
<polygon style="fill:#046A3A;" points="56.858,79.532 55.566,80.824 58.151,80.824 "/>
<polygon style="fill:#046A3A;" points="75.539,80.823 76.831,79.531 75.546,78.246 75.539,78.241 75.539,78.239 74.246,79.532 
	74.246,79.532 72.952,80.824 75.537,80.824 75.536,80.821 75.539,80.824 75.539,80.824 "/>
<polygon style="fill:#046A3A;" points="36.887,79.532 35.594,80.824 38.18,80.824 "/>
<polygon style="fill:#046A3A;" points="55.566,80.823 56.858,79.531 55.573,78.246 55.566,78.241 55.566,78.239 54.273,79.532 
	54.273,79.532 52.98,80.824 55.564,80.824 55.563,80.821 55.566,80.824 55.566,80.824 "/>
<polygon style="fill:#046A3A;" points="16.915,79.532 15.622,80.824 18.207,80.824 "/>
<polygon style="fill:#046A3A;" points="35.594,80.823 36.887,79.531 35.602,78.246 35.594,78.241 35.594,78.239 34.301,79.532 
	34.301,79.532 33.008,80.824 35.592,80.824 35.591,80.821 35.594,80.824 35.594,80.824 "/>
<polygon style="fill:#046A3A;" points="15.622,80.823 16.914,79.531 15.629,78.246 15.622,78.241 15.622,78.239 14.329,79.532 
	14.329,79.532 13.036,80.824 15.62,80.824 15.619,80.821 15.622,80.824 15.622,80.824 "/>
<polygon style="fill:#046A3A;" points="96.804,79.532 95.511,80.824 98.097,80.824 "/>
<polygon style="fill:#046A3A;" points="76.831,79.532 75.539,80.824 78.124,80.824 "/>
<polygon style="fill:#046A3A;" points="95.511,80.823 96.804,79.531 95.518,78.246 95.511,78.241 95.511,78.239 94.218,79.532 
	94.218,79.532 92.925,80.824 95.509,80.824 95.507,80.821 95.511,80.824 95.511,80.824 "/>
<polygon style="fill:#046A3A;" points="56.858,79.532 55.566,80.824 58.151,80.824 "/>
<polygon style="fill:#046A3A;" points="75.539,80.823 76.831,79.531 75.546,78.246 75.539,78.241 75.539,78.239 74.246,79.532 
	74.246,79.532 72.952,80.824 75.537,80.824 75.536,80.821 75.539,80.824 75.539,80.824 "/>
<polygon style="fill:#046A3A;" points="36.887,79.532 35.594,80.824 38.18,80.824 "/>
<polygon style="fill:#046A3A;" points="55.566,80.823 56.858,79.531 55.573,78.246 55.566,78.241 55.566,78.239 54.273,79.532 
	54.273,79.532 52.98,80.824 55.564,80.824 55.563,80.821 55.566,80.824 55.566,80.824 "/>
<polygon style="fill:#046A3A;" points="16.915,79.532 15.622,80.824 18.207,80.824 "/>
<polygon style="fill:#046A3A;" points="35.594,80.823 36.887,79.531 35.602,78.246 35.594,78.241 35.594,78.239 34.301,79.532 
	34.301,79.532 33.008,80.824 35.592,80.824 35.591,80.821 35.594,80.824 35.594,80.824 "/>
<polygon style="fill:#046A3A;" points="15.622,80.823 16.914,79.531 15.629,78.246 15.622,78.241 15.622,78.239 14.329,79.532 
	14.329,79.532 13.036,80.824 15.62,80.824 15.619,80.821 15.622,80.824 15.622,80.824 "/>
<polygon style="fill:#046A3A;" points="96.804,80.035 95.511,81.328 98.097,81.328 "/>
<polygon style="fill:#046A3A;" points="76.831,80.035 75.539,81.328 78.124,81.328 "/>
<polygon style="fill:#046A3A;" points="95.511,81.327 96.804,80.034 95.518,78.749 95.511,78.744 95.511,78.742 94.218,80.035 
	94.218,80.035 92.925,81.328 95.509,81.328 95.507,81.325 95.511,81.328 95.511,81.328 "/>
<polygon style="fill:#046A3A;" points="56.858,80.035 55.566,81.328 58.151,81.328 "/>
<polygon style="fill:#046A3A;" points="75.539,81.327 76.831,80.034 75.546,78.749 75.539,78.744 75.539,78.742 74.246,80.035 
	74.246,80.035 72.952,81.328 75.537,81.328 75.536,81.325 75.539,81.328 75.539,81.328 "/>
<polygon style="fill:#046A3A;" points="36.887,80.035 35.594,81.328 38.18,81.328 "/>
<polygon style="fill:#046A3A;" points="55.566,81.327 56.858,80.034 55.573,78.749 55.566,78.744 55.566,78.742 54.273,80.035 
	54.273,80.035 52.98,81.328 55.564,81.328 55.563,81.325 55.566,81.328 55.566,81.328 "/>
<polygon style="fill:#046A3A;" points="16.915,80.035 15.622,81.328 18.207,81.328 "/>
<polygon style="fill:#046A3A;" points="35.594,81.327 36.887,80.034 35.602,78.749 35.594,78.744 35.594,78.742 34.301,80.035 
	34.301,80.035 33.008,81.328 35.592,81.328 35.591,81.325 35.594,81.328 35.594,81.328 "/>
<polygon style="fill:#046A3A;" points="15.622,81.327 16.914,80.034 15.629,78.749 15.622,78.744 15.622,78.742 14.329,80.035 
	14.329,80.035 13.036,81.328 15.62,81.328 15.619,81.325 15.622,81.328 15.622,81.328 "/>
<polygon style="fill:#046A3A;" points="96.804,98.706 95.511,99.999 98.097,99.999 "/>
<polygon style="fill:#046A3A;" points="76.831,98.706 75.539,99.999 78.124,99.999 "/>
<polygon style="fill:#046A3A;" points="95.511,99.998 96.804,98.706 95.518,97.421 95.511,97.416 95.511,97.414 94.218,98.707 
	94.218,98.706 92.925,99.999 95.509,99.999 95.507,99.996 95.511,100 95.511,99.999 "/>
<polygon style="fill:#046A3A;" points="56.858,98.706 55.566,99.999 58.151,99.999 "/>
<polygon style="fill:#046A3A;" points="75.539,99.998 76.831,98.706 75.546,97.421 75.539,97.416 75.539,97.414 74.246,98.707 
	74.246,98.706 72.952,99.999 75.537,99.999 75.536,99.996 75.539,100 75.539,99.999 "/>
<polygon style="fill:#046A3A;" points="36.887,98.706 35.594,99.999 38.18,99.999 "/>
<polygon style="fill:#046A3A;" points="55.566,99.998 56.858,98.706 55.573,97.421 55.566,97.416 55.566,97.414 54.273,98.707 
	54.273,98.706 52.98,99.999 55.564,99.999 55.563,99.996 55.566,100 55.566,99.999 "/>
<polygon style="fill:#046A3A;" points="16.915,98.706 15.622,99.999 18.207,99.999 "/>
<polygon style="fill:#046A3A;" points="35.594,99.998 36.887,98.706 35.602,97.421 35.594,97.416 35.594,97.414 34.301,98.707 
	34.301,98.706 33.008,99.999 35.592,99.999 35.591,99.996 35.594,100 35.594,99.999 "/>
<polygon style="fill:#046A3A;" points="15.622,99.998 16.914,98.706 15.629,97.421 15.622,97.416 15.622,97.414 14.329,98.707 
	14.329,98.706 13.036,99.999 15.62,99.999 15.619,99.996 15.622,100 15.622,99.999 "/>
<polygon style="fill:#046A3A;" points="98.097,0 95.511,0 92.925,0 85.524,7.4 78.124,0 75.539,0 72.952,0 65.553,7.4 58.151,0 
	55.566,0 52.98,0 45.58,7.4 38.18,0 35.594,0 33.008,0 25.607,7.4 18.207,0 15.622,0 13.036,0 5.636,7.4 0.069,1.834 0.069,7.005 
	3.05,9.986 5.636,12.571 8.221,9.986 15.622,2.585 23.022,9.986 25.607,12.571 28.193,9.986 35.594,2.585 42.995,9.986 
	45.58,12.571 48.166,9.986 55.566,2.585 62.967,9.986 65.553,12.571 68.138,9.986 75.539,2.585 82.938,9.986 85.524,12.571 
	88.11,9.986 95.511,2.585 99.931,7.005 99.931,1.834 "/>
<polygon style="fill:#046A3A;" points="96.804,18.938 95.511,20.23 98.097,20.23 "/>
<polygon style="fill:#046A3A;" points="98.097,20.231 95.511,20.231 92.925,20.231 85.524,27.632 78.124,20.231 75.539,20.231 
	72.952,20.231 65.553,27.632 58.151,20.231 55.566,20.231 52.98,20.231 45.58,27.632 38.18,20.231 35.594,20.231 33.008,20.231 
	25.607,27.632 18.207,20.231 15.622,20.231 13.036,20.231 5.636,27.632 0.069,22.066 0.069,27.236 3.05,30.218 5.636,32.803 
	8.221,30.218 15.622,22.817 23.022,30.218 25.607,32.803 28.193,30.218 35.594,22.817 42.995,30.218 45.58,32.803 48.166,30.218 
	55.566,22.817 62.967,30.218 65.553,32.803 68.138,30.218 75.539,22.817 82.938,30.218 85.524,32.803 88.11,30.218 95.511,22.817 
	99.931,27.236 99.931,22.066 "/>
<polygon style="fill:#046A3A;" points="76.831,18.938 75.539,20.23 78.124,20.23 "/>
<polygon style="fill:#046A3A;" points="95.511,20.229 96.804,18.938 95.518,17.652 95.511,17.647 95.511,17.646 94.218,18.938 
	94.218,18.938 92.925,20.23 95.509,20.23 95.507,20.228 95.511,20.231 95.511,20.23 "/>
<polygon style="fill:#046A3A;" points="56.858,18.938 55.566,20.23 58.151,20.23 "/>
<polygon style="fill:#046A3A;" points="75.539,20.229 76.831,18.938 75.546,17.652 75.539,17.647 75.539,17.646 74.246,18.938 
	74.246,18.938 72.952,20.23 75.537,20.23 75.536,20.228 75.539,20.231 75.539,20.23 "/>
<polygon style="fill:#046A3A;" points="36.887,18.938 35.594,20.23 38.18,20.23 "/>
<polygon style="fill:#046A3A;" points="55.566,20.229 56.858,18.938 55.573,17.652 55.566,17.647 55.566,17.646 54.273,18.938 
	54.273,18.938 52.98,20.23 55.564,20.23 55.563,20.228 55.566,20.231 55.566,20.23 "/>
<polygon style="fill:#046A3A;" points="16.915,18.938 15.622,20.23 18.207,20.23 "/>
<polygon style="fill:#046A3A;" points="35.594,20.229 36.887,18.938 35.602,17.652 35.594,17.647 35.594,17.646 34.301,18.938 
	34.301,18.938 33.008,20.23 35.592,20.23 35.591,20.228 35.594,20.231 35.594,20.23 "/>
<polygon style="fill:#046A3A;" points="15.622,20.229 16.914,18.938 15.629,17.652 15.622,17.647 15.622,17.646 14.329,18.938 
	14.329,18.938 13.036,20.23 15.62,20.23 15.619,20.228 15.622,20.231 15.622,20.23 "/>
<polygon style="fill:#046A3A;" points="96.804,29.047 95.511,30.34 98.097,30.34 "/>
<polygon style="fill:#046A3A;" points="95.511,30.34 92.925,30.34 85.525,37.74 78.124,30.34 75.539,30.34 72.952,30.34 
	65.552,37.74 58.151,30.34 55.566,30.34 52.98,30.34 45.58,37.74 38.18,30.34 35.594,30.34 33.008,30.34 25.607,37.74 18.207,30.34 
	15.622,30.34 13.036,30.34 5.636,37.74 0.069,32.174 0.069,37.346 3.05,40.326 5.636,42.911 8.221,40.326 15.622,32.925 
	23.022,40.326 25.607,42.911 28.193,40.326 35.594,32.925 42.995,40.326 45.58,42.911 48.166,40.326 55.566,32.925 62.967,40.326 
	65.552,42.911 68.138,40.326 75.539,32.925 82.938,40.326 85.525,42.911 88.11,40.326 95.511,32.925 99.931,37.346 99.931,32.174 
	98.097,30.34 "/>
<polygon style="fill:#046A3A;" points="76.831,29.047 75.539,30.34 78.124,30.34 "/>
<polygon style="fill:#046A3A;" points="95.511,30.339 96.804,29.046 95.518,27.761 95.511,27.756 95.511,27.755 94.218,29.047 
	94.218,29.047 92.925,30.34 95.509,30.34 95.507,30.337 95.511,30.34 95.511,30.34 "/>
<polygon style="fill:#046A3A;" points="56.858,29.047 55.566,30.34 58.151,30.34 "/>
<polygon style="fill:#046A3A;" points="75.539,30.339 76.831,29.046 75.546,27.761 75.539,27.756 75.539,27.755 74.246,29.047 
	74.246,29.047 72.952,30.34 75.537,30.34 75.536,30.337 75.539,30.34 75.539,30.34 "/>
<polygon style="fill:#046A3A;" points="36.887,29.047 35.594,30.34 38.18,30.34 "/>
<polygon style="fill:#046A3A;" points="55.566,30.339 56.858,29.046 55.573,27.761 55.566,27.756 55.566,27.755 54.273,29.047 
	54.273,29.047 52.98,30.34 55.564,30.34 55.563,30.337 55.566,30.34 55.566,30.34 "/>
<polygon style="fill:#046A3A;" points="16.915,29.047 15.622,30.34 18.207,30.34 "/>
<polygon style="fill:#046A3A;" points="35.594,30.339 36.887,29.046 35.602,27.761 35.594,27.756 35.594,27.755 34.301,29.047 
	34.301,29.047 33.008,30.34 35.592,30.34 35.591,30.337 35.594,30.34 35.594,30.34 "/>
<polygon style="fill:#046A3A;" points="15.622,30.339 16.914,29.046 15.629,27.761 15.622,27.756 15.622,27.755 14.329,29.047 
	14.329,29.047 13.036,30.34 15.62,30.34 15.619,30.337 15.622,30.34 15.622,30.34 "/>
<polygon style="fill:#046A3A;" points="15.622,50.814 16.914,49.522 15.629,48.235 15.622,48.232 15.622,48.23 14.329,49.523 
	14.329,49.523 13.036,50.815 15.62,50.815 15.619,50.813 15.622,50.815 15.622,50.815 "/>
<polygon style="fill:#046A3A;" points="15.622,70.786 16.914,69.494 15.629,68.209 15.622,68.204 15.622,68.203 14.329,69.495 
	14.329,69.495 13.036,70.788 15.62,70.788 15.619,70.786 15.622,70.788 15.622,70.788 "/>
<polygon style="fill:#046A3A;" points="96.804,89.568 95.511,90.861 98.097,90.861 "/>
<polygon style="fill:#046A3A;" points="95.511,90.861 92.925,90.861 85.525,98.262 78.124,90.861 75.539,90.861 72.952,90.861 
	65.552,98.262 58.151,90.861 55.566,90.861 52.98,90.861 45.58,98.262 38.18,90.861 35.594,90.861 33.008,90.861 25.607,98.262 
	18.207,90.861 15.622,90.861 13.036,90.861 5.636,98.262 0.069,92.695 0.069,97.867 2.185,99.982 9.086,99.982 15.622,93.446 
	22.157,99.982 29.059,99.982 35.594,93.446 42.129,99.982 49.031,99.982 55.566,93.446 62.102,99.982 69.003,99.982 75.539,93.446 
	82.073,99.982 88.976,99.982 95.511,93.446 99.931,97.867 99.931,92.695 98.097,90.861 "/>
<polygon style="fill:#046A3A;" points="76.831,89.568 75.539,90.861 78.124,90.861 "/>
<polygon style="fill:#046A3A;" points="95.511,90.86 96.804,89.567 95.518,88.282 95.511,88.277 95.511,88.276 94.218,89.569 
	94.218,89.568 92.925,90.861 95.509,90.861 95.507,90.858 95.511,90.861 95.511,90.861 "/>
<polygon style="fill:#046A3A;" points="56.858,89.568 55.566,90.861 58.151,90.861 "/>
<polygon style="fill:#046A3A;" points="75.539,90.86 76.831,89.567 75.546,88.282 75.539,88.277 75.539,88.276 74.246,89.569 
	74.246,89.568 72.952,90.861 75.537,90.861 75.536,90.858 75.539,90.861 75.539,90.861 "/>
<polygon style="fill:#046A3A;" points="36.887,89.568 35.594,90.861 38.18,90.861 "/>
<polygon style="fill:#046A3A;" points="55.566,90.86 56.858,89.567 55.573,88.282 55.566,88.277 55.566,88.276 54.273,89.569 
	54.273,89.568 52.98,90.861 55.564,90.861 55.563,90.858 55.566,90.861 55.566,90.861 "/>
<polygon style="fill:#046A3A;" points="16.915,89.568 15.622,90.861 18.207,90.861 "/>
<polygon style="fill:#046A3A;" points="35.594,90.86 36.887,89.567 35.602,88.282 35.594,88.277 35.594,88.276 34.301,89.569 
	34.301,89.568 33.008,90.861 35.592,90.861 35.591,90.858 35.594,90.861 35.594,90.861 "/>
<polygon style="fill:#046A3A;" points="15.622,90.86 16.914,89.567 15.629,88.282 15.622,88.277 15.622,88.276 14.329,89.569 
	14.329,89.568 13.036,90.861 15.62,90.861 15.619,90.858 15.622,90.861 15.622,90.861 "/>
</svg>
